<svg width="672" height="105" viewBox="0 0 672 105" fill="none" xmlns="http://www.w3.org/2000/svg">
<path d="M0.832031 22.0898V15.5859C2.12109 15.4219 3.22266 15.3047 4.13672 15.2344C5.05078 15.1406 5.90625 15.0703 6.70312 15.0234C13.3125 14.4141 19.3945 12.9727 24.9492 10.6992C30.5273 8.40234 34.4883 5.23828 36.832 1.20703H42.1406V89.168C42.1406 91.4414 42.7148 93.0234 43.8633 93.9141C45.0352 94.7812 46.9102 95.2148 49.4883 95.2148H61.0195V102H1.11328V95.2148H12.6094C15.1875 95.2148 17.0508 94.7812 18.1992 93.9141C19.3711 93.0469 19.957 91.4648 19.957 89.168V27.5391C19.957 25.1953 19.5117 23.707 18.6211 23.0742C17.7305 22.418 16.1133 22.0898 13.7695 22.0898H0.832031ZM135.41 22.0898V15.5859C136.699 15.4219 137.801 15.3047 138.715 15.2344C139.629 15.1406 140.484 15.0703 141.281 15.0234C147.891 14.4141 153.973 12.9727 159.527 10.6992C165.105 8.40234 169.066 5.23828 171.41 1.20703H176.719V89.168C176.719 91.4414 177.293 93.0234 178.441 93.9141C179.613 94.7812 181.488 95.2148 184.066 95.2148H195.598V102H135.691V95.2148H147.188C149.766 95.2148 151.629 94.7812 152.777 93.9141C153.949 93.0469 154.535 91.4648 154.535 89.168V27.5391C154.535 25.1953 154.09 23.707 153.199 23.0742C152.309 22.418 150.691 22.0898 148.348 22.0898H135.41ZM229.559 21.9492L226.852 41.8125H227.273C233.789 37.2891 241.184 35.0273 249.457 35.0273C256.043 35.0273 261.609 36.2344 266.156 38.6484C270.703 41.0391 274.219 44.1094 276.703 47.8594C279.188 51.5859 280.945 55.582 281.977 59.8477C283.031 64.1133 283.559 68.3203 283.559 72.4688C283.559 78.2344 281.883 83.6133 278.531 88.6055C275.18 93.5742 270.633 97.5352 264.891 100.488C259.148 103.418 252.938 104.883 246.258 104.883C241.922 104.883 237.422 104.227 232.758 102.914C228.117 101.625 224.133 99.4453 220.805 96.375C215.602 91.6172 213 86.25 213 80.2734C213 76.1016 214.266 72.7969 216.797 70.3594C219.328 67.9219 222.246 66.7031 225.551 66.7031C229.91 66.7031 232.992 67.9688 234.797 70.5C236.602 73.0312 237.504 75.8086 237.504 78.832C237.504 79.9102 237.07 81.2461 236.203 82.8398C235.383 84.4805 233.988 86.0156 232.02 87.4453C230.004 88.875 228.996 90.0352 228.996 90.9258C228.996 92.1914 230.133 93.6094 232.406 95.1797C234.68 96.75 237.82 97.5352 241.828 97.5352C244.922 97.5352 247.887 96.7383 250.723 95.1445C253.559 93.5273 255.902 90.7852 257.754 86.918C259.605 83.0508 260.531 78 260.531 71.7656C260.531 64.3125 259.559 58.5234 257.613 54.3984C255.691 50.2734 253.359 47.5078 250.617 46.1016C247.898 44.6719 245.016 43.957 241.969 43.957C238.5 43.957 235.184 44.8242 232.02 46.5586C228.879 48.293 226.816 50.4961 225.832 53.168C225.715 53.3789 225.48 53.7891 225.129 54.3984C224.801 54.9844 224.344 55.5117 223.758 55.9805C223.195 56.4258 222.492 56.6484 221.648 56.6484C218.859 56.6484 217.465 55.2539 217.465 52.4648C217.465 51.7148 217.805 50.6602 218.484 49.3008C219.07 48.082 219.504 46.6406 219.785 44.9766L225.551 2.92969H230.859C232.945 5.03906 235.852 6.59766 239.578 7.60547C243.305 8.61328 247.219 9.11719 251.32 9.11719C259.078 9.11719 265.418 6.33984 270.34 0.785156H278.391C276.398 6.94922 273.586 11.6484 269.953 14.8828C266.344 18.1172 262.301 20.2734 257.824 21.3516C253.348 22.4062 248.203 22.9336 242.391 22.9336C238.875 22.9336 234.598 22.6055 229.559 21.9492ZM332.109 104.883C326.297 104.883 320.977 103.523 316.148 100.805C311.32 98.0859 307.184 94.3008 303.738 89.4492C300.316 84.5977 297.703 79.0312 295.898 72.75C294.117 66.4688 293.227 59.8945 293.227 53.0273C293.227 41.7539 295.172 32.2031 299.062 24.375C302.977 16.5469 307.91 10.7344 313.863 6.9375C319.84 3.11719 325.781 1.20703 331.688 1.20703C336.68 1.20703 341.473 2.35547 346.066 4.65234C350.684 6.94922 354.844 10.3594 358.547 14.8828C362.25 19.3828 365.156 24.8555 367.266 31.3008C369.375 37.7461 370.43 44.9883 370.43 53.0273C370.43 60.0117 369.527 66.6094 367.723 72.8203C365.941 79.0312 363.363 84.5508 359.988 89.3789C356.637 94.207 352.57 98.0039 347.789 100.77C343.008 103.512 337.781 104.883 332.109 104.883ZM331.828 98.0977C336.328 98.0977 339.645 96.4219 341.777 93.0703C343.91 89.6953 345.211 85.8281 345.68 81.4688C346.172 77.1094 346.5 71.1328 346.664 63.5391C346.664 61.2891 346.688 59.2266 346.734 57.3516C346.781 55.4766 346.805 54.1406 346.805 53.3438C346.805 52.5234 346.781 51.1758 346.734 49.3008C346.688 47.4258 346.664 45.5039 346.664 43.5352C346.523 39.1523 346.277 34.7812 345.926 30.4219C345.527 25.8047 345.035 22.0898 344.449 19.2773C343.887 16.4648 342.609 13.875 340.617 11.5078C338.625 9.14062 335.695 7.95703 331.828 7.95703C325.711 7.95703 321.68 11.2734 319.734 17.9062C317.812 24.5391 316.852 36.3516 316.852 53.3438C316.852 54.1406 316.875 55.4766 316.922 57.3516C316.969 59.2266 316.992 61.2891 316.992 63.5391C317.109 69.3984 317.273 73.9805 317.484 77.2852C317.719 80.5664 318.281 83.8359 319.172 87.0938C320.086 90.3281 321.562 92.9766 323.602 95.0391C325.664 97.0781 328.406 98.0977 331.828 98.0977ZM466.266 104.883C460.453 104.883 455.133 103.523 450.305 100.805C445.477 98.0859 441.34 94.3008 437.895 89.4492C434.473 84.5977 431.859 79.0312 430.055 72.75C428.273 66.4688 427.383 59.8945 427.383 53.0273C427.383 41.7539 429.328 32.2031 433.219 24.375C437.133 16.5469 442.066 10.7344 448.02 6.9375C453.996 3.11719 459.938 1.20703 465.844 1.20703C470.836 1.20703 475.629 2.35547 480.223 4.65234C484.84 6.94922 489 10.3594 492.703 14.8828C496.406 19.3828 499.312 24.8555 501.422 31.3008C503.531 37.7461 504.586 44.9883 504.586 53.0273C504.586 60.0117 503.684 66.6094 501.879 72.8203C500.098 79.0312 497.52 84.5508 494.145 89.3789C490.793 94.207 486.727 98.0039 481.945 100.77C477.164 103.512 471.938 104.883 466.266 104.883ZM465.984 98.0977C470.484 98.0977 473.801 96.4219 475.934 93.0703C478.066 89.6953 479.367 85.8281 479.836 81.4688C480.328 77.1094 480.656 71.1328 480.82 63.5391C480.82 61.2891 480.844 59.2266 480.891 57.3516C480.938 55.4766 480.961 54.1406 480.961 53.3438C480.961 52.5234 480.938 51.1758 480.891 49.3008C480.844 47.4258 480.82 45.5039 480.82 43.5352C480.68 39.1523 480.434 34.7812 480.082 30.4219C479.684 25.8047 479.191 22.0898 478.605 19.2773C478.043 16.4648 476.766 13.875 474.773 11.5078C472.781 9.14062 469.852 7.95703 465.984 7.95703C459.867 7.95703 455.836 11.2734 453.891 17.9062C451.969 24.5391 451.008 36.3516 451.008 53.3438C451.008 54.1406 451.031 55.4766 451.078 57.3516C451.125 59.2266 451.148 61.2891 451.148 63.5391C451.266 69.3984 451.43 73.9805 451.641 77.2852C451.875 80.5664 452.438 83.8359 453.328 87.0938C454.242 90.3281 455.719 92.9766 457.758 95.0391C459.82 97.0781 462.562 98.0977 465.984 98.0977ZM549.797 104.883C543.984 104.883 538.664 103.523 533.836 100.805C529.008 98.0859 524.871 94.3008 521.426 89.4492C518.004 84.5977 515.391 79.0312 513.586 72.75C511.805 66.4688 510.914 59.8945 510.914 53.0273C510.914 41.7539 512.859 32.2031 516.75 24.375C520.664 16.5469 525.598 10.7344 531.551 6.9375C537.527 3.11719 543.469 1.20703 549.375 1.20703C554.367 1.20703 559.16 2.35547 563.754 4.65234C568.371 6.94922 572.531 10.3594 576.234 14.8828C579.938 19.3828 582.844 24.8555 584.953 31.3008C587.062 37.7461 588.117 44.9883 588.117 53.0273C588.117 60.0117 587.215 66.6094 585.41 72.8203C583.629 79.0312 581.051 84.5508 577.676 89.3789C574.324 94.207 570.258 98.0039 565.477 100.77C560.695 103.512 555.469 104.883 549.797 104.883ZM549.516 98.0977C554.016 98.0977 557.332 96.4219 559.465 93.0703C561.598 89.6953 562.898 85.8281 563.367 81.4688C563.859 77.1094 564.188 71.1328 564.352 63.5391C564.352 61.2891 564.375 59.2266 564.422 57.3516C564.469 55.4766 564.492 54.1406 564.492 53.3438C564.492 52.5234 564.469 51.1758 564.422 49.3008C564.375 47.4258 564.352 45.5039 564.352 43.5352C564.211 39.1523 563.965 34.7812 563.613 30.4219C563.215 25.8047 562.723 22.0898 562.137 19.2773C561.574 16.4648 560.297 13.875 558.305 11.5078C556.312 9.14062 553.383 7.95703 549.516 7.95703C543.398 7.95703 539.367 11.2734 537.422 17.9062C535.5 24.5391 534.539 36.3516 534.539 53.3438C534.539 54.1406 534.562 55.4766 534.609 57.3516C534.656 59.2266 534.68 61.2891 534.68 63.5391C534.797 69.3984 534.961 73.9805 535.172 77.2852C535.406 80.5664 535.969 83.8359 536.859 87.0938C537.773 90.3281 539.25 92.9766 541.289 95.0391C543.352 97.0781 546.094 98.0977 549.516 98.0977ZM633.328 104.883C627.516 104.883 622.195 103.523 617.367 100.805C612.539 98.0859 608.402 94.3008 604.957 89.4492C601.535 84.5977 598.922 79.0312 597.117 72.75C595.336 66.4688 594.445 59.8945 594.445 53.0273C594.445 41.7539 596.391 32.2031 600.281 24.375C604.195 16.5469 609.129 10.7344 615.082 6.9375C621.059 3.11719 627 1.20703 632.906 1.20703C637.898 1.20703 642.691 2.35547 647.285 4.65234C651.902 6.94922 656.062 10.3594 659.766 14.8828C663.469 19.3828 666.375 24.8555 668.484 31.3008C670.594 37.7461 671.648 44.9883 671.648 53.0273C671.648 60.0117 670.746 66.6094 668.941 72.8203C667.16 79.0312 664.582 84.5508 661.207 89.3789C657.855 94.207 653.789 98.0039 649.008 100.77C644.227 103.512 639 104.883 633.328 104.883ZM633.047 98.0977C637.547 98.0977 640.863 96.4219 642.996 93.0703C645.129 89.6953 646.43 85.8281 646.898 81.4688C647.391 77.1094 647.719 71.1328 647.883 63.5391C647.883 61.2891 647.906 59.2266 647.953 57.3516C648 55.4766 648.023 54.1406 648.023 53.3438C648.023 52.5234 648 51.1758 647.953 49.3008C647.906 47.4258 647.883 45.5039 647.883 43.5352C647.742 39.1523 647.496 34.7812 647.145 30.4219C646.746 25.8047 646.254 22.0898 645.668 19.2773C645.105 16.4648 643.828 13.875 641.836 11.5078C639.844 9.14062 636.914 7.95703 633.047 7.95703C626.93 7.95703 622.898 11.2734 620.953 17.9062C619.031 24.5391 618.07 36.3516 618.07 53.3438C618.07 54.1406 618.094 55.4766 618.141 57.3516C618.188 59.2266 618.211 61.2891 618.211 63.5391C618.328 69.3984 618.492 73.9805 618.703 77.2852C618.938 80.5664 619.5 83.8359 620.391 87.0938C621.305 90.3281 622.781 92.9766 624.82 95.0391C626.883 97.0781 629.625 98.0977 633.047 98.0977Z" fill="#59443F"/>
</svg>
