<svg width="325" height="107" viewBox="0 0 325 107" fill="none" xmlns="http://www.w3.org/2000/svg">
<g filter="url(#filter0_d_200_201)">
<rect x="20" y="16" width="284.534" height="66.9999" rx="33.4999" fill="#FFC59E"/>
</g>
<path d="M99.66 47.34L98.32 44.8C98.84 44.44 99.4534 44.1267 100.16 43.86C101.067 43.5267 102.007 43.36 102.98 43.36C104.54 43.36 105.733 43.76 106.56 44.56C107.227 45.1867 107.56 46.0267 107.56 47.08C107.56 47.8133 107.367 48.4533 106.98 49C106.66 49.4667 106.247 49.82 105.74 50.06V50.12C106.327 50.3067 106.82 50.5867 107.22 50.96C107.86 51.5733 108.18 52.32 108.18 53.2C108.18 54.56 107.627 55.62 106.52 56.38C105.64 56.9933 104.387 57.3 102.76 57.3C101.547 57.3 100.473 57.1067 99.54 56.72C98.74 56.3867 98.0067 55.92 97.34 55.32L99.1 52.8C99.5 53.2533 99.9667 53.6267 100.5 53.92C101.073 54.2133 101.673 54.36 102.3 54.36C102.913 54.36 103.4 54.2467 103.76 54.02C104.173 53.7667 104.38 53.4 104.38 52.92C104.38 52.5067 104.18 52.1733 103.78 51.92C103.46 51.7067 102.913 51.6 102.14 51.6H100.84V48.92H101.7C102.713 48.92 103.407 48.7333 103.78 48.36C104.007 48.1333 104.12 47.8533 104.12 47.52C104.12 47.1467 103.947 46.8333 103.6 46.58C103.28 46.3533 102.853 46.24 102.32 46.24C101.76 46.24 101.24 46.36 100.76 46.6C100.413 46.7733 100.047 47.02 99.66 47.34ZM119.099 57L118.279 54.76H113.439L112.539 57H108.879L113.999 43.66H117.779L122.799 57H119.099ZM114.399 52.12H117.359L115.859 47.8L114.399 52.12ZM136.058 57H132.578V46.62H127.798V57H124.338V43.66H136.058V57ZM138.85 43.66H142.33V52.06L147.33 43.66H150.87V57H147.39V48.6L142.39 57H138.85V43.66ZM163.254 52.54V56.64C162.041 57.08 161.041 57.3 160.254 57.3C158.174 57.3 156.454 56.6333 155.094 55.3C154.454 54.66 153.954 53.9133 153.594 53.06C153.248 52.1933 153.074 51.32 153.074 50.44C153.074 49.52 153.254 48.6267 153.614 47.76C153.988 46.8933 154.481 46.1467 155.094 45.52C156.454 44.1333 158.134 43.44 160.134 43.44C161.108 43.44 162.148 43.6667 163.254 44.12V48.26C162.468 47.2867 161.461 46.8 160.234 46.8C159.288 46.8 158.488 47.0933 157.834 47.68C157.061 48.4 156.674 49.3133 156.674 50.42C156.674 51.4733 157.034 52.34 157.754 53.02C158.408 53.6333 159.234 53.94 160.234 53.94C161.394 53.94 162.401 53.4733 163.254 52.54ZM174.412 57L173.592 54.76H168.752L167.852 57H164.192L169.312 43.66H173.092L178.112 57H174.412ZM169.712 52.12H172.672L171.172 47.8L169.712 52.12ZM186.789 46.6H183.909V57H180.449V46.6H177.629V43.66H186.789V46.6ZM188.303 57V43.66H191.783V48.86H193.463C195.277 48.86 196.603 49.2733 197.443 50.1C198.15 50.8067 198.503 51.7467 198.503 52.92C198.503 54.1067 198.163 55.04 197.483 55.72C196.63 56.5733 195.223 57 193.263 57H188.303ZM191.783 54.32H193.123C193.857 54.32 194.357 54.1867 194.623 53.92C194.863 53.68 194.983 53.3467 194.983 52.92C194.983 52.4933 194.857 52.1667 194.603 51.94C194.323 51.6733 193.83 51.54 193.123 51.54H191.783V54.32ZM210.051 52.54V56.64C208.838 57.08 207.838 57.3 207.051 57.3C204.971 57.3 203.251 56.6333 201.891 55.3C201.251 54.66 200.751 53.9133 200.391 53.06C200.045 52.1933 199.871 51.32 199.871 50.44C199.871 49.52 200.051 48.6267 200.411 47.76C200.785 46.8933 201.278 46.1467 201.891 45.52C203.251 44.1333 204.931 43.44 206.931 43.44C207.905 43.44 208.945 43.6667 210.051 44.12V48.26C209.265 47.2867 208.258 46.8 207.031 46.8C206.085 46.8 205.285 47.0933 204.631 47.68C203.858 48.4 203.471 49.3133 203.471 50.42C203.471 51.4733 203.831 52.34 204.551 53.02C205.205 53.6333 206.031 53.94 207.031 53.94C208.191 53.94 209.198 53.4733 210.051 52.54ZM211.129 57L214.849 51.98C214.075 51.8467 213.415 51.5 212.869 50.94C212.175 50.2333 211.829 49.3 211.829 48.14C211.829 46.82 212.195 45.7733 212.929 45C213.769 44.1067 215.015 43.66 216.669 43.66H221.809V57H218.329V52.46H217.989L215.129 57H211.129ZM218.329 49.78V46.58H217.349C216.682 46.58 216.182 46.7333 215.849 47.04C215.542 47.32 215.389 47.7 215.389 48.18C215.389 48.66 215.529 49.04 215.809 49.32C216.129 49.6267 216.642 49.78 217.349 49.78H218.329Z" fill="white"/>
<defs>
<filter id="filter0_d_200_201" x="0" y="0" width="324.534" height="107" filterUnits="userSpaceOnUse" color-interpolation-filters="sRGB">
<feFlood flood-opacity="0" result="BackgroundImageFix"/>
<feColorMatrix in="SourceAlpha" type="matrix" values="0 0 0 0 0 0 0 0 0 0 0 0 0 0 0 0 0 0 127 0" result="hardAlpha"/>
<feOffset dy="4"/>
<feGaussianBlur stdDeviation="10"/>
<feColorMatrix type="matrix" values="0 0 0 0 1 0 0 0 0 0.772549 0 0 0 0 0.619608 0 0 0 1 0"/>
<feBlend mode="normal" in2="BackgroundImageFix" result="effect1_dropShadow_200_201"/>
<feBlend mode="normal" in="SourceGraphic" in2="effect1_dropShadow_200_201" result="shape"/>
</filter>
</defs>
</svg>
