<svg width="340" height="240" viewBox="0 0 340 240" fill="none" xmlns="http://www.w3.org/2000/svg">
<g filter="url(#filter0_d_302_1532)">
<rect x="8" y="8" width="320" height="220" rx="20" fill="white"/>
</g>
<mask id="mask0_302_1532" style="mask-type:alpha" maskUnits="userSpaceOnUse" x="8" y="8" width="320" height="220">
<rect x="8" y="8" width="320" height="220" rx="20" fill="#FFFEFE"/>
</mask>
<g mask="url(#mask0_302_1532)">
<path d="M287.887 126.441C279.002 126.441 271.773 133.67 271.773 142.555C271.773 150.336 277.318 156.847 284.664 158.344V191.109C284.664 194.663 281.773 197.555 278.219 197.555C274.665 197.555 271.773 194.663 271.773 191.109C271.773 184.16 271.773 191.08 271.773 178.219C271.773 171.111 265.991 165.328 258.883 165.328C251.775 165.328 245.992 171.111 245.992 178.219C245.992 182.794 245.992 186.53 245.992 191.109C245.992 194.663 243.101 197.555 239.547 197.555C235.937 197.555 232.887 194.603 232.887 191.109V164.942C236.779 164.011 240.29 161.446 242.324 157.887C242.324 157.887 262.815 121.82 263.562 120.506C264.718 118.483 265.328 116.183 265.328 113.854C265.328 106.634 259.592 100.732 252.438 100.458V97.2227C252.438 95.4429 250.995 94 249.215 94C247.435 94 245.992 95.4429 245.992 97.2227V110.113C245.992 111.893 247.435 113.336 249.215 113.336C250.995 113.336 252.438 111.893 252.438 110.113V106.912C256.036 107.178 258.883 110.188 258.883 113.854C258.883 115.063 258.566 116.258 257.962 117.315L245.453 139.332H213.875L201.363 117.308C200.763 116.258 200.445 115.063 200.445 113.854C200.445 110.188 203.292 107.178 206.891 106.912V110.113C206.891 111.893 208.334 113.336 210.113 113.336C211.893 113.336 213.336 111.893 213.336 110.113V97.2227C213.336 95.4429 211.893 94 210.113 94C208.334 94 206.891 95.4429 206.891 97.2227V100.458C199.737 100.732 194 106.634 194 113.854C194 116.183 194.611 118.483 195.763 120.499C196.368 121.565 217.008 157.894 217.008 157.894C219.039 161.448 222.549 164.012 226.441 164.943V191.109C226.441 198.276 232.458 204 239.547 204C246.655 204 252.438 198.217 252.438 191.109C252.438 184.16 252.438 191.08 252.438 178.219C252.438 174.665 255.329 171.773 258.883 171.773C262.437 171.773 265.328 174.665 265.328 178.219C265.328 182.794 265.328 186.53 265.328 191.109C265.328 198.217 271.111 204 278.219 204C285.327 204 291.109 198.217 291.109 191.109V158.344C298.455 156.847 304 150.336 304 142.555C304 133.67 296.772 126.441 287.887 126.441ZM229.664 158.883C226.873 158.883 224.035 157.2 222.608 154.703L217.537 145.777H241.791L236.724 154.696C235.293 157.2 232.456 158.883 229.664 158.883ZM287.887 152.223C282.556 152.223 278.219 147.886 278.219 142.555C278.219 137.224 282.556 132.887 287.887 132.887C293.218 132.887 297.555 137.224 297.555 142.555C297.555 147.886 293.218 152.223 287.887 152.223Z" fill="#FFC59E"/>
<path d="M287.887 145.777C289.667 145.777 291.109 144.335 291.109 142.555C291.109 140.775 289.667 139.332 287.887 139.332C286.107 139.332 284.664 140.775 284.664 142.555C284.664 144.335 286.107 145.777 287.887 145.777Z" fill="#FFC59E"/>
</g>
<path d="M33.0767 39.6021H50.7207V47.4609H49.2192C49.1851 45.8398 48.9067 44.5312 48.3843 43.5352C47.8618 42.5342 47.249 41.8286 46.5459 41.4185C45.8477 41.0083 45.1885 40.8032 44.5684 40.8032C44.2021 40.8032 43.9458 40.8789 43.7993 41.0303C43.6528 41.1816 43.5796 41.4355 43.5796 41.792V57.1802C43.5796 57.6733 43.6602 58.0322 43.8213 58.2568C43.9824 58.4766 44.3926 58.5864 45.0518 58.5864H46.7876V60H37.0098V58.5864H38.7529C39.4072 58.5864 39.8149 58.4766 39.9761 58.2568C40.1372 58.0322 40.2178 57.6733 40.2178 57.1802V41.792C40.2178 41.416 40.1396 41.1572 39.9834 41.0156C39.8271 40.874 39.5757 40.8032 39.229 40.8032C38.6138 40.8032 37.9546 41.0059 37.2515 41.4111C36.5532 41.8164 35.9429 42.5171 35.4204 43.5132C34.8979 44.5093 34.6172 45.8252 34.5781 47.4609H33.0767V39.6021ZM63.7725 56.0083L64.9736 56.6382C63.8945 59.1577 61.9438 60.4175 59.1216 60.4175C57.8569 60.4175 56.7461 60.1123 55.7891 59.502C54.8369 58.8867 54.1045 58.0273 53.5918 56.9238C53.0791 55.8154 52.8228 54.5605 52.8228 53.1592C52.8228 51.8652 53.0815 50.6641 53.5991 49.5557C54.1167 48.4424 54.8638 47.5562 55.8403 46.897C56.8169 46.2329 57.9619 45.9009 59.2754 45.9009C60.6035 45.9009 61.7192 46.2305 62.6226 46.8896C63.5308 47.5488 64.1997 48.4009 64.6294 49.4458C65.0591 50.4858 65.2739 51.5747 65.2739 52.7124V53.4009H55.9429C55.9429 55.2173 56.27 56.6162 56.9243 57.5977C57.5835 58.5791 58.438 59.0698 59.4878 59.0698C60.5913 59.0698 61.502 58.7402 62.2197 58.0811C62.9375 57.417 63.4551 56.7261 63.7725 56.0083ZM55.9429 52.0532H61.707C62.0391 52.0532 62.2173 51.8628 62.2417 51.4819V50.9106C62.1587 49.7241 61.8291 48.8184 61.2529 48.1934C60.6768 47.5635 59.998 47.2485 59.2168 47.2485C58.3428 47.2485 57.5933 47.6782 56.9683 48.5376C56.3481 49.397 56.0063 50.5688 55.9429 52.0532ZM67.2661 46.3184L72.188 45.9009V47.9736C73.2476 46.5918 74.5366 45.9009 76.0552 45.9009C77.1978 45.9009 78.1816 46.1279 79.0068 46.582C79.832 47.0361 80.4961 47.6343 80.999 48.3765C81.5068 49.1187 81.8755 49.9292 82.105 50.8081C82.3345 51.6821 82.4492 52.5464 82.4492 53.4009C82.4492 54.2017 82.3125 55.0146 82.0391 55.8398C81.7705 56.665 81.3652 57.4268 80.8232 58.125C80.2861 58.8232 79.6147 59.3799 78.8091 59.7949C78.0034 60.21 77.0854 60.4175 76.0552 60.4175C74.3413 60.4175 73.062 59.6875 72.2173 58.2275H71.9756L72.188 59.4873V63.1201C72.188 63.5303 72.2612 63.7866 72.4077 63.8892C72.5591 63.9966 72.835 64.0503 73.2354 64.0503H74.9199V65.3687H67.2368V64.0503H68.5552C68.9507 64.0503 69.2241 63.999 69.3755 63.8965C69.5317 63.7939 69.6099 63.5352 69.6099 63.1201V48.5669C69.6099 48.1519 69.5342 47.8931 69.3828 47.7905C69.2314 47.688 68.9556 47.6367 68.5552 47.6367H67.2661V46.3184ZM72.188 53.2471C72.188 54.5459 72.3564 55.6348 72.6934 56.5137C73.0303 57.3877 73.4697 58.0322 74.0117 58.4473C74.5537 58.8623 75.1348 59.0698 75.7549 59.0698C76.6289 59.0698 77.4419 58.6694 78.1938 57.8687C78.9507 57.063 79.3291 55.5127 79.3291 53.2178C79.3291 50.8447 78.9653 49.2578 78.2378 48.457C77.5103 47.6514 76.6826 47.2485 75.7549 47.2485C74.8564 47.2485 74.0361 47.6782 73.2939 48.5376C72.5566 49.397 72.188 50.9668 72.188 53.2471ZM98.5625 58.3228L99.1338 58.9526C98.4795 59.5386 97.9595 59.9292 97.5737 60.1245C97.188 60.3198 96.7095 60.4175 96.1382 60.4175C95.3228 60.4175 94.7393 60.1758 94.3877 59.6924C94.0361 59.2041 93.8286 58.667 93.7651 58.0811H93.582C92.5176 59.6387 90.9087 60.4175 88.7554 60.4175C87.1978 60.4175 86.1235 60.0562 85.5327 59.3335C84.9419 58.6108 84.6465 57.8027 84.6465 56.9092C84.6465 56.167 84.8735 55.4932 85.3276 54.8877C85.7866 54.2773 86.4165 53.7451 87.2173 53.291C88.0181 52.8369 88.9556 52.4463 90.0298 52.1191C91.1089 51.7871 92.2832 51.5137 93.5527 51.2988V50.127C93.5527 49.1113 93.2476 48.374 92.6372 47.915C92.0269 47.4512 91.2627 47.2192 90.3447 47.2192C89.9248 47.2192 89.5122 47.2754 89.1069 47.3877C88.7065 47.5 88.3818 47.6538 88.1328 47.8491C87.8887 48.0396 87.7666 48.2397 87.7666 48.4497C87.7666 48.6157 87.8667 48.7549 88.0669 48.8672C88.3354 49.043 88.5454 49.2188 88.6968 49.3945C88.853 49.5703 88.9312 49.8047 88.9312 50.0977C88.9312 50.5273 88.7871 50.8911 88.499 51.189C88.2158 51.4819 87.8618 51.6284 87.437 51.6284C86.9976 51.6284 86.5874 51.4819 86.2065 51.189C85.8257 50.896 85.6353 50.4932 85.6353 49.9805C85.6353 49.3164 85.8354 48.667 86.2358 48.0322C86.6411 47.3975 87.2319 46.8848 88.0083 46.4941C88.7847 46.0986 89.7026 45.9009 90.7622 45.9009C94.3462 45.9009 96.1382 47.5513 96.1382 50.8521V57.5098C96.1382 58.5498 96.4775 59.0698 97.1562 59.0698C97.6348 59.0698 98.1035 58.8208 98.5625 58.3228ZM93.5527 54.8071V52.5586C92.4102 52.7686 91.4189 53.0298 90.5791 53.3423C89.7393 53.6499 89.0605 54.0625 88.543 54.5801C88.0254 55.0928 87.7666 55.7104 87.7666 56.4331C87.7666 57.1655 87.9595 57.7881 88.3452 58.3008C88.731 58.8135 89.2681 59.0698 89.9565 59.0698C90.5327 59.0698 91.0991 58.8989 91.6558 58.5571C92.2124 58.2104 92.6665 57.7124 93.0181 57.063C93.3745 56.4136 93.5527 55.6616 93.5527 54.8071ZM110.311 47.6367H106.319C105.918 47.6367 105.643 47.688 105.491 47.7905C105.345 47.8931 105.271 48.1519 105.271 48.5669V57.7515C105.271 58.1616 105.345 58.4204 105.491 58.5278C105.643 58.6304 105.918 58.6816 106.319 58.6816H107.637V60H100.32V58.6816H101.639C102.034 58.6816 102.308 58.6304 102.459 58.5278C102.61 58.4253 102.686 58.1665 102.686 57.7515V48.5669C102.686 48.1519 102.61 47.8931 102.459 47.7905C102.312 47.688 102.039 47.6367 101.639 47.6367H100.32V46.3184H116.309V47.6367H114.991C114.59 47.6367 114.314 47.688 114.163 47.7905C114.012 47.8931 113.936 48.1519 113.936 48.5669V57.7515C113.936 58.1616 114.012 58.4204 114.163 58.5278C114.319 58.6304 114.595 58.6816 114.991 58.6816H116.309V60H108.985V58.6816H110.311C110.706 58.6816 110.979 58.6304 111.131 58.5278C111.282 58.4253 111.358 58.1665 111.358 57.7515V48.5669C111.358 48.1519 111.282 47.8931 111.131 47.7905C110.984 47.688 110.711 47.6367 110.311 47.6367ZM123.611 56.1914L129.727 48.7207C129.966 48.4424 130.086 48.1812 130.086 47.937C129.988 47.7368 129.739 47.6367 129.339 47.6367H127.75V46.3184H135.066V47.6367H133.748C133.348 47.6367 133.072 47.688 132.92 47.7905C132.774 47.8931 132.701 48.1519 132.701 48.5669V57.7515C132.701 58.1616 132.774 58.4204 132.92 58.5278C133.072 58.6304 133.348 58.6816 133.748 58.6816H135.066V60H127.75V58.6816H129.068C129.463 58.6816 129.737 58.6304 129.888 58.5278C130.04 58.4253 130.115 58.1665 130.115 57.7515V50.127L123.941 57.5977C123.721 57.8711 123.611 58.0908 123.611 58.2568C123.611 58.54 123.931 58.6816 124.571 58.6816H125.948V60H118.66V58.6816H119.979C120.374 58.6816 120.647 58.6304 120.799 58.5278C120.95 58.4253 121.026 58.1665 121.026 57.7515V48.5669C121.026 48.1519 120.95 47.8931 120.799 47.7905C120.652 47.688 120.379 47.6367 119.979 47.6367H118.66V46.3184H125.977V47.6367H124.659C124.258 47.6367 123.982 47.688 123.831 47.7905C123.685 47.8931 123.611 48.1519 123.611 48.5669V56.1914ZM137.256 56.1035H138.428C138.536 57.7197 138.855 58.5278 139.388 58.5278C139.69 58.5278 139.92 58.3472 140.076 57.9858C140.232 57.6196 140.364 57.1606 140.472 56.6089C140.647 55.7544 140.948 55.0171 141.373 54.397C141.802 53.7769 142.601 53.4155 143.768 53.313V53.1006C142.571 53.0664 141.497 52.7856 140.545 52.2583C139.593 51.731 139.117 50.9717 139.117 49.9805C139.117 49.0088 139.576 48.1567 140.494 47.4243C141.412 46.687 142.903 46.3184 144.969 46.3184H152.916V47.6367H151.597C151.197 47.6367 150.921 47.688 150.77 47.7905C150.623 47.8931 150.55 48.1519 150.55 48.5669V57.7515C150.55 58.1616 150.623 58.4204 150.77 58.5278C150.921 58.6304 151.197 58.6816 151.597 58.6816H152.916V60H145.599V58.6816H146.917C147.312 58.6816 147.586 58.6304 147.737 58.5278C147.894 58.4253 147.972 58.1665 147.972 57.7515V53.7305H145.87C145.01 53.7305 144.39 54.0332 144.009 54.6387C143.633 55.2441 143.323 56.1401 143.079 57.3267C142.908 58.2446 142.642 58.9893 142.281 59.5605C141.919 60.1318 141.265 60.4175 140.318 60.4175C138.345 60.4175 137.325 58.9795 137.256 56.1035ZM147.972 52.3828V48.6328C147.972 48.2178 147.857 47.9395 147.627 47.7979C147.398 47.6514 147.042 47.5781 146.558 47.5781C146.363 47.5781 145.982 47.5977 145.416 47.6367C143.296 47.7783 142.237 48.5693 142.237 50.0098C142.237 50.5762 142.471 51.1133 142.94 51.6211C143.414 52.1289 144.229 52.3828 145.386 52.3828H147.972Z" fill="#59443F"/>
<path d="M41.62 201V199.64H35.98L38.76 196.5C39.3 195.88 40.02 195.06 40.58 194.28C41.38 193.14 41.64 192.32 41.64 191.42C41.64 189.12 39.88 187.44 37.52 187.44C35.86 187.44 34.92 188.16 34.36 188.8C33.84 189.4 33.42 190.22 33.36 191.56H34.84C34.86 190.88 35.02 190.38 35.28 189.98C35.78 189.22 36.56 188.8 37.5 188.8C39.08 188.8 40.16 189.9 40.16 191.4C40.16 191.94 40.02 192.58 39.42 193.44C39.1 193.92 38.2 194.98 37.86 195.38L33 201H41.62ZM49.345 187.34L44.805 193.64C43.805 195.04 43.705 196.2 43.705 196.7C43.705 198.8 45.185 201.24 48.325 201.24C50.985 201.24 52.905 199.32 52.905 196.66C52.905 194.18 51.145 192.26 48.585 192.26C48.165 192.26 47.785 192.32 47.405 192.44L50.465 188.18L49.345 187.34ZM48.305 199.88C46.445 199.88 45.185 198.48 45.185 196.7C45.185 194.96 46.465 193.62 48.285 193.62C50.105 193.62 51.425 194.92 51.425 196.7C51.425 198.5 50.145 199.88 48.305 199.88ZM60.0002 205.6H61.6002L67.7002 192.7H66.1002L63.4002 198.64L60.4602 192.7H58.8202L62.6402 200.22L60.0002 205.6ZM75.7194 193.3C75.3194 193.02 74.4594 192.5 73.1394 192.5C70.5794 192.5 68.6994 194.36 68.6994 196.9C68.6994 199.4 70.5594 201.24 73.1394 201.24C73.9194 201.24 74.8794 201.04 75.7794 200.38V198.66C75.0194 199.58 73.9594 199.96 73.0994 199.96C71.6194 199.96 70.1794 198.9 70.1794 196.88C70.1794 194.86 71.5794 193.78 73.1194 193.78C73.8594 193.78 74.9594 194.06 75.7194 195.02V193.3ZM84.2689 192.7H78.4289V197.76C78.4289 198.26 78.4089 198.78 78.1489 199.18C77.9889 199.44 77.6489 199.72 77.1089 199.72C77.0089 199.72 76.8889 199.7 76.7889 199.68V201C76.9289 201.02 77.0889 201.04 77.2289 201.04C78.3489 201.04 78.9689 200.48 79.2289 200.16C79.8689 199.38 79.8689 198.46 79.8689 197.76V194.02H82.8289V201H84.2689V192.7ZM86.9728 205.6H88.5728L94.6728 192.7H93.0728L90.3728 198.64L87.4328 192.7H85.7928L89.6128 200.22L86.9728 205.6ZM96.192 201H97.632V194.02H101.112V192.7H96.192V201Z" fill="#59443F"/>
<defs>
<filter id="filter0_d_302_1532" x="0" y="0" width="340" height="240" filterUnits="userSpaceOnUse" color-interpolation-filters="sRGB">
<feFlood flood-opacity="0" result="BackgroundImageFix"/>
<feColorMatrix in="SourceAlpha" type="matrix" values="0 0 0 0 0 0 0 0 0 0 0 0 0 0 0 0 0 0 127 0" result="hardAlpha"/>
<feOffset dx="2" dy="2"/>
<feGaussianBlur stdDeviation="5"/>
<feColorMatrix type="matrix" values="0 0 0 0 0 0 0 0 0 0 0 0 0 0 0 0 0 0 0.1 0"/>
<feBlend mode="normal" in2="BackgroundImageFix" result="effect1_dropShadow_302_1532"/>
<feBlend mode="normal" in="SourceGraphic" in2="effect1_dropShadow_302_1532" result="shape"/>
</filter>
</defs>
</svg>
