<svg width="340" height="240" viewBox="0 0 340 240" fill="none" xmlns="http://www.w3.org/2000/svg">
<g filter="url(#filter0_d_302_1596)">
<rect x="8" y="8" width="320" height="220" rx="20" fill="white"/>
</g>
<mask id="mask0_302_1596" style="mask-type:alpha" maskUnits="userSpaceOnUse" x="8" y="8" width="320" height="220">
<rect x="8" y="8" width="320" height="220" rx="20" fill="#FFFEFE"/>
</mask>
<g mask="url(#mask0_302_1596)">
<path d="M300.047 95.7814C299.584 94.8554 298.704 94.2083 297.682 94.0418C296.66 93.8758 295.621 94.21 294.888 94.9414C259.246 130.504 270.108 119.658 257.232 132.535L210.385 172.174C202.332 178.988 201.822 191.257 209.281 198.715C216.765 206.199 229.022 205.648 235.822 197.612L271.717 155.191C274.334 152.097 274.667 147.725 272.809 144.302L277.645 139.467L279.924 141.745C281.18 143.001 283.214 143.004 284.474 141.753L294.146 132.144C303.749 122.541 306.12 107.928 300.047 95.7814ZM230.902 193.448C226.508 198.641 218.644 198.962 213.838 194.158C209.027 189.346 209.361 181.483 214.548 177.094L224.671 168.529L239.467 183.325L230.902 193.448ZM243.645 178.388L229.608 164.351L234.546 160.174L247.823 173.451L243.645 178.388ZM252.001 168.513L239.483 155.996L244.42 151.818L256.178 163.576L252.001 168.513ZM266.796 151.027L260.356 158.639L249.358 147.64L259.233 139.285L266.615 146.667C267.791 147.843 267.871 149.758 266.796 151.027ZM268.53 139.467L263.972 134.909L268.53 130.351C269.017 130.838 272.583 134.404 273.087 134.909L268.53 139.467ZM289.596 127.579L282.21 134.916L273.09 125.796L295.963 102.974C298.444 111.613 296.12 121.056 289.596 127.579Z" fill="#FFC59E"/>
</g>
<path d="M33.7065 41.0083V39.6021H42.9497V41.0083H42.0781C41.4824 41.0083 41.0894 41.0742 40.8989 41.2061C40.7085 41.333 40.6133 41.5283 40.6133 41.792C40.6133 42.0215 40.7231 42.2803 40.9429 42.5684L44.7808 47.7905L48.2891 43.2935C48.6113 42.8687 48.7725 42.4683 48.7725 42.0923C48.7725 41.3696 48.2817 41.0083 47.3003 41.0083H46.1577V39.6021H54.2876V41.0083C53.2671 41.062 52.5005 41.2451 51.9878 41.5576C51.4751 41.8652 50.9917 42.3022 50.5376 42.8687L45.7402 48.8672L51.5264 56.6089C52.0439 57.2925 52.5664 57.793 53.0938 58.1104C53.6211 58.4277 54.251 58.5864 54.9834 58.5864H55.5181V60H45.5571V58.5864H46.0405C46.7827 58.5864 47.3418 58.5278 47.7178 58.4106C48.0986 58.2886 48.2891 58.0273 48.2891 57.627C48.2891 57.4658 48.2646 57.3145 48.2158 57.1729C48.167 57.0264 48.106 56.8945 48.0327 56.7773C47.9595 56.6553 47.874 56.5332 47.7764 56.4111C47.6836 56.2891 47.6055 56.1865 47.542 56.1035L43.7627 50.9692L39.7417 56.1035C39.3608 56.5918 39.1704 57.0605 39.1704 57.5098C39.1704 57.9785 39.3462 58.2764 39.6978 58.4033C40.0493 58.5254 40.5132 58.5864 41.0894 58.5864H41.6899V60H32.9302V58.5864H33.3477C34.9932 58.5864 36.4849 57.7588 37.8228 56.1035L42.8911 49.7974L37.4272 42.6636C36.8999 41.9702 36.4043 41.5332 35.9404 41.3525C35.4766 41.1719 34.7319 41.0571 33.7065 41.0083ZM62.5859 56.1914L68.7017 48.7207C68.9409 48.4424 69.0605 48.1812 69.0605 47.937C68.9629 47.7368 68.7139 47.6367 68.3135 47.6367H66.7241V46.3184H74.041V47.6367H72.7227C72.3223 47.6367 72.0464 47.688 71.895 47.7905C71.7485 47.8931 71.6753 48.1519 71.6753 48.5669V57.7515C71.6753 58.1616 71.7485 58.4204 71.895 58.5278C72.0464 58.6304 72.3223 58.6816 72.7227 58.6816H74.041V60H66.7241V58.6816H68.0425C68.438 58.6816 68.7114 58.6304 68.8628 58.5278C69.0142 58.4253 69.0898 58.1665 69.0898 57.7515V50.127L62.9155 57.5977C62.6958 57.8711 62.5859 58.0908 62.5859 58.2568C62.5859 58.54 62.9058 58.6816 63.5454 58.6816H64.9224V60H57.6348V58.6816H58.9531C59.3486 58.6816 59.6221 58.6304 59.7734 58.5278C59.9248 58.4253 60.0005 58.1665 60.0005 57.7515V48.5669C60.0005 48.1519 59.9248 47.8931 59.7734 47.7905C59.627 47.688 59.3535 47.6367 58.9531 47.6367H57.6348V46.3184H64.9517V47.6367H63.6333C63.2329 47.6367 62.957 47.688 62.8057 47.7905C62.6592 47.8931 62.5859 48.1519 62.5859 48.5669V56.1914ZM76.1724 46.3184L81.0942 45.9009V47.9736C82.1538 46.5918 83.4429 45.9009 84.9614 45.9009C86.104 45.9009 87.0879 46.1279 87.9131 46.582C88.7383 47.0361 89.4023 47.6343 89.9053 48.3765C90.4131 49.1187 90.7817 49.9292 91.0112 50.8081C91.2407 51.6821 91.3555 52.5464 91.3555 53.4009C91.3555 54.2017 91.2188 55.0146 90.9453 55.8398C90.6768 56.665 90.2715 57.4268 89.7295 58.125C89.1924 58.8232 88.521 59.3799 87.7153 59.7949C86.9097 60.21 85.9917 60.4175 84.9614 60.4175C83.2476 60.4175 81.9683 59.6875 81.1235 58.2275H80.8818L81.0942 59.4873V63.1201C81.0942 63.5303 81.1675 63.7866 81.314 63.8892C81.4653 63.9966 81.7412 64.0503 82.1416 64.0503H83.8262V65.3687H76.1431V64.0503H77.4614C77.8569 64.0503 78.1304 63.999 78.2817 63.8965C78.438 63.7939 78.5161 63.5352 78.5161 63.1201V48.5669C78.5161 48.1519 78.4404 47.8931 78.2891 47.7905C78.1377 47.688 77.8618 47.6367 77.4614 47.6367H76.1724V46.3184ZM81.0942 53.2471C81.0942 54.5459 81.2627 55.6348 81.5996 56.5137C81.9365 57.3877 82.376 58.0322 82.918 58.4473C83.46 58.8623 84.041 59.0698 84.6611 59.0698C85.5352 59.0698 86.3481 58.6694 87.1001 57.8687C87.8569 57.063 88.2354 55.5127 88.2354 53.2178C88.2354 50.8447 87.8716 49.2578 87.144 48.457C86.4165 47.6514 85.5889 47.2485 84.6611 47.2485C83.7627 47.2485 82.9424 47.6782 82.2002 48.5376C81.4629 49.397 81.0942 50.9668 81.0942 53.2471ZM93.04 47.6367V46.3184H99.8516V47.6367H98.98C98.3208 47.6367 97.9912 47.8687 97.9912 48.3325C97.9912 48.5278 98.0815 48.8159 98.2622 49.1968L101.741 57.2095H101.924L104.861 49.9219C105.062 49.4238 105.162 49.0039 105.162 48.6621C105.162 47.9785 104.642 47.6367 103.602 47.6367H102.884V46.3184H108.758V47.6367H108.494C108.055 47.6367 107.71 47.7466 107.461 47.9663C107.217 48.186 106.99 48.5474 106.78 49.0503L101.111 62.1899C100.564 63.4595 99.9614 64.3066 99.3022 64.7314C98.6431 65.1562 97.896 65.3687 97.061 65.3687C96.2358 65.3687 95.5938 65.1343 95.1348 64.6655C94.6807 64.1968 94.4536 63.6719 94.4536 63.0908C94.4536 62.6318 94.6099 62.2314 94.9224 61.8896C95.2397 61.5479 95.6328 61.377 96.1016 61.377C96.4873 61.377 96.834 61.5112 97.1416 61.7798C97.4492 62.0483 97.603 62.395 97.603 62.8198C97.603 63.0396 97.5615 63.23 97.4785 63.3911C97.4004 63.5474 97.3613 63.667 97.3613 63.75C97.3613 63.9893 97.5322 64.1089 97.874 64.1089C98.582 64.1089 99.2314 63.4204 99.8223 62.0435L100.54 60.4175L95.3179 48.8672C95.103 48.3984 94.8809 48.0762 94.6514 47.9004C94.4268 47.7246 94.0605 47.6367 93.5527 47.6367H93.04ZM110.157 46.3184L115.079 45.9009V47.9736C116.138 46.5918 117.427 45.9009 118.946 45.9009C120.088 45.9009 121.072 46.1279 121.897 46.582C122.723 47.0361 123.387 47.6343 123.89 48.3765C124.397 49.1187 124.766 49.9292 124.996 50.8081C125.225 51.6821 125.34 52.5464 125.34 53.4009C125.34 54.2017 125.203 55.0146 124.93 55.8398C124.661 56.665 124.256 57.4268 123.714 58.125C123.177 58.8232 122.505 59.3799 121.7 59.7949C120.894 60.21 119.976 60.4175 118.946 60.4175C117.232 60.4175 115.953 59.6875 115.108 58.2275H114.866L115.079 59.4873V63.1201C115.079 63.5303 115.152 63.7866 115.298 63.8892C115.45 63.9966 115.726 64.0503 116.126 64.0503H117.811V65.3687H110.127V64.0503H111.446C111.841 64.0503 112.115 63.999 112.266 63.8965C112.422 63.7939 112.5 63.5352 112.5 63.1201V48.5669C112.5 48.1519 112.425 47.8931 112.273 47.7905C112.122 47.688 111.846 47.6367 111.446 47.6367H110.157V46.3184ZM115.079 53.2471C115.079 54.5459 115.247 55.6348 115.584 56.5137C115.921 57.3877 116.36 58.0322 116.902 58.4473C117.444 58.8623 118.025 59.0698 118.646 59.0698C119.52 59.0698 120.333 58.6694 121.084 57.8687C121.841 57.063 122.22 55.5127 122.22 53.2178C122.22 50.8447 121.856 49.2578 121.128 48.457C120.401 47.6514 119.573 47.2485 118.646 47.2485C117.747 47.2485 116.927 47.6782 116.185 48.5376C115.447 49.397 115.079 50.9668 115.079 53.2471ZM139.659 52.229H138.487C138.331 50.8569 138.111 49.8462 137.828 49.1968C137.554 48.5571 137.188 48.1372 136.729 47.937C136.275 47.7368 135.701 47.6367 135.008 47.6367H133.536C133.077 47.6367 132.786 47.749 132.664 47.9736C132.547 48.1982 132.488 48.5059 132.488 48.8965V57.7515C132.488 58.1616 132.562 58.4204 132.708 58.5278C132.859 58.6304 133.135 58.6816 133.536 58.6816H134.854V60H127.537V58.6816H128.855C129.251 58.6816 129.524 58.6304 129.676 58.5278C129.827 58.4253 129.903 58.1665 129.903 57.7515V48.5669C129.903 48.1519 129.827 47.8931 129.676 47.7905C129.529 47.688 129.256 47.6367 128.855 47.6367H127.537V46.3184H139.659V52.229ZM146.609 56.1914L152.725 48.7207C152.964 48.4424 153.084 48.1812 153.084 47.937C152.986 47.7368 152.737 47.6367 152.337 47.6367H150.748V46.3184H158.064V47.6367H156.746C156.346 47.6367 156.07 47.688 155.918 47.7905C155.772 47.8931 155.699 48.1519 155.699 48.5669V57.7515C155.699 58.1616 155.772 58.4204 155.918 58.5278C156.07 58.6304 156.346 58.6816 156.746 58.6816H158.064V60H150.748V58.6816H152.066C152.461 58.6816 152.735 58.6304 152.886 58.5278C153.038 58.4253 153.113 58.1665 153.113 57.7515V50.127L146.939 57.5977C146.719 57.8711 146.609 58.0908 146.609 58.2568C146.609 58.54 146.929 58.6816 147.569 58.6816H148.946V60H141.658V58.6816H142.977C143.372 58.6816 143.646 58.6304 143.797 58.5278C143.948 58.4253 144.024 58.1665 144.024 57.7515V48.5669C144.024 48.1519 143.948 47.8931 143.797 47.7905C143.65 47.688 143.377 47.6367 142.977 47.6367H141.658V46.3184H148.975V47.6367H147.657C147.256 47.6367 146.98 47.688 146.829 47.7905C146.683 47.8931 146.609 48.1519 146.609 48.5669V56.1914ZM160.254 56.1035H161.426C161.534 57.7197 161.854 58.5278 162.386 58.5278C162.688 58.5278 162.918 58.3472 163.074 57.9858C163.23 57.6196 163.362 57.1606 163.47 56.6089C163.646 55.7544 163.946 55.0171 164.371 54.397C164.8 53.7769 165.599 53.4155 166.766 53.313V53.1006C165.569 53.0664 164.495 52.7856 163.543 52.2583C162.591 51.731 162.115 50.9717 162.115 49.9805C162.115 49.0088 162.574 48.1567 163.492 47.4243C164.41 46.687 165.901 46.3184 167.967 46.3184H175.914V47.6367H174.595C174.195 47.6367 173.919 47.688 173.768 47.7905C173.621 47.8931 173.548 48.1519 173.548 48.5669V57.7515C173.548 58.1616 173.621 58.4204 173.768 58.5278C173.919 58.6304 174.195 58.6816 174.595 58.6816H175.914V60H168.597V58.6816H169.915C170.311 58.6816 170.584 58.6304 170.735 58.5278C170.892 58.4253 170.97 58.1665 170.97 57.7515V53.7305H168.868C168.008 53.7305 167.388 54.0332 167.007 54.6387C166.631 55.2441 166.321 56.1401 166.077 57.3267C165.906 58.2446 165.64 58.9893 165.279 59.5605C164.917 60.1318 164.263 60.4175 163.316 60.4175C161.343 60.4175 160.323 58.9795 160.254 56.1035ZM170.97 52.3828V48.6328C170.97 48.2178 170.855 47.9395 170.625 47.7979C170.396 47.6514 170.04 47.5781 169.556 47.5781C169.361 47.5781 168.98 47.5977 168.414 47.6367C166.294 47.7783 165.235 48.5693 165.235 50.0098C165.235 50.5762 165.469 51.1133 165.938 51.6211C166.412 52.1289 167.227 52.3828 168.384 52.3828H170.97Z" fill="#59443F"/>
<path d="M41.62 201V199.64H35.98L38.76 196.5C39.3 195.88 40.02 195.06 40.58 194.28C41.38 193.14 41.64 192.32 41.64 191.42C41.64 189.12 39.88 187.44 37.52 187.44C35.86 187.44 34.92 188.16 34.36 188.8C33.84 189.4 33.42 190.22 33.36 191.56H34.84C34.86 190.88 35.02 190.38 35.28 189.98C35.78 189.22 36.56 188.8 37.5 188.8C39.08 188.8 40.16 189.9 40.16 191.4C40.16 191.94 40.02 192.58 39.42 193.44C39.1 193.92 38.2 194.98 37.86 195.38L33 201H41.62ZM49.345 187.34L44.805 193.64C43.805 195.04 43.705 196.2 43.705 196.7C43.705 198.8 45.185 201.24 48.325 201.24C50.985 201.24 52.905 199.32 52.905 196.66C52.905 194.18 51.145 192.26 48.585 192.26C48.165 192.26 47.785 192.32 47.405 192.44L50.465 188.18L49.345 187.34ZM48.305 199.88C46.445 199.88 45.185 198.48 45.185 196.7C45.185 194.96 46.465 193.62 48.285 193.62C50.105 193.62 51.425 194.92 51.425 196.7C51.425 198.5 50.145 199.88 48.305 199.88ZM60.0002 205.6H61.6002L67.7002 192.7H66.1002L63.4002 198.64L60.4602 192.7H58.8202L62.6402 200.22L60.0002 205.6ZM75.7194 193.3C75.3194 193.02 74.4594 192.5 73.1394 192.5C70.5794 192.5 68.6994 194.36 68.6994 196.9C68.6994 199.4 70.5594 201.24 73.1394 201.24C73.9194 201.24 74.8794 201.04 75.7794 200.38V198.66C75.0194 199.58 73.9594 199.96 73.0994 199.96C71.6194 199.96 70.1794 198.9 70.1794 196.88C70.1794 194.86 71.5794 193.78 73.1194 193.78C73.8594 193.78 74.9594 194.06 75.7194 195.02V193.3ZM84.2689 192.7H78.4289V197.76C78.4289 198.26 78.4089 198.78 78.1489 199.18C77.9889 199.44 77.6489 199.72 77.1089 199.72C77.0089 199.72 76.8889 199.7 76.7889 199.68V201C76.9289 201.02 77.0889 201.04 77.2289 201.04C78.3489 201.04 78.9689 200.48 79.2289 200.16C79.8689 199.38 79.8689 198.46 79.8689 197.76V194.02H82.8289V201H84.2689V192.7ZM86.9728 205.6H88.5728L94.6728 192.7H93.0728L90.3728 198.64L87.4328 192.7H85.7928L89.6128 200.22L86.9728 205.6ZM96.192 201H97.632V194.02H101.112V192.7H96.192V201Z" fill="#59443F"/>
<defs>
<filter id="filter0_d_302_1596" x="0" y="0" width="340" height="240" filterUnits="userSpaceOnUse" color-interpolation-filters="sRGB">
<feFlood flood-opacity="0" result="BackgroundImageFix"/>
<feColorMatrix in="SourceAlpha" type="matrix" values="0 0 0 0 0 0 0 0 0 0 0 0 0 0 0 0 0 0 127 0" result="hardAlpha"/>
<feOffset dx="2" dy="2"/>
<feGaussianBlur stdDeviation="5"/>
<feColorMatrix type="matrix" values="0 0 0 0 0 0 0 0 0 0 0 0 0 0 0 0 0 0 0.1 0"/>
<feBlend mode="normal" in2="BackgroundImageFix" result="effect1_dropShadow_302_1596"/>
<feBlend mode="normal" in="SourceGraphic" in2="effect1_dropShadow_302_1596" result="shape"/>
</filter>
</defs>
</svg>
