<svg width="340" height="240" viewBox="0 0 340 240" fill="none" xmlns="http://www.w3.org/2000/svg">
<g filter="url(#filter0_d_302_1783)">
<rect x="8" y="8" width="320" height="220" rx="20" fill="white"/>
</g>
<mask id="mask0_302_1783" style="mask-type:alpha" maskUnits="userSpaceOnUse" x="8" y="8" width="320" height="220">
<rect x="8" y="8" width="320" height="220" rx="20" fill="white"/>
</mask>
<g mask="url(#mask0_302_1783)">
<path d="M304 169.804C304 167.988 302.527 166.515 300.711 166.515H299.684L300.135 166.063C301.42 164.779 301.42 162.696 300.135 161.412C298.851 160.127 296.768 160.127 295.484 161.412L290.38 166.515H290.229C286.331 166.515 282.647 164.813 280.12 161.847L275.626 156.571C278.717 152.363 281.177 147.399 282.978 141.715C288.145 139.885 291.806 136.878 293.872 132.762C297.531 125.47 298.825 108.643 289.883 104.122C285.894 102.104 280.729 102.824 275.341 106.148C271.08 108.776 267.168 112.769 265.133 116.567C261.246 123.82 262.77 130.215 263.751 132.915C262.673 136.326 261.261 139.268 259.527 141.749L255.495 138.315C252.528 135.788 250.827 132.104 250.827 128.206V128.055L255.93 122.952C257.214 121.667 257.214 119.584 255.93 118.3C254.645 117.016 252.563 117.016 251.278 118.3L250.826 118.751V117.724C250.826 115.908 249.354 114.435 247.537 114.435C245.72 114.435 244.248 115.908 244.248 117.724V118.751L243.796 118.3C242.512 117.016 240.429 117.016 239.144 118.3C237.86 119.584 237.86 121.667 239.144 122.952L244.248 128.055V128.206C244.248 134.034 246.792 139.544 251.229 143.323L255.044 146.573C249.632 150.898 242.31 152.463 233.123 151.224C232.361 151.121 231.597 151.042 230.832 150.986L225.727 144.991C221.948 140.555 216.438 138.01 210.61 138.01H210.458L205.355 132.907C204.071 131.623 201.988 131.623 200.703 132.907C199.419 134.191 199.419 136.274 200.703 137.559L201.155 138.01H200.128C198.311 138.01 196.839 139.483 196.839 141.3C196.839 143.116 198.311 144.589 200.128 144.589H201.155L200.703 145.041C199.419 146.325 199.419 148.408 200.703 149.693C201.346 150.335 202.187 150.656 203.029 150.656C203.871 150.656 204.713 150.335 205.355 149.693L210.459 144.589H210.61C214.507 144.589 218.192 146.291 220.718 149.258L222.443 151.282C220.317 151.595 218.232 152.089 216.222 152.761C210.703 154.607 205.726 157.813 201.828 162.031C195.107 169.304 192.645 178.374 194.709 188.262C196.23 195.543 199.695 200.702 199.842 200.918C200.464 201.833 201.49 202.359 202.563 202.359C202.825 202.359 203.09 202.328 203.352 202.263C204.688 201.933 205.677 200.806 205.831 199.438C205.849 199.288 207.632 184.33 216.84 175.867C218.013 174.789 222.446 171.354 230.264 172.409C233.001 172.778 235.646 172.996 238.204 173.07L242.851 179.171C245.213 182.271 246.092 186.233 245.264 190.041L245.231 190.189L239.16 194.09C237.632 195.073 237.189 197.108 238.171 198.636C239.153 200.164 241.188 200.607 242.716 199.625L243.253 199.28L243.035 200.283C242.649 202.058 243.775 203.81 245.55 204.197C245.785 204.248 246.02 204.273 246.252 204.273C247.766 204.273 249.128 203.222 249.463 201.682L249.682 200.679L250.027 201.216C250.655 202.194 251.715 202.728 252.797 202.728C253.406 202.728 254.022 202.559 254.572 202.205C256.101 201.223 256.544 199.188 255.561 197.66L251.66 191.588L251.692 191.44C252.931 185.745 251.616 179.82 248.085 175.184L246.258 172.787C254.737 171.897 262.021 169.11 268.019 164.438C269.153 163.556 270.235 162.608 271.268 161.599L275.113 166.113C278.892 170.549 284.402 173.094 290.23 173.094H290.381L295.484 178.197C296.127 178.84 296.969 179.161 297.811 179.161C298.652 179.161 299.494 178.84 300.136 178.197C301.421 176.913 301.421 174.83 300.136 173.545L299.685 173.094H300.712C302.527 173.094 304 171.621 304 169.804ZM240.209 166.531C237.339 166.531 234.316 166.317 231.144 165.889C220.78 164.491 214.574 169.014 212.388 171.023C206.76 176.197 203.484 183.138 201.616 188.778C199.937 182.629 199.646 174.084 206.659 166.496C212.08 160.63 219.636 157.445 227.857 157.445C229.301 157.445 230.766 157.544 232.243 157.743C244.987 159.463 255.209 156.353 262.201 148.862C262.296 148.774 262.388 148.68 262.473 148.579C262.5 148.548 262.522 148.515 262.547 148.483C266.019 144.632 268.668 139.67 270.4 133.651C270.634 132.837 270.546 131.965 270.153 131.215C270.126 131.164 267.575 125.939 270.932 119.674C274.025 113.901 282.814 107.919 286.915 109.992C286.915 109.992 286.915 109.992 286.915 109.993C288.649 110.869 289.848 113.983 290.044 118.118C290.241 122.274 289.416 126.974 287.992 129.811C285.917 133.946 281.4 135.342 279.915 135.8C279.126 136.044 277.658 136.498 277.155 138.244C271.743 157.046 259.335 166.532 240.209 166.531Z" fill="#FFC59E"/>
</g>
<path d="M35.1494 47.4609H33.7065V39.6021H35.0322L36.292 41.1621C37.3223 40.3223 38.2305 39.7827 39.0166 39.5435C39.8076 39.2993 40.6694 39.1772 41.6021 39.1772C43.4429 39.1772 45.0005 39.6313 46.2749 40.5396C47.5542 41.4429 48.5137 42.6953 49.1533 44.2969C49.7979 45.8984 50.1201 47.7222 50.1201 49.7681C50.1201 51.2036 49.9028 52.561 49.4683 53.8403C49.0337 55.1147 48.3965 56.25 47.5566 57.2461C46.7217 58.2373 45.6987 59.0137 44.4878 59.5752C43.2817 60.1367 41.939 60.4175 40.4595 60.4175C39.1265 60.4175 37.8936 60.1953 36.7607 59.751C35.6279 59.3018 34.7295 58.6816 34.0654 57.8906C33.4062 57.0996 33.0767 56.2231 33.0767 55.2612C33.0767 54.314 33.3428 53.6035 33.875 53.1299C34.4072 52.6514 35.0029 52.4121 35.6621 52.4121C36.209 52.4121 36.6753 52.6343 37.061 53.0786C37.4468 53.5229 37.6396 54.0601 37.6396 54.6899C37.6396 55.1147 37.4395 55.5444 37.0391 55.979C36.8633 56.1548 36.6533 56.3062 36.4092 56.4331C36.0479 56.5845 35.8672 56.7725 35.8672 56.9971C35.8672 57.2949 36.0479 57.5977 36.4092 57.9053C36.7705 58.2129 37.2783 58.4692 37.9326 58.6743C38.5918 58.8794 39.3438 58.9819 40.1885 58.9819C44.2705 58.9819 46.3213 56.001 46.3408 50.0391H37.6689V48.6328H46.3408C46.3359 46.5625 46.0527 44.9268 45.4912 43.7256C44.9297 42.5244 44.2632 41.7017 43.4917 41.2573C42.7251 40.813 41.9756 40.5908 41.2432 40.5908C40.3057 40.5908 39.3901 40.8667 38.4966 41.4185C37.603 41.9653 36.8486 42.7588 36.2334 43.7988C35.623 44.8389 35.2617 46.0596 35.1494 47.4609ZM52.2148 60V58.6816H53.5332C53.9287 58.6816 54.2021 58.6304 54.3535 58.5278C54.5049 58.4253 54.5806 58.1665 54.5806 57.7515V48.5669C54.5806 48.1519 54.5049 47.8931 54.3535 47.7905C54.207 47.688 53.9336 47.6367 53.5332 47.6367H52.2148V46.3184H59.5024V47.6367H58.2134C57.813 47.6367 57.5371 47.688 57.3857 47.7905C57.2393 47.8931 57.166 48.1519 57.166 48.5669V52.229H58.1841C59.2583 52.229 60.0273 52.1558 60.4912 52.0093C60.9551 51.8579 61.292 51.582 61.502 51.1816C61.7119 50.7812 61.9561 50.0415 62.2344 48.9624C62.4541 48.064 62.7666 47.3291 63.1719 46.7578C63.582 46.1865 64.2388 45.9009 65.1421 45.9009C65.8696 45.9009 66.436 46.1133 66.8413 46.5381C67.2515 46.958 67.4565 47.4365 67.4565 47.9736C67.4565 48.3789 67.3369 48.7842 67.0977 49.1895C66.8584 49.5947 66.4263 49.7974 65.8013 49.7974C65.3423 49.7974 64.9883 49.6362 64.7393 49.314C64.4902 48.9917 64.3657 48.6426 64.3657 48.2666C64.3657 48.2178 64.3755 48.1567 64.395 48.0835C64.4146 48.0103 64.4243 47.9517 64.4243 47.9077C64.4243 47.7905 64.3633 47.7319 64.2412 47.7319C64.002 47.7319 63.7822 48.1323 63.582 48.9331C63.3672 49.8218 63.1719 50.5127 62.9961 51.0059C62.8252 51.4941 62.6079 51.8848 62.3442 52.1777C62.0854 52.4658 61.729 52.6636 61.2749 52.771V52.8589C63.2085 53.0542 64.5073 54.3945 65.1714 56.8799C65.4155 58.0615 65.7866 58.6523 66.2847 58.6523C66.5142 58.6523 66.7266 58.4888 66.9219 58.1616C67.1172 57.8345 67.2148 57.4463 67.2148 56.9971V56.4331H68.3208V57.0923C68.3208 57.7319 68.1377 58.4473 67.7715 59.2383C67.4102 60.0244 66.6631 60.4175 65.5303 60.4175C64.9102 60.4175 64.4243 60.2856 64.0728 60.022C63.7212 59.7583 63.4575 59.4165 63.2817 58.9966C63.1108 58.5767 62.9351 58.0029 62.7544 57.2754C62.5737 56.543 62.4199 56.0107 62.293 55.6787C61.9463 54.751 61.5361 54.1699 61.0625 53.9355C60.5889 53.6963 59.8589 53.5767 58.8726 53.5767H57.166V57.7515C57.166 58.1616 57.2393 58.4204 57.3857 58.5278C57.5371 58.6304 57.813 58.6816 58.2134 58.6816H59.5317V60H52.2148ZM72.9131 51.2402H71.895V46.3184H72.9424L73.3379 47.1313C74.5928 46.311 75.9014 45.9009 77.2637 45.9009C78.4014 45.9009 79.3438 46.0742 80.0908 46.4209C80.8379 46.7676 81.3774 47.2046 81.7095 47.7319C82.0464 48.2593 82.2148 48.8086 82.2148 49.3799C82.2148 50.0146 81.9731 50.6494 81.4897 51.2842C81.0112 51.9189 80.1421 52.3633 78.8823 52.6172L78.853 52.8003C80.2202 52.9175 81.1919 53.3105 81.7681 53.9795C82.3442 54.6436 82.6323 55.3711 82.6323 56.1621C82.6323 56.5967 82.5127 57.0679 82.2734 57.5757C82.0342 58.0786 81.7461 58.5059 81.4092 58.8574C80.9062 59.375 80.2471 59.7632 79.4316 60.022C78.6162 60.2856 77.7544 60.4175 76.8462 60.4175C75.2593 60.4175 74.019 60.1782 73.1255 59.6997C72.2319 59.2212 71.6289 58.6499 71.3164 57.9858C71.0039 57.3169 70.8477 56.6479 70.8477 55.979C70.8477 55.4272 71.0332 55.0195 71.4043 54.7559C71.7803 54.4922 72.1636 54.3604 72.5542 54.3604C72.9937 54.3604 73.3989 54.4946 73.77 54.7632C74.1411 55.0317 74.3267 55.4663 74.3267 56.0669C74.3267 56.311 74.2559 56.5527 74.1143 56.792C74.0605 56.8994 73.9507 57.063 73.7847 57.2827C73.6235 57.5024 73.543 57.6782 73.543 57.8101C73.543 58.2397 73.814 58.5498 74.356 58.7402C74.937 58.96 75.5962 59.0698 76.3335 59.0698C77.1392 59.0698 77.8691 58.8257 78.5234 58.3374C79.1826 57.8491 79.5122 57.0825 79.5122 56.0376C79.5122 54.9585 79.0996 54.2358 78.2744 53.8696C77.4492 53.4985 76.5532 53.313 75.5864 53.313V52.1997H76.0332C77.249 52.1997 78.0986 51.9287 78.582 51.3867C79.0654 50.8447 79.3071 50.2246 79.3071 49.5264C79.3071 48.7842 79.0557 48.2202 78.5527 47.8345C78.0547 47.4438 77.4346 47.2485 76.6924 47.2485C75.7988 47.2485 74.9736 47.5732 74.2168 48.2227C73.46 48.8721 73.0254 49.8779 72.9131 51.2402ZM84.8149 53.1592C84.8149 52.3291 84.9639 51.4868 85.2617 50.6323C85.5596 49.7729 85.999 48.9844 86.5801 48.2666C87.166 47.5488 87.8887 46.9751 88.748 46.5454C89.6074 46.1157 90.5864 45.9009 91.6851 45.9009C93.1304 45.9009 94.373 46.2671 95.4131 46.9995C96.458 47.7319 97.2417 48.6597 97.7642 49.7827C98.2915 50.9058 98.5552 52.0312 98.5552 53.1592C98.5552 54.2871 98.2915 55.4126 97.7642 56.5356C97.2417 57.6587 96.458 58.5864 95.4131 59.3188C94.373 60.0513 93.1304 60.4175 91.6851 60.4175C90.2593 60.4175 89.0239 60.0537 87.979 59.3262C86.9341 58.5938 86.1455 57.6636 85.6133 56.5356C85.0811 55.4077 84.8149 54.2822 84.8149 53.1592ZM87.9351 53.1592C87.9351 57.0996 89.1851 59.0698 91.6851 59.0698C92.3442 59.0698 92.9521 58.9038 93.5088 58.5718C94.0654 58.2397 94.5244 57.6318 94.8857 56.748C95.252 55.8643 95.4351 54.668 95.4351 53.1592C95.4351 51.0449 95.0859 49.5312 94.3877 48.6182C93.6895 47.7051 92.7886 47.2485 91.6851 47.2485C90.5815 47.2485 89.6807 47.7051 88.9824 48.6182C88.2842 49.5312 87.9351 51.0449 87.9351 53.1592ZM103.484 60L103.455 58.6816H104.781C105.176 58.6816 105.45 58.6304 105.601 58.5278C105.752 58.4253 105.828 58.1665 105.828 57.7515V48.3325C105.828 47.7515 105.479 47.4609 104.781 47.4609C104.107 47.4609 103.462 47.8442 102.847 48.6108C102.237 49.3774 101.91 50.5444 101.866 52.1118H100.665V46.3184H113.599V52.1118H112.398C112.369 51.0962 112.203 50.2368 111.9 49.5337C111.602 48.8257 111.233 48.3032 110.794 47.9663C110.354 47.6294 109.92 47.4609 109.49 47.4609C108.787 47.4609 108.436 47.7515 108.436 48.3325V57.7515C108.436 58.1616 108.511 58.4204 108.663 58.5278C108.819 58.6304 109.095 58.6816 109.49 58.6816H110.809V60H103.484ZM120.799 56.1914L126.915 48.7207C127.154 48.4424 127.273 48.1812 127.273 47.937C127.176 47.7368 126.927 47.6367 126.526 47.6367H124.937V46.3184H132.254V47.6367H130.936C130.535 47.6367 130.259 47.688 130.108 47.7905C129.961 47.8931 129.888 48.1519 129.888 48.5669V57.7515C129.888 58.1616 129.961 58.4204 130.108 58.5278C130.259 58.6304 130.535 58.6816 130.936 58.6816H132.254V60H124.937V58.6816H126.255C126.651 58.6816 126.924 58.6304 127.076 58.5278C127.227 58.4253 127.303 58.1665 127.303 57.7515V50.127L121.128 57.5977C120.909 57.8711 120.799 58.0908 120.799 58.2568C120.799 58.54 121.119 58.6816 121.758 58.6816H123.135V60H115.848V58.6816H117.166C117.562 58.6816 117.835 58.6304 117.986 58.5278C118.138 58.4253 118.213 58.1665 118.213 57.7515V48.5669C118.213 48.1519 118.138 47.8931 117.986 47.7905C117.84 47.688 117.566 47.6367 117.166 47.6367H115.848V46.3184H123.165V47.6367H121.846C121.446 47.6367 121.17 47.688 121.019 47.7905C120.872 47.8931 120.799 48.1519 120.799 48.5669V56.1914ZM141.226 46.3184V47.6367H139.937C139.537 47.6367 139.261 47.6904 139.109 47.7979C138.958 47.9004 138.882 48.1567 138.882 48.5669V51.8701C138.882 52.2705 139.029 52.6904 139.322 53.1299C139.615 53.5693 140.24 53.7891 141.197 53.7891C142.354 53.7891 143.475 53.4082 144.559 52.6465V48.5669C144.559 48.1519 144.483 47.8931 144.332 47.7905C144.18 47.688 143.904 47.6367 143.504 47.6367H142.786V46.3184H149.502V47.6367H148.184C147.784 47.6367 147.508 47.688 147.356 47.7905C147.21 47.8931 147.137 48.1519 147.137 48.5669V57.7515C147.137 58.1616 147.21 58.4204 147.356 58.5278C147.508 58.6304 147.784 58.6816 148.184 58.6816H149.502V60H142.215V58.6816H143.562C143.948 58.6816 144.209 58.6304 144.346 58.5278C144.488 58.4204 144.559 58.1714 144.559 57.7808V53.9136C143.172 54.729 141.722 55.1367 140.208 55.1367C137.605 55.1367 136.304 53.999 136.304 51.7236V48.5669C136.304 48.1519 136.229 47.8931 136.077 47.7905C135.931 47.688 135.657 47.6367 135.257 47.6367H133.938V46.3184H141.226ZM162.649 56.0083L163.851 56.6382C162.771 59.1577 160.821 60.4175 157.999 60.4175C156.734 60.4175 155.623 60.1123 154.666 59.502C153.714 58.8867 152.981 58.0273 152.469 56.9238C151.956 55.8154 151.7 54.5605 151.7 53.1592C151.7 51.8652 151.958 50.6641 152.476 49.5557C152.994 48.4424 153.741 47.5562 154.717 46.897C155.694 46.2329 156.839 45.9009 158.152 45.9009C159.48 45.9009 160.596 46.2305 161.5 46.8896C162.408 47.5488 163.077 48.4009 163.506 49.4458C163.936 50.4858 164.151 51.5747 164.151 52.7124V53.4009H154.82C154.82 55.2173 155.147 56.6162 155.801 57.5977C156.46 58.5791 157.315 59.0698 158.365 59.0698C159.468 59.0698 160.379 58.7402 161.097 58.0811C161.814 57.417 162.332 56.7261 162.649 56.0083ZM154.82 52.0532H160.584C160.916 52.0532 161.094 51.8628 161.119 51.4819V50.9106C161.036 49.7241 160.706 48.8184 160.13 48.1934C159.554 47.5635 158.875 47.2485 158.094 47.2485C157.22 47.2485 156.47 47.6782 155.845 48.5376C155.225 49.397 154.883 50.5688 154.82 52.0532ZM177.063 55.3784L178.382 55.8618C177.967 57.1069 177.459 58.064 176.858 58.7329C176.258 59.4019 175.623 59.8486 174.954 60.0732C174.29 60.3027 173.562 60.4175 172.771 60.4175C171.419 60.4175 170.245 60.0684 169.249 59.3701C168.252 58.667 167.496 57.7271 166.978 56.5503C166.46 55.3687 166.202 54.0796 166.202 52.6831C166.202 51.4233 166.487 50.2759 167.059 49.2407C167.63 48.2007 168.423 47.3853 169.439 46.7944C170.459 46.1987 171.602 45.9009 172.867 45.9009C173.897 45.9009 174.798 46.0889 175.569 46.4648C176.346 46.8359 176.939 47.3169 177.349 47.9077C177.759 48.4937 177.964 49.0942 177.964 49.7095C177.964 50.2222 177.823 50.6812 177.54 51.0864C177.256 51.4868 176.807 51.687 176.192 51.687C175.523 51.687 175.062 51.5186 174.808 51.1816C174.554 50.8398 174.427 50.4492 174.427 50.0098C174.427 49.6436 174.515 49.3237 174.69 49.0503C174.72 49.0015 174.803 48.9014 174.939 48.75C175.076 48.5986 175.145 48.4692 175.145 48.3618C175.145 48.1128 174.942 47.8662 174.537 47.6221C174.131 47.373 173.675 47.2485 173.167 47.2485C171.565 47.2485 170.523 47.8662 170.04 49.1016C169.561 50.3369 169.322 51.6406 169.322 53.0127C169.322 55.3223 169.708 56.9092 170.479 57.7734C171.255 58.6377 172.161 59.0698 173.196 59.0698C174.212 59.0698 175.042 58.6865 175.687 57.9199C176.331 57.1484 176.79 56.3013 177.063 55.3784ZM180.594 60V58.6816H181.912C182.308 58.6816 182.581 58.6304 182.732 58.5278C182.884 58.4253 182.959 58.1665 182.959 57.7515V48.5669C182.959 48.1519 182.884 47.8931 182.732 47.7905C182.586 47.688 182.312 47.6367 181.912 47.6367H180.594V46.3184H187.881V47.6367H186.592C186.192 47.6367 185.916 47.688 185.765 47.7905C185.618 47.8931 185.545 48.1519 185.545 48.5669V52.229H186.563C187.637 52.229 188.406 52.1558 188.87 52.0093C189.334 51.8579 189.671 51.582 189.881 51.1816C190.091 50.7812 190.335 50.0415 190.613 48.9624C190.833 48.064 191.146 47.3291 191.551 46.7578C191.961 46.1865 192.618 45.9009 193.521 45.9009C194.249 45.9009 194.815 46.1133 195.22 46.5381C195.63 46.958 195.835 47.4365 195.835 47.9736C195.835 48.3789 195.716 48.7842 195.477 49.1895C195.237 49.5947 194.805 49.7974 194.18 49.7974C193.721 49.7974 193.367 49.6362 193.118 49.314C192.869 48.9917 192.745 48.6426 192.745 48.2666C192.745 48.2178 192.754 48.1567 192.774 48.0835C192.793 48.0103 192.803 47.9517 192.803 47.9077C192.803 47.7905 192.742 47.7319 192.62 47.7319C192.381 47.7319 192.161 48.1323 191.961 48.9331C191.746 49.8218 191.551 50.5127 191.375 51.0059C191.204 51.4941 190.987 51.8848 190.723 52.1777C190.464 52.4658 190.108 52.6636 189.654 52.771V52.8589C191.587 53.0542 192.886 54.3945 193.55 56.8799C193.794 58.0615 194.166 58.6523 194.664 58.6523C194.893 58.6523 195.105 58.4888 195.301 58.1616C195.496 57.8345 195.594 57.4463 195.594 56.9971V56.4331H196.7V57.0923C196.7 57.7319 196.517 58.4473 196.15 59.2383C195.789 60.0244 195.042 60.4175 193.909 60.4175C193.289 60.4175 192.803 60.2856 192.452 60.022C192.1 59.7583 191.836 59.4165 191.661 58.9966C191.49 58.5767 191.314 58.0029 191.133 57.2754C190.953 56.543 190.799 56.0107 190.672 55.6787C190.325 54.751 189.915 54.1699 189.441 53.9355C188.968 53.6963 188.238 53.5767 187.251 53.5767H185.545V57.7515C185.545 58.1616 185.618 58.4204 185.765 58.5278C185.916 58.6304 186.192 58.6816 186.592 58.6816H187.911V60H180.594ZM204.178 56.1914L210.293 48.7207C210.533 48.4424 210.652 48.1812 210.652 47.937C210.555 47.7368 210.306 47.6367 209.905 47.6367H208.316V46.3184H215.633V47.6367H214.314C213.914 47.6367 213.638 47.688 213.487 47.7905C213.34 47.8931 213.267 48.1519 213.267 48.5669V57.7515C213.267 58.1616 213.34 58.4204 213.487 58.5278C213.638 58.6304 213.914 58.6816 214.314 58.6816H215.633V60H208.316V58.6816H209.634C210.03 58.6816 210.303 58.6304 210.455 58.5278C210.606 58.4253 210.682 58.1665 210.682 57.7515V50.127L204.507 57.5977C204.288 57.8711 204.178 58.0908 204.178 58.2568C204.178 58.54 204.498 58.6816 205.137 58.6816H206.514V60H199.227V58.6816H200.545C200.94 58.6816 201.214 58.6304 201.365 58.5278C201.517 58.4253 201.592 58.1665 201.592 57.7515V48.5669C201.592 48.1519 201.517 47.8931 201.365 47.7905C201.219 47.688 200.945 47.6367 200.545 47.6367H199.227V46.3184H206.543V47.6367H205.225C204.825 47.6367 204.549 47.688 204.397 47.7905C204.251 47.8931 204.178 48.1519 204.178 48.5669V56.1914ZM228.772 56.0083L229.974 56.6382C228.895 59.1577 226.944 60.4175 224.122 60.4175C222.857 60.4175 221.746 60.1123 220.789 59.502C219.837 58.8867 219.104 58.0273 218.592 56.9238C218.079 55.8154 217.823 54.5605 217.823 53.1592C217.823 51.8652 218.082 50.6641 218.599 49.5557C219.117 48.4424 219.864 47.5562 220.84 46.897C221.817 46.2329 222.962 45.9009 224.275 45.9009C225.604 45.9009 226.719 46.2305 227.623 46.8896C228.531 47.5488 229.2 48.4009 229.629 49.4458C230.059 50.4858 230.274 51.5747 230.274 52.7124V53.4009H220.943C220.943 55.2173 221.27 56.6162 221.924 57.5977C222.583 58.5791 223.438 59.0698 224.488 59.0698C225.591 59.0698 226.502 58.7402 227.22 58.0811C227.938 57.417 228.455 56.7261 228.772 56.0083ZM220.943 52.0532H226.707C227.039 52.0532 227.217 51.8628 227.242 51.4819V50.9106C227.159 49.7241 226.829 48.8184 226.253 48.1934C225.677 47.5635 224.998 47.2485 224.217 47.2485C223.343 47.2485 222.593 47.6782 221.968 48.5376C221.348 49.397 221.006 50.5688 220.943 52.0532ZM41.3604 86.3184H48.6187V87.6367H47.3589C46.9146 87.6367 46.624 87.71 46.4873 87.8564C46.3506 87.998 46.2822 88.2349 46.2822 88.5669V92.1118H48.0474C48.6821 92.1118 49.1802 91.9702 49.5415 91.687C49.9077 91.4038 50.1738 91.0522 50.3398 90.6323C50.5059 90.2124 50.6816 89.624 50.8672 88.8672C51.1016 87.9541 51.4141 87.2314 51.8047 86.6992C52.2002 86.167 52.8594 85.9009 53.7822 85.9009C54.5146 85.9009 55.0811 86.1133 55.4814 86.5381C55.8867 86.9629 56.0894 87.4414 56.0894 87.9736C56.0894 88.5156 55.9355 88.9551 55.6279 89.292C55.3203 89.6289 54.9346 89.7974 54.4707 89.7974C53.9873 89.7974 53.626 89.6387 53.3867 89.3213C53.1475 88.999 53.0278 88.6597 53.0278 88.3032C53.0278 88.269 53.0327 88.2227 53.0425 88.1641C53.0522 88.1055 53.0571 88.0615 53.0571 88.0322C53.0571 87.832 53.0083 87.7319 52.9106 87.7319C52.6763 87.7319 52.4858 88.0103 52.3394 88.5669C52.0415 89.6802 51.8047 90.4883 51.6289 90.9912C51.4531 91.4941 51.2358 91.8921 50.9771 92.1851C50.7183 92.4731 50.3618 92.6685 49.9077 92.771V92.8589C51.1382 92.9858 52.0293 93.4351 52.5811 94.2065C53.1328 94.9731 53.543 95.874 53.8115 96.9092C54.0117 97.5781 54.1704 98.0371 54.2876 98.2861C54.4097 98.5303 54.6196 98.6523 54.9175 98.6523C55.5376 98.6523 55.8477 97.9126 55.8477 96.4331H56.9609C56.9609 98.02 56.668 99.082 56.082 99.6191C55.501 100.151 54.8735 100.417 54.1997 100.417C52.6812 100.417 51.7217 99.2773 51.3213 96.9971C51.0869 95.8936 50.7939 95.0854 50.4424 94.5728C50.0957 94.0552 49.71 93.7402 49.2852 93.6279C48.8652 93.5156 48.2744 93.4595 47.5127 93.4595H46.2822V97.7515C46.2822 98.1616 46.3555 98.4204 46.502 98.5278C46.6533 98.6304 46.9292 98.6816 47.3296 98.6816H48.6479V100H41.3311V98.6816H42.6494C43.0449 98.6816 43.3184 98.6304 43.4697 98.5278C43.6211 98.4253 43.6968 98.1665 43.6968 97.7515V93.4595H42.4736C41.707 93.4595 41.1138 93.5156 40.6938 93.6279C40.2739 93.7402 39.8882 94.0552 39.5366 94.5728C39.1851 95.0854 38.8921 95.8936 38.6577 96.9971C38.5454 97.5586 38.4062 98.0737 38.2402 98.5425C38.0791 99.0112 37.7983 99.4409 37.3979 99.8315C36.9976 100.222 36.458 100.417 35.7793 100.417C35.1104 100.417 34.4829 100.149 33.897 99.6118C33.311 99.0698 33.0181 98.0103 33.0181 96.4331H34.1313C34.1313 97.9126 34.4414 98.6523 35.0615 98.6523C35.3643 98.6523 35.5791 98.5229 35.7061 98.2642C35.833 98.0005 35.9868 97.5488 36.1675 96.9092C36.4507 95.8594 36.8657 94.9536 37.4126 94.1919C37.9595 93.4302 38.8457 92.9858 40.0713 92.8589V92.771C39.6172 92.6685 39.2607 92.4731 39.002 92.1851C38.7432 91.8921 38.5259 91.4941 38.3501 90.9912C38.1743 90.4883 37.9375 89.6802 37.6396 88.5669C37.4932 88.0103 37.3027 87.7319 37.0684 87.7319C36.9707 87.7319 36.9219 87.832 36.9219 88.0322C36.9219 88.0615 36.9268 88.1055 36.9365 88.1641C36.9463 88.2227 36.9512 88.269 36.9512 88.3032C36.9512 88.6597 36.8315 88.999 36.5923 89.3213C36.353 89.6387 35.9917 89.7974 35.5083 89.7974C35.0444 89.7974 34.6587 89.6265 34.3511 89.2847C34.0435 88.9429 33.8896 88.5059 33.8896 87.9736C33.8896 87.4512 34.0898 86.9751 34.4902 86.5454C34.8955 86.1157 35.4644 85.9009 36.1968 85.9009C37.1196 85.9009 37.7812 86.1743 38.1816 86.7212C38.582 87.2632 38.8921 87.9785 39.1118 88.8672C39.2974 89.624 39.4731 90.2124 39.6392 90.6323C39.8052 91.0522 40.0688 91.4038 40.4302 91.687C40.7964 91.9702 41.2969 92.1118 41.9316 92.1118H43.6968V88.5669C43.6968 88.2349 43.6284 87.998 43.4917 87.8564C43.3599 87.71 43.0693 87.6367 42.6201 87.6367H41.3604V86.3184ZM64.1094 96.1914L70.2251 88.7207C70.4644 88.4424 70.584 88.1812 70.584 87.937C70.4863 87.7368 70.2373 87.6367 69.8369 87.6367H68.2476V86.3184H75.5645V87.6367H74.2461C73.8457 87.6367 73.5698 87.688 73.4185 87.7905C73.272 87.8931 73.1987 88.1519 73.1987 88.5669V97.7515C73.1987 98.1616 73.272 98.4204 73.4185 98.5278C73.5698 98.6304 73.8457 98.6816 74.2461 98.6816H75.5645V100H68.2476V98.6816H69.5659C69.9614 98.6816 70.2349 98.6304 70.3862 98.5278C70.5376 98.4253 70.6133 98.1665 70.6133 97.7515V90.127L64.439 97.5977C64.2192 97.8711 64.1094 98.0908 64.1094 98.2568C64.1094 98.54 64.4292 98.6816 65.0688 98.6816H66.4458V100H59.1582V98.6816H60.4766C60.8721 98.6816 61.1455 98.6304 61.2969 98.5278C61.4482 98.4253 61.5239 98.1665 61.5239 97.7515V88.5669C61.5239 88.1519 61.4482 87.8931 61.2969 87.7905C61.1504 87.688 60.877 87.6367 60.4766 87.6367H59.1582V86.3184H66.4751V87.6367H65.1567C64.7563 87.6367 64.4805 87.688 64.3291 87.7905C64.1826 87.8931 64.1094 88.1519 64.1094 88.5669V96.1914ZM77.9082 86.3184H86.1553C87.7666 86.3184 88.9751 86.6357 89.7808 87.2705C90.5864 87.9053 90.9893 88.7183 90.9893 89.7095C90.9893 90.5542 90.6377 91.25 89.9346 91.7969C89.2363 92.3389 88.4062 92.6538 87.4443 92.7417V92.9175C89.0166 93.02 90.0835 93.4229 90.645 94.126C91.2114 94.8242 91.4946 95.5933 91.4946 96.4331C91.4946 97.4878 91.0088 98.3472 90.0371 99.0112C89.0703 99.6704 87.5371 100 85.4375 100H77.9082V98.6816H79.2266C79.6221 98.6816 79.8955 98.6304 80.0469 98.5278C80.1982 98.4253 80.2739 98.1665 80.2739 97.7515V88.5669C80.2739 88.1519 80.1982 87.8931 80.0469 87.7905C79.9004 87.688 79.627 87.6367 79.2266 87.6367H77.9082V86.3184ZM82.8594 92.1997H85.0127C86.8779 92.1997 87.8887 91.5698 88.0449 90.3101V89.6216C87.8789 88.2983 86.939 87.6367 85.2251 87.6367H83.5479C83.1084 87.6367 82.8887 87.7686 82.8887 88.0322C82.8887 88.1104 82.8838 88.1738 82.874 88.2227C82.8643 88.2715 82.8594 88.3081 82.8594 88.3325V92.1997ZM82.8594 93.5474V97.8687C82.8594 97.8784 82.8643 97.9126 82.874 97.9712C82.8838 98.0298 82.8887 98.0859 82.8887 98.1396C82.9375 98.4375 83.1572 98.5986 83.5479 98.623C83.6504 98.623 83.7407 98.6279 83.8188 98.6377C83.897 98.6475 83.9556 98.6523 83.9946 98.6523H85.3789C86.0918 98.6523 86.7681 98.4644 87.4077 98.0884C88.0522 97.7124 88.3745 97.0508 88.3745 96.1035C88.3745 94.3994 87.2441 93.5474 84.9834 93.5474H82.8594ZM93.6919 93.1592C93.6919 92.3291 93.8408 91.4868 94.1387 90.6323C94.4365 89.7729 94.876 88.9844 95.457 88.2666C96.043 87.5488 96.7656 86.9751 97.625 86.5454C98.4844 86.1157 99.4634 85.9009 100.562 85.9009C102.007 85.9009 103.25 86.2671 104.29 86.9995C105.335 87.7319 106.119 88.6597 106.641 89.7827C107.168 90.9058 107.432 92.0312 107.432 93.1592C107.432 94.2871 107.168 95.4126 106.641 96.5356C106.119 97.6587 105.335 98.5864 104.29 99.3188C103.25 100.051 102.007 100.417 100.562 100.417C99.1362 100.417 97.9009 100.054 96.856 99.3262C95.811 98.5938 95.0225 97.6636 94.4902 96.5356C93.958 95.4077 93.6919 94.2822 93.6919 93.1592ZM96.812 93.1592C96.812 97.0996 98.062 99.0698 100.562 99.0698C101.221 99.0698 101.829 98.9038 102.386 98.5718C102.942 98.2397 103.401 97.6318 103.763 96.748C104.129 95.8643 104.312 94.668 104.312 93.1592C104.312 91.0449 103.963 89.5312 103.265 88.6182C102.566 87.7051 101.666 87.2485 100.562 87.2485C99.4585 87.2485 98.5576 87.7051 97.8594 88.6182C97.1611 89.5312 96.812 91.0449 96.812 93.1592ZM112.361 100L112.332 98.6816H113.658C114.053 98.6816 114.327 98.6304 114.478 98.5278C114.629 98.4253 114.705 98.1665 114.705 97.7515V88.3325C114.705 87.7515 114.356 87.4609 113.658 87.4609C112.984 87.4609 112.339 87.8442 111.724 88.6108C111.114 89.3774 110.787 90.5444 110.743 92.1118H109.542V86.3184H122.476V92.1118H121.275C121.246 91.0962 121.08 90.2368 120.777 89.5337C120.479 88.8257 120.11 88.3032 119.671 87.9663C119.231 87.6294 118.797 87.4609 118.367 87.4609C117.664 87.4609 117.312 87.7515 117.312 88.3325V97.7515C117.312 98.1616 117.388 98.4204 117.54 98.5278C117.696 98.6304 117.972 98.6816 118.367 98.6816H119.686V100H112.361ZM129.676 92.1704H135.762V88.5669C135.762 88.1421 135.687 87.8809 135.535 87.7832C135.384 87.6855 135.11 87.6367 134.715 87.6367H133.426V86.3184H140.713V87.6367H139.395C138.995 87.6367 138.719 87.688 138.567 87.7905C138.416 87.8931 138.34 88.1519 138.34 88.5669V97.7515C138.34 98.1616 138.416 98.4204 138.567 98.5278C138.724 98.6304 139 98.6816 139.395 98.6816H140.713V100H133.389V98.6816H134.715C135.11 98.6816 135.384 98.6304 135.535 98.5278C135.687 98.4253 135.762 98.1665 135.762 97.7515V93.4888H129.676V97.7515C129.676 98.1616 129.749 98.4204 129.896 98.5278C130.047 98.6304 130.323 98.6816 130.723 98.6816H132.042V100H124.725V98.6816H126.043C126.438 98.6816 126.712 98.6304 126.863 98.5278C127.015 98.4253 127.09 98.1665 127.09 97.7515V88.5669C127.09 88.1519 127.015 87.8931 126.863 87.7905C126.717 87.688 126.443 87.6367 126.043 87.6367H124.725V86.3184H132.042V87.6367H130.723C130.323 87.6367 130.047 87.688 129.896 87.7905C129.749 87.8931 129.676 88.1519 129.676 88.5669V92.1704ZM150.381 86.3184V87.6367H149.063C148.697 87.6367 148.431 87.688 148.265 87.7905C148.099 87.8931 148.016 88.1519 148.016 88.5669V92.1411H150.953C153.233 92.1411 154.769 92.5708 155.56 93.4302C156.351 94.2896 156.746 95.21 156.746 96.1914C156.746 96.6211 156.619 97.1191 156.365 97.6855C156.111 98.252 155.547 98.7793 154.673 99.2676C153.804 99.7559 152.544 100 150.894 100H143.064V98.6816H144.383C144.778 98.6816 145.052 98.6304 145.203 98.5278C145.354 98.4253 145.43 98.1665 145.43 97.7515V88.5669C145.43 88.1519 145.354 87.8931 145.203 87.7905C145.057 87.688 144.783 87.6367 144.383 87.6367H143.064V86.3184H150.381ZM148.016 93.4888V97.6929C148.016 98.3521 148.375 98.6816 149.092 98.6816H150.594C151.434 98.6816 152.149 98.4839 152.74 98.0884C153.331 97.6929 153.626 97.041 153.626 96.1328C153.626 95.3857 153.411 94.7583 152.981 94.2505C152.557 93.7427 151.661 93.4888 150.293 93.4888H148.016ZM156.863 86.3184H164.18V87.6367H162.862C162.461 87.6367 162.186 87.688 162.034 87.7905C161.888 87.8931 161.814 88.1519 161.814 88.5669V97.7515C161.814 98.1616 161.888 98.4204 162.034 98.5278C162.186 98.6304 162.461 98.6816 162.862 98.6816H164.18V100H156.863V98.6816H158.182C158.577 98.6816 158.851 98.6304 159.002 98.5278C159.153 98.4253 159.229 98.1665 159.229 97.7515V88.5669C159.229 88.1519 159.153 87.8931 159.002 87.7905C158.855 87.688 158.582 87.6367 158.182 87.6367H156.863V86.3184ZM177.327 96.0083L178.528 96.6382C177.449 99.1577 175.499 100.417 172.676 100.417C171.412 100.417 170.301 100.112 169.344 99.502C168.392 98.8867 167.659 98.0273 167.146 96.9238C166.634 95.8154 166.377 94.5605 166.377 93.1592C166.377 91.8652 166.636 90.6641 167.154 89.5557C167.671 88.4424 168.418 87.5562 169.395 86.897C170.372 86.2329 171.517 85.9009 172.83 85.9009C174.158 85.9009 175.274 86.2305 176.177 86.8896C177.085 87.5488 177.754 88.4009 178.184 89.4458C178.614 90.4858 178.829 91.5747 178.829 92.7124V93.4009H169.498C169.498 95.2173 169.825 96.6162 170.479 97.5977C171.138 98.5791 171.993 99.0698 173.042 99.0698C174.146 99.0698 175.057 98.7402 175.774 98.0811C176.492 97.417 177.01 96.7261 177.327 96.0083ZM169.498 92.0532H175.262C175.594 92.0532 175.772 91.8628 175.796 91.4819V90.9106C175.713 89.7241 175.384 88.8184 174.808 88.1934C174.231 87.5635 173.553 87.2485 172.771 87.2485C171.897 87.2485 171.148 87.6782 170.523 88.5376C169.903 89.397 169.561 90.5688 169.498 92.0532Z" fill="#59443F"/>
<path d="M41.62 201V199.64H35.98L38.76 196.5C39.3 195.88 40.02 195.06 40.58 194.28C41.38 193.14 41.64 192.32 41.64 191.42C41.64 189.12 39.88 187.44 37.52 187.44C35.86 187.44 34.92 188.16 34.36 188.8C33.84 189.4 33.42 190.22 33.36 191.56H34.84C34.86 190.88 35.02 190.38 35.28 189.98C35.78 189.22 36.56 188.8 37.5 188.8C39.08 188.8 40.16 189.9 40.16 191.4C40.16 191.94 40.02 192.58 39.42 193.44C39.1 193.92 38.2 194.98 37.86 195.38L33 201H41.62ZM49.345 187.34L44.805 193.64C43.805 195.04 43.705 196.2 43.705 196.7C43.705 198.8 45.185 201.24 48.325 201.24C50.985 201.24 52.905 199.32 52.905 196.66C52.905 194.18 51.145 192.26 48.585 192.26C48.165 192.26 47.785 192.32 47.405 192.44L50.465 188.18L49.345 187.34ZM48.305 199.88C46.445 199.88 45.185 198.48 45.185 196.7C45.185 194.96 46.465 193.62 48.285 193.62C50.105 193.62 51.425 194.92 51.425 196.7C51.425 198.5 50.145 199.88 48.305 199.88ZM60.0002 205.6H61.6002L67.7002 192.7H66.1002L63.4002 198.64L60.4602 192.7H58.8202L62.6402 200.22L60.0002 205.6ZM75.7194 193.3C75.3194 193.02 74.4594 192.5 73.1394 192.5C70.5794 192.5 68.6994 194.36 68.6994 196.9C68.6994 199.4 70.5594 201.24 73.1394 201.24C73.9194 201.24 74.8794 201.04 75.7794 200.38V198.66C75.0194 199.58 73.9594 199.96 73.0994 199.96C71.6194 199.96 70.1794 198.9 70.1794 196.88C70.1794 194.86 71.5794 193.78 73.1194 193.78C73.8594 193.78 74.9594 194.06 75.7194 195.02V193.3ZM84.2689 192.7H78.4289V197.76C78.4289 198.26 78.4089 198.78 78.1489 199.18C77.9889 199.44 77.6489 199.72 77.1089 199.72C77.0089 199.72 76.8889 199.7 76.7889 199.68V201C76.9289 201.02 77.0889 201.04 77.2289 201.04C78.3489 201.04 78.9689 200.48 79.2289 200.16C79.8689 199.38 79.8689 198.46 79.8689 197.76V194.02H82.8289V201H84.2689V192.7ZM86.9728 205.6H88.5728L94.6728 192.7H93.0728L90.3728 198.64L87.4328 192.7H85.7928L89.6128 200.22L86.9728 205.6ZM96.192 201H97.632V194.02H101.112V192.7H96.192V201Z" fill="#59443F"/>
<defs>
<filter id="filter0_d_302_1783" x="0" y="0" width="340" height="240" filterUnits="userSpaceOnUse" color-interpolation-filters="sRGB">
<feFlood flood-opacity="0" result="BackgroundImageFix"/>
<feColorMatrix in="SourceAlpha" type="matrix" values="0 0 0 0 0 0 0 0 0 0 0 0 0 0 0 0 0 0 127 0" result="hardAlpha"/>
<feOffset dx="2" dy="2"/>
<feGaussianBlur stdDeviation="5"/>
<feColorMatrix type="matrix" values="0 0 0 0 0 0 0 0 0 0 0 0 0 0 0 0 0 0 0.1 0"/>
<feBlend mode="normal" in2="BackgroundImageFix" result="effect1_dropShadow_302_1783"/>
<feBlend mode="normal" in="SourceGraphic" in2="effect1_dropShadow_302_1783" result="shape"/>
</filter>
</defs>
</svg>
