<svg width="342" height="242" viewBox="0 0 342 242" fill="none" xmlns="http://www.w3.org/2000/svg">
<g filter="url(#filter0_d_302_1733)">
<rect x="9" y="9" width="320" height="220" rx="20" fill="white"/>
<rect x="9" y="9" width="320" height="220" rx="20" stroke="#C3B9B5"/>
</g>
<mask id="mask0_302_1733" style="mask-type:alpha" maskUnits="userSpaceOnUse" x="9" y="9" width="320" height="220">
<rect x="9" y="9" width="320" height="220" rx="20" fill="white"/>
</mask>
<g mask="url(#mask0_302_1733)">
<path d="M271.735 95C261.294 95 252.219 99.9697 245.493 109.372C244.164 111.23 243.053 113.086 242.139 114.81C241.224 113.086 240.114 111.23 238.784 109.372C232.058 99.9697 222.984 95 212.543 95C193.206 95 179 111.094 179 130.827C179 152.821 196.87 167.872 223.92 190.656C228.958 194.9 234.168 199.288 239.716 204.096C240.411 204.699 241.275 205 242.139 205C243.003 205 243.867 204.699 244.562 204.096C250.11 199.288 255.32 194.9 260.358 190.656C287.408 167.872 305.278 152.821 305.278 130.827C305.278 111.099 291.078 95 271.735 95ZM255.592 184.997C251.271 188.635 246.825 192.38 242.139 196.413C237.452 192.38 233.006 188.635 228.686 184.997C214.147 172.75 202.427 162.877 195.045 153.206H212.543C213.944 153.206 215.225 152.414 215.851 151.161L219.942 142.981L231.431 165.959C232.057 167.213 233.338 168.004 234.74 168.004C236.141 168.004 237.422 167.213 238.049 165.959L242.139 157.779L246.229 165.959C246.856 167.212 248.137 168.004 249.538 168.004C250.939 168.004 252.22 167.212 252.847 165.959L264.336 142.981L268.426 151.161C269.053 152.414 270.334 153.181 271.735 153.181H289.233C281.851 162.853 270.131 172.75 255.592 184.997ZM274.022 145.807L267.645 133.054C267.019 131.801 265.738 131.009 264.336 131.009C262.935 131.009 261.654 131.801 261.027 133.054L249.538 156.032L245.448 147.852C244.821 146.599 243.54 145.807 242.139 145.807C240.737 145.807 239.456 146.599 238.83 147.852L234.74 156.032L223.25 133.054C222.624 131.801 221.343 131.009 219.942 131.009C218.54 131.009 217.259 131.801 216.633 133.054L210.256 145.807H190.266C187.751 140.989 186.399 136.084 186.399 130.827C186.399 114.62 197.638 102.399 212.543 102.399C220.545 102.399 227.308 106.137 232.645 113.508C236.846 119.311 238.555 125.271 238.575 125.344C239.021 126.943 240.478 128.049 242.139 128.049C243.802 128.049 245.26 126.94 245.704 125.337C245.768 125.108 252.281 102.399 271.735 102.399C286.639 102.399 297.879 114.62 297.879 130.827C297.879 136.084 296.527 140.989 294.011 145.807H274.022Z" fill="#59443F"/>
</g>
<path d="M40.6465 51.0977V58.1802C40.6465 58.6733 40.7271 59.0322 40.8882 59.2568C41.0493 59.4766 41.4595 59.5864 42.1187 59.5864H43.8618V61H34.0767V59.5864H35.8198C36.479 59.5864 36.8892 59.4766 37.0503 59.2568C37.2114 59.0322 37.292 58.6733 37.292 58.1802V43.4219C37.292 42.9238 37.2114 42.5649 37.0503 42.3452C36.894 42.1206 36.4839 42.0083 35.8198 42.0083H34.0767V40.6021H43.8618V42.0083H42.1187C41.4546 42.0083 41.042 42.1206 40.8809 42.3452C40.7246 42.5649 40.6465 42.9238 40.6465 43.4219V49.6914H41.1006C42.6924 49.6914 43.8447 49.5059 44.5576 49.1348C45.2754 48.7588 45.7222 48.2754 45.8979 47.6846C46.0786 47.0938 46.2593 46.0415 46.4399 44.5278C46.6304 42.9116 47.1479 41.7788 47.9927 41.1294C48.8374 40.4751 49.7505 40.1479 50.7319 40.1479C51.396 40.1479 52.0112 40.2944 52.5776 40.5874C53.1489 40.8804 53.5981 41.2832 53.9253 41.7959C54.2573 42.3037 54.4233 42.8652 54.4233 43.4805C54.4233 43.9004 54.3159 44.2861 54.1011 44.6377C53.8911 44.9844 53.6128 45.2578 53.2661 45.458C52.9194 45.6582 52.5532 45.7583 52.1675 45.7583C51.5571 45.7583 51.0298 45.5801 50.5854 45.2236C50.1411 44.8623 49.9189 44.3521 49.9189 43.6929C49.9189 43.0728 50.0996 42.582 50.4609 42.2207C50.6416 41.9814 50.7319 41.8423 50.7319 41.8032C50.7319 41.6226 50.6001 41.5322 50.3364 41.5322C49.0474 41.5322 48.2881 42.5918 48.0586 44.7109C47.8584 46.3613 47.563 47.5942 47.1724 48.4097C46.7817 49.2202 46.2178 49.8477 45.4805 50.292C46.6475 50.5459 47.563 50.9487 48.2271 51.5005C48.8911 52.0522 49.3647 52.6895 49.6479 53.4121C49.9312 54.1348 50.1509 55.0234 50.3071 56.0781C50.4438 56.9717 50.6001 57.6821 50.7759 58.2095C50.9565 58.7319 51.291 58.9932 51.7793 58.9932C52.6045 58.9932 53.0757 57.8726 53.1929 55.6313H54.7529C54.7725 55.812 54.7822 56.0708 54.7822 56.4077C54.7822 57.9458 54.3916 59.1665 53.6104 60.0698C52.834 60.9683 51.9038 61.4175 50.8198 61.4175C48.6421 61.4175 47.3018 59.728 46.7988 56.3491C46.7061 55.5532 46.6133 54.8086 46.5205 54.1152C46.4277 53.4219 46.2349 52.8628 45.9419 52.438C45.6538 52.0132 45.1362 51.6836 44.3892 51.4492C43.6421 51.2148 42.5557 51.0977 41.1299 51.0977H40.6465ZM70.9395 59.3228L71.5107 59.9526C70.8564 60.5386 70.3364 60.9292 69.9507 61.1245C69.5649 61.3198 69.0864 61.4175 68.5151 61.4175C67.6997 61.4175 67.1162 61.1758 66.7646 60.6924C66.4131 60.2041 66.2056 59.667 66.1421 59.0811H65.959C64.8945 60.6387 63.2856 61.4175 61.1323 61.4175C59.5747 61.4175 58.5005 61.0562 57.9097 60.3335C57.3188 59.6108 57.0234 58.8027 57.0234 57.9092C57.0234 57.167 57.2505 56.4932 57.7046 55.8877C58.1636 55.2773 58.7935 54.7451 59.5942 54.291C60.395 53.8369 61.3325 53.4463 62.4067 53.1191C63.4858 52.7871 64.6602 52.5137 65.9297 52.2988V51.127C65.9297 50.1113 65.6245 49.374 65.0142 48.915C64.4038 48.4512 63.6396 48.2192 62.7217 48.2192C62.3018 48.2192 61.8892 48.2754 61.4839 48.3877C61.0835 48.5 60.7588 48.6538 60.5098 48.8491C60.2656 49.0396 60.1436 49.2397 60.1436 49.4497C60.1436 49.6157 60.2437 49.7549 60.4438 49.8672C60.7124 50.043 60.9224 50.2188 61.0737 50.3945C61.23 50.5703 61.3081 50.8047 61.3081 51.0977C61.3081 51.5273 61.1641 51.8911 60.876 52.189C60.5928 52.4819 60.2388 52.6284 59.814 52.6284C59.3745 52.6284 58.9644 52.4819 58.5835 52.189C58.2026 51.896 58.0122 51.4932 58.0122 50.9805C58.0122 50.3164 58.2124 49.667 58.6128 49.0322C59.0181 48.3975 59.6089 47.8848 60.3853 47.4941C61.1616 47.0986 62.0796 46.9009 63.1392 46.9009C66.7231 46.9009 68.5151 48.5513 68.5151 51.8521V58.5098C68.5151 59.5498 68.8545 60.0698 69.5332 60.0698C70.0117 60.0698 70.4805 59.8208 70.9395 59.3228ZM65.9297 55.8071V53.5586C64.7871 53.7686 63.7959 54.0298 62.9561 54.3423C62.1162 54.6499 61.4375 55.0625 60.9199 55.5801C60.4023 56.0928 60.1436 56.7104 60.1436 57.4331C60.1436 58.1655 60.3364 58.7881 60.7222 59.3008C61.1079 59.8135 61.645 60.0698 62.3335 60.0698C62.9097 60.0698 63.4761 59.8989 64.0327 59.5571C64.5894 59.2104 65.0435 58.7124 65.395 58.063C65.7515 57.4136 65.9297 56.6616 65.9297 55.8071ZM72.4849 47.3184L77.4067 46.9009V48.9736C78.4663 47.5918 79.7554 46.9009 81.2739 46.9009C82.4165 46.9009 83.4004 47.1279 84.2256 47.582C85.0508 48.0361 85.7148 48.6343 86.2178 49.3765C86.7256 50.1187 87.0942 50.9292 87.3237 51.8081C87.5532 52.6821 87.668 53.5464 87.668 54.4009C87.668 55.2017 87.5312 56.0146 87.2578 56.8398C86.9893 57.665 86.584 58.4268 86.042 59.125C85.5049 59.8232 84.8335 60.3799 84.0278 60.7949C83.2222 61.21 82.3042 61.4175 81.2739 61.4175C79.5601 61.4175 78.2808 60.6875 77.436 59.2275H77.1943L77.4067 60.4873V64.1201C77.4067 64.5303 77.48 64.7866 77.6265 64.8892C77.7778 64.9966 78.0537 65.0503 78.4541 65.0503H80.1387V66.3687H72.4556V65.0503H73.7739C74.1694 65.0503 74.4429 64.999 74.5942 64.8965C74.7505 64.7939 74.8286 64.5352 74.8286 64.1201V49.5669C74.8286 49.1519 74.7529 48.8931 74.6016 48.7905C74.4502 48.688 74.1743 48.6367 73.7739 48.6367H72.4849V47.3184ZM77.4067 54.2471C77.4067 55.5459 77.5752 56.6348 77.9121 57.5137C78.249 58.3877 78.6885 59.0322 79.2305 59.4473C79.7725 59.8623 80.3535 60.0698 80.9736 60.0698C81.8477 60.0698 82.6606 59.6694 83.4126 58.8687C84.1694 58.063 84.5479 56.5127 84.5479 54.2178C84.5479 51.8447 84.1841 50.2578 83.4565 49.457C82.729 48.6514 81.9014 48.2485 80.9736 48.2485C80.0752 48.2485 79.2549 48.6782 78.5127 49.5376C77.7754 50.397 77.4067 51.9668 77.4067 54.2471ZM100.061 60.9707H93.9155C91.6743 60.9707 90.5537 62.4404 90.5537 65.3799H89.3525V59.6523H90.7368C91.5327 59.6523 92.2822 58.5122 92.9854 56.2319C93.8252 53.5806 94.2451 51.5493 94.2451 50.1382C94.2451 49.4839 94.0693 49.0713 93.7178 48.9004C93.3662 48.7246 92.9316 48.6367 92.4141 48.6367H91.9966V47.3184H104.14V48.6367H102.792C102.373 48.6367 102.097 48.71 101.965 48.8564C101.838 48.998 101.774 49.2959 101.774 49.75V58.4805C101.774 59.2617 101.955 59.6523 102.316 59.6523H104.14V65.3799H102.946C102.868 63.749 102.553 62.6064 102.001 61.9521C101.455 61.2979 100.808 60.9707 100.061 60.9707ZM99.1963 58.9565V49.3911C99.1963 48.8882 98.8765 48.6367 98.2368 48.6367H96.7061C96.3594 48.6367 96.1323 48.7515 96.0249 48.981C95.9175 49.2056 95.8345 49.5718 95.7759 50.0796C95.5122 52.3159 95.2144 54.0469 94.8823 55.2725C94.5503 56.4932 94.1963 57.5332 93.8203 58.3926C93.6641 58.7734 93.5859 59.042 93.5859 59.1982C93.5859 59.501 93.7959 59.6523 94.2158 59.6523H98.0244C98.3955 59.6523 98.6836 59.6108 98.8887 59.5278C99.0938 59.4448 99.1963 59.2544 99.1963 58.9565ZM111.428 57.1914L117.543 49.7207C117.783 49.4424 117.902 49.1812 117.902 48.937C117.805 48.7368 117.556 48.6367 117.155 48.6367H115.566V47.3184H122.883V48.6367H121.564C121.164 48.6367 120.888 48.688 120.737 48.7905C120.59 48.8931 120.517 49.1519 120.517 49.5669V58.7515C120.517 59.1616 120.59 59.4204 120.737 59.5278C120.888 59.6304 121.164 59.6816 121.564 59.6816H122.883V61H115.566V59.6816H116.884C117.28 59.6816 117.553 59.6304 117.705 59.5278C117.856 59.4253 117.932 59.1665 117.932 58.7515V51.127L111.757 58.5977C111.538 58.8711 111.428 59.0908 111.428 59.2568C111.428 59.54 111.748 59.6816 112.387 59.6816H113.764V61H106.477V59.6816H107.795C108.19 59.6816 108.464 59.6304 108.615 59.5278C108.767 59.4253 108.842 59.1665 108.842 58.7515V49.5669C108.842 49.1519 108.767 48.8931 108.615 48.7905C108.469 48.688 108.195 48.6367 107.795 48.6367H106.477V47.3184H113.793V48.6367H112.475C112.075 48.6367 111.799 48.688 111.647 48.7905C111.501 48.8931 111.428 49.1519 111.428 49.5669V57.1914ZM125.073 54.1592C125.073 53.3291 125.222 52.4868 125.52 51.6323C125.817 50.7729 126.257 49.9844 126.838 49.2666C127.424 48.5488 128.146 47.9751 129.006 47.5454C129.865 47.1157 130.844 46.9009 131.943 46.9009C133.388 46.9009 134.631 47.2671 135.671 47.9995C136.716 48.7319 137.5 49.6597 138.022 50.7827C138.549 51.9058 138.813 53.0312 138.813 54.1592C138.813 55.2871 138.549 56.4126 138.022 57.5356C137.5 58.6587 136.716 59.5864 135.671 60.3188C134.631 61.0513 133.388 61.4175 131.943 61.4175C130.517 61.4175 129.282 61.0537 128.237 60.3262C127.192 59.5938 126.403 58.6636 125.871 57.5356C125.339 56.4077 125.073 55.2822 125.073 54.1592ZM128.193 54.1592C128.193 58.0996 129.443 60.0698 131.943 60.0698C132.602 60.0698 133.21 59.9038 133.767 59.5718C134.323 59.2397 134.782 58.6318 135.144 57.748C135.51 56.8643 135.693 55.668 135.693 54.1592C135.693 52.0449 135.344 50.5312 134.646 49.6182C133.947 48.7051 133.046 48.2485 131.943 48.2485C130.839 48.2485 129.938 48.7051 129.24 49.6182C128.542 50.5312 128.193 52.0449 128.193 54.1592ZM143.808 48.6367V47.3184H156.435V48.6367H155.117C154.716 48.6367 154.44 48.688 154.289 48.7905C154.143 48.8931 154.069 49.1519 154.069 49.5669V58.7515C154.069 59.1616 154.143 59.4204 154.289 59.5278C154.44 59.6304 154.716 59.6816 155.117 59.6816H156.435V61H149.118V59.6816H150.437C150.832 59.6816 151.105 59.6304 151.257 59.5278C151.408 59.4253 151.484 59.1665 151.484 58.7515V49.208C151.484 48.8271 151.096 48.6367 150.319 48.6367H149.177C148.557 48.6367 148.171 48.7759 148.02 49.0542C147.873 49.3325 147.778 49.7549 147.734 50.3213C147.67 51.3027 147.561 52.5234 147.404 53.9834C147.253 55.3652 147.055 56.5615 146.811 57.5723C146.572 58.583 146.123 59.4766 145.463 60.2529C144.809 61.0293 143.896 61.4175 142.724 61.4175C142.202 61.4175 141.691 61.249 141.193 60.9121C140.695 60.5703 140.446 60.0186 140.446 59.2568C140.446 58.6953 140.603 58.2607 140.915 57.9531C141.232 57.6455 141.606 57.4917 142.036 57.4917C142.451 57.4917 142.783 57.6211 143.032 57.8799C143.286 58.1387 143.413 58.4487 143.413 58.8101C143.413 58.8735 143.393 58.9834 143.354 59.1396C143.334 59.1982 143.325 59.2886 143.325 59.4106C143.325 59.689 143.476 59.8281 143.779 59.8281C144.472 59.8281 145.031 59.0493 145.456 57.4917C145.9 55.8511 146.171 53.7197 146.269 51.0977V50.3799C146.24 49.667 146.088 49.1982 145.815 48.9736C145.542 48.749 145.061 48.6367 144.372 48.6367H143.808ZM158.618 54.1592C158.618 53.3291 158.767 52.4868 159.064 51.6323C159.362 50.7729 159.802 49.9844 160.383 49.2666C160.969 48.5488 161.691 47.9751 162.551 47.5454C163.41 47.1157 164.389 46.9009 165.488 46.9009C166.933 46.9009 168.176 47.2671 169.216 47.9995C170.261 48.7319 171.044 49.6597 171.567 50.7827C172.094 51.9058 172.358 53.0312 172.358 54.1592C172.358 55.2871 172.094 56.4126 171.567 57.5356C171.044 58.6587 170.261 59.5864 169.216 60.3188C168.176 61.0513 166.933 61.4175 165.488 61.4175C164.062 61.4175 162.827 61.0537 161.782 60.3262C160.737 59.5938 159.948 58.6636 159.416 57.5356C158.884 56.4077 158.618 55.2822 158.618 54.1592ZM161.738 54.1592C161.738 58.0996 162.988 60.0698 165.488 60.0698C166.147 60.0698 166.755 59.9038 167.312 59.5718C167.868 59.2397 168.327 58.6318 168.688 57.748C169.055 56.8643 169.238 55.668 169.238 54.1592C169.238 52.0449 168.889 50.5312 168.19 49.6182C167.492 48.7051 166.591 48.2485 165.488 48.2485C164.384 48.2485 163.483 48.7051 162.785 49.6182C162.087 50.5312 161.738 52.0449 161.738 54.1592ZM186.684 53.229H185.512C185.356 51.8569 185.136 50.8462 184.853 50.1968C184.58 49.5571 184.213 49.1372 183.754 48.937C183.3 48.7368 182.727 48.6367 182.033 48.6367H180.561C180.102 48.6367 179.812 48.749 179.689 48.9736C179.572 49.1982 179.514 49.5059 179.514 49.8965V58.7515C179.514 59.1616 179.587 59.4204 179.733 59.5278C179.885 59.6304 180.161 59.6816 180.561 59.6816H181.879V61H174.562V59.6816H175.881C176.276 59.6816 176.55 59.6304 176.701 59.5278C176.853 59.4253 176.928 59.1665 176.928 58.7515V49.5669C176.928 49.1519 176.853 48.8931 176.701 48.7905C176.555 48.688 176.281 48.6367 175.881 48.6367H174.562V47.3184H186.684V53.229ZM193.635 57.1914L199.75 49.7207C199.99 49.4424 200.109 49.1812 200.109 48.937C200.012 48.7368 199.763 48.6367 199.362 48.6367H197.773V47.3184H205.09V48.6367H203.771C203.371 48.6367 203.095 48.688 202.944 48.7905C202.797 48.8931 202.724 49.1519 202.724 49.5669V58.7515C202.724 59.1616 202.797 59.4204 202.944 59.5278C203.095 59.6304 203.371 59.6816 203.771 59.6816H205.09V61H197.773V59.6816H199.091C199.487 59.6816 199.76 59.6304 199.912 59.5278C200.063 59.4253 200.139 59.1665 200.139 58.7515V51.127L193.964 58.5977C193.745 58.8711 193.635 59.0908 193.635 59.2568C193.635 59.54 193.955 59.6816 194.594 59.6816H195.971V61H188.684V59.6816H190.002C190.397 59.6816 190.671 59.6304 190.822 59.5278C190.974 59.4253 191.049 59.1665 191.049 58.7515V49.5669C191.049 49.1519 190.974 48.8931 190.822 48.7905C190.676 48.688 190.402 48.6367 190.002 48.6367H188.684V47.3184H196V48.6367H194.682C194.282 48.6367 194.006 48.688 193.854 48.7905C193.708 48.8931 193.635 49.1519 193.635 49.5669V57.1914ZM207.28 57.1035H208.452C208.559 58.7197 208.879 59.5278 209.411 59.5278C209.714 59.5278 209.943 59.3472 210.1 58.9858C210.256 58.6196 210.388 58.1606 210.495 57.6089C210.671 56.7544 210.971 56.0171 211.396 55.397C211.826 54.7769 212.624 54.4155 213.791 54.313V54.1006C212.595 54.0664 211.521 53.7856 210.568 53.2583C209.616 52.731 209.14 51.9717 209.14 50.9805C209.14 50.0088 209.599 49.1567 210.517 48.4243C211.435 47.687 212.927 47.3184 214.992 47.3184H222.939V48.6367H221.621C221.22 48.6367 220.944 48.688 220.793 48.7905C220.646 48.8931 220.573 49.1519 220.573 49.5669V58.7515C220.573 59.1616 220.646 59.4204 220.793 59.5278C220.944 59.6304 221.22 59.6816 221.621 59.6816H222.939V61H215.622V59.6816H216.94C217.336 59.6816 217.609 59.6304 217.761 59.5278C217.917 59.4253 217.995 59.1665 217.995 58.7515V54.7305H215.893C215.034 54.7305 214.414 55.0332 214.033 55.6387C213.657 56.2441 213.347 57.1401 213.103 58.3267C212.932 59.2446 212.666 59.9893 212.304 60.5605C211.943 61.1318 211.289 61.4175 210.341 61.4175C208.369 61.4175 207.348 59.9795 207.28 57.1035ZM217.995 53.3828V49.6328C217.995 49.2178 217.88 48.9395 217.651 48.7979C217.421 48.6514 217.065 48.5781 216.582 48.5781C216.386 48.5781 216.005 48.5977 215.439 48.6367C213.32 48.7783 212.26 49.5693 212.26 51.0098C212.26 51.5762 212.495 52.1133 212.963 52.6211C213.437 53.1289 214.252 53.3828 215.41 53.3828H217.995Z" fill="#59443F"/>
<path d="M42.62 202V200.64H36.98L39.76 197.5C40.3 196.88 41.02 196.06 41.58 195.28C42.38 194.14 42.64 193.32 42.64 192.42C42.64 190.12 40.88 188.44 38.52 188.44C36.86 188.44 35.92 189.16 35.36 189.8C34.84 190.4 34.42 191.22 34.36 192.56H35.84C35.86 191.88 36.02 191.38 36.28 190.98C36.78 190.22 37.56 189.8 38.5 189.8C40.08 189.8 41.16 190.9 41.16 192.4C41.16 192.94 41.02 193.58 40.42 194.44C40.1 194.92 39.2 195.98 38.86 196.38L34 202H42.62ZM50.345 188.34L45.805 194.64C44.805 196.04 44.705 197.2 44.705 197.7C44.705 199.8 46.185 202.24 49.325 202.24C51.985 202.24 53.905 200.32 53.905 197.66C53.905 195.18 52.145 193.26 49.585 193.26C49.165 193.26 48.785 193.32 48.405 193.44L51.465 189.18L50.345 188.34ZM49.305 200.88C47.445 200.88 46.185 199.48 46.185 197.7C46.185 195.96 47.465 194.62 49.285 194.62C51.105 194.62 52.425 195.92 52.425 197.7C52.425 199.5 51.145 200.88 49.305 200.88ZM61.0002 206.6H62.6002L68.7002 193.7H67.1002L64.4002 199.64L61.4602 193.7H59.8202L63.6402 201.22L61.0002 206.6ZM76.7194 194.3C76.3194 194.02 75.4594 193.5 74.1394 193.5C71.5794 193.5 69.6994 195.36 69.6994 197.9C69.6994 200.4 71.5594 202.24 74.1394 202.24C74.9194 202.24 75.8794 202.04 76.7794 201.38V199.66C76.0194 200.58 74.9594 200.96 74.0994 200.96C72.6194 200.96 71.1794 199.9 71.1794 197.88C71.1794 195.86 72.5794 194.78 74.1194 194.78C74.8594 194.78 75.9594 195.06 76.7194 196.02V194.3ZM85.2689 193.7H79.4289V198.76C79.4289 199.26 79.4089 199.78 79.1489 200.18C78.9889 200.44 78.6489 200.72 78.1089 200.72C78.0089 200.72 77.8889 200.7 77.7889 200.68V202C77.9289 202.02 78.0889 202.04 78.2289 202.04C79.3489 202.04 79.9689 201.48 80.2289 201.16C80.8689 200.38 80.8689 199.46 80.8689 198.76V195.02H83.8289V202H85.2689V193.7ZM87.9728 206.6H89.5728L95.6728 193.7H94.0728L91.3728 199.64L88.4328 193.7H86.7928L90.6128 201.22L87.9728 206.6ZM97.192 202H98.632V195.02H102.112V193.7H97.192V202Z" fill="#59443F"/>
<defs>
<filter id="filter0_d_302_1733" x="0.5" y="0.5" width="341" height="241" filterUnits="userSpaceOnUse" color-interpolation-filters="sRGB">
<feFlood flood-opacity="0" result="BackgroundImageFix"/>
<feColorMatrix in="SourceAlpha" type="matrix" values="0 0 0 0 0 0 0 0 0 0 0 0 0 0 0 0 0 0 127 0" result="hardAlpha"/>
<feOffset dx="2" dy="2"/>
<feGaussianBlur stdDeviation="5"/>
<feColorMatrix type="matrix" values="0 0 0 0 0 0 0 0 0 0 0 0 0 0 0 0 0 0 0.1 0"/>
<feBlend mode="normal" in2="BackgroundImageFix" result="effect1_dropShadow_302_1733"/>
<feBlend mode="normal" in="SourceGraphic" in2="effect1_dropShadow_302_1733" result="shape"/>
</filter>
</defs>
</svg>
