<svg width="340" height="240" viewBox="0 0 340 240" fill="none" xmlns="http://www.w3.org/2000/svg">
<g filter="url(#filter0_d_302_1682)">
<rect x="8" y="8" width="320" height="220" rx="20" fill="white"/>
</g>
<mask id="mask0_302_1682" style="mask-type:alpha" maskUnits="userSpaceOnUse" x="8" y="8" width="320" height="220">
<rect x="8" y="8" width="320" height="220" rx="20" fill="#FFFEFE"/>
</mask>
<g mask="url(#mask0_302_1682)">
<path d="M248.785 171.453C248.013 171.453 247.254 171.511 246.51 171.617L239.536 156.2L251.701 128.893C255.605 120.995 252.459 111.34 244.461 107.34C243.677 106.949 242.767 106.893 241.941 107.186C241.115 107.479 240.444 108.096 240.084 108.895L229.111 133.155L218.135 108.894C217.774 108.096 217.103 107.479 216.277 107.186C215.452 106.892 214.542 106.948 213.758 107.34C205.754 111.342 202.615 121 206.518 128.894L218.697 156.18L211.751 171.536C211.212 171.481 210.666 171.453 210.113 171.453C201.228 171.453 194 178.682 194 187.567C194 196.451 201.228 203.68 210.113 203.68C218.998 203.68 226.227 196.451 226.227 187.567C226.227 187.11 226.203 186.659 226.165 186.211L229.13 179.558L232.674 187.498C232.674 187.521 232.672 187.543 232.672 187.567C232.672 196.451 239.9 203.68 248.785 203.68C257.67 203.68 264.898 196.451 264.898 187.567C264.898 178.682 257.67 171.453 248.785 171.453ZM212.376 126.206C212.357 126.163 212.337 126.12 212.316 126.078C210.424 122.294 211.268 117.961 213.892 115.152L225.574 140.975L222.249 148.326L212.376 126.206ZM210.113 197.234C204.782 197.234 200.445 192.897 200.445 187.567C200.445 182.236 204.782 177.899 210.113 177.899C215.444 177.899 219.781 182.236 219.781 187.567C219.781 192.897 215.444 197.234 210.113 197.234ZM222.879 177.751C221.543 176.017 219.863 174.562 217.942 173.49L244.327 115.153C246.969 117.981 247.783 122.318 245.903 126.078C245.881 126.121 245.861 126.164 245.841 126.208L222.879 177.751ZM235.622 178.29L232.656 171.644L236.026 164.079L240.422 173.798C238.531 174.952 236.898 176.486 235.622 178.29ZM248.785 197.234C243.454 197.234 239.117 192.897 239.117 187.567C239.117 182.236 243.454 177.899 248.785 177.899C254.116 177.899 258.453 182.236 258.453 187.567C258.453 192.897 254.116 197.234 248.785 197.234Z" fill="#FFC59E"/>
<path d="M294.332 107C291.902 107 276.982 107 274.996 107C273.216 107 271.773 108.443 271.773 110.223C271.773 112.002 273.216 113.445 274.996 113.445H284.664V119.891H274.996C273.216 119.891 271.773 121.334 271.773 123.113C271.773 124.893 273.216 126.336 274.996 126.336H284.664V132.781H274.996C273.216 132.781 271.773 134.224 271.773 136.004C271.773 137.784 273.216 139.227 274.996 139.227H284.664V145.672H274.996C273.216 145.672 271.773 147.115 271.773 148.895C271.773 150.674 273.216 152.117 274.996 152.117H284.664V158.562H274.996C273.216 158.562 271.773 160.005 271.773 161.785C271.773 163.565 273.216 165.008 274.996 165.008H284.664V171.453H274.996C273.216 171.453 271.773 172.896 271.773 174.676C271.773 176.456 273.216 177.898 274.996 177.898H284.664V184.344H274.996C273.216 184.344 271.773 185.787 271.773 187.566C271.773 189.346 273.216 190.789 274.996 190.789H284.664V197.234H274.996C273.216 197.234 271.773 198.677 271.773 200.457C271.773 202.237 273.216 203.68 274.996 203.68C276.828 203.68 291.685 203.68 294.332 203.68C299.663 203.68 304 199.343 304 194.012V116.668C304 111.337 299.663 107 294.332 107ZM297.555 194.012C297.555 195.789 296.109 197.234 294.332 197.234H291.109V113.445H294.332C296.109 113.445 297.555 114.891 297.555 116.668V194.012Z" fill="#FFC59E"/>
</g>
<path d="M49.5781 46.8604H48.4429C48.2036 45.1611 47.7397 43.8818 47.0513 43.0225C46.3677 42.1582 45.6646 41.6064 44.9419 41.3672C44.2241 41.1279 43.5503 41.0083 42.9204 41.0083H40.6133C40.2129 41.0083 39.9517 41.0889 39.8296 41.25C39.7075 41.4062 39.6465 41.665 39.6465 42.0264V57.1802C39.6465 57.6733 39.7271 58.0322 39.8882 58.2568C40.0493 58.4766 40.4595 58.5864 41.1187 58.5864H42.8618V60H33.0767V58.5864H34.8198C35.479 58.5864 35.8892 58.4766 36.0503 58.2568C36.2114 58.0322 36.292 57.6733 36.292 57.1802V42.4219C36.292 41.9238 36.2114 41.5649 36.0503 41.3452C35.894 41.1206 35.4839 41.0083 34.8198 41.0083H33.0767V39.6021H49.5781V46.8604ZM51.2114 46.3184L56.1333 45.9009V47.9736C57.1929 46.5918 58.4819 45.9009 60.0005 45.9009C61.1431 45.9009 62.127 46.1279 62.9521 46.582C63.7773 47.0361 64.4414 47.6343 64.9443 48.3765C65.4521 49.1187 65.8208 49.9292 66.0503 50.8081C66.2798 51.6821 66.3945 52.5464 66.3945 53.4009C66.3945 54.2017 66.2578 55.0146 65.9844 55.8398C65.7158 56.665 65.3105 57.4268 64.7686 58.125C64.2314 58.8232 63.5601 59.3799 62.7544 59.7949C61.9487 60.21 61.0308 60.4175 60.0005 60.4175C58.2866 60.4175 57.0073 59.6875 56.1626 58.2275H55.9209L56.1333 59.4873V63.1201C56.1333 63.5303 56.2065 63.7866 56.353 63.8892C56.5044 63.9966 56.7803 64.0503 57.1807 64.0503H58.8652V65.3687H51.1821V64.0503H52.5005C52.896 64.0503 53.1694 63.999 53.3208 63.8965C53.4771 63.7939 53.5552 63.5352 53.5552 63.1201V48.5669C53.5552 48.1519 53.4795 47.8931 53.3281 47.7905C53.1768 47.688 52.9009 47.6367 52.5005 47.6367H51.2114V46.3184ZM56.1333 53.2471C56.1333 54.5459 56.3018 55.6348 56.6387 56.5137C56.9756 57.3877 57.415 58.0322 57.957 58.4473C58.499 58.8623 59.0801 59.0698 59.7002 59.0698C60.5742 59.0698 61.3872 58.6694 62.1392 57.8687C62.896 57.063 63.2744 55.5127 63.2744 53.2178C63.2744 50.8447 62.9106 49.2578 62.1831 48.457C61.4556 47.6514 60.6279 47.2485 59.7002 47.2485C58.8018 47.2485 57.9814 47.6782 57.2393 48.5376C56.502 49.397 56.1333 50.9668 56.1333 53.2471ZM68.0791 47.6367V46.3184H74.8906V47.6367H74.019C73.3599 47.6367 73.0303 47.8687 73.0303 48.3325C73.0303 48.5278 73.1206 48.8159 73.3013 49.1968L76.7803 57.2095H76.9634L79.9004 49.9219C80.1006 49.4238 80.2007 49.0039 80.2007 48.6621C80.2007 47.9785 79.6807 47.6367 78.6406 47.6367H77.9229V46.3184H83.7969V47.6367H83.5332C83.0938 47.6367 82.7495 47.7466 82.5005 47.9663C82.2563 48.186 82.0293 48.5474 81.8193 49.0503L76.1504 62.1899C75.6035 63.4595 75.0005 64.3066 74.3413 64.7314C73.6821 65.1562 72.9351 65.3687 72.1001 65.3687C71.2749 65.3687 70.6328 65.1343 70.1738 64.6655C69.7197 64.1968 69.4927 63.6719 69.4927 63.0908C69.4927 62.6318 69.6489 62.2314 69.9614 61.8896C70.2788 61.5479 70.6719 61.377 71.1406 61.377C71.5264 61.377 71.873 61.5112 72.1807 61.7798C72.4883 62.0483 72.6421 62.395 72.6421 62.8198C72.6421 63.0396 72.6006 63.23 72.5176 63.3911C72.4395 63.5474 72.4004 63.667 72.4004 63.75C72.4004 63.9893 72.5713 64.1089 72.9131 64.1089C73.6211 64.1089 74.2705 63.4204 74.8613 62.0435L75.5791 60.4175L70.3569 48.8672C70.1421 48.3984 69.9199 48.0762 69.6904 47.9004C69.4658 47.7246 69.0996 47.6367 68.5918 47.6367H68.0791ZM91.4653 46.3184L95.0981 55.3491H95.186L98.1597 46.3184H104.546V47.6367H103.228C102.828 47.6367 102.552 47.6904 102.4 47.7979C102.249 47.9004 102.173 48.1567 102.173 48.5669V57.7515C102.173 58.1616 102.249 58.4204 102.4 58.5278C102.552 58.6304 102.828 58.6816 103.228 58.6816H104.546V60H97.2295V58.6816H98.5479C98.9434 58.6816 99.2168 58.6304 99.3682 58.5278C99.5195 58.4253 99.5952 58.1665 99.5952 57.7515V47.6367H99.3535L95.2446 60H94.373L89.334 47.6367H89.0996V57.3633C89.0996 57.8857 89.2412 58.2373 89.5244 58.418C89.8076 58.5938 90.2959 58.6816 90.9893 58.6816H91.4653V60H85.4082V58.6816H85.7964C87.1147 58.6816 87.7739 58.23 87.7739 57.3267V48.5669C87.7739 48.1519 87.6982 47.8931 87.5469 47.7905C87.4004 47.688 87.127 47.6367 86.7266 47.6367H85.4082V46.3184H91.4653ZM111.834 56.1914L117.95 48.7207C118.189 48.4424 118.309 48.1812 118.309 47.937C118.211 47.7368 117.962 47.6367 117.562 47.6367H115.972V46.3184H123.289V47.6367H121.971C121.57 47.6367 121.294 47.688 121.143 47.7905C120.997 47.8931 120.923 48.1519 120.923 48.5669V57.7515C120.923 58.1616 120.997 58.4204 121.143 58.5278C121.294 58.6304 121.57 58.6816 121.971 58.6816H123.289V60H115.972V58.6816H117.291C117.686 58.6816 117.959 58.6304 118.111 58.5278C118.262 58.4253 118.338 58.1665 118.338 57.7515V50.127L112.164 57.5977C111.944 57.8711 111.834 58.0908 111.834 58.2568C111.834 58.54 112.154 58.6816 112.793 58.6816H114.17V60H106.883V58.6816H108.201C108.597 58.6816 108.87 58.6304 109.021 58.5278C109.173 58.4253 109.249 58.1665 109.249 57.7515V48.5669C109.249 48.1519 109.173 47.8931 109.021 47.7905C108.875 47.688 108.602 47.6367 108.201 47.6367H106.883V46.3184H114.2V47.6367H112.881C112.481 47.6367 112.205 47.688 112.054 47.7905C111.907 47.8931 111.834 48.1519 111.834 48.5669V56.1914ZM130.584 52.1704H136.67V48.5669C136.67 48.1421 136.595 47.8809 136.443 47.7832C136.292 47.6855 136.019 47.6367 135.623 47.6367H134.334V46.3184H141.622V47.6367H140.303C139.903 47.6367 139.627 47.688 139.476 47.7905C139.324 47.8931 139.249 48.1519 139.249 48.5669V57.7515C139.249 58.1616 139.324 58.4204 139.476 58.5278C139.632 58.6304 139.908 58.6816 140.303 58.6816H141.622V60H134.297V58.6816H135.623C136.019 58.6816 136.292 58.6304 136.443 58.5278C136.595 58.4253 136.67 58.1665 136.67 57.7515V53.4888H130.584V57.7515C130.584 58.1616 130.657 58.4204 130.804 58.5278C130.955 58.6304 131.231 58.6816 131.631 58.6816H132.95V60H125.633V58.6816H126.951C127.347 58.6816 127.62 58.6304 127.771 58.5278C127.923 58.4253 127.999 58.1665 127.999 57.7515V48.5669C127.999 48.1519 127.923 47.8931 127.771 47.7905C127.625 47.688 127.352 47.6367 126.951 47.6367H125.633V46.3184H132.95V47.6367H131.631C131.231 47.6367 130.955 47.688 130.804 47.7905C130.657 47.8931 130.584 48.1519 130.584 48.5669V52.1704ZM156.094 52.229H154.922C154.766 50.8569 154.546 49.8462 154.263 49.1968C153.99 48.5571 153.624 48.1372 153.165 47.937C152.71 47.7368 152.137 47.6367 151.443 47.6367H149.971C149.512 47.6367 149.222 47.749 149.1 47.9736C148.982 48.1982 148.924 48.5059 148.924 48.8965V57.7515C148.924 58.1616 148.997 58.4204 149.144 58.5278C149.295 58.6304 149.571 58.6816 149.971 58.6816H151.29V60H143.973V58.6816H145.291C145.687 58.6816 145.96 58.6304 146.111 58.5278C146.263 58.4253 146.338 58.1665 146.338 57.7515V48.5669C146.338 48.1519 146.263 47.8931 146.111 47.7905C145.965 47.688 145.691 47.6367 145.291 47.6367H143.973V46.3184H156.094V52.229Z" fill="#59443F"/>
<path d="M41.62 201V199.64H35.98L38.76 196.5C39.3 195.88 40.02 195.06 40.58 194.28C41.38 193.14 41.64 192.32 41.64 191.42C41.64 189.12 39.88 187.44 37.52 187.44C35.86 187.44 34.92 188.16 34.36 188.8C33.84 189.4 33.42 190.22 33.36 191.56H34.84C34.86 190.88 35.02 190.38 35.28 189.98C35.78 189.22 36.56 188.8 37.5 188.8C39.08 188.8 40.16 189.9 40.16 191.4C40.16 191.94 40.02 192.58 39.42 193.44C39.1 193.92 38.2 194.98 37.86 195.38L33 201H41.62ZM49.345 187.34L44.805 193.64C43.805 195.04 43.705 196.2 43.705 196.7C43.705 198.8 45.185 201.24 48.325 201.24C50.985 201.24 52.905 199.32 52.905 196.66C52.905 194.18 51.145 192.26 48.585 192.26C48.165 192.26 47.785 192.32 47.405 192.44L50.465 188.18L49.345 187.34ZM48.305 199.88C46.445 199.88 45.185 198.48 45.185 196.7C45.185 194.96 46.465 193.62 48.285 193.62C50.105 193.62 51.425 194.92 51.425 196.7C51.425 198.5 50.145 199.88 48.305 199.88ZM60.0002 205.6H61.6002L67.7002 192.7H66.1002L63.4002 198.64L60.4602 192.7H58.8202L62.6402 200.22L60.0002 205.6ZM75.7194 193.3C75.3194 193.02 74.4594 192.5 73.1394 192.5C70.5794 192.5 68.6994 194.36 68.6994 196.9C68.6994 199.4 70.5594 201.24 73.1394 201.24C73.9194 201.24 74.8794 201.04 75.7794 200.38V198.66C75.0194 199.58 73.9594 199.96 73.0994 199.96C71.6194 199.96 70.1794 198.9 70.1794 196.88C70.1794 194.86 71.5794 193.78 73.1194 193.78C73.8594 193.78 74.9594 194.06 75.7194 195.02V193.3ZM84.2689 192.7H78.4289V197.76C78.4289 198.26 78.4089 198.78 78.1489 199.18C77.9889 199.44 77.6489 199.72 77.1089 199.72C77.0089 199.72 76.8889 199.7 76.7889 199.68V201C76.9289 201.02 77.0889 201.04 77.2289 201.04C78.3489 201.04 78.9689 200.48 79.2289 200.16C79.8689 199.38 79.8689 198.46 79.8689 197.76V194.02H82.8289V201H84.2689V192.7ZM86.9728 205.6H88.5728L94.6728 192.7H93.0728L90.3728 198.64L87.4328 192.7H85.7928L89.6128 200.22L86.9728 205.6ZM96.192 201H97.632V194.02H101.112V192.7H96.192V201Z" fill="#59443F"/>
<defs>
<filter id="filter0_d_302_1682" x="0" y="0" width="340" height="240" filterUnits="userSpaceOnUse" color-interpolation-filters="sRGB">
<feFlood flood-opacity="0" result="BackgroundImageFix"/>
<feColorMatrix in="SourceAlpha" type="matrix" values="0 0 0 0 0 0 0 0 0 0 0 0 0 0 0 0 0 0 127 0" result="hardAlpha"/>
<feOffset dx="2" dy="2"/>
<feGaussianBlur stdDeviation="5"/>
<feColorMatrix type="matrix" values="0 0 0 0 0 0 0 0 0 0 0 0 0 0 0 0 0 0 0.1 0"/>
<feBlend mode="normal" in2="BackgroundImageFix" result="effect1_dropShadow_302_1682"/>
<feBlend mode="normal" in="SourceGraphic" in2="effect1_dropShadow_302_1682" result="shape"/>
</filter>
</defs>
</svg>
