<svg width="340" height="240" viewBox="0 0 340 240" fill="none" xmlns="http://www.w3.org/2000/svg">
<g filter="url(#filter0_d_302_1632)">
<rect x="8" y="8" width="320" height="220" rx="20" fill="white"/>
</g>
<mask id="mask0_302_1632" style="mask-type:alpha" maskUnits="userSpaceOnUse" x="8" y="8" width="320" height="220">
<rect x="8" y="8" width="320" height="220" rx="20" fill="#FFFEFE"/>
</mask>
<g mask="url(#mask0_302_1632)">
<path d="M249.647 190.073L243.867 195.853C232.337 207.383 213.676 207.382 202.147 195.853C190.617 184.323 190.618 165.662 202.147 154.133L205.74 150.54C217.263 139.017 252.068 104.212 254.133 102.147C254.133 102.147 254.133 102.147 254.133 102.147M249.647 190.073L295.499 143.513C306.833 132.18 306.834 113.835 295.499 102.501C284.166 91.1672 265.821 91.1657 254.487 102.501L254.133 102.147M249.647 190.073C254.799 198.7 264.231 204.493 274.993 204.493C291.26 204.493 304.493 191.26 304.493 174.993C304.493 164.231 298.7 154.799 290.073 149.647L295.853 143.867C307.382 132.338 307.383 113.677 295.853 102.147C284.324 90.6184 265.663 90.6169 254.133 102.147M249.647 190.073L254.133 102.147M207.411 190.589L207.058 190.942L207.411 190.589C198.792 181.969 198.79 168.018 207.411 159.397L207.058 159.044L207.411 159.397L230.576 136.233L251.505 157.162C247.734 162.118 245.493 168.299 245.493 174.993C245.493 177.651 245.847 180.229 246.51 182.682L238.603 190.589C229.983 199.208 216.032 199.209 207.411 190.589ZM290.589 107.411L290.942 107.058L290.589 107.411C299.208 116.031 299.21 129.982 290.589 138.603L282.682 146.51C280.229 145.847 277.651 145.492 274.993 145.492C268.098 145.492 261.748 147.872 256.72 151.85L235.84 130.969L259.397 107.411C268.017 98.7919 281.968 98.7906 290.589 107.411ZM271.271 196.733C260.875 194.959 252.937 185.885 252.937 174.993C252.937 164.101 260.875 155.027 271.271 153.253V196.733ZM278.715 196.733V153.253C289.11 155.027 297.049 164.101 297.049 174.993C297.049 185.885 289.11 194.959 278.715 196.733Z" fill="#FFC59E" stroke="#FFC59E"/>
</g>
<path d="M32 60V58.5864H32.3589C33.9312 58.5864 35.0322 57.8271 35.6621 56.3086L42.9204 39.1772H44.5977L51.9219 56.2207C52.3027 57.1045 52.7617 57.7173 53.2988 58.0591C53.8359 58.396 54.5757 58.5718 55.5181 58.5864V60H45.5864V58.5864L46.9414 58.623C48.1182 58.623 48.7065 58.2812 48.7065 57.5977C48.7065 57.4463 48.6772 57.2974 48.6187 57.1509L47.1465 53.6426H38.6284L37.7935 55.7666C37.6323 56.1768 37.5518 56.5088 37.5518 56.7627C37.5518 57.2998 37.7373 57.7393 38.1084 58.0811C38.4844 58.418 38.9971 58.5864 39.6465 58.5864H40.4888V60H32ZM39.1997 52.1997H46.5166L42.8618 43.6523H42.708L39.1997 52.1997ZM66.6875 47.6367H62.6958C62.2954 47.6367 62.0195 47.688 61.8682 47.7905C61.7217 47.8931 61.6484 48.1519 61.6484 48.5669V57.7515C61.6484 58.1616 61.7217 58.4204 61.8682 58.5278C62.0195 58.6304 62.2954 58.6816 62.6958 58.6816H64.0142V60H56.6973V58.6816H58.0156C58.4111 58.6816 58.6846 58.6304 58.8359 58.5278C58.9873 58.4253 59.063 58.1665 59.063 57.7515V48.5669C59.063 48.1519 58.9873 47.8931 58.8359 47.7905C58.6895 47.688 58.416 47.6367 58.0156 47.6367H56.6973V46.3184H72.686V47.6367H71.3677C70.9673 47.6367 70.6914 47.688 70.54 47.7905C70.3887 47.8931 70.313 48.1519 70.313 48.5669V57.7515C70.313 58.1616 70.3887 58.4204 70.54 58.5278C70.6963 58.6304 70.9722 58.6816 71.3677 58.6816H72.686V60H65.3618V58.6816H66.6875C67.083 58.6816 67.3564 58.6304 67.5078 58.5278C67.6592 58.4253 67.7349 58.1665 67.7349 57.7515V48.5669C67.7349 48.1519 67.6592 47.8931 67.5078 47.7905C67.3613 47.688 67.0879 47.6367 66.6875 47.6367ZM77.7617 60L77.7324 58.6816H79.0581C79.4536 58.6816 79.7271 58.6304 79.8784 58.5278C80.0298 58.4253 80.1055 58.1665 80.1055 57.7515V48.3325C80.1055 47.7515 79.7563 47.4609 79.0581 47.4609C78.3843 47.4609 77.7397 47.8442 77.1245 48.6108C76.5142 49.3774 76.187 50.5444 76.1431 52.1118H74.9419V46.3184H87.8765V52.1118H86.6753C86.646 51.0962 86.48 50.2368 86.1772 49.5337C85.8794 48.8257 85.5107 48.3032 85.0713 47.9663C84.6318 47.6294 84.1973 47.4609 83.7676 47.4609C83.0645 47.4609 82.7129 47.7515 82.7129 48.3325V57.7515C82.7129 58.1616 82.7886 58.4204 82.9399 58.5278C83.0962 58.6304 83.3721 58.6816 83.7676 58.6816H85.0859V60H77.7617ZM100.921 56.0083L102.122 56.6382C101.043 59.1577 99.0923 60.4175 96.27 60.4175C95.0054 60.4175 93.8945 60.1123 92.9375 59.502C91.9854 58.8867 91.2529 58.0273 90.7402 56.9238C90.2275 55.8154 89.9712 54.5605 89.9712 53.1592C89.9712 51.8652 90.23 50.6641 90.7476 49.5557C91.2651 48.4424 92.0122 47.5562 92.9888 46.897C93.9653 46.2329 95.1104 45.9009 96.4238 45.9009C97.752 45.9009 98.8677 46.2305 99.771 46.8896C100.679 47.5488 101.348 48.4009 101.778 49.4458C102.208 50.4858 102.422 51.5747 102.422 52.7124V53.4009H93.0913C93.0913 55.2173 93.4185 56.6162 94.0728 57.5977C94.7319 58.5791 95.5864 59.0698 96.6362 59.0698C97.7397 59.0698 98.6504 58.7402 99.3682 58.0811C100.086 57.417 100.604 56.7261 100.921 56.0083ZM93.0913 52.0532H98.8555C99.1875 52.0532 99.3657 51.8628 99.3901 51.4819V50.9106C99.3071 49.7241 98.9775 48.8184 98.4014 48.1934C97.8252 47.5635 97.1465 47.2485 96.3652 47.2485C95.4912 47.2485 94.7417 47.6782 94.1167 48.5376C93.4966 49.397 93.1548 50.5688 93.0913 52.0532ZM104.627 60V58.6816H105.945C106.341 58.6816 106.614 58.6304 106.766 58.5278C106.917 58.4253 106.993 58.1665 106.993 57.7515V48.5669C106.993 48.1519 106.917 47.8931 106.766 47.7905C106.619 47.688 106.346 47.6367 105.945 47.6367H104.627V46.3184H111.915V47.6367H110.625C110.225 47.6367 109.949 47.688 109.798 47.7905C109.651 47.8931 109.578 48.1519 109.578 48.5669V52.229H110.596C111.67 52.229 112.439 52.1558 112.903 52.0093C113.367 51.8579 113.704 51.582 113.914 51.1816C114.124 50.7812 114.368 50.0415 114.646 48.9624C114.866 48.064 115.179 47.3291 115.584 46.7578C115.994 46.1865 116.651 45.9009 117.554 45.9009C118.282 45.9009 118.848 46.1133 119.253 46.5381C119.664 46.958 119.869 47.4365 119.869 47.9736C119.869 48.3789 119.749 48.7842 119.51 49.1895C119.271 49.5947 118.838 49.7974 118.213 49.7974C117.754 49.7974 117.4 49.6362 117.151 49.314C116.902 48.9917 116.778 48.6426 116.778 48.2666C116.778 48.2178 116.788 48.1567 116.807 48.0835C116.827 48.0103 116.836 47.9517 116.836 47.9077C116.836 47.7905 116.775 47.7319 116.653 47.7319C116.414 47.7319 116.194 48.1323 115.994 48.9331C115.779 49.8218 115.584 50.5127 115.408 51.0059C115.237 51.4941 115.02 51.8848 114.756 52.1777C114.498 52.4658 114.141 52.6636 113.687 52.771V52.8589C115.621 53.0542 116.919 54.3945 117.583 56.8799C117.828 58.0615 118.199 58.6523 118.697 58.6523C118.926 58.6523 119.139 58.4888 119.334 58.1616C119.529 57.8345 119.627 57.4463 119.627 56.9971V56.4331H120.733V57.0923C120.733 57.7319 120.55 58.4473 120.184 59.2383C119.822 60.0244 119.075 60.4175 117.942 60.4175C117.322 60.4175 116.836 60.2856 116.485 60.022C116.133 59.7583 115.87 59.4165 115.694 58.9966C115.523 58.5767 115.347 58.0029 115.167 57.2754C114.986 56.543 114.832 56.0107 114.705 55.6787C114.358 54.751 113.948 54.1699 113.475 53.9355C113.001 53.6963 112.271 53.5767 111.285 53.5767H109.578V57.7515C109.578 58.1616 109.651 58.4204 109.798 58.5278C109.949 58.6304 110.225 58.6816 110.625 58.6816H111.944V60H104.627ZM137.176 58.3228L137.747 58.9526C137.093 59.5386 136.573 59.9292 136.187 60.1245C135.801 60.3198 135.323 60.4175 134.751 60.4175C133.936 60.4175 133.353 60.1758 133.001 59.6924C132.649 59.2041 132.442 58.667 132.378 58.0811H132.195C131.131 59.6387 129.522 60.4175 127.369 60.4175C125.811 60.4175 124.737 60.0562 124.146 59.3335C123.555 58.6108 123.26 57.8027 123.26 56.9092C123.26 56.167 123.487 55.4932 123.941 54.8877C124.4 54.2773 125.03 53.7451 125.831 53.291C126.631 52.8369 127.569 52.4463 128.643 52.1191C129.722 51.7871 130.896 51.5137 132.166 51.2988V50.127C132.166 49.1113 131.861 48.374 131.25 47.915C130.64 47.4512 129.876 47.2192 128.958 47.2192C128.538 47.2192 128.125 47.2754 127.72 47.3877C127.32 47.5 126.995 47.6538 126.746 47.8491C126.502 48.0396 126.38 48.2397 126.38 48.4497C126.38 48.6157 126.48 48.7549 126.68 48.8672C126.949 49.043 127.159 49.2188 127.31 49.3945C127.466 49.5703 127.544 49.8047 127.544 50.0977C127.544 50.5273 127.4 50.8911 127.112 51.189C126.829 51.4819 126.475 51.6284 126.05 51.6284C125.611 51.6284 125.201 51.4819 124.82 51.189C124.439 50.896 124.249 50.4932 124.249 49.9805C124.249 49.3164 124.449 48.667 124.849 48.0322C125.254 47.3975 125.845 46.8848 126.622 46.4941C127.398 46.0986 128.316 45.9009 129.375 45.9009C132.959 45.9009 134.751 47.5513 134.751 50.8521V57.5098C134.751 58.5498 135.091 59.0698 135.77 59.0698C136.248 59.0698 136.717 58.8208 137.176 58.3228ZM132.166 54.8071V52.5586C131.023 52.7686 130.032 53.0298 129.192 53.3423C128.353 53.6499 127.674 54.0625 127.156 54.5801C126.639 55.0928 126.38 55.7104 126.38 56.4331C126.38 57.1655 126.573 57.7881 126.958 58.3008C127.344 58.8135 127.881 59.0698 128.57 59.0698C129.146 59.0698 129.712 58.8989 130.269 58.5571C130.826 58.2104 131.28 57.7124 131.631 57.063C131.988 56.4136 132.166 55.6616 132.166 54.8071Z" fill="#59443F"/>
<path d="M41.62 201V199.64H35.98L38.76 196.5C39.3 195.88 40.02 195.06 40.58 194.28C41.38 193.14 41.64 192.32 41.64 191.42C41.64 189.12 39.88 187.44 37.52 187.44C35.86 187.44 34.92 188.16 34.36 188.8C33.84 189.4 33.42 190.22 33.36 191.56H34.84C34.86 190.88 35.02 190.38 35.28 189.98C35.78 189.22 36.56 188.8 37.5 188.8C39.08 188.8 40.16 189.9 40.16 191.4C40.16 191.94 40.02 192.58 39.42 193.44C39.1 193.92 38.2 194.98 37.86 195.38L33 201H41.62ZM49.345 187.34L44.805 193.64C43.805 195.04 43.705 196.2 43.705 196.7C43.705 198.8 45.185 201.24 48.325 201.24C50.985 201.24 52.905 199.32 52.905 196.66C52.905 194.18 51.145 192.26 48.585 192.26C48.165 192.26 47.785 192.32 47.405 192.44L50.465 188.18L49.345 187.34ZM48.305 199.88C46.445 199.88 45.185 198.48 45.185 196.7C45.185 194.96 46.465 193.62 48.285 193.62C50.105 193.62 51.425 194.92 51.425 196.7C51.425 198.5 50.145 199.88 48.305 199.88ZM60.0002 205.6H61.6002L67.7002 192.7H66.1002L63.4002 198.64L60.4602 192.7H58.8202L62.6402 200.22L60.0002 205.6ZM75.7194 193.3C75.3194 193.02 74.4594 192.5 73.1394 192.5C70.5794 192.5 68.6994 194.36 68.6994 196.9C68.6994 199.4 70.5594 201.24 73.1394 201.24C73.9194 201.24 74.8794 201.04 75.7794 200.38V198.66C75.0194 199.58 73.9594 199.96 73.0994 199.96C71.6194 199.96 70.1794 198.9 70.1794 196.88C70.1794 194.86 71.5794 193.78 73.1194 193.78C73.8594 193.78 74.9594 194.06 75.7194 195.02V193.3ZM84.2689 192.7H78.4289V197.76C78.4289 198.26 78.4089 198.78 78.1489 199.18C77.9889 199.44 77.6489 199.72 77.1089 199.72C77.0089 199.72 76.8889 199.7 76.7889 199.68V201C76.9289 201.02 77.0889 201.04 77.2289 201.04C78.3489 201.04 78.9689 200.48 79.2289 200.16C79.8689 199.38 79.8689 198.46 79.8689 197.76V194.02H82.8289V201H84.2689V192.7ZM86.9728 205.6H88.5728L94.6728 192.7H93.0728L90.3728 198.64L87.4328 192.7H85.7928L89.6128 200.22L86.9728 205.6ZM96.192 201H97.632V194.02H101.112V192.7H96.192V201Z" fill="#59443F"/>
<defs>
<filter id="filter0_d_302_1632" x="0" y="0" width="340" height="240" filterUnits="userSpaceOnUse" color-interpolation-filters="sRGB">
<feFlood flood-opacity="0" result="BackgroundImageFix"/>
<feColorMatrix in="SourceAlpha" type="matrix" values="0 0 0 0 0 0 0 0 0 0 0 0 0 0 0 0 0 0 127 0" result="hardAlpha"/>
<feOffset dx="2" dy="2"/>
<feGaussianBlur stdDeviation="5"/>
<feColorMatrix type="matrix" values="0 0 0 0 0 0 0 0 0 0 0 0 0 0 0 0 0 0 0.1 0"/>
<feBlend mode="normal" in2="BackgroundImageFix" result="effect1_dropShadow_302_1632"/>
<feBlend mode="normal" in="SourceGraphic" in2="effect1_dropShadow_302_1632" result="shape"/>
</filter>
</defs>
</svg>
