<svg width="340" height="240" viewBox="0 0 340 240" fill="none" xmlns="http://www.w3.org/2000/svg">
<g filter="url(#filter0_d_302_1751)">
<rect x="8" y="8" width="320" height="220" rx="20" fill="white"/>
</g>
<mask id="mask0_302_1751" style="mask-type:alpha" maskUnits="userSpaceOnUse" x="8" y="8" width="320" height="220">
<rect x="8" y="8" width="320" height="220" rx="20" fill="white"/>
</mask>
<g mask="url(#mask0_302_1751)">
<path d="M297.88 113.333C297.878 113.331 297.876 113.329 297.874 113.327C297.872 113.325 297.87 113.324 297.869 113.322C297.866 113.319 297.863 113.316 297.859 113.313C297.858 113.311 297.856 113.31 297.855 113.308C297.853 113.307 297.852 113.305 297.85 113.303C297.848 113.302 297.845 113.299 297.844 113.297C297.843 113.296 297.843 113.296 297.842 113.296C295.347 110.809 292.335 109.147 289.151 108.309C288.286 105.011 286.599 102.052 284.2 99.653C276.663 92.1157 264.399 92.1157 256.861 99.653C249.971 106.543 249.481 117.118 254.771 124.526L243.944 135.353C243.182 136.114 242.851 137.206 243.063 138.263L245.341 149.654C245.596 150.93 246.593 151.926 247.868 152.181L259.26 154.459C260.328 154.673 261.416 154.332 262.17 153.578L272.997 142.751C280.479 148.095 291.073 147.482 297.869 140.661C305.403 133.128 305.406 120.872 297.88 113.333ZM293.313 136.104C293.282 136.135 293.252 136.164 293.222 136.195C293.221 136.196 293.219 136.197 293.218 136.198C287.634 141.672 279.194 140.478 275.185 136.201C275.141 136.158 275.122 136.139 275.087 136.104C275.085 136.103 275.082 136.099 275.08 136.097C274.484 135.505 273.68 135.157 272.77 135.161C272.77 135.161 272.754 135.161 272.753 135.161C271.89 135.176 271.093 135.543 270.572 136.064C270.571 136.064 258.833 147.802 258.832 147.803L251.238 146.284L249.719 138.69L261.418 126.991C262.022 126.387 262.361 125.568 262.361 124.713C262.361 123.859 262.022 123.039 261.418 122.435C256.381 117.398 256.381 109.247 261.418 104.209C266.442 99.1847 274.619 99.1849 279.643 104.209C280.683 105.249 281.521 106.453 282.137 107.779C277.896 108.23 273.775 110.078 270.531 113.322C269.272 114.581 269.272 116.621 270.531 117.879C271.789 119.137 273.829 119.137 275.087 117.879C280.368 112.599 288.615 113.194 293.301 117.867C293.301 117.867 293.302 117.868 293.303 117.869C293.304 117.87 293.305 117.871 293.307 117.872C293.309 117.875 293.311 117.877 293.313 117.879C298.337 122.903 298.337 131.079 293.313 136.104Z" fill="#FFC59E"/>
<path d="M233.03 128.518L228.474 123.961C227.216 122.703 225.176 122.703 223.917 123.961C222.659 125.22 222.659 127.259 223.917 128.518L228.474 133.074C229.732 134.332 231.772 134.332 233.03 133.074C234.288 131.816 234.288 129.776 233.03 128.518Z" fill="#FFC59E"/>
<path d="M230.752 136.564H221.639C219.86 136.564 218.417 138.007 218.417 139.786C218.417 141.566 219.859 143.008 221.639 143.008H230.752C232.531 143.008 233.974 141.566 233.974 139.786C233.974 138.007 232.531 136.564 230.752 136.564Z" fill="#FFC59E"/>
<path d="M239.741 118.462C237.962 118.462 236.52 119.904 236.52 121.684V130.797C236.52 132.576 237.962 134.018 239.741 134.018C241.521 134.018 242.963 132.576 242.963 130.797V121.684C242.963 119.904 241.521 118.462 239.741 118.462Z" fill="#FFC59E"/>
<path d="M274.038 169.526L269.482 164.969C268.223 163.711 266.183 163.711 264.925 164.969C263.667 166.227 263.667 168.267 264.925 169.526L269.482 174.082C270.74 175.34 272.78 175.34 274.038 174.082C275.296 172.824 275.296 170.784 274.038 169.526Z" fill="#FFC59E"/>
<path d="M257.999 164.026C256.22 164.026 254.777 165.469 254.777 167.248V176.361C254.777 178.14 256.22 179.583 257.999 179.583C259.778 179.583 261.221 178.14 261.221 176.361V167.248C261.221 165.469 259.778 164.026 257.999 164.026Z" fill="#FFC59E"/>
<path d="M276.316 154.821H267.203C265.424 154.821 263.981 156.264 263.981 158.043C263.981 159.822 265.424 161.265 267.203 161.265H276.316C278.096 161.265 279.538 159.822 279.538 158.043C279.538 156.264 278.096 154.821 276.316 154.821Z" fill="#FFC59E"/>
<path d="M254.341 159.484C253.998 158.344 253.055 157.487 251.888 157.254L242.603 155.396L240.746 146.111C240.513 144.948 239.66 144.007 238.525 143.661C237.39 143.316 236.157 143.622 235.315 144.458L224.531 155.178C216.986 149.803 206.417 150.498 199.653 157.261C192.116 164.799 192.116 177.063 199.653 184.6C202.053 187 205.014 188.687 208.315 189.551C212.111 203.973 230.165 208.766 240.661 198.269C247.438 191.492 248.142 180.956 242.757 173.404L253.527 162.698C254.372 161.859 254.685 160.623 254.341 159.484ZM236.111 170.924C236.11 170.925 236.109 170.927 236.107 170.928C236.106 170.929 236.105 170.93 236.105 170.931C234.852 172.18 234.845 174.227 236.105 175.487C241.149 180.532 241.13 188.687 236.105 193.713C228.617 201.2 215.76 196.977 214.287 186.383C213.671 181.96 215.214 178.152 217.879 175.487C219.137 174.229 219.137 172.189 217.879 170.931C216.621 169.672 214.581 169.672 213.322 170.931C210.078 174.175 208.234 178.295 207.783 182.536C206.455 181.92 205.25 181.084 204.209 180.044C199.185 175.019 199.185 166.843 204.209 161.818C209.234 156.793 217.41 156.793 222.435 161.818C223.691 163.074 225.725 163.076 226.985 161.825L235.604 153.257L236.706 158.766C236.961 160.042 237.958 161.039 239.233 161.294L244.7 162.387L236.111 170.924Z" fill="#FFC59E"/>
</g>
<path d="M32.9302 49.7974C32.9302 48.4497 33.1621 47.1387 33.626 45.8643C34.0947 44.585 34.7563 43.4448 35.6108 42.4438C36.4653 41.438 37.4883 40.6421 38.6797 40.0562C39.876 39.4702 41.1699 39.1772 42.5615 39.1772C44.1875 39.1772 45.6157 39.5215 46.8462 40.21C48.0767 40.8984 49.0801 41.7896 49.8564 42.8833C50.6377 43.9771 51.2163 45.1343 51.5923 46.355C51.9731 47.5708 52.1636 48.7183 52.1636 49.7974C52.1636 50.8618 51.9731 52.0044 51.5923 53.2251C51.2163 54.4458 50.6353 55.6055 49.8491 56.7041C49.0679 57.7979 48.0596 58.6914 46.8242 59.3848C45.5938 60.0732 44.1729 60.4175 42.5615 60.4175C41.165 60.4175 39.8735 60.1245 38.687 59.5386C37.5005 58.9526 36.4751 58.1543 35.6108 57.1436C34.7515 56.1279 34.0898 54.9854 33.626 53.7158C33.1621 52.4414 32.9302 51.1353 32.9302 49.7974ZM36.7095 49.7974C36.7095 51.9604 36.9951 53.7329 37.5664 55.1147C38.1377 56.4917 38.8677 57.4854 39.7563 58.0957C40.645 58.7061 41.5801 59.0112 42.5615 59.0112C43.5576 59.0112 44.4951 58.7085 45.374 58.103C46.2578 57.4927 46.978 56.4966 47.5347 55.1147C48.0962 53.7329 48.377 51.9604 48.377 49.7974C48.377 47.6685 48.0938 45.9131 47.5273 44.5312C46.9658 43.1494 46.2407 42.1484 45.3521 41.5283C44.4683 40.9033 43.5381 40.5908 42.5615 40.5908C41.4385 40.5908 40.4326 40.957 39.5439 41.6895C38.6553 42.4219 37.9595 43.4839 37.4565 44.8755C36.9585 46.2622 36.7095 47.9028 36.7095 49.7974ZM54.0532 46.3184L58.9751 45.9009V47.9736C60.0347 46.5918 61.3237 45.9009 62.8423 45.9009C63.9849 45.9009 64.9688 46.1279 65.7939 46.582C66.6191 47.0361 67.2832 47.6343 67.7861 48.3765C68.2939 49.1187 68.6626 49.9292 68.8921 50.8081C69.1216 51.6821 69.2363 52.5464 69.2363 53.4009C69.2363 54.2017 69.0996 55.0146 68.8262 55.8398C68.5576 56.665 68.1523 57.4268 67.6104 58.125C67.0732 58.8232 66.4019 59.3799 65.5962 59.7949C64.7905 60.21 63.8726 60.4175 62.8423 60.4175C61.1284 60.4175 59.8491 59.6875 59.0044 58.2275H58.7627L58.9751 59.4873V63.1201C58.9751 63.5303 59.0483 63.7866 59.1948 63.8892C59.3462 63.9966 59.6221 64.0503 60.0225 64.0503H61.707V65.3687H54.0239V64.0503H55.3423C55.7378 64.0503 56.0112 63.999 56.1626 63.8965C56.3188 63.7939 56.397 63.5352 56.397 63.1201V48.5669C56.397 48.1519 56.3213 47.8931 56.1699 47.7905C56.0186 47.688 55.7427 47.6367 55.3423 47.6367H54.0532V46.3184ZM58.9751 53.2471C58.9751 54.5459 59.1436 55.6348 59.4805 56.5137C59.8174 57.3877 60.2568 58.0322 60.7988 58.4473C61.3408 58.8623 61.9219 59.0698 62.542 59.0698C63.416 59.0698 64.229 58.6694 64.981 57.8687C65.7378 57.063 66.1162 55.5127 66.1162 53.2178C66.1162 50.8447 65.7524 49.2578 65.0249 48.457C64.2974 47.6514 63.4697 47.2485 62.542 47.2485C61.6436 47.2485 60.8232 47.6782 60.0811 48.5376C59.3438 49.397 58.9751 50.9668 58.9751 53.2471ZM74.1582 60L74.1289 58.6816H75.4546C75.8501 58.6816 76.1235 58.6304 76.2749 58.5278C76.4263 58.4253 76.502 58.1665 76.502 57.7515V48.3325C76.502 47.7515 76.1528 47.4609 75.4546 47.4609C74.7808 47.4609 74.1362 47.8442 73.521 48.6108C72.9106 49.3774 72.5835 50.5444 72.5396 52.1118H71.3384V46.3184H84.2729V52.1118H83.0718C83.0425 51.0962 82.8765 50.2368 82.5737 49.5337C82.2759 48.8257 81.9072 48.3032 81.4678 47.9663C81.0283 47.6294 80.5938 47.4609 80.1641 47.4609C79.4609 47.4609 79.1094 47.7515 79.1094 48.3325V57.7515C79.1094 58.1616 79.1851 58.4204 79.3364 58.5278C79.4927 58.6304 79.7686 58.6816 80.1641 58.6816H81.4824V60H74.1582ZM86.3677 53.1592C86.3677 52.3291 86.5166 51.4868 86.8145 50.6323C87.1123 49.7729 87.5518 48.9844 88.1328 48.2666C88.7188 47.5488 89.4414 46.9751 90.3008 46.5454C91.1602 46.1157 92.1392 45.9009 93.2378 45.9009C94.6831 45.9009 95.9258 46.2671 96.9658 46.9995C98.0107 47.7319 98.7944 48.6597 99.3169 49.7827C99.8442 50.9058 100.108 52.0312 100.108 53.1592C100.108 54.2871 99.8442 55.4126 99.3169 56.5356C98.7944 57.6587 98.0107 58.5864 96.9658 59.3188C95.9258 60.0513 94.6831 60.4175 93.2378 60.4175C91.812 60.4175 90.5767 60.0537 89.5317 59.3262C88.4868 58.5938 87.6982 57.6636 87.166 56.5356C86.6338 55.4077 86.3677 54.2822 86.3677 53.1592ZM89.4878 53.1592C89.4878 57.0996 90.7378 59.0698 93.2378 59.0698C93.897 59.0698 94.5049 58.9038 95.0615 58.5718C95.6182 58.2397 96.0771 57.6318 96.4385 56.748C96.8047 55.8643 96.9878 54.668 96.9878 53.1592C96.9878 51.0449 96.6387 49.5312 95.9404 48.6182C95.2422 47.7051 94.3413 47.2485 93.2378 47.2485C92.1343 47.2485 91.2334 47.7051 90.5352 48.6182C89.8369 49.5312 89.4878 51.0449 89.4878 53.1592ZM112.303 47.6367H108.311C107.911 47.6367 107.635 47.688 107.483 47.7905C107.337 47.8931 107.264 48.1519 107.264 48.5669V57.7515C107.264 58.1616 107.337 58.4204 107.483 58.5278C107.635 58.6304 107.911 58.6816 108.311 58.6816H109.629V60H102.312V58.6816H103.631C104.026 58.6816 104.3 58.6304 104.451 58.5278C104.603 58.4253 104.678 58.1665 104.678 57.7515V48.5669C104.678 48.1519 104.603 47.8931 104.451 47.7905C104.305 47.688 104.031 47.6367 103.631 47.6367H102.312V46.3184H118.301V47.6367H116.983C116.583 47.6367 116.307 47.688 116.155 47.7905C116.004 47.8931 115.928 48.1519 115.928 48.5669V57.7515C115.928 58.1616 116.004 58.4204 116.155 58.5278C116.312 58.6304 116.587 58.6816 116.983 58.6816H118.301V60H110.977V58.6816H112.303C112.698 58.6816 112.972 58.6304 113.123 58.5278C113.274 58.4253 113.35 58.1665 113.35 57.7515V48.5669C113.35 48.1519 113.274 47.8931 113.123 47.7905C112.977 47.688 112.703 47.6367 112.303 47.6367ZM131.448 56.0083L132.649 56.6382C131.57 59.1577 129.62 60.4175 126.797 60.4175C125.533 60.4175 124.422 60.1123 123.465 59.502C122.513 58.8867 121.78 58.0273 121.268 56.9238C120.755 55.8154 120.499 54.5605 120.499 53.1592C120.499 51.8652 120.757 50.6641 121.275 49.5557C121.792 48.4424 122.54 47.5562 123.516 46.897C124.493 46.2329 125.638 45.9009 126.951 45.9009C128.279 45.9009 129.395 46.2305 130.298 46.8896C131.207 47.5488 131.875 48.4009 132.305 49.4458C132.735 50.4858 132.95 51.5747 132.95 52.7124V53.4009H123.619C123.619 55.2173 123.946 56.6162 124.6 57.5977C125.259 58.5791 126.114 59.0698 127.164 59.0698C128.267 59.0698 129.178 58.7402 129.896 58.0811C130.613 57.417 131.131 56.7261 131.448 56.0083ZM123.619 52.0532H129.383C129.715 52.0532 129.893 51.8628 129.917 51.4819V50.9106C129.834 49.7241 129.505 48.8184 128.929 48.1934C128.353 47.5635 127.674 47.2485 126.893 47.2485C126.019 47.2485 125.269 47.6782 124.644 48.5376C124.024 49.397 123.682 50.5688 123.619 52.0532ZM145.35 59.9707H139.205C136.963 59.9707 135.843 61.4404 135.843 64.3799H134.642V58.6523H136.026C136.822 58.6523 137.571 57.5122 138.274 55.2319C139.114 52.5806 139.534 50.5493 139.534 49.1382C139.534 48.4839 139.358 48.0713 139.007 47.9004C138.655 47.7246 138.221 47.6367 137.703 47.6367H137.286V46.3184H149.429V47.6367H148.082C147.662 47.6367 147.386 47.71 147.254 47.8564C147.127 47.998 147.063 48.2959 147.063 48.75V57.4805C147.063 58.2617 147.244 58.6523 147.605 58.6523H149.429V64.3799H148.235C148.157 62.749 147.842 61.6064 147.291 60.9521C146.744 60.2979 146.097 59.9707 145.35 59.9707ZM144.485 57.9565V48.3911C144.485 47.8882 144.166 47.6367 143.526 47.6367H141.995C141.648 47.6367 141.421 47.7515 141.314 47.981C141.207 48.2056 141.124 48.5718 141.065 49.0796C140.801 51.3159 140.503 53.0469 140.171 54.2725C139.839 55.4932 139.485 56.5332 139.109 57.3926C138.953 57.7734 138.875 58.042 138.875 58.1982C138.875 58.501 139.085 58.6523 139.505 58.6523H143.313C143.685 58.6523 143.973 58.6108 144.178 58.5278C144.383 58.4448 144.485 58.2544 144.485 57.9565ZM156.717 56.1914L162.833 48.7207C163.072 48.4424 163.191 48.1812 163.191 47.937C163.094 47.7368 162.845 47.6367 162.444 47.6367H160.855V46.3184H168.172V47.6367H166.854C166.453 47.6367 166.177 47.688 166.026 47.7905C165.879 47.8931 165.806 48.1519 165.806 48.5669V57.7515C165.806 58.1616 165.879 58.4204 166.026 58.5278C166.177 58.6304 166.453 58.6816 166.854 58.6816H168.172V60H160.855V58.6816H162.173C162.569 58.6816 162.842 58.6304 162.994 58.5278C163.145 58.4253 163.221 58.1665 163.221 57.7515V50.127L157.046 57.5977C156.827 57.8711 156.717 58.0908 156.717 58.2568C156.717 58.54 157.037 58.6816 157.676 58.6816H159.053V60H151.766V58.6816H153.084C153.479 58.6816 153.753 58.6304 153.904 58.5278C154.056 58.4253 154.131 58.1665 154.131 57.7515V48.5669C154.131 48.1519 154.056 47.8931 153.904 47.7905C153.758 47.688 153.484 47.6367 153.084 47.6367H151.766V46.3184H159.083V47.6367H157.764C157.364 47.6367 157.088 47.688 156.937 47.7905C156.79 47.8931 156.717 48.1519 156.717 48.5669V56.1914ZM170.362 56.1035H171.534C171.641 57.7197 171.961 58.5278 172.493 58.5278C172.796 58.5278 173.025 58.3472 173.182 57.9858C173.338 57.6196 173.47 57.1606 173.577 56.6089C173.753 55.7544 174.053 55.0171 174.478 54.397C174.908 53.7769 175.706 53.4155 176.873 53.313V53.1006C175.677 53.0664 174.603 52.7856 173.65 52.2583C172.698 51.731 172.222 50.9717 172.222 49.9805C172.222 49.0088 172.681 48.1567 173.599 47.4243C174.517 46.687 176.009 46.3184 178.074 46.3184H186.021V47.6367H184.703C184.302 47.6367 184.026 47.688 183.875 47.7905C183.729 47.8931 183.655 48.1519 183.655 48.5669V57.7515C183.655 58.1616 183.729 58.4204 183.875 58.5278C184.026 58.6304 184.302 58.6816 184.703 58.6816H186.021V60H178.704V58.6816H180.022C180.418 58.6816 180.691 58.6304 180.843 58.5278C180.999 58.4253 181.077 58.1665 181.077 57.7515V53.7305H178.975C178.116 53.7305 177.496 54.0332 177.115 54.6387C176.739 55.2441 176.429 56.1401 176.185 57.3267C176.014 58.2446 175.748 58.9893 175.386 59.5605C175.025 60.1318 174.371 60.4175 173.423 60.4175C171.451 60.4175 170.43 58.9795 170.362 56.1035ZM181.077 52.3828V48.6328C181.077 48.2178 180.962 47.9395 180.733 47.7979C180.503 47.6514 180.147 47.5781 179.664 47.5781C179.468 47.5781 179.087 47.5977 178.521 47.6367C176.402 47.7783 175.342 48.5693 175.342 50.0098C175.342 50.5762 175.577 51.1133 176.045 51.6211C176.519 52.1289 177.334 52.3828 178.492 52.3828H181.077Z" fill="#59443F"/>
<path d="M41.62 201V199.64H35.98L38.76 196.5C39.3 195.88 40.02 195.06 40.58 194.28C41.38 193.14 41.64 192.32 41.64 191.42C41.64 189.12 39.88 187.44 37.52 187.44C35.86 187.44 34.92 188.16 34.36 188.8C33.84 189.4 33.42 190.22 33.36 191.56H34.84C34.86 190.88 35.02 190.38 35.28 189.98C35.78 189.22 36.56 188.8 37.5 188.8C39.08 188.8 40.16 189.9 40.16 191.4C40.16 191.94 40.02 192.58 39.42 193.44C39.1 193.92 38.2 194.98 37.86 195.38L33 201H41.62ZM49.345 187.34L44.805 193.64C43.805 195.04 43.705 196.2 43.705 196.7C43.705 198.8 45.185 201.24 48.325 201.24C50.985 201.24 52.905 199.32 52.905 196.66C52.905 194.18 51.145 192.26 48.585 192.26C48.165 192.26 47.785 192.32 47.405 192.44L50.465 188.18L49.345 187.34ZM48.305 199.88C46.445 199.88 45.185 198.48 45.185 196.7C45.185 194.96 46.465 193.62 48.285 193.62C50.105 193.62 51.425 194.92 51.425 196.7C51.425 198.5 50.145 199.88 48.305 199.88ZM60.0002 205.6H61.6002L67.7002 192.7H66.1002L63.4002 198.64L60.4602 192.7H58.8202L62.6402 200.22L60.0002 205.6ZM75.7194 193.3C75.3194 193.02 74.4594 192.5 73.1394 192.5C70.5794 192.5 68.6994 194.36 68.6994 196.9C68.6994 199.4 70.5594 201.24 73.1394 201.24C73.9194 201.24 74.8794 201.04 75.7794 200.38V198.66C75.0194 199.58 73.9594 199.96 73.0994 199.96C71.6194 199.96 70.1794 198.9 70.1794 196.88C70.1794 194.86 71.5794 193.78 73.1194 193.78C73.8594 193.78 74.9594 194.06 75.7194 195.02V193.3ZM84.2689 192.7H78.4289V197.76C78.4289 198.26 78.4089 198.78 78.1489 199.18C77.9889 199.44 77.6489 199.72 77.1089 199.72C77.0089 199.72 76.8889 199.7 76.7889 199.68V201C76.9289 201.02 77.0889 201.04 77.2289 201.04C78.3489 201.04 78.9689 200.48 79.2289 200.16C79.8689 199.38 79.8689 198.46 79.8689 197.76V194.02H82.8289V201H84.2689V192.7ZM86.9728 205.6H88.5728L94.6728 192.7H93.0728L90.3728 198.64L87.4328 192.7H85.7928L89.6128 200.22L86.9728 205.6ZM96.192 201H97.632V194.02H101.112V192.7H96.192V201Z" fill="#59443F"/>
<defs>
<filter id="filter0_d_302_1751" x="0" y="0" width="340" height="240" filterUnits="userSpaceOnUse" color-interpolation-filters="sRGB">
<feFlood flood-opacity="0" result="BackgroundImageFix"/>
<feColorMatrix in="SourceAlpha" type="matrix" values="0 0 0 0 0 0 0 0 0 0 0 0 0 0 0 0 0 0 127 0" result="hardAlpha"/>
<feOffset dx="2" dy="2"/>
<feGaussianBlur stdDeviation="5"/>
<feColorMatrix type="matrix" values="0 0 0 0 0 0 0 0 0 0 0 0 0 0 0 0 0 0 0.1 0"/>
<feBlend mode="normal" in2="BackgroundImageFix" result="effect1_dropShadow_302_1751"/>
<feBlend mode="normal" in="SourceGraphic" in2="effect1_dropShadow_302_1751" result="shape"/>
</filter>
</defs>
</svg>
