<svg width="340" height="240" viewBox="0 0 340 240" fill="none" xmlns="http://www.w3.org/2000/svg">
<g filter="url(#filter0_d_302_1803)">
<rect x="8" y="8" width="320" height="220" rx="20" fill="white"/>
</g>
<mask id="mask0_302_1803" style="mask-type:alpha" maskUnits="userSpaceOnUse" x="8" y="8" width="320" height="220">
<rect x="8" y="8" width="320" height="220" rx="20" fill="white"/>
</mask>
<g mask="url(#mask0_302_1803)">
<path d="M303.057 94.9439C301.798 93.6854 299.758 93.6854 298.499 94.9439L283.424 110.019C279.831 108.307 275.393 108.935 272.422 111.906L265.194 119.134C261.601 117.422 257.162 118.05 254.192 121.021C253.006 122.207 224.365 150.848 222.811 152.401C219.079 150.887 215.053 150.092 210.905 150.092C210.902 150.092 210.899 150.092 210.895 150.092C205.565 150.092 201.228 154.429 201.228 159.76C201.228 165.09 205.565 169.427 210.895 169.427C212.082 169.427 213.259 169.605 214.388 169.94L201.78 182.547L199.501 180.268C198.243 179.01 196.202 179.01 194.944 180.268C193.685 181.527 193.685 183.567 194.944 184.826C196.861 186.743 211.2 201.082 213.174 203.056C214.432 204.315 216.473 204.315 217.732 203.056C218.99 201.798 218.99 199.757 217.732 198.499L215.453 196.22L228.06 183.612C228.395 184.741 228.573 185.918 228.573 187.105C228.573 189.687 229.578 192.115 231.404 193.941C233.23 195.766 235.657 196.772 238.24 196.772C243.571 196.772 247.907 192.435 247.907 187.105C247.908 182.954 247.114 178.924 245.598 175.189C247.227 173.56 275.395 145.391 276.979 143.808C279.966 140.822 280.583 136.381 278.87 132.802L286.094 125.578C289.081 122.592 289.698 118.151 287.985 114.572L303.056 99.501C304.315 98.2431 304.315 96.2025 303.057 94.9439ZM210.896 191.662L206.338 187.105L220.011 173.432L224.569 177.99L210.896 191.662ZM238.241 190.327C236.459 190.327 235.019 188.887 235.019 187.105C235.019 182.06 232.924 177.23 229.518 173.824L224.177 168.483C220.779 165.085 215.952 162.982 210.896 162.982C209.119 162.982 207.674 161.536 207.674 159.76C207.674 157.983 209.12 156.538 210.897 156.538C210.9 156.538 210.902 156.538 210.905 156.538C217.638 156.538 223.97 159.162 228.735 163.926L234.075 169.267C238.841 174.033 241.465 180.368 241.463 187.105C241.463 188.882 240.017 190.327 238.241 190.327ZM251.914 159.76L249.635 157.481C248.377 156.222 246.336 156.222 245.077 157.481C243.819 158.739 243.819 160.78 245.077 162.038L247.356 164.317L242.413 169.261C241.307 167.647 240.046 166.122 238.633 164.709L233.292 159.368C231.878 157.955 230.354 156.693 228.74 155.588L242.799 141.53L256.471 155.202L251.914 159.76ZM272.422 139.251L270.144 141.53L267.865 139.251C266.607 137.993 264.566 137.993 263.307 139.251C262.049 140.51 262.049 142.55 263.307 143.809L265.586 146.087L261.028 150.645L247.356 136.973L258.75 125.578C260.007 124.322 262.051 124.322 263.307 125.578L272.422 134.693C273.682 135.953 273.682 137.991 272.422 139.251ZM281.537 121.021L274.701 127.857L270.144 123.3L276.98 116.463C278.237 115.207 280.281 115.207 281.537 116.463C282.797 117.723 282.797 119.761 281.537 121.021Z" fill="#FFC59E"/>
</g>
<path d="M32.9302 49.7974C32.9302 48.4497 33.1621 47.1387 33.626 45.8643C34.0947 44.585 34.7563 43.4448 35.6108 42.4438C36.4653 41.438 37.4883 40.6421 38.6797 40.0562C39.876 39.4702 41.1699 39.1772 42.5615 39.1772C44.1875 39.1772 45.6157 39.5215 46.8462 40.21C48.0767 40.8984 49.0801 41.7896 49.8564 42.8833C50.6377 43.9771 51.2163 45.1343 51.5923 46.355C51.9731 47.5708 52.1636 48.7183 52.1636 49.7974C52.1636 50.8618 51.9731 52.0044 51.5923 53.2251C51.2163 54.4458 50.6353 55.6055 49.8491 56.7041C49.0679 57.7979 48.0596 58.6914 46.8242 59.3848C45.5938 60.0732 44.1729 60.4175 42.5615 60.4175C41.165 60.4175 39.8735 60.1245 38.687 59.5386C37.5005 58.9526 36.4751 58.1543 35.6108 57.1436C34.7515 56.1279 34.0898 54.9854 33.626 53.7158C33.1621 52.4414 32.9302 51.1353 32.9302 49.7974ZM36.7095 49.7974C36.7095 51.9604 36.9951 53.7329 37.5664 55.1147C38.1377 56.4917 38.8677 57.4854 39.7563 58.0957C40.645 58.7061 41.5801 59.0112 42.5615 59.0112C43.5576 59.0112 44.4951 58.7085 45.374 58.103C46.2578 57.4927 46.978 56.4966 47.5347 55.1147C48.0962 53.7329 48.377 51.9604 48.377 49.7974C48.377 47.6685 48.0938 45.9131 47.5273 44.5312C46.9658 43.1494 46.2407 42.1484 45.3521 41.5283C44.4683 40.9033 43.5381 40.5908 42.5615 40.5908C41.4385 40.5908 40.4326 40.957 39.5439 41.6895C38.6553 42.4219 37.9595 43.4839 37.4565 44.8755C36.9585 46.2622 36.7095 47.9028 36.7095 49.7974ZM59.2168 52.1704H65.3032V48.5669C65.3032 48.1421 65.2275 47.8809 65.0762 47.7832C64.9248 47.6855 64.6514 47.6367 64.2559 47.6367H62.9668V46.3184H70.2544V47.6367H68.936C68.5356 47.6367 68.2598 47.688 68.1084 47.7905C67.957 47.8931 67.8813 48.1519 67.8813 48.5669V57.7515C67.8813 58.1616 67.957 58.4204 68.1084 58.5278C68.2646 58.6304 68.5405 58.6816 68.936 58.6816H70.2544V60H62.9302V58.6816H64.2559C64.6514 58.6816 64.9248 58.6304 65.0762 58.5278C65.2275 58.4253 65.3032 58.1665 65.3032 57.7515V53.4888H59.2168V57.7515C59.2168 58.1616 59.29 58.4204 59.4365 58.5278C59.5879 58.6304 59.8638 58.6816 60.2642 58.6816H61.5825V60H54.2656V58.6816H55.584C55.9795 58.6816 56.2529 58.6304 56.4043 58.5278C56.5557 58.4253 56.6313 58.1665 56.6313 57.7515V48.5669C56.6313 48.1519 56.5557 47.8931 56.4043 47.7905C56.2578 47.688 55.9844 47.6367 55.584 47.6367H54.2656V46.3184H61.5825V47.6367H60.2642C59.8638 47.6367 59.5879 47.688 59.4365 47.7905C59.29 47.8931 59.2168 48.1519 59.2168 48.5669V52.1704ZM72.6055 60V58.6816H73.9238C74.3193 58.6816 74.5928 58.6304 74.7441 58.5278C74.8955 58.4253 74.9712 58.1665 74.9712 57.7515V48.5669C74.9712 48.1519 74.8955 47.8931 74.7441 47.7905C74.5977 47.688 74.3242 47.6367 73.9238 47.6367H72.6055V46.3184H79.8931V47.6367H78.604C78.2036 47.6367 77.9277 47.688 77.7764 47.7905C77.6299 47.8931 77.5566 48.1519 77.5566 48.5669V52.229H78.5747C79.6489 52.229 80.418 52.1558 80.8818 52.0093C81.3457 51.8579 81.6826 51.582 81.8926 51.1816C82.1025 50.7812 82.3467 50.0415 82.625 48.9624C82.8447 48.064 83.1572 47.3291 83.5625 46.7578C83.9727 46.1865 84.6294 45.9009 85.5327 45.9009C86.2603 45.9009 86.8267 46.1133 87.2319 46.5381C87.6421 46.958 87.8472 47.4365 87.8472 47.9736C87.8472 48.3789 87.7275 48.7842 87.4883 49.1895C87.249 49.5947 86.8169 49.7974 86.1919 49.7974C85.7329 49.7974 85.3789 49.6362 85.1299 49.314C84.8809 48.9917 84.7563 48.6426 84.7563 48.2666C84.7563 48.2178 84.7661 48.1567 84.7856 48.0835C84.8052 48.0103 84.8149 47.9517 84.8149 47.9077C84.8149 47.7905 84.7539 47.7319 84.6318 47.7319C84.3926 47.7319 84.1729 48.1323 83.9727 48.9331C83.7578 49.8218 83.5625 50.5127 83.3867 51.0059C83.2158 51.4941 82.9985 51.8848 82.7349 52.1777C82.4761 52.4658 82.1196 52.6636 81.6655 52.771V52.8589C83.5991 53.0542 84.8979 54.3945 85.562 56.8799C85.8062 58.0615 86.1772 58.6523 86.6753 58.6523C86.9048 58.6523 87.1172 58.4888 87.3125 58.1616C87.5078 57.8345 87.6055 57.4463 87.6055 56.9971V56.4331H88.7114V57.0923C88.7114 57.7319 88.5283 58.4473 88.1621 59.2383C87.8008 60.0244 87.0537 60.4175 85.9209 60.4175C85.3008 60.4175 84.8149 60.2856 84.4634 60.022C84.1118 59.7583 83.8481 59.4165 83.6724 58.9966C83.5015 58.5767 83.3257 58.0029 83.145 57.2754C82.9644 56.543 82.8105 56.0107 82.6836 55.6787C82.3369 54.751 81.9268 54.1699 81.4531 53.9355C80.9795 53.6963 80.2495 53.5767 79.2632 53.5767H77.5566V57.7515C77.5566 58.1616 77.6299 58.4204 77.7764 58.5278C77.9277 58.6304 78.2036 58.6816 78.604 58.6816H79.9224V60H72.6055ZM91.0845 53.1592C91.0845 52.3291 91.2334 51.4868 91.5312 50.6323C91.8291 49.7729 92.2686 48.9844 92.8496 48.2666C93.4355 47.5488 94.1582 46.9751 95.0176 46.5454C95.877 46.1157 96.856 45.9009 97.9546 45.9009C99.3999 45.9009 100.643 46.2671 101.683 46.9995C102.728 47.7319 103.511 48.6597 104.034 49.7827C104.561 50.9058 104.825 52.0312 104.825 53.1592C104.825 54.2871 104.561 55.4126 104.034 56.5356C103.511 57.6587 102.728 58.5864 101.683 59.3188C100.643 60.0513 99.3999 60.4175 97.9546 60.4175C96.5288 60.4175 95.2935 60.0537 94.2485 59.3262C93.2036 58.5938 92.415 57.6636 91.8828 56.5356C91.3506 55.4077 91.0845 54.2822 91.0845 53.1592ZM94.2046 53.1592C94.2046 57.0996 95.4546 59.0698 97.9546 59.0698C98.6138 59.0698 99.2217 58.9038 99.7783 58.5718C100.335 58.2397 100.794 57.6318 101.155 56.748C101.521 55.8643 101.705 54.668 101.705 53.1592C101.705 51.0449 101.355 49.5312 100.657 48.6182C99.959 47.7051 99.0581 47.2485 97.9546 47.2485C96.8511 47.2485 95.9502 47.7051 95.252 48.6182C94.5537 49.5312 94.2046 51.0449 94.2046 53.1592ZM109.82 47.6367V46.3184H122.447V47.6367H121.128C120.728 47.6367 120.452 47.688 120.301 47.7905C120.154 47.8931 120.081 48.1519 120.081 48.5669V57.7515C120.081 58.1616 120.154 58.4204 120.301 58.5278C120.452 58.6304 120.728 58.6816 121.128 58.6816H122.447V60H115.13V58.6816H116.448C116.844 58.6816 117.117 58.6304 117.269 58.5278C117.42 58.4253 117.496 58.1665 117.496 57.7515V48.208C117.496 47.8271 117.107 47.6367 116.331 47.6367H115.188C114.568 47.6367 114.183 47.7759 114.031 48.0542C113.885 48.3325 113.79 48.7549 113.746 49.3213C113.682 50.3027 113.572 51.5234 113.416 52.9834C113.265 54.3652 113.067 55.5615 112.823 56.5723C112.583 57.583 112.134 58.4766 111.475 59.2529C110.821 60.0293 109.908 60.4175 108.736 60.4175C108.213 60.4175 107.703 60.249 107.205 59.9121C106.707 59.5703 106.458 59.0186 106.458 58.2568C106.458 57.6953 106.614 57.2607 106.927 56.9531C107.244 56.6455 107.618 56.4917 108.047 56.4917C108.462 56.4917 108.794 56.6211 109.043 56.8799C109.297 57.1387 109.424 57.4487 109.424 57.8101C109.424 57.8735 109.405 57.9834 109.366 58.1396C109.346 58.1982 109.336 58.2886 109.336 58.4106C109.336 58.689 109.488 58.8281 109.791 58.8281C110.484 58.8281 111.043 58.0493 111.468 56.4917C111.912 54.8511 112.183 52.7197 112.281 50.0977V49.3799C112.251 48.667 112.1 48.1982 111.827 47.9736C111.553 47.749 111.072 47.6367 110.384 47.6367H109.82ZM124.629 53.1592C124.629 52.3291 124.778 51.4868 125.076 50.6323C125.374 49.7729 125.813 48.9844 126.395 48.2666C126.98 47.5488 127.703 46.9751 128.562 46.5454C129.422 46.1157 130.401 45.9009 131.5 45.9009C132.945 45.9009 134.188 46.2671 135.228 46.9995C136.272 47.7319 137.056 48.6597 137.579 49.7827C138.106 50.9058 138.37 52.0312 138.37 53.1592C138.37 54.2871 138.106 55.4126 137.579 56.5356C137.056 57.6587 136.272 58.5864 135.228 59.3188C134.188 60.0513 132.945 60.4175 131.5 60.4175C130.074 60.4175 128.838 60.0537 127.793 59.3262C126.749 58.5938 125.96 57.6636 125.428 56.5356C124.896 55.4077 124.629 54.2822 124.629 53.1592ZM127.75 53.1592C127.75 57.0996 129 59.0698 131.5 59.0698C132.159 59.0698 132.767 58.9038 133.323 58.5718C133.88 58.2397 134.339 57.6318 134.7 56.748C135.066 55.8643 135.25 54.668 135.25 53.1592C135.25 51.0449 134.9 49.5312 134.202 48.6182C133.504 47.7051 132.603 47.2485 131.5 47.2485C130.396 47.2485 129.495 47.7051 128.797 48.6182C128.099 49.5312 127.75 51.0449 127.75 53.1592ZM152.696 52.229H151.524C151.368 50.8569 151.148 49.8462 150.865 49.1968C150.591 48.5571 150.225 48.1372 149.766 47.937C149.312 47.7368 148.738 47.6367 148.045 47.6367H146.573C146.114 47.6367 145.823 47.749 145.701 47.9736C145.584 48.1982 145.525 48.5059 145.525 48.8965V57.7515C145.525 58.1616 145.599 58.4204 145.745 58.5278C145.896 58.6304 146.172 58.6816 146.573 58.6816H147.891V60H140.574V58.6816H141.893C142.288 58.6816 142.562 58.6304 142.713 58.5278C142.864 58.4253 142.94 58.1665 142.94 57.7515V48.5669C142.94 48.1519 142.864 47.8931 142.713 47.7905C142.566 47.688 142.293 47.6367 141.893 47.6367H140.574V46.3184H152.696V52.229ZM159.646 56.1914L165.762 48.7207C166.001 48.4424 166.121 48.1812 166.121 47.937C166.023 47.7368 165.774 47.6367 165.374 47.6367H163.785V46.3184H171.102V47.6367H169.783C169.383 47.6367 169.107 47.688 168.956 47.7905C168.809 47.8931 168.736 48.1519 168.736 48.5669V57.7515C168.736 58.1616 168.809 58.4204 168.956 58.5278C169.107 58.6304 169.383 58.6816 169.783 58.6816H171.102V60H163.785V58.6816H165.103C165.499 58.6816 165.772 58.6304 165.923 58.5278C166.075 58.4253 166.15 58.1665 166.15 57.7515V50.127L159.976 57.5977C159.756 57.8711 159.646 58.0908 159.646 58.2568C159.646 58.54 159.966 58.6816 160.606 58.6816H161.983V60H154.695V58.6816H156.014C156.409 58.6816 156.683 58.6304 156.834 58.5278C156.985 58.4253 157.061 58.1665 157.061 57.7515V48.5669C157.061 48.1519 156.985 47.8931 156.834 47.7905C156.688 47.688 156.414 47.6367 156.014 47.6367H154.695V46.3184H162.012V47.6367H160.694C160.293 47.6367 160.018 47.688 159.866 47.7905C159.72 47.8931 159.646 48.1519 159.646 48.5669V56.1914ZM173.292 56.1035H174.463C174.571 57.7197 174.891 58.5278 175.423 58.5278C175.726 58.5278 175.955 58.3472 176.111 57.9858C176.268 57.6196 176.399 57.1606 176.507 56.6089C176.683 55.7544 176.983 55.0171 177.408 54.397C177.837 53.7769 178.636 53.4155 179.803 53.313V53.1006C178.606 53.0664 177.532 52.7856 176.58 52.2583C175.628 51.731 175.152 50.9717 175.152 49.9805C175.152 49.0088 175.611 48.1567 176.529 47.4243C177.447 46.687 178.938 46.3184 181.004 46.3184H188.951V47.6367H187.632C187.232 47.6367 186.956 47.688 186.805 47.7905C186.658 47.8931 186.585 48.1519 186.585 48.5669V57.7515C186.585 58.1616 186.658 58.4204 186.805 58.5278C186.956 58.6304 187.232 58.6816 187.632 58.6816H188.951V60H181.634V58.6816H182.952C183.348 58.6816 183.621 58.6304 183.772 58.5278C183.929 58.4253 184.007 58.1665 184.007 57.7515V53.7305H181.905C181.045 53.7305 180.425 54.0332 180.044 54.6387C179.668 55.2441 179.358 56.1401 179.114 57.3267C178.943 58.2446 178.677 58.9893 178.316 59.5605C177.955 60.1318 177.3 60.4175 176.353 60.4175C174.38 60.4175 173.36 58.9795 173.292 56.1035ZM184.007 52.3828V48.6328C184.007 48.2178 183.892 47.9395 183.663 47.7979C183.433 47.6514 183.077 47.5781 182.593 47.5781C182.398 47.5781 182.017 47.5977 181.451 47.6367C179.332 47.7783 178.272 48.5693 178.272 50.0098C178.272 50.5762 178.506 51.1133 178.975 51.6211C179.449 52.1289 180.264 52.3828 181.421 52.3828H184.007Z" fill="#59443F"/>
<path d="M41.62 201V199.64H35.98L38.76 196.5C39.3 195.88 40.02 195.06 40.58 194.28C41.38 193.14 41.64 192.32 41.64 191.42C41.64 189.12 39.88 187.44 37.52 187.44C35.86 187.44 34.92 188.16 34.36 188.8C33.84 189.4 33.42 190.22 33.36 191.56H34.84C34.86 190.88 35.02 190.38 35.28 189.98C35.78 189.22 36.56 188.8 37.5 188.8C39.08 188.8 40.16 189.9 40.16 191.4C40.16 191.94 40.02 192.58 39.42 193.44C39.1 193.92 38.2 194.98 37.86 195.38L33 201H41.62ZM49.345 187.34L44.805 193.64C43.805 195.04 43.705 196.2 43.705 196.7C43.705 198.8 45.185 201.24 48.325 201.24C50.985 201.24 52.905 199.32 52.905 196.66C52.905 194.18 51.145 192.26 48.585 192.26C48.165 192.26 47.785 192.32 47.405 192.44L50.465 188.18L49.345 187.34ZM48.305 199.88C46.445 199.88 45.185 198.48 45.185 196.7C45.185 194.96 46.465 193.62 48.285 193.62C50.105 193.62 51.425 194.92 51.425 196.7C51.425 198.5 50.145 199.88 48.305 199.88ZM60.0002 205.6H61.6002L67.7002 192.7H66.1002L63.4002 198.64L60.4602 192.7H58.8202L62.6402 200.22L60.0002 205.6ZM75.7194 193.3C75.3194 193.02 74.4594 192.5 73.1394 192.5C70.5794 192.5 68.6994 194.36 68.6994 196.9C68.6994 199.4 70.5594 201.24 73.1394 201.24C73.9194 201.24 74.8794 201.04 75.7794 200.38V198.66C75.0194 199.58 73.9594 199.96 73.0994 199.96C71.6194 199.96 70.1794 198.9 70.1794 196.88C70.1794 194.86 71.5794 193.78 73.1194 193.78C73.8594 193.78 74.9594 194.06 75.7194 195.02V193.3ZM84.2689 192.7H78.4289V197.76C78.4289 198.26 78.4089 198.78 78.1489 199.18C77.9889 199.44 77.6489 199.72 77.1089 199.72C77.0089 199.72 76.8889 199.7 76.7889 199.68V201C76.9289 201.02 77.0889 201.04 77.2289 201.04C78.3489 201.04 78.9689 200.48 79.2289 200.16C79.8689 199.38 79.8689 198.46 79.8689 197.76V194.02H82.8289V201H84.2689V192.7ZM86.9728 205.6H88.5728L94.6728 192.7H93.0728L90.3728 198.64L87.4328 192.7H85.7928L89.6128 200.22L86.9728 205.6ZM96.192 201H97.632V194.02H101.112V192.7H96.192V201Z" fill="#59443F"/>
<defs>
<filter id="filter0_d_302_1803" x="0" y="0" width="340" height="240" filterUnits="userSpaceOnUse" color-interpolation-filters="sRGB">
<feFlood flood-opacity="0" result="BackgroundImageFix"/>
<feColorMatrix in="SourceAlpha" type="matrix" values="0 0 0 0 0 0 0 0 0 0 0 0 0 0 0 0 0 0 127 0" result="hardAlpha"/>
<feOffset dx="2" dy="2"/>
<feGaussianBlur stdDeviation="5"/>
<feColorMatrix type="matrix" values="0 0 0 0 0 0 0 0 0 0 0 0 0 0 0 0 0 0 0.1 0"/>
<feBlend mode="normal" in2="BackgroundImageFix" result="effect1_dropShadow_302_1803"/>
<feBlend mode="normal" in="SourceGraphic" in2="effect1_dropShadow_302_1803" result="shape"/>
</filter>
</defs>
</svg>
