<svg width="340" height="240" viewBox="0 0 340 240" fill="none" xmlns="http://www.w3.org/2000/svg">
<g filter="url(#filter0_d_302_1618)">
<rect x="8" y="8" width="320" height="220" rx="20" fill="white"/>
</g>
<mask id="mask0_302_1618" style="mask-type:alpha" maskUnits="userSpaceOnUse" x="8" y="8" width="320" height="220">
<rect x="8" y="8" width="320" height="220" rx="20" fill="#FFFEFE"/>
</mask>
<g mask="url(#mask0_302_1618)">
<path d="M255.34 126.227C257.12 126.227 258.562 124.784 258.562 123.004C258.562 121.224 257.12 119.781 255.34 119.781C253.56 119.781 252.117 121.224 252.117 123.004C252.117 124.784 253.56 126.227 255.34 126.227Z" fill="#FFC59E"/>
<path d="M279.151 152.558C282.422 147.828 284.344 142.084 284.344 135.895V123.008C284.344 123.006 284.344 123.005 284.344 123.004C284.344 123.002 284.344 123 284.344 122.998C284.341 107.008 271.331 94 255.34 94C239.347 94 226.336 107.011 226.336 123.004V135.895C226.336 142.084 228.258 147.828 231.529 152.558C217.502 154.702 207 166.925 207 181.227V200.777C207 202.557 208.443 204 210.223 204H300.457C302.237 204 303.68 202.557 303.68 200.777V181.227C303.68 166.973 293.224 154.709 279.151 152.558ZM255.34 100.445C266.685 100.445 276.099 108.864 277.667 119.781H271.129C269.632 112.435 263.121 106.891 255.34 106.891C247.558 106.891 241.048 112.435 239.551 119.781H233.012C234.581 108.864 243.995 100.445 255.34 100.445ZM265.008 123.004C265.008 128.335 260.671 132.672 255.34 132.672C250.009 132.672 245.672 128.335 245.672 123.004C245.672 117.673 250.009 113.336 255.34 113.336C260.671 113.336 265.008 117.673 265.008 123.004ZM232.781 126.227H239.551C241.048 133.573 247.558 139.117 255.34 139.117C263.121 139.117 269.632 133.573 271.129 126.227H277.898V135.895C277.898 148.452 267.779 158.668 255.34 158.668C249.762 158.668 244.651 156.613 240.709 153.214C240.645 153.153 240.578 153.094 240.508 153.039C235.776 148.861 232.781 142.725 232.781 135.895V126.227ZM229.559 178.004C231.336 178.004 232.781 179.45 232.781 181.227C232.781 183.004 231.336 184.449 229.559 184.449C227.782 184.449 226.336 183.004 226.336 181.227C226.336 179.45 227.782 178.004 229.559 178.004ZM297.234 197.555H213.445V181.227C213.445 172.515 218.494 164.561 226.336 160.828V172.113C222.585 173.443 219.891 177.025 219.891 181.227C219.891 186.557 224.228 190.895 229.559 190.895C234.89 190.895 239.227 186.557 239.227 181.227C239.227 177.025 236.532 173.443 232.781 172.113V158.891C234.237 158.686 235.725 158.622 237.233 158.702C242.199 162.711 248.496 165.113 255.34 165.113C261.298 165.113 266.841 163.293 271.453 160.177V165.437C264.107 166.935 258.562 173.445 258.562 181.227V184.449C256.783 184.449 255.34 185.892 255.34 187.672C255.34 189.452 256.783 190.895 258.562 190.895H265.008C266.788 190.895 268.23 189.452 268.23 187.672C268.23 185.892 266.788 184.449 265.008 184.449V181.227C265.008 175.896 269.345 171.559 274.676 171.559C280.007 171.559 284.344 175.896 284.344 181.227V184.449C282.564 184.449 281.121 185.892 281.121 187.672C281.121 189.452 282.564 190.895 284.344 190.895H290.789C292.569 190.895 294.012 189.452 294.012 187.672C294.012 185.892 292.569 184.449 290.789 184.449V181.227C290.789 173.445 285.244 166.935 277.898 165.437V158.891C289.025 160.462 297.234 170.105 297.234 181.227V197.555Z" fill="#FFC59E"/>
</g>
<path d="M33.0767 39.6021H43.1035C44.4121 39.6021 45.562 39.7412 46.5532 40.0195C47.5493 40.293 48.3672 40.6714 49.0068 41.1548C49.6514 41.6382 50.1274 42.1777 50.4351 42.7734C50.7427 43.3691 50.8965 43.9917 50.8965 44.6411C50.8965 45.769 50.501 46.7529 49.71 47.5928C48.9189 48.4277 47.8765 49.0039 46.5825 49.3213V49.4971C47.5933 49.585 48.5234 49.856 49.373 50.3101C50.2275 50.7593 50.9062 51.3672 51.4092 52.1338C51.9121 52.8955 52.1636 53.7671 52.1636 54.7485C52.1636 55.6274 51.9146 56.4648 51.4165 57.2607C50.9185 58.0566 50.0933 58.7134 48.9409 59.231C47.7886 59.7437 46.3018 60 44.4805 60H33.0767V58.5864H34.8198C35.479 58.5864 35.8892 58.4766 36.0503 58.2568C36.2114 58.0322 36.292 57.6733 36.292 57.1802V42.4219C36.292 41.9238 36.2114 41.5649 36.0503 41.3452C35.894 41.1206 35.4839 41.0083 34.8198 41.0083H33.0767V39.6021ZM39.6465 48.8379H43.0083C44.0483 48.8379 45.0469 48.6084 46.0039 48.1494C46.9658 47.6855 47.4468 46.6357 47.4468 45C47.4468 44.165 47.2539 43.4473 46.8682 42.8467C46.4873 42.2461 45.9648 41.7896 45.3008 41.4771C44.6367 41.1646 43.8921 41.0083 43.0669 41.0083H41.1187C40.4546 41.0083 40.042 41.1206 39.8809 41.3452C39.7246 41.5649 39.6465 41.9238 39.6465 42.4219V48.8379ZM39.6465 50.2515V57.1802C39.6465 57.6733 39.7271 58.0322 39.8882 58.2568C40.0493 58.4766 40.4595 58.5864 41.1187 58.5864H43.2207C46.6582 58.5864 48.377 57.2485 48.377 54.5728C48.377 53.23 47.9302 52.1753 47.0366 51.4087C46.1431 50.6372 44.8711 50.2515 43.2207 50.2515H39.6465ZM59.2168 56.1914L65.3325 48.7207C65.5718 48.4424 65.6914 48.1812 65.6914 47.937C65.5938 47.7368 65.3447 47.6367 64.9443 47.6367H63.355V46.3184H70.6719V47.6367H69.3535C68.9531 47.6367 68.6772 47.688 68.5259 47.7905C68.3794 47.8931 68.3062 48.1519 68.3062 48.5669V57.7515C68.3062 58.1616 68.3794 58.4204 68.5259 58.5278C68.6772 58.6304 68.9531 58.6816 69.3535 58.6816H70.6719V60H63.355V58.6816H64.6733C65.0688 58.6816 65.3423 58.6304 65.4937 58.5278C65.645 58.4253 65.7207 58.1665 65.7207 57.7515V50.127L59.5464 57.5977C59.3267 57.8711 59.2168 58.0908 59.2168 58.2568C59.2168 58.54 59.5366 58.6816 60.1763 58.6816H61.5532V60H54.2656V58.6816H55.584C55.9795 58.6816 56.2529 58.6304 56.4043 58.5278C56.5557 58.4253 56.6313 58.1665 56.6313 57.7515V48.5669C56.6313 48.1519 56.5557 47.8931 56.4043 47.7905C56.2578 47.688 55.9844 47.6367 55.584 47.6367H54.2656V46.3184H61.5825V47.6367H60.2642C59.8638 47.6367 59.5879 47.688 59.4365 47.7905C59.29 47.8931 59.2168 48.1519 59.2168 48.5669V56.1914ZM75.0811 51.2402H74.063V46.3184H75.1104L75.5059 47.1313C76.7607 46.311 78.0693 45.9009 79.4316 45.9009C80.5693 45.9009 81.5117 46.0742 82.2588 46.4209C83.0059 46.7676 83.5454 47.2046 83.8774 47.7319C84.2144 48.2593 84.3828 48.8086 84.3828 49.3799C84.3828 50.0146 84.1411 50.6494 83.6577 51.2842C83.1792 51.9189 82.3101 52.3633 81.0503 52.6172L81.021 52.8003C82.3882 52.9175 83.3599 53.3105 83.936 53.9795C84.5122 54.6436 84.8003 55.3711 84.8003 56.1621C84.8003 56.5967 84.6807 57.0679 84.4414 57.5757C84.2021 58.0786 83.9141 58.5059 83.5771 58.8574C83.0742 59.375 82.415 59.7632 81.5996 60.022C80.7842 60.2856 79.9224 60.4175 79.0142 60.4175C77.4272 60.4175 76.187 60.1782 75.2935 59.6997C74.3999 59.2212 73.7969 58.6499 73.4844 57.9858C73.1719 57.3169 73.0156 56.6479 73.0156 55.979C73.0156 55.4272 73.2012 55.0195 73.5723 54.7559C73.9482 54.4922 74.3315 54.3604 74.7222 54.3604C75.1616 54.3604 75.5669 54.4946 75.938 54.7632C76.3091 55.0317 76.4946 55.4663 76.4946 56.0669C76.4946 56.311 76.4238 56.5527 76.2822 56.792C76.2285 56.8994 76.1187 57.063 75.9526 57.2827C75.7915 57.5024 75.7109 57.6782 75.7109 57.8101C75.7109 58.2397 75.9819 58.5498 76.5239 58.7402C77.105 58.96 77.7642 59.0698 78.5015 59.0698C79.3071 59.0698 80.0371 58.8257 80.6914 58.3374C81.3506 57.8491 81.6802 57.0825 81.6802 56.0376C81.6802 54.9585 81.2676 54.2358 80.4424 53.8696C79.6172 53.4985 78.7212 53.313 77.7544 53.313V52.1997H78.2012C79.417 52.1997 80.2666 51.9287 80.75 51.3867C81.2334 50.8447 81.4751 50.2246 81.4751 49.5264C81.4751 48.7842 81.2236 48.2202 80.7207 47.8345C80.2227 47.4438 79.6025 47.2485 78.8604 47.2485C77.9668 47.2485 77.1416 47.5732 76.3848 48.2227C75.6279 48.8721 75.1934 49.8779 75.0811 51.2402ZM86.624 47.6367V46.3184H93.4355V47.6367H92.564C91.9048 47.6367 91.5752 47.8687 91.5752 48.3325C91.5752 48.5278 91.6655 48.8159 91.8462 49.1968L95.3252 57.2095H95.5083L98.4453 49.9219C98.6455 49.4238 98.7456 49.0039 98.7456 48.6621C98.7456 47.9785 98.2256 47.6367 97.1855 47.6367H96.4678V46.3184H102.342V47.6367H102.078C101.639 47.6367 101.294 47.7466 101.045 47.9663C100.801 48.186 100.574 48.5474 100.364 49.0503L94.6953 62.1899C94.1484 63.4595 93.5454 64.3066 92.8862 64.7314C92.2271 65.1562 91.48 65.3687 90.645 65.3687C89.8198 65.3687 89.1777 65.1343 88.7188 64.6655C88.2646 64.1968 88.0376 63.6719 88.0376 63.0908C88.0376 62.6318 88.1938 62.2314 88.5063 61.8896C88.8237 61.5479 89.2168 61.377 89.6855 61.377C90.0713 61.377 90.418 61.5112 90.7256 61.7798C91.0332 62.0483 91.187 62.395 91.187 62.8198C91.187 63.0396 91.1455 63.23 91.0625 63.3911C90.9844 63.5474 90.9453 63.667 90.9453 63.75C90.9453 63.9893 91.1162 64.1089 91.458 64.1089C92.166 64.1089 92.8154 63.4204 93.4062 62.0435L94.124 60.4175L88.9019 48.8672C88.687 48.3984 88.4648 48.0762 88.2354 47.9004C88.0107 47.7246 87.6445 47.6367 87.1367 47.6367H86.624ZM117.869 58.3228L118.44 58.9526C117.786 59.5386 117.266 59.9292 116.88 60.1245C116.495 60.3198 116.016 60.4175 115.445 60.4175C114.629 60.4175 114.046 60.1758 113.694 59.6924C113.343 59.2041 113.135 58.667 113.072 58.0811H112.889C111.824 59.6387 110.215 60.4175 108.062 60.4175C106.504 60.4175 105.43 60.0562 104.839 59.3335C104.249 58.6108 103.953 57.8027 103.953 56.9092C103.953 56.167 104.18 55.4932 104.634 54.8877C105.093 54.2773 105.723 53.7451 106.524 53.291C107.325 52.8369 108.262 52.4463 109.336 52.1191C110.416 51.7871 111.59 51.5137 112.859 51.2988V50.127C112.859 49.1113 112.554 48.374 111.944 47.915C111.333 47.4512 110.569 47.2192 109.651 47.2192C109.231 47.2192 108.819 47.2754 108.414 47.3877C108.013 47.5 107.688 47.6538 107.439 47.8491C107.195 48.0396 107.073 48.2397 107.073 48.4497C107.073 48.6157 107.173 48.7549 107.374 48.8672C107.642 49.043 107.852 49.2188 108.003 49.3945C108.16 49.5703 108.238 49.8047 108.238 50.0977C108.238 50.5273 108.094 50.8911 107.806 51.189C107.522 51.4819 107.168 51.6284 106.744 51.6284C106.304 51.6284 105.894 51.4819 105.513 51.189C105.132 50.896 104.942 50.4932 104.942 49.9805C104.942 49.3164 105.142 48.667 105.542 48.0322C105.948 47.3975 106.539 46.8848 107.315 46.4941C108.091 46.0986 109.009 45.9009 110.069 45.9009C113.653 45.9009 115.445 47.5513 115.445 50.8521V57.5098C115.445 58.5498 115.784 59.0698 116.463 59.0698C116.941 59.0698 117.41 58.8208 117.869 58.3228ZM112.859 54.8071V52.5586C111.717 52.7686 110.726 53.0298 109.886 53.3423C109.046 53.6499 108.367 54.0625 107.85 54.5801C107.332 55.0928 107.073 55.7104 107.073 56.4331C107.073 57.1655 107.266 57.7881 107.652 58.3008C108.038 58.8135 108.575 59.0698 109.263 59.0698C109.839 59.0698 110.406 58.8989 110.962 58.5571C111.519 58.2104 111.973 57.7124 112.325 57.063C112.681 56.4136 112.859 55.6616 112.859 54.8071ZM122.417 47.6367V46.3184H135.044V47.6367H133.726C133.326 47.6367 133.05 47.688 132.898 47.7905C132.752 47.8931 132.679 48.1519 132.679 48.5669V57.7515C132.679 58.1616 132.752 58.4204 132.898 58.5278C133.05 58.6304 133.326 58.6816 133.726 58.6816H135.044V60H127.728V58.6816H129.046C129.441 58.6816 129.715 58.6304 129.866 58.5278C130.018 58.4253 130.093 58.1665 130.093 57.7515V48.208C130.093 47.8271 129.705 47.6367 128.929 47.6367H127.786C127.166 47.6367 126.78 47.7759 126.629 48.0542C126.482 48.3325 126.387 48.7549 126.343 49.3213C126.28 50.3027 126.17 51.5234 126.014 52.9834C125.862 54.3652 125.665 55.5615 125.42 56.5723C125.181 57.583 124.732 58.4766 124.073 59.2529C123.418 60.0293 122.505 60.4175 121.333 60.4175C120.811 60.4175 120.301 60.249 119.803 59.9121C119.305 59.5703 119.056 59.0186 119.056 58.2568C119.056 57.6953 119.212 57.2607 119.524 56.9531C119.842 56.6455 120.215 56.4917 120.645 56.4917C121.06 56.4917 121.392 56.6211 121.641 56.8799C121.895 57.1387 122.022 57.4487 122.022 57.8101C122.022 57.8735 122.002 57.9834 121.963 58.1396C121.944 58.1982 121.934 58.2886 121.934 58.4106C121.934 58.689 122.085 58.8281 122.388 58.8281C123.082 58.8281 123.641 58.0493 124.065 56.4917C124.51 54.8511 124.781 52.7197 124.878 50.0977V49.3799C124.849 48.667 124.698 48.1982 124.424 47.9736C124.151 47.749 123.67 47.6367 122.981 47.6367H122.417ZM144.698 46.3184V47.6367H143.35C143.008 47.6367 142.752 47.688 142.581 47.7905C142.415 47.8931 142.332 48.1519 142.332 48.5669V52.1411H145.269C147.549 52.1411 149.085 52.5708 149.876 53.4302C150.667 54.2896 151.062 55.21 151.062 56.1914C151.062 56.6211 150.936 57.1191 150.682 57.6855C150.428 58.252 149.864 58.7793 148.99 59.2676C148.121 59.7559 146.861 60 145.21 60H137.381V58.6816H138.699C139.095 58.6816 139.368 58.6304 139.52 58.5278C139.671 58.4253 139.747 58.1665 139.747 57.7515V48.5669C139.747 48.1519 139.671 47.8931 139.52 47.7905C139.373 47.688 139.1 47.6367 138.699 47.6367H137.381V46.3184H144.698ZM142.332 53.4888V57.6929C142.332 58.3521 142.691 58.6816 143.409 58.6816H144.91C145.75 58.6816 146.465 58.4839 147.056 58.0884C147.647 57.6929 147.942 57.041 147.942 56.1328C147.942 55.3857 147.728 54.7583 147.298 54.2505C146.873 53.7427 145.977 53.4888 144.61 53.4888H142.332ZM158.035 52.1704H164.122V48.5669C164.122 48.1421 164.046 47.8809 163.895 47.7832C163.743 47.6855 163.47 47.6367 163.074 47.6367H161.785V46.3184H169.073V47.6367H167.754C167.354 47.6367 167.078 47.688 166.927 47.7905C166.775 47.8931 166.7 48.1519 166.7 48.5669V57.7515C166.7 58.1616 166.775 58.4204 166.927 58.5278C167.083 58.6304 167.359 58.6816 167.754 58.6816H169.073V60H161.749V58.6816H163.074C163.47 58.6816 163.743 58.6304 163.895 58.5278C164.046 58.4253 164.122 58.1665 164.122 57.7515V53.4888H158.035V57.7515C158.035 58.1616 158.108 58.4204 158.255 58.5278C158.406 58.6304 158.682 58.6816 159.083 58.6816H160.401V60H153.084V58.6816H154.402C154.798 58.6816 155.071 58.6304 155.223 58.5278C155.374 58.4253 155.45 58.1665 155.45 57.7515V48.5669C155.45 48.1519 155.374 47.8931 155.223 47.7905C155.076 47.688 154.803 47.6367 154.402 47.6367H153.084V46.3184H160.401V47.6367H159.083C158.682 47.6367 158.406 47.688 158.255 47.7905C158.108 47.8931 158.035 48.1519 158.035 48.5669V52.1704ZM185.34 58.3228L185.911 58.9526C185.257 59.5386 184.737 59.9292 184.351 60.1245C183.965 60.3198 183.487 60.4175 182.916 60.4175C182.1 60.4175 181.517 60.1758 181.165 59.6924C180.813 59.2041 180.606 58.667 180.542 58.0811H180.359C179.295 59.6387 177.686 60.4175 175.533 60.4175C173.975 60.4175 172.901 60.0562 172.31 59.3335C171.719 58.6108 171.424 57.8027 171.424 56.9092C171.424 56.167 171.651 55.4932 172.105 54.8877C172.564 54.2773 173.194 53.7451 173.995 53.291C174.795 52.8369 175.733 52.4463 176.807 52.1191C177.886 51.7871 179.061 51.5137 180.33 51.2988V50.127C180.33 49.1113 180.025 48.374 179.415 47.915C178.804 47.4512 178.04 47.2192 177.122 47.2192C176.702 47.2192 176.29 47.2754 175.884 47.3877C175.484 47.5 175.159 47.6538 174.91 47.8491C174.666 48.0396 174.544 48.2397 174.544 48.4497C174.544 48.6157 174.644 48.7549 174.844 48.8672C175.113 49.043 175.323 49.2188 175.474 49.3945C175.63 49.5703 175.708 49.8047 175.708 50.0977C175.708 50.5273 175.564 50.8911 175.276 51.189C174.993 51.4819 174.639 51.6284 174.214 51.6284C173.775 51.6284 173.365 51.4819 172.984 51.189C172.603 50.896 172.413 50.4932 172.413 49.9805C172.413 49.3164 172.613 48.667 173.013 48.0322C173.418 47.3975 174.009 46.8848 174.786 46.4941C175.562 46.0986 176.48 45.9009 177.54 45.9009C181.124 45.9009 182.916 47.5513 182.916 50.8521V57.5098C182.916 58.5498 183.255 59.0698 183.934 59.0698C184.412 59.0698 184.881 58.8208 185.34 58.3228ZM180.33 54.8071V52.5586C179.188 52.7686 178.196 53.0298 177.356 53.3423C176.517 53.6499 175.838 54.0625 175.32 54.5801C174.803 55.0928 174.544 55.7104 174.544 56.4331C174.544 57.1655 174.737 57.7881 175.123 58.3008C175.508 58.8135 176.045 59.0698 176.734 59.0698C177.31 59.0698 177.876 58.8989 178.433 58.5571C178.99 58.2104 179.444 57.7124 179.795 57.063C180.152 56.4136 180.33 55.6616 180.33 54.8071ZM186.944 56.1035H188.116C188.223 57.7197 188.543 58.5278 189.075 58.5278C189.378 58.5278 189.607 58.3472 189.764 57.9858C189.92 57.6196 190.052 57.1606 190.159 56.6089C190.335 55.7544 190.635 55.0171 191.06 54.397C191.49 53.7769 192.288 53.4155 193.455 53.313V53.1006C192.259 53.0664 191.185 52.7856 190.232 52.2583C189.28 51.731 188.804 50.9717 188.804 49.9805C188.804 49.0088 189.263 48.1567 190.181 47.4243C191.099 46.687 192.591 46.3184 194.656 46.3184H202.603V47.6367H201.285C200.884 47.6367 200.608 47.688 200.457 47.7905C200.311 47.8931 200.237 48.1519 200.237 48.5669V57.7515C200.237 58.1616 200.311 58.4204 200.457 58.5278C200.608 58.6304 200.884 58.6816 201.285 58.6816H202.603V60H195.286V58.6816H196.604C197 58.6816 197.273 58.6304 197.425 58.5278C197.581 58.4253 197.659 58.1665 197.659 57.7515V53.7305H195.557C194.698 53.7305 194.078 54.0332 193.697 54.6387C193.321 55.2441 193.011 56.1401 192.767 57.3267C192.596 58.2446 192.33 58.9893 191.968 59.5605C191.607 60.1318 190.953 60.4175 190.005 60.4175C188.033 60.4175 187.012 58.9795 186.944 56.1035ZM197.659 52.3828V48.6328C197.659 48.2178 197.544 47.9395 197.315 47.7979C197.085 47.6514 196.729 47.5781 196.246 47.5781C196.05 47.5781 195.669 47.5977 195.103 47.6367C192.984 47.7783 191.924 48.5693 191.924 50.0098C191.924 50.5762 192.159 51.1133 192.627 51.6211C193.101 52.1289 193.917 52.3828 195.074 52.3828H197.659ZM43.3672 99.9707H37.2222C34.981 99.9707 33.8604 101.44 33.8604 104.38H32.6592V98.6523H34.0435C34.8394 98.6523 35.5889 97.5122 36.292 95.2319C37.1318 92.5806 37.5518 90.5493 37.5518 89.1382C37.5518 88.4839 37.376 88.0713 37.0244 87.9004C36.6729 87.7246 36.2383 87.6367 35.7207 87.6367H35.3032V86.3184H47.4468V87.6367H46.0991C45.6792 87.6367 45.4033 87.71 45.2715 87.8564C45.1445 87.998 45.0811 88.2959 45.0811 88.75V97.4805C45.0811 98.2617 45.2617 98.6523 45.623 98.6523H47.4468V104.38H46.2529C46.1748 102.749 45.8599 101.606 45.3081 100.952C44.7612 100.298 44.1143 99.9707 43.3672 99.9707ZM42.5029 97.9565V88.3911C42.5029 87.8882 42.1831 87.6367 41.5435 87.6367H40.0127C39.666 87.6367 39.439 87.7515 39.3315 87.981C39.2241 88.2056 39.1411 88.5718 39.0825 89.0796C38.8188 91.3159 38.521 93.0469 38.189 94.2725C37.8569 95.4932 37.5029 96.5332 37.127 97.3926C36.9707 97.7734 36.8926 98.042 36.8926 98.1982C36.8926 98.501 37.1025 98.6523 37.5225 98.6523H41.3311C41.7021 98.6523 41.9902 98.6108 42.1953 98.5278C42.4004 98.4448 42.5029 98.2544 42.5029 97.9565ZM54.7344 96.1914L60.8501 88.7207C61.0894 88.4424 61.209 88.1812 61.209 87.937C61.1113 87.7368 60.8623 87.6367 60.4619 87.6367H58.8726V86.3184H66.1895V87.6367H64.8711C64.4707 87.6367 64.1948 87.688 64.0435 87.7905C63.897 87.8931 63.8237 88.1519 63.8237 88.5669V97.7515C63.8237 98.1616 63.897 98.4204 64.0435 98.5278C64.1948 98.6304 64.4707 98.6816 64.8711 98.6816H66.1895V100H58.8726V98.6816H60.1909C60.5864 98.6816 60.8599 98.6304 61.0112 98.5278C61.1626 98.4253 61.2383 98.1665 61.2383 97.7515V90.127L55.064 97.5977C54.8442 97.8711 54.7344 98.0908 54.7344 98.2568C54.7344 98.54 55.0542 98.6816 55.6938 98.6816H57.0708V100H49.7832V98.6816H51.1016C51.4971 98.6816 51.7705 98.6304 51.9219 98.5278C52.0732 98.4253 52.1489 98.1665 52.1489 97.7515V88.5669C52.1489 88.1519 52.0732 87.8931 51.9219 87.7905C51.7754 87.688 51.502 87.6367 51.1016 87.6367H49.7832V86.3184H57.1001V87.6367H55.7817C55.3813 87.6367 55.1055 87.688 54.9541 87.7905C54.8076 87.8931 54.7344 88.1519 54.7344 88.5669V96.1914ZM82.4492 98.3228L83.0205 98.9526C82.3662 99.5386 81.8462 99.9292 81.4604 100.125C81.0747 100.32 80.5962 100.417 80.0249 100.417C79.2095 100.417 78.626 100.176 78.2744 99.6924C77.9229 99.2041 77.7153 98.667 77.6519 98.0811H77.4688C76.4043 99.6387 74.7954 100.417 72.6421 100.417C71.0845 100.417 70.0103 100.056 69.4194 99.3335C68.8286 98.6108 68.5332 97.8027 68.5332 96.9092C68.5332 96.167 68.7603 95.4932 69.2144 94.8877C69.6733 94.2773 70.3032 93.7451 71.104 93.291C71.9048 92.8369 72.8423 92.4463 73.9165 92.1191C74.9956 91.7871 76.1699 91.5137 77.4395 91.2988V90.127C77.4395 89.1113 77.1343 88.374 76.5239 87.915C75.9136 87.4512 75.1494 87.2192 74.2314 87.2192C73.8115 87.2192 73.3989 87.2754 72.9937 87.3877C72.5933 87.5 72.2686 87.6538 72.0195 87.8491C71.7754 88.0396 71.6533 88.2397 71.6533 88.4497C71.6533 88.6157 71.7534 88.7549 71.9536 88.8672C72.2222 89.043 72.4321 89.2188 72.5835 89.3945C72.7397 89.5703 72.8179 89.8047 72.8179 90.0977C72.8179 90.5273 72.6738 90.8911 72.3857 91.189C72.1025 91.4819 71.7485 91.6284 71.3237 91.6284C70.8843 91.6284 70.4741 91.4819 70.0933 91.189C69.7124 90.896 69.522 90.4932 69.522 89.9805C69.522 89.3164 69.7222 88.667 70.1226 88.0322C70.5278 87.3975 71.1187 86.8848 71.895 86.4941C72.6714 86.0986 73.5894 85.9009 74.6489 85.9009C78.2329 85.9009 80.0249 87.5513 80.0249 90.8521V97.5098C80.0249 98.5498 80.3643 99.0698 81.043 99.0698C81.5215 99.0698 81.9902 98.8208 82.4492 98.3228ZM77.4395 94.8071V92.5586C76.2969 92.7686 75.3057 93.0298 74.4658 93.3423C73.626 93.6499 72.9473 94.0625 72.4297 94.5801C71.9121 95.0928 71.6533 95.7104 71.6533 96.4331C71.6533 97.1655 71.8462 97.7881 72.2319 98.3008C72.6177 98.8135 73.1548 99.0698 73.8433 99.0698C74.4194 99.0698 74.9858 98.8989 75.5425 98.5571C76.0991 98.2104 76.5532 97.7124 76.9048 97.063C77.2612 96.4136 77.4395 95.6616 77.4395 94.8071ZM96.3286 92.229H95.1567C95.0005 90.8569 94.7808 89.8462 94.4976 89.1968C94.2241 88.5571 93.8579 88.1372 93.3989 87.937C92.9448 87.7368 92.3711 87.6367 91.6777 87.6367H90.2056C89.7466 87.6367 89.4561 87.749 89.334 87.9736C89.2168 88.1982 89.1582 88.5059 89.1582 88.8965V97.7515C89.1582 98.1616 89.2314 98.4204 89.3779 98.5278C89.5293 98.6304 89.8052 98.6816 90.2056 98.6816H91.5239V100H84.207V98.6816H85.5254C85.9209 98.6816 86.1943 98.6304 86.3457 98.5278C86.4971 98.4253 86.5728 98.1665 86.5728 97.7515V88.5669C86.5728 88.1519 86.4971 87.8931 86.3457 87.7905C86.1992 87.688 85.9258 87.6367 85.5254 87.6367H84.207V86.3184H96.3286V92.229ZM103.279 92.1704H109.366V88.5669C109.366 88.1421 109.29 87.8809 109.139 87.7832C108.987 87.6855 108.714 87.6367 108.318 87.6367H107.029V86.3184H114.317V87.6367H112.999C112.598 87.6367 112.322 87.688 112.171 87.7905C112.02 87.8931 111.944 88.1519 111.944 88.5669V97.7515C111.944 98.1616 112.02 98.4204 112.171 98.5278C112.327 98.6304 112.603 98.6816 112.999 98.6816H114.317V100H106.993V98.6816H108.318C108.714 98.6816 108.987 98.6304 109.139 98.5278C109.29 98.4253 109.366 98.1665 109.366 97.7515V93.4888H103.279V97.7515C103.279 98.1616 103.353 98.4204 103.499 98.5278C103.65 98.6304 103.926 98.6816 104.327 98.6816H105.645V100H98.3281V98.6816H99.6465C100.042 98.6816 100.315 98.6304 100.467 98.5278C100.618 98.4253 100.694 98.1665 100.694 97.7515V88.5669C100.694 88.1519 100.618 87.8931 100.467 87.7905C100.32 87.688 100.047 87.6367 99.6465 87.6367H98.3281V86.3184H105.645V87.6367H104.327C103.926 87.6367 103.65 87.688 103.499 87.7905C103.353 87.8931 103.279 88.1519 103.279 88.5669V92.1704ZM116.514 93.1592C116.514 92.3291 116.663 91.4868 116.961 90.6323C117.259 89.7729 117.698 88.9844 118.279 88.2666C118.865 87.5488 119.588 86.9751 120.447 86.5454C121.307 86.1157 122.286 85.9009 123.384 85.9009C124.83 85.9009 126.072 86.2671 127.112 86.9995C128.157 87.7319 128.941 88.6597 129.463 89.7827C129.991 90.9058 130.254 92.0312 130.254 93.1592C130.254 94.2871 129.991 95.4126 129.463 96.5356C128.941 97.6587 128.157 98.5864 127.112 99.3188C126.072 100.051 124.83 100.417 123.384 100.417C121.958 100.417 120.723 100.054 119.678 99.3262C118.633 98.5938 117.845 97.6636 117.312 96.5356C116.78 95.4077 116.514 94.2822 116.514 93.1592ZM119.634 93.1592C119.634 97.0996 120.884 99.0698 123.384 99.0698C124.043 99.0698 124.651 98.9038 125.208 98.5718C125.765 98.2397 126.224 97.6318 126.585 96.748C126.951 95.8643 127.134 94.668 127.134 93.1592C127.134 91.0449 126.785 89.5312 126.087 88.6182C125.389 87.7051 124.488 87.2485 123.384 87.2485C122.281 87.2485 121.38 87.7051 120.682 88.6182C119.983 89.5312 119.634 91.0449 119.634 93.1592ZM143.167 95.3784L144.485 95.8618C144.07 97.1069 143.562 98.064 142.962 98.7329C142.361 99.4019 141.727 99.8486 141.058 100.073C140.394 100.303 139.666 100.417 138.875 100.417C137.522 100.417 136.348 100.068 135.352 99.3701C134.356 98.667 133.599 97.7271 133.082 96.5503C132.564 95.3687 132.305 94.0796 132.305 92.6831C132.305 91.4233 132.591 90.2759 133.162 89.2407C133.733 88.2007 134.527 87.3853 135.542 86.7944C136.563 86.1987 137.706 85.9009 138.97 85.9009C140 85.9009 140.901 86.0889 141.673 86.4648C142.449 86.8359 143.042 87.3169 143.453 87.9077C143.863 88.4937 144.068 89.0942 144.068 89.7095C144.068 90.2222 143.926 90.6812 143.643 91.0864C143.36 91.4868 142.911 91.687 142.295 91.687C141.626 91.687 141.165 91.5186 140.911 91.1816C140.657 90.8398 140.53 90.4492 140.53 90.0098C140.53 89.6436 140.618 89.3237 140.794 89.0503C140.823 89.0015 140.906 88.9014 141.043 88.75C141.18 88.5986 141.248 88.4692 141.248 88.3618C141.248 88.1128 141.045 87.8662 140.64 87.6221C140.235 87.373 139.778 87.2485 139.271 87.2485C137.669 87.2485 136.626 87.8662 136.143 89.1016C135.665 90.3369 135.425 91.6406 135.425 93.0127C135.425 95.3223 135.811 96.9092 136.583 97.7734C137.359 98.6377 138.265 99.0698 139.3 99.0698C140.315 99.0698 141.146 98.6865 141.79 97.9199C142.435 97.1484 142.894 96.3013 143.167 95.3784ZM149.422 100L149.393 98.6816H150.718C151.114 98.6816 151.387 98.6304 151.539 98.5278C151.69 98.4253 151.766 98.1665 151.766 97.7515V88.3325C151.766 87.7515 151.417 87.4609 150.718 87.4609C150.044 87.4609 149.4 87.8442 148.785 88.6108C148.174 89.3774 147.847 90.5444 147.803 92.1118H146.602V86.3184H159.537V92.1118H158.335C158.306 91.0962 158.14 90.2368 157.837 89.5337C157.54 88.8257 157.171 88.3032 156.731 87.9663C156.292 87.6294 155.857 87.4609 155.428 87.4609C154.725 87.4609 154.373 87.7515 154.373 88.3325V97.7515C154.373 98.1616 154.449 98.4204 154.6 98.5278C154.756 98.6304 155.032 98.6816 155.428 98.6816H156.746V100H149.422ZM166.736 96.1914L172.852 88.7207C173.091 88.4424 173.211 88.1812 173.211 87.937C173.113 87.7368 172.864 87.6367 172.464 87.6367H170.875V86.3184H178.191V87.6367H176.873C176.473 87.6367 176.197 87.688 176.045 87.7905C175.899 87.8931 175.826 88.1519 175.826 88.5669V97.7515C175.826 98.1616 175.899 98.4204 176.045 98.5278C176.197 98.6304 176.473 98.6816 176.873 98.6816H178.191V100H170.875V98.6816H172.193C172.588 98.6816 172.862 98.6304 173.013 98.5278C173.165 98.4253 173.24 98.1665 173.24 97.7515V90.127L167.066 97.5977C166.846 97.8711 166.736 98.0908 166.736 98.2568C166.736 98.54 167.056 98.6816 167.696 98.6816H169.073V100H161.785V98.6816H163.104C163.499 98.6816 163.772 98.6304 163.924 98.5278C164.075 98.4253 164.151 98.1665 164.151 97.7515V88.5669C164.151 88.1519 164.075 87.8931 163.924 87.7905C163.777 87.688 163.504 87.6367 163.104 87.6367H161.785V86.3184H169.102V87.6367H167.784C167.383 87.6367 167.107 87.688 166.956 87.7905C166.81 87.8931 166.736 88.1519 166.736 88.5669V96.1914ZM180.535 100V98.6816H181.854C182.249 98.6816 182.522 98.6304 182.674 98.5278C182.825 98.4253 182.901 98.1665 182.901 97.7515V88.5669C182.901 88.1519 182.825 87.8931 182.674 87.7905C182.527 87.688 182.254 87.6367 181.854 87.6367H180.535V86.3184H187.823V87.6367H186.534C186.133 87.6367 185.857 87.688 185.706 87.7905C185.56 87.8931 185.486 88.1519 185.486 88.5669V92.229H186.504C187.579 92.229 188.348 92.1558 188.812 92.0093C189.275 91.8579 189.612 91.582 189.822 91.1816C190.032 90.7812 190.276 90.0415 190.555 88.9624C190.774 88.064 191.087 87.3291 191.492 86.7578C191.902 86.1865 192.559 85.9009 193.462 85.9009C194.19 85.9009 194.756 86.1133 195.162 86.5381C195.572 86.958 195.777 87.4365 195.777 87.9736C195.777 88.3789 195.657 88.7842 195.418 89.1895C195.179 89.5947 194.747 89.7974 194.122 89.7974C193.663 89.7974 193.309 89.6362 193.06 89.314C192.811 88.9917 192.686 88.6426 192.686 88.2666C192.686 88.2178 192.696 88.1567 192.715 88.0835C192.735 88.0103 192.745 87.9517 192.745 87.9077C192.745 87.7905 192.684 87.7319 192.562 87.7319C192.322 87.7319 192.103 88.1323 191.902 88.9331C191.688 89.8218 191.492 90.5127 191.316 91.0059C191.146 91.4941 190.928 91.8848 190.665 92.1777C190.406 92.4658 190.049 92.6636 189.595 92.771V92.8589C191.529 93.0542 192.828 94.3945 193.492 96.8799C193.736 98.0615 194.107 98.6523 194.605 98.6523C194.834 98.6523 195.047 98.4888 195.242 98.1616C195.438 97.8345 195.535 97.4463 195.535 96.9971V96.4331H196.641V97.0923C196.641 97.7319 196.458 98.4473 196.092 99.2383C195.73 100.024 194.983 100.417 193.851 100.417C193.23 100.417 192.745 100.286 192.393 100.022C192.042 99.7583 191.778 99.4165 191.602 98.9966C191.431 98.5767 191.255 98.0029 191.075 97.2754C190.894 96.543 190.74 96.0107 190.613 95.6787C190.267 94.751 189.856 94.1699 189.383 93.9355C188.909 93.6963 188.179 93.5767 187.193 93.5767H185.486V97.7515C185.486 98.1616 185.56 98.4204 185.706 98.5278C185.857 98.6304 186.133 98.6816 186.534 98.6816H187.852V100H180.535ZM213.084 98.3228L213.655 98.9526C213.001 99.5386 212.481 99.9292 212.095 100.125C211.709 100.32 211.231 100.417 210.66 100.417C209.844 100.417 209.261 100.176 208.909 99.6924C208.558 99.2041 208.35 98.667 208.287 98.0811H208.104C207.039 99.6387 205.43 100.417 203.277 100.417C201.719 100.417 200.645 100.056 200.054 99.3335C199.463 98.6108 199.168 97.8027 199.168 96.9092C199.168 96.167 199.395 95.4932 199.849 94.8877C200.308 94.2773 200.938 93.7451 201.739 93.291C202.54 92.8369 203.477 92.4463 204.551 92.1191C205.63 91.7871 206.805 91.5137 208.074 91.2988V90.127C208.074 89.1113 207.769 88.374 207.159 87.915C206.548 87.4512 205.784 87.2192 204.866 87.2192C204.446 87.2192 204.034 87.2754 203.628 87.3877C203.228 87.5 202.903 87.6538 202.654 87.8491C202.41 88.0396 202.288 88.2397 202.288 88.4497C202.288 88.6157 202.388 88.7549 202.588 88.8672C202.857 89.043 203.067 89.2188 203.218 89.3945C203.375 89.5703 203.453 89.8047 203.453 90.0977C203.453 90.5273 203.309 90.8911 203.021 91.189C202.737 91.4819 202.383 91.6284 201.958 91.6284C201.519 91.6284 201.109 91.4819 200.728 91.189C200.347 90.896 200.157 90.4932 200.157 89.9805C200.157 89.3164 200.357 88.667 200.757 88.0322C201.163 87.3975 201.753 86.8848 202.53 86.4941C203.306 86.0986 204.224 85.9009 205.284 85.9009C208.868 85.9009 210.66 87.5513 210.66 90.8521V97.5098C210.66 98.5498 210.999 99.0698 211.678 99.0698C212.156 99.0698 212.625 98.8208 213.084 98.3228ZM208.074 94.8071V92.5586C206.932 92.7686 205.94 93.0298 205.101 93.3423C204.261 93.6499 203.582 94.0625 203.064 94.5801C202.547 95.0928 202.288 95.7104 202.288 96.4331C202.288 97.1655 202.481 97.7881 202.867 98.3008C203.252 98.8135 203.79 99.0698 204.478 99.0698C205.054 99.0698 205.621 98.8989 206.177 98.5571C206.734 98.2104 207.188 97.7124 207.54 97.063C207.896 96.4136 208.074 95.6616 208.074 94.8071Z" fill="#59443F"/>
<path d="M41.62 201V199.64H35.98L38.76 196.5C39.3 195.88 40.02 195.06 40.58 194.28C41.38 193.14 41.64 192.32 41.64 191.42C41.64 189.12 39.88 187.44 37.52 187.44C35.86 187.44 34.92 188.16 34.36 188.8C33.84 189.4 33.42 190.22 33.36 191.56H34.84C34.86 190.88 35.02 190.38 35.28 189.98C35.78 189.22 36.56 188.8 37.5 188.8C39.08 188.8 40.16 189.9 40.16 191.4C40.16 191.94 40.02 192.58 39.42 193.44C39.1 193.92 38.2 194.98 37.86 195.38L33 201H41.62ZM49.345 187.34L44.805 193.64C43.805 195.04 43.705 196.2 43.705 196.7C43.705 198.8 45.185 201.24 48.325 201.24C50.985 201.24 52.905 199.32 52.905 196.66C52.905 194.18 51.145 192.26 48.585 192.26C48.165 192.26 47.785 192.32 47.405 192.44L50.465 188.18L49.345 187.34ZM48.305 199.88C46.445 199.88 45.185 198.48 45.185 196.7C45.185 194.96 46.465 193.62 48.285 193.62C50.105 193.62 51.425 194.92 51.425 196.7C51.425 198.5 50.145 199.88 48.305 199.88ZM60.0002 205.6H61.6002L67.7002 192.7H66.1002L63.4002 198.64L60.4602 192.7H58.8202L62.6402 200.22L60.0002 205.6ZM75.7194 193.3C75.3194 193.02 74.4594 192.5 73.1394 192.5C70.5794 192.5 68.6994 194.36 68.6994 196.9C68.6994 199.4 70.5594 201.24 73.1394 201.24C73.9194 201.24 74.8794 201.04 75.7794 200.38V198.66C75.0194 199.58 73.9594 199.96 73.0994 199.96C71.6194 199.96 70.1794 198.9 70.1794 196.88C70.1794 194.86 71.5794 193.78 73.1194 193.78C73.8594 193.78 74.9594 194.06 75.7194 195.02V193.3ZM84.2689 192.7H78.4289V197.76C78.4289 198.26 78.4089 198.78 78.1489 199.18C77.9889 199.44 77.6489 199.72 77.1089 199.72C77.0089 199.72 76.8889 199.7 76.7889 199.68V201C76.9289 201.02 77.0889 201.04 77.2289 201.04C78.3489 201.04 78.9689 200.48 79.2289 200.16C79.8689 199.38 79.8689 198.46 79.8689 197.76V194.02H82.8289V201H84.2689V192.7ZM86.9728 205.6H88.5728L94.6728 192.7H93.0728L90.3728 198.64L87.4328 192.7H85.7928L89.6128 200.22L86.9728 205.6ZM96.192 201H97.632V194.02H101.112V192.7H96.192V201Z" fill="#59443F"/>
<defs>
<filter id="filter0_d_302_1618" x="0" y="0" width="340" height="240" filterUnits="userSpaceOnUse" color-interpolation-filters="sRGB">
<feFlood flood-opacity="0" result="BackgroundImageFix"/>
<feColorMatrix in="SourceAlpha" type="matrix" values="0 0 0 0 0 0 0 0 0 0 0 0 0 0 0 0 0 0 127 0" result="hardAlpha"/>
<feOffset dx="2" dy="2"/>
<feGaussianBlur stdDeviation="5"/>
<feColorMatrix type="matrix" values="0 0 0 0 0 0 0 0 0 0 0 0 0 0 0 0 0 0 0.1 0"/>
<feBlend mode="normal" in2="BackgroundImageFix" result="effect1_dropShadow_302_1618"/>
<feBlend mode="normal" in="SourceGraphic" in2="effect1_dropShadow_302_1618" result="shape"/>
</filter>
</defs>
</svg>
