<svg width="340" height="240" viewBox="0 0 340 240" fill="none" xmlns="http://www.w3.org/2000/svg">
<g filter="url(#filter0_d_302_1582)">
<rect x="8" y="8" width="320" height="220" rx="20" fill="white"/>
</g>
<path d="M35.1494 47.4609H33.7065V39.6021H35.0322L36.292 41.1621C37.3223 40.3223 38.2305 39.7827 39.0166 39.5435C39.8076 39.2993 40.6694 39.1772 41.6021 39.1772C43.4429 39.1772 45.0005 39.6313 46.2749 40.5396C47.5542 41.4429 48.5137 42.6953 49.1533 44.2969C49.7979 45.8984 50.1201 47.7222 50.1201 49.7681C50.1201 51.2036 49.9028 52.561 49.4683 53.8403C49.0337 55.1147 48.3965 56.25 47.5566 57.2461C46.7217 58.2373 45.6987 59.0137 44.4878 59.5752C43.2817 60.1367 41.939 60.4175 40.4595 60.4175C39.1265 60.4175 37.8936 60.1953 36.7607 59.751C35.6279 59.3018 34.7295 58.6816 34.0654 57.8906C33.4062 57.0996 33.0767 56.2231 33.0767 55.2612C33.0767 54.314 33.3428 53.6035 33.875 53.1299C34.4072 52.6514 35.0029 52.4121 35.6621 52.4121C36.209 52.4121 36.6753 52.6343 37.061 53.0786C37.4468 53.5229 37.6396 54.0601 37.6396 54.6899C37.6396 55.1147 37.4395 55.5444 37.0391 55.979C36.8633 56.1548 36.6533 56.3062 36.4092 56.4331C36.0479 56.5845 35.8672 56.7725 35.8672 56.9971C35.8672 57.2949 36.0479 57.5977 36.4092 57.9053C36.7705 58.2129 37.2783 58.4692 37.9326 58.6743C38.5918 58.8794 39.3438 58.9819 40.1885 58.9819C44.2705 58.9819 46.3213 56.001 46.3408 50.0391H37.6689V48.6328H46.3408C46.3359 46.5625 46.0527 44.9268 45.4912 43.7256C44.9297 42.5244 44.2632 41.7017 43.4917 41.2573C42.7251 40.813 41.9756 40.5908 41.2432 40.5908C40.3057 40.5908 39.3901 40.8667 38.4966 41.4185C37.603 41.9653 36.8486 42.7588 36.2334 43.7988C35.623 44.8389 35.2617 46.0596 35.1494 47.4609ZM57.166 52.1704H63.2524V48.5669C63.2524 48.1421 63.1768 47.8809 63.0254 47.7832C62.874 47.6855 62.6006 47.6367 62.2051 47.6367H60.916V46.3184H68.2036V47.6367H66.8853C66.4849 47.6367 66.209 47.688 66.0576 47.7905C65.9062 47.8931 65.8306 48.1519 65.8306 48.5669V57.7515C65.8306 58.1616 65.9062 58.4204 66.0576 58.5278C66.2139 58.6304 66.4897 58.6816 66.8853 58.6816H68.2036V60H60.8794V58.6816H62.2051C62.6006 58.6816 62.874 58.6304 63.0254 58.5278C63.1768 58.4253 63.2524 58.1665 63.2524 57.7515V53.4888H57.166V57.7515C57.166 58.1616 57.2393 58.4204 57.3857 58.5278C57.5371 58.6304 57.813 58.6816 58.2134 58.6816H59.5317V60H52.2148V58.6816H53.5332C53.9287 58.6816 54.2021 58.6304 54.3535 58.5278C54.5049 58.4253 54.5806 58.1665 54.5806 57.7515V48.5669C54.5806 48.1519 54.5049 47.8931 54.3535 47.7905C54.207 47.688 53.9336 47.6367 53.5332 47.6367H52.2148V46.3184H59.5317V47.6367H58.2134C57.813 47.6367 57.5371 47.688 57.3857 47.7905C57.2393 47.8931 57.166 48.1519 57.166 48.5669V52.1704ZM80.75 59.9707H74.605C72.3638 59.9707 71.2432 61.4404 71.2432 64.3799H70.042V58.6523H71.4263C72.2222 58.6523 72.9717 57.5122 73.6748 55.2319C74.5146 52.5806 74.9346 50.5493 74.9346 49.1382C74.9346 48.4839 74.7588 48.0713 74.4072 47.9004C74.0557 47.7246 73.6211 47.6367 73.1035 47.6367H72.686V46.3184H84.8296V47.6367H83.4819C83.062 47.6367 82.7861 47.71 82.6543 47.8564C82.5273 47.998 82.4639 48.2959 82.4639 48.75V57.4805C82.4639 58.2617 82.6445 58.6523 83.0059 58.6523H84.8296V64.3799H83.6357C83.5576 62.749 83.2427 61.6064 82.6909 60.9521C82.144 60.2979 81.4971 59.9707 80.75 59.9707ZM79.8857 57.9565V48.3911C79.8857 47.8882 79.5659 47.6367 78.9263 47.6367H77.3955C77.0488 47.6367 76.8218 47.7515 76.7144 47.981C76.6069 48.2056 76.5239 48.5718 76.4653 49.0796C76.2017 51.3159 75.9038 53.0469 75.5718 54.2725C75.2397 55.4932 74.8857 56.5332 74.5098 57.3926C74.3535 57.7734 74.2754 58.042 74.2754 58.1982C74.2754 58.501 74.4854 58.6523 74.9053 58.6523H78.7139C79.085 58.6523 79.373 58.6108 79.5781 58.5278C79.7832 58.4448 79.8857 58.2544 79.8857 57.9565ZM87.0122 53.1592C87.0122 52.3291 87.1611 51.4868 87.459 50.6323C87.7568 49.7729 88.1963 48.9844 88.7773 48.2666C89.3633 47.5488 90.0859 46.9751 90.9453 46.5454C91.8047 46.1157 92.7837 45.9009 93.8823 45.9009C95.3276 45.9009 96.5703 46.2671 97.6104 46.9995C98.6553 47.7319 99.439 48.6597 99.9614 49.7827C100.489 50.9058 100.752 52.0312 100.752 53.1592C100.752 54.2871 100.489 55.4126 99.9614 56.5356C99.439 57.6587 98.6553 58.5864 97.6104 59.3188C96.5703 60.0513 95.3276 60.4175 93.8823 60.4175C92.4565 60.4175 91.2212 60.0537 90.1763 59.3262C89.1313 58.5938 88.3428 57.6636 87.8105 56.5356C87.2783 55.4077 87.0122 54.2822 87.0122 53.1592ZM90.1323 53.1592C90.1323 57.0996 91.3823 59.0698 93.8823 59.0698C94.5415 59.0698 95.1494 58.9038 95.7061 58.5718C96.2627 58.2397 96.7217 57.6318 97.083 56.748C97.4492 55.8643 97.6323 54.668 97.6323 53.1592C97.6323 51.0449 97.2832 49.5312 96.585 48.6182C95.8867 47.7051 94.9858 47.2485 93.8823 47.2485C92.7788 47.2485 91.8779 47.7051 91.1797 48.6182C90.4814 49.5312 90.1323 51.0449 90.1323 53.1592ZM102.957 60V58.6816H104.275C104.671 58.6816 104.944 58.6304 105.096 58.5278C105.247 58.4253 105.323 58.1665 105.323 57.7515V48.5669C105.323 48.1519 105.247 47.8931 105.096 47.7905C104.949 47.688 104.676 47.6367 104.275 47.6367H102.957V46.3184H110.245V47.6367H108.956C108.555 47.6367 108.279 47.688 108.128 47.7905C107.981 47.8931 107.908 48.1519 107.908 48.5669V52.229H108.926C110 52.229 110.77 52.1558 111.233 52.0093C111.697 51.8579 112.034 51.582 112.244 51.1816C112.454 50.7812 112.698 50.0415 112.977 48.9624C113.196 48.064 113.509 47.3291 113.914 46.7578C114.324 46.1865 114.981 45.9009 115.884 45.9009C116.612 45.9009 117.178 46.1133 117.583 46.5381C117.994 46.958 118.199 47.4365 118.199 47.9736C118.199 48.3789 118.079 48.7842 117.84 49.1895C117.601 49.5947 117.168 49.7974 116.543 49.7974C116.084 49.7974 115.73 49.6362 115.481 49.314C115.232 48.9917 115.108 48.6426 115.108 48.2666C115.108 48.2178 115.118 48.1567 115.137 48.0835C115.157 48.0103 115.167 47.9517 115.167 47.9077C115.167 47.7905 115.105 47.7319 114.983 47.7319C114.744 47.7319 114.524 48.1323 114.324 48.9331C114.109 49.8218 113.914 50.5127 113.738 51.0059C113.567 51.4941 113.35 51.8848 113.086 52.1777C112.828 52.4658 112.471 52.6636 112.017 52.771V52.8589C113.951 53.0542 115.25 54.3945 115.914 56.8799C116.158 58.0615 116.529 58.6523 117.027 58.6523C117.256 58.6523 117.469 58.4888 117.664 58.1616C117.859 57.8345 117.957 57.4463 117.957 56.9971V56.4331H119.063V57.0923C119.063 57.7319 118.88 58.4473 118.514 59.2383C118.152 60.0244 117.405 60.4175 116.272 60.4175C115.652 60.4175 115.167 60.2856 114.815 60.022C114.463 59.7583 114.2 59.4165 114.024 58.9966C113.853 58.5767 113.677 58.0029 113.497 57.2754C113.316 56.543 113.162 56.0107 113.035 55.6787C112.688 54.751 112.278 54.1699 111.805 53.9355C111.331 53.6963 110.601 53.5767 109.615 53.5767H107.908V57.7515C107.908 58.1616 107.981 58.4204 108.128 58.5278C108.279 58.6304 108.555 58.6816 108.956 58.6816H110.274V60H102.957ZM121.377 46.3184L126.299 45.9009V47.9736C127.359 46.5918 128.648 45.9009 130.167 45.9009C131.309 45.9009 132.293 46.1279 133.118 46.582C133.943 47.0361 134.607 47.6343 135.11 48.3765C135.618 49.1187 135.987 49.9292 136.216 50.8081C136.446 51.6821 136.561 52.5464 136.561 53.4009C136.561 54.2017 136.424 55.0146 136.15 55.8398C135.882 56.665 135.477 57.4268 134.935 58.125C134.397 58.8232 133.726 59.3799 132.92 59.7949C132.115 60.21 131.197 60.4175 130.167 60.4175C128.453 60.4175 127.173 59.6875 126.329 58.2275H126.087L126.299 59.4873V63.1201C126.299 63.5303 126.373 63.7866 126.519 63.8892C126.67 63.9966 126.946 64.0503 127.347 64.0503H129.031V65.3687H121.348V64.0503H122.667C123.062 64.0503 123.335 63.999 123.487 63.8965C123.643 63.7939 123.721 63.5352 123.721 63.1201V48.5669C123.721 48.1519 123.646 47.8931 123.494 47.7905C123.343 47.688 123.067 47.6367 122.667 47.6367H121.377V46.3184ZM126.299 53.2471C126.299 54.5459 126.468 55.6348 126.805 56.5137C127.142 57.3877 127.581 58.0322 128.123 58.4473C128.665 58.8623 129.246 59.0698 129.866 59.0698C130.74 59.0698 131.553 58.6694 132.305 57.8687C133.062 57.063 133.44 55.5127 133.44 53.2178C133.44 50.8447 133.077 49.2578 132.349 48.457C131.622 47.6514 130.794 47.2485 129.866 47.2485C128.968 47.2485 128.147 47.6782 127.405 48.5376C126.668 49.397 126.299 50.9668 126.299 53.2471ZM143.709 56.1914L149.825 48.7207C150.064 48.4424 150.184 48.1812 150.184 47.937C150.086 47.7368 149.837 47.6367 149.437 47.6367H147.847V46.3184H155.164V47.6367H153.846C153.445 47.6367 153.169 47.688 153.018 47.7905C152.872 47.8931 152.798 48.1519 152.798 48.5669V57.7515C152.798 58.1616 152.872 58.4204 153.018 58.5278C153.169 58.6304 153.445 58.6816 153.846 58.6816H155.164V60H147.847V58.6816H149.166C149.561 58.6816 149.834 58.6304 149.986 58.5278C150.137 58.4253 150.213 58.1665 150.213 57.7515V50.127L144.039 57.5977C143.819 57.8711 143.709 58.0908 143.709 58.2568C143.709 58.54 144.029 58.6816 144.668 58.6816H146.045V60H138.758V58.6816H140.076C140.472 58.6816 140.745 58.6304 140.896 58.5278C141.048 58.4253 141.124 58.1665 141.124 57.7515V48.5669C141.124 48.1519 141.048 47.8931 140.896 47.7905C140.75 47.688 140.477 47.6367 140.076 47.6367H138.758V46.3184H146.075V47.6367H144.756C144.356 47.6367 144.08 47.688 143.929 47.7905C143.782 47.8931 143.709 48.1519 143.709 48.5669V56.1914ZM162.459 52.1704H168.545V48.5669C168.545 48.1421 168.47 47.8809 168.318 47.7832C168.167 47.6855 167.894 47.6367 167.498 47.6367H166.209V46.3184H173.497V47.6367H172.178C171.778 47.6367 171.502 47.688 171.351 47.7905C171.199 47.8931 171.124 48.1519 171.124 48.5669V57.7515C171.124 58.1616 171.199 58.4204 171.351 58.5278C171.507 58.6304 171.783 58.6816 172.178 58.6816H173.497V60H166.172V58.6816H167.498C167.894 58.6816 168.167 58.6304 168.318 58.5278C168.47 58.4253 168.545 58.1665 168.545 57.7515V53.4888H162.459V57.7515C162.459 58.1616 162.532 58.4204 162.679 58.5278C162.83 58.6304 163.106 58.6816 163.506 58.6816H164.825V60H157.508V58.6816H158.826C159.222 58.6816 159.495 58.6304 159.646 58.5278C159.798 58.4253 159.874 58.1665 159.874 57.7515V48.5669C159.874 48.1519 159.798 47.8931 159.646 47.7905C159.5 47.688 159.227 47.6367 158.826 47.6367H157.508V46.3184H164.825V47.6367H163.506C163.106 47.6367 162.83 47.688 162.679 47.7905C162.532 47.8931 162.459 48.1519 162.459 48.5669V52.1704ZM175.694 53.1592C175.694 52.3291 175.843 51.4868 176.141 50.6323C176.438 49.7729 176.878 48.9844 177.459 48.2666C178.045 47.5488 178.768 46.9751 179.627 46.5454C180.486 46.1157 181.465 45.9009 182.564 45.9009C184.009 45.9009 185.252 46.2671 186.292 46.9995C187.337 47.7319 188.121 48.6597 188.643 49.7827C189.17 50.9058 189.434 52.0312 189.434 53.1592C189.434 54.2871 189.17 55.4126 188.643 56.5356C188.121 57.6587 187.337 58.5864 186.292 59.3188C185.252 60.0513 184.009 60.4175 182.564 60.4175C181.138 60.4175 179.903 60.0537 178.858 59.3262C177.813 58.5938 177.024 57.6636 176.492 56.5356C175.96 55.4077 175.694 54.2822 175.694 53.1592ZM178.814 53.1592C178.814 57.0996 180.064 59.0698 182.564 59.0698C183.223 59.0698 183.831 58.9038 184.388 58.5718C184.944 58.2397 185.403 57.6318 185.765 56.748C186.131 55.8643 186.314 54.668 186.314 53.1592C186.314 51.0449 185.965 49.5312 185.267 48.6182C184.568 47.7051 183.667 47.2485 182.564 47.2485C181.46 47.2485 180.56 47.7051 179.861 48.6182C179.163 49.5312 178.814 51.0449 178.814 53.1592ZM194.429 47.6367V46.3184H207.056V47.6367H205.738C205.337 47.6367 205.062 47.688 204.91 47.7905C204.764 47.8931 204.69 48.1519 204.69 48.5669V57.7515C204.69 58.1616 204.764 58.4204 204.91 58.5278C205.062 58.6304 205.337 58.6816 205.738 58.6816H207.056V60H199.739V58.6816H201.058C201.453 58.6816 201.727 58.6304 201.878 58.5278C202.029 58.4253 202.105 58.1665 202.105 57.7515V48.208C202.105 47.8271 201.717 47.6367 200.94 47.6367H199.798C199.178 47.6367 198.792 47.7759 198.641 48.0542C198.494 48.3325 198.399 48.7549 198.355 49.3213C198.292 50.3027 198.182 51.5234 198.025 52.9834C197.874 54.3652 197.676 55.5615 197.432 56.5723C197.193 57.583 196.744 58.4766 196.084 59.2529C195.43 60.0293 194.517 60.4175 193.345 60.4175C192.823 60.4175 192.312 60.249 191.814 59.9121C191.316 59.5703 191.067 59.0186 191.067 58.2568C191.067 57.6953 191.224 57.2607 191.536 56.9531C191.854 56.6455 192.227 56.4917 192.657 56.4917C193.072 56.4917 193.404 56.6211 193.653 56.8799C193.907 57.1387 194.034 57.4487 194.034 57.8101C194.034 57.8735 194.014 57.9834 193.975 58.1396C193.956 58.1982 193.946 58.2886 193.946 58.4106C193.946 58.689 194.097 58.8281 194.4 58.8281C195.093 58.8281 195.652 58.0493 196.077 56.4917C196.521 54.8511 196.792 52.7197 196.89 50.0977V49.3799C196.861 48.667 196.709 48.1982 196.436 47.9736C196.163 47.749 195.682 47.6367 194.993 47.6367H194.429ZM209.239 53.1592C209.239 52.3291 209.388 51.4868 209.686 50.6323C209.983 49.7729 210.423 48.9844 211.004 48.2666C211.59 47.5488 212.312 46.9751 213.172 46.5454C214.031 46.1157 215.01 45.9009 216.109 45.9009C217.554 45.9009 218.797 46.2671 219.837 46.9995C220.882 47.7319 221.666 48.6597 222.188 49.7827C222.715 50.9058 222.979 52.0312 222.979 53.1592C222.979 54.2871 222.715 55.4126 222.188 56.5356C221.666 57.6587 220.882 58.5864 219.837 59.3188C218.797 60.0513 217.554 60.4175 216.109 60.4175C214.683 60.4175 213.448 60.0537 212.403 59.3262C211.358 58.5938 210.569 57.6636 210.037 56.5356C209.505 55.4077 209.239 54.2822 209.239 53.1592ZM212.359 53.1592C212.359 57.0996 213.609 59.0698 216.109 59.0698C216.768 59.0698 217.376 58.9038 217.933 58.5718C218.489 58.2397 218.948 57.6318 219.31 56.748C219.676 55.8643 219.859 54.668 219.859 53.1592C219.859 51.0449 219.51 49.5312 218.812 48.6182C218.113 47.7051 217.212 47.2485 216.109 47.2485C215.005 47.2485 214.104 47.7051 213.406 48.6182C212.708 49.5312 212.359 51.0449 212.359 53.1592ZM237.305 52.229H236.133C235.977 50.8569 235.757 49.8462 235.474 49.1968C235.201 48.5571 234.834 48.1372 234.375 47.937C233.921 47.7368 233.348 47.6367 232.654 47.6367H231.182C230.723 47.6367 230.433 47.749 230.311 47.9736C230.193 48.1982 230.135 48.5059 230.135 48.8965V57.7515C230.135 58.1616 230.208 58.4204 230.354 58.5278C230.506 58.6304 230.782 58.6816 231.182 58.6816H232.5V60H225.184V58.6816H226.502C226.897 58.6816 227.171 58.6304 227.322 58.5278C227.474 58.4253 227.549 58.1665 227.549 57.7515V48.5669C227.549 48.1519 227.474 47.8931 227.322 47.7905C227.176 47.688 226.902 47.6367 226.502 47.6367H225.184V46.3184H237.305V52.229ZM244.256 56.1914L250.372 48.7207C250.611 48.4424 250.73 48.1812 250.73 47.937C250.633 47.7368 250.384 47.6367 249.983 47.6367H248.394V46.3184H255.711V47.6367H254.393C253.992 47.6367 253.716 47.688 253.565 47.7905C253.418 47.8931 253.345 48.1519 253.345 48.5669V57.7515C253.345 58.1616 253.418 58.4204 253.565 58.5278C253.716 58.6304 253.992 58.6816 254.393 58.6816H255.711V60H248.394V58.6816H249.712C250.108 58.6816 250.381 58.6304 250.533 58.5278C250.684 58.4253 250.76 58.1665 250.76 57.7515V50.127L244.585 57.5977C244.366 57.8711 244.256 58.0908 244.256 58.2568C244.256 58.54 244.576 58.6816 245.215 58.6816H246.592V60H239.305V58.6816H240.623C241.019 58.6816 241.292 58.6304 241.443 58.5278C241.595 58.4253 241.67 58.1665 241.67 57.7515V48.5669C241.67 48.1519 241.595 47.8931 241.443 47.7905C241.297 47.688 241.023 47.6367 240.623 47.6367H239.305V46.3184H246.622V47.6367H245.303C244.903 47.6367 244.627 47.688 244.476 47.7905C244.329 47.8931 244.256 48.1519 244.256 48.5669V56.1914ZM257.901 56.1035H259.073C259.18 57.7197 259.5 58.5278 260.032 58.5278C260.335 58.5278 260.564 58.3472 260.721 57.9858C260.877 57.6196 261.009 57.1606 261.116 56.6089C261.292 55.7544 261.592 55.0171 262.017 54.397C262.447 53.7769 263.245 53.4155 264.412 53.313V53.1006C263.216 53.0664 262.142 52.7856 261.189 52.2583C260.237 51.731 259.761 50.9717 259.761 49.9805C259.761 49.0088 260.22 48.1567 261.138 47.4243C262.056 46.687 263.548 46.3184 265.613 46.3184H273.56V47.6367H272.242C271.841 47.6367 271.565 47.688 271.414 47.7905C271.268 47.8931 271.194 48.1519 271.194 48.5669V57.7515C271.194 58.1616 271.268 58.4204 271.414 58.5278C271.565 58.6304 271.841 58.6816 272.242 58.6816H273.56V60H266.243V58.6816H267.562C267.957 58.6816 268.23 58.6304 268.382 58.5278C268.538 58.4253 268.616 58.1665 268.616 57.7515V53.7305H266.514C265.655 53.7305 265.035 54.0332 264.654 54.6387C264.278 55.2441 263.968 56.1401 263.724 57.3267C263.553 58.2446 263.287 58.9893 262.925 59.5605C262.564 60.1318 261.91 60.4175 260.962 60.4175C258.99 60.4175 257.969 58.9795 257.901 56.1035ZM268.616 52.3828V48.6328C268.616 48.2178 268.501 47.9395 268.272 47.7979C268.042 47.6514 267.686 47.5781 267.203 47.5781C267.007 47.5781 266.626 47.5977 266.06 47.6367C263.941 47.7783 262.881 48.5693 262.881 50.0098C262.881 50.5762 263.116 51.1133 263.584 51.6211C264.058 52.1289 264.874 52.3828 266.031 52.3828H268.616Z" fill="#59443F"/>
<path d="M41.62 201V199.64H35.98L38.76 196.5C39.3 195.88 40.02 195.06 40.58 194.28C41.38 193.14 41.64 192.32 41.64 191.42C41.64 189.12 39.88 187.44 37.52 187.44C35.86 187.44 34.92 188.16 34.36 188.8C33.84 189.4 33.42 190.22 33.36 191.56H34.84C34.86 190.88 35.02 190.38 35.28 189.98C35.78 189.22 36.56 188.8 37.5 188.8C39.08 188.8 40.16 189.9 40.16 191.4C40.16 191.94 40.02 192.58 39.42 193.44C39.1 193.92 38.2 194.98 37.86 195.38L33 201H41.62ZM49.345 187.34L44.805 193.64C43.805 195.04 43.705 196.2 43.705 196.7C43.705 198.8 45.185 201.24 48.325 201.24C50.985 201.24 52.905 199.32 52.905 196.66C52.905 194.18 51.145 192.26 48.585 192.26C48.165 192.26 47.785 192.32 47.405 192.44L50.465 188.18L49.345 187.34ZM48.305 199.88C46.445 199.88 45.185 198.48 45.185 196.7C45.185 194.96 46.465 193.62 48.285 193.62C50.105 193.62 51.425 194.92 51.425 196.7C51.425 198.5 50.145 199.88 48.305 199.88ZM60.0002 205.6H61.6002L67.7002 192.7H66.1002L63.4002 198.64L60.4602 192.7H58.8202L62.6402 200.22L60.0002 205.6ZM75.7194 193.3C75.3194 193.02 74.4594 192.5 73.1394 192.5C70.5794 192.5 68.6994 194.36 68.6994 196.9C68.6994 199.4 70.5594 201.24 73.1394 201.24C73.9194 201.24 74.8794 201.04 75.7794 200.38V198.66C75.0194 199.58 73.9594 199.96 73.0994 199.96C71.6194 199.96 70.1794 198.9 70.1794 196.88C70.1794 194.86 71.5794 193.78 73.1194 193.78C73.8594 193.78 74.9594 194.06 75.7194 195.02V193.3ZM84.2689 192.7H78.4289V197.76C78.4289 198.26 78.4089 198.78 78.1489 199.18C77.9889 199.44 77.6489 199.72 77.1089 199.72C77.0089 199.72 76.8889 199.7 76.7889 199.68V201C76.9289 201.02 77.0889 201.04 77.2289 201.04C78.3489 201.04 78.9689 200.48 79.2289 200.16C79.8689 199.38 79.8689 198.46 79.8689 197.76V194.02H82.8289V201H84.2689V192.7ZM86.9728 205.6H88.5728L94.6728 192.7H93.0728L90.3728 198.64L87.4328 192.7H85.7928L89.6128 200.22L86.9728 205.6ZM96.192 201H97.632V194.02H101.112V192.7H96.192V201Z" fill="#59443F"/>
<defs>
<filter id="filter0_d_302_1582" x="0" y="0" width="340" height="240" filterUnits="userSpaceOnUse" color-interpolation-filters="sRGB">
<feFlood flood-opacity="0" result="BackgroundImageFix"/>
<feColorMatrix in="SourceAlpha" type="matrix" values="0 0 0 0 0 0 0 0 0 0 0 0 0 0 0 0 0 0 127 0" result="hardAlpha"/>
<feOffset dx="2" dy="2"/>
<feGaussianBlur stdDeviation="5"/>
<feColorMatrix type="matrix" values="0 0 0 0 0 0 0 0 0 0 0 0 0 0 0 0 0 0 0.1 0"/>
<feBlend mode="normal" in2="BackgroundImageFix" result="effect1_dropShadow_302_1582"/>
<feBlend mode="normal" in="SourceGraphic" in2="effect1_dropShadow_302_1582" result="shape"/>
</filter>
</defs>
</svg>
