<svg width="340" height="240" viewBox="0 0 340 240" fill="none" xmlns="http://www.w3.org/2000/svg">
<g filter="url(#filter0_d_302_1554)">
<rect x="8" y="8" width="320" height="220" rx="20" fill="white"/>
</g>
<mask id="mask0_302_1554" style="mask-type:alpha" maskUnits="userSpaceOnUse" x="8" y="8" width="320" height="220">
<rect x="8" y="8" width="320" height="220" rx="20" fill="#FFFEFE"/>
</mask>
<g mask="url(#mask0_302_1554)">
<path d="M293.167 113H277.397C273.04 113 269.278 115.587 267.56 119.304C264.762 118.652 261.753 118.323 258.58 118.323C255.408 118.323 252.399 118.652 249.601 119.304C247.882 115.587 244.121 113 239.764 113H223.994C218.021 113 213.161 117.86 213.161 123.833C213.161 126.03 213.824 128.284 214.981 130.019L221.828 140.289C222.924 141.934 224.49 143.233 226.294 144.067C222.942 157.495 223.984 180.155 223.984 179.71C223.984 189.982 232.341 198.339 242.613 198.339C244.294 198.339 245.924 198.114 247.474 197.695C249.935 201.446 254.143 203.839 258.58 203.839C263.018 203.839 267.226 201.446 269.687 197.695C271.237 198.114 272.867 198.339 274.548 198.339C284.82 198.339 293.177 189.982 293.177 179.71C293.177 166.151 293.823 154.895 290.895 144.054C292.687 143.219 294.243 141.925 295.333 140.289L302.18 130.019C303.337 128.284 304 126.03 304 123.833C304 117.86 299.14 113 293.167 113ZM226.256 137.337L219.409 127.066C218.838 126.21 218.484 124.971 218.484 123.833C218.484 120.794 220.956 118.323 223.994 118.323H239.764C242.802 118.323 245.274 120.794 245.274 123.833C245.274 124.971 244.919 126.21 244.349 127.066L237.501 137.337C236.477 138.873 234.764 139.79 232.917 139.79H231.018C229.119 139.79 227.25 138.827 226.256 137.337ZM258.58 198.516C256.23 198.516 253.979 197.369 252.462 195.515C254.958 193.954 257.06 191.82 258.58 189.297C260.101 191.82 262.203 193.954 264.699 195.515C263.182 197.369 260.931 198.516 258.58 198.516ZM256.088 173.454C256.467 172.445 257.441 171.726 258.58 171.726C259.72 171.726 260.694 172.445 261.073 173.454L258.58 175.946L256.088 173.454ZM287.855 179.71C287.855 187.047 281.885 193.016 274.548 193.016C267.568 193.016 261.826 187.614 261.284 180.77L265.785 176.269C266.284 175.77 266.564 175.093 266.564 174.387C266.564 169.985 262.983 166.403 258.58 166.403C254.178 166.403 250.597 169.985 250.597 174.387C250.597 175.093 250.877 175.77 251.376 176.269L255.877 180.77C255.335 187.614 249.593 193.016 242.613 193.016C235.276 193.016 229.306 187.047 229.306 179.71C229.306 179.028 228.314 157.672 231.52 145.113H232.917C236.547 145.113 239.917 143.31 241.93 140.289L248.777 130.019C249.809 128.471 250.447 126.509 250.572 124.544C253.039 123.948 255.723 123.645 258.58 123.645C261.438 123.645 264.122 123.948 266.589 124.544C266.714 126.509 267.352 128.471 268.384 130.019L275.231 140.289C275.705 141 276.255 141.643 276.865 142.212C274.702 140.689 272.067 139.79 269.226 139.79C261.888 139.79 255.919 145.76 255.919 153.097C255.919 160.434 261.888 166.403 269.226 166.403C276.563 166.403 282.532 160.434 282.532 153.097C282.532 149.196 280.845 145.683 278.163 143.247C279.93 144.446 282.039 145.113 284.244 145.113H285.667C288.49 155.238 287.855 165.835 287.855 179.71ZM277.21 153.097C277.21 157.499 273.628 161.081 269.226 161.081C264.823 161.081 261.242 157.499 261.242 153.097C261.242 148.694 264.823 145.113 269.226 145.113C273.628 145.113 277.21 148.694 277.21 153.097ZM297.752 127.066L290.905 137.337C289.911 138.827 288.042 139.79 286.143 139.79H284.244C282.397 139.79 280.684 138.873 279.66 137.337C279.659 137.337 279.659 137.337 279.659 137.337L272.812 127.066C272.242 126.21 271.887 124.971 271.887 123.833C271.887 120.794 274.359 118.323 277.397 118.323H293.168C296.205 118.323 298.677 120.794 298.677 123.833C298.677 124.971 298.323 126.21 297.752 127.066Z" fill="#FFC59E"/>
<path d="M247.936 155.758C249.405 155.758 250.597 154.567 250.597 153.097C250.597 151.627 249.405 150.436 247.936 150.436C246.466 150.436 245.274 151.627 245.274 153.097C245.274 154.567 246.466 155.758 247.936 155.758Z" fill="#FFC59E"/>
<path d="M269.226 155.758C270.696 155.758 271.887 154.567 271.887 153.097C271.887 151.627 270.696 150.436 269.226 150.436C267.756 150.436 266.564 151.627 266.564 153.097C266.564 154.567 267.756 155.758 269.226 155.758Z" fill="#FFC59E"/>
<path d="M215.077 156.064H206.783C204.492 156.064 202.513 157.425 201.61 159.38C200.138 159.037 198.556 158.864 196.887 158.864C195.218 158.864 193.636 159.037 192.164 159.38C191.261 157.425 189.282 156.064 186.991 156.064H178.697C175.556 156.064 173 158.62 173 161.762C173 162.917 173.349 164.103 173.957 165.015L177.558 170.416C178.134 171.281 178.958 171.964 179.907 172.403C178.144 179.465 178.692 191.383 178.692 191.149C178.692 196.551 183.087 200.946 188.489 200.946C189.373 200.946 190.231 200.828 191.046 200.607C192.34 202.58 194.553 203.839 196.887 203.839C199.221 203.839 201.434 202.58 202.728 200.607C203.544 200.828 204.401 200.946 205.285 200.946C210.687 200.946 215.082 196.551 215.082 191.149C215.082 184.018 215.422 178.098 213.882 172.396C214.824 171.957 215.643 171.277 216.216 170.416L219.817 165.015C220.425 164.103 220.774 162.917 220.774 161.762C220.774 158.62 218.218 156.064 215.077 156.064ZM179.887 168.864L176.286 163.462C175.986 163.012 175.799 162.36 175.799 161.762C175.799 160.164 177.099 158.864 178.697 158.864H186.991C188.589 158.864 189.889 160.164 189.889 161.762C189.889 162.36 189.702 163.012 189.402 163.462L185.801 168.864C185.263 169.672 184.361 170.154 183.39 170.154H182.391C181.393 170.154 180.41 169.648 179.887 168.864ZM196.887 201.039C195.651 201.039 194.467 200.436 193.669 199.461C194.982 198.64 196.087 197.518 196.887 196.191C197.687 197.518 198.792 198.64 200.105 199.461C199.307 200.436 198.123 201.039 196.887 201.039ZM195.576 187.858C195.776 187.328 196.288 186.95 196.887 186.95C197.486 186.95 197.999 187.328 198.198 187.858L196.887 189.169L195.576 187.858ZM212.283 191.149C212.283 195.007 209.144 198.147 205.285 198.147C201.614 198.147 198.594 195.305 198.309 191.706L200.676 189.339C200.939 189.077 201.086 188.721 201.086 188.349C201.086 186.034 199.202 184.15 196.887 184.15C194.572 184.15 192.688 186.034 192.688 188.349C192.688 188.721 192.836 189.077 193.098 189.339L195.465 191.706C195.18 195.305 192.16 198.147 188.489 198.147C184.63 198.147 181.491 195.007 181.491 191.149C181.491 190.79 180.969 179.559 182.656 172.953H183.39C185.299 172.953 187.071 172.005 188.13 170.416L191.731 165.015C192.274 164.201 192.609 163.169 192.675 162.136C193.972 161.822 195.384 161.663 196.887 161.663C198.39 161.663 199.802 161.822 201.099 162.136C201.165 163.169 201.5 164.201 202.043 165.015L205.644 170.416C205.893 170.791 206.183 171.129 206.503 171.428C205.366 170.627 203.98 170.154 202.486 170.154C198.627 170.154 195.487 173.293 195.487 177.152C195.487 181.011 198.627 184.15 202.486 184.15C206.344 184.15 209.484 181.011 209.484 177.152C209.484 175.101 208.597 173.253 207.186 171.972C208.115 172.603 209.224 172.953 210.384 172.953H211.133C212.617 178.278 212.283 183.851 212.283 191.149ZM206.685 177.152C206.685 179.468 204.801 181.351 202.486 181.351C200.17 181.351 198.287 179.468 198.287 177.152C198.287 174.837 200.17 172.953 202.486 172.953C204.801 172.953 206.685 174.837 206.685 177.152ZM217.488 163.462L213.887 168.864C213.365 169.648 212.382 170.154 211.383 170.154H210.384C209.413 170.154 208.512 169.672 207.973 168.864L204.372 163.462C204.072 163.012 203.885 162.36 203.885 161.762C203.885 160.164 205.185 158.864 206.783 158.864H215.077C216.675 158.864 217.975 160.164 217.975 161.762C217.975 162.36 217.788 163.012 217.488 163.462Z" fill="#FFC59E" stroke="#FFC59E"/>
<path d="M191.288 178.552C192.061 178.552 192.688 177.926 192.688 177.153C192.688 176.38 192.061 175.753 191.288 175.753C190.515 175.753 189.889 176.38 189.889 177.153C189.889 177.926 190.515 178.552 191.288 178.552Z" fill="#FFC59E" stroke="#FFC59E"/>
<path d="M202.486 178.552C203.259 178.552 203.885 177.926 203.885 177.153C203.885 176.38 203.259 175.753 202.486 175.753C201.713 175.753 201.086 176.38 201.086 177.153C201.086 177.926 201.713 178.552 202.486 178.552Z" fill="#FFC59E" stroke="#FFC59E"/>
</g>
<path d="M39.6465 51.2402V57.1802C39.6465 57.6733 39.7271 58.0322 39.8882 58.2568C40.0493 58.4766 40.4595 58.5864 41.1187 58.5864H42.8618V60H33.0767V58.5864H34.8198C35.479 58.5864 35.8892 58.4766 36.0503 58.2568C36.2114 58.0322 36.292 57.6733 36.292 57.1802V42.4219C36.292 41.9238 36.2114 41.5649 36.0503 41.3452C35.894 41.1206 35.4839 41.0083 34.8198 41.0083H33.0767V39.6021H41.6313C43.0522 39.6021 44.3364 39.6899 45.4839 39.8657C46.6313 40.0415 47.6592 40.3442 48.5674 40.7739C49.4756 41.2036 50.1909 41.8018 50.7134 42.5684C51.2358 43.3301 51.4971 44.2798 51.4971 45.4175C51.4971 45.9204 51.4067 46.4771 51.2261 47.0874C51.0503 47.6929 50.6743 48.3179 50.0981 48.9624C49.522 49.6021 48.6455 50.1416 47.4688 50.5811C46.2969 51.0205 44.7808 51.2402 42.9204 51.2402H39.6465ZM39.6465 49.8267H42.5029C43.2402 49.8267 43.9995 49.7168 44.7808 49.4971C45.5669 49.2773 46.2529 48.8403 46.8389 48.186C47.4248 47.5317 47.7178 46.6089 47.7178 45.4175C47.7178 44.1333 47.3809 43.1665 46.707 42.5171C46.0381 41.8628 45.3008 41.4478 44.4951 41.272C43.6895 41.0962 42.8936 41.0083 42.1074 41.0083H40.5181C39.937 41.0083 39.6465 41.3379 39.6465 41.9971V49.8267ZM64.5635 56.0083L65.7646 56.6382C64.6855 59.1577 62.7349 60.4175 59.9126 60.4175C58.6479 60.4175 57.5371 60.1123 56.5801 59.502C55.6279 58.8867 54.8955 58.0273 54.3828 56.9238C53.8701 55.8154 53.6138 54.5605 53.6138 53.1592C53.6138 51.8652 53.8726 50.6641 54.3901 49.5557C54.9077 48.4424 55.6548 47.5562 56.6313 46.897C57.6079 46.2329 58.7529 45.9009 60.0664 45.9009C61.3945 45.9009 62.5103 46.2305 63.4136 46.8896C64.3218 47.5488 64.9907 48.4009 65.4204 49.4458C65.8501 50.4858 66.0649 51.5747 66.0649 52.7124V53.4009H56.7339C56.7339 55.2173 57.061 56.6162 57.7153 57.5977C58.3745 58.5791 59.229 59.0698 60.2788 59.0698C61.3823 59.0698 62.293 58.7402 63.0107 58.0811C63.7285 57.417 64.2461 56.7261 64.5635 56.0083ZM56.7339 52.0532H62.498C62.8301 52.0532 63.0083 51.8628 63.0327 51.4819V50.9106C62.9497 49.7241 62.6201 48.8184 62.0439 48.1934C61.4678 47.5635 60.7891 47.2485 60.0078 47.2485C59.1338 47.2485 58.3843 47.6782 57.7593 48.5376C57.1392 49.397 56.7974 50.5688 56.7339 52.0532ZM78.2598 47.6367H74.2681C73.8677 47.6367 73.5918 47.688 73.4404 47.7905C73.2939 47.8931 73.2207 48.1519 73.2207 48.5669V57.7515C73.2207 58.1616 73.2939 58.4204 73.4404 58.5278C73.5918 58.6304 73.8677 58.6816 74.2681 58.6816H75.5864V60H68.2695V58.6816H69.5879C69.9834 58.6816 70.2568 58.6304 70.4082 58.5278C70.5596 58.4253 70.6353 58.1665 70.6353 57.7515V48.5669C70.6353 48.1519 70.5596 47.8931 70.4082 47.7905C70.2617 47.688 69.9883 47.6367 69.5879 47.6367H68.2695V46.3184H84.2583V47.6367H82.9399C82.5396 47.6367 82.2637 47.688 82.1123 47.7905C81.9609 47.8931 81.8853 48.1519 81.8853 48.5669V57.7515C81.8853 58.1616 81.9609 58.4204 82.1123 58.5278C82.2686 58.6304 82.5444 58.6816 82.9399 58.6816H84.2583V60H76.9341V58.6816H78.2598C78.6553 58.6816 78.9287 58.6304 79.0801 58.5278C79.2314 58.4253 79.3071 58.1665 79.3071 57.7515V48.5669C79.3071 48.1519 79.2314 47.8931 79.0801 47.7905C78.9336 47.688 78.6602 47.6367 78.2598 47.6367ZM86.397 46.3184L91.3188 45.9009V47.9736C92.3784 46.5918 93.6675 45.9009 95.186 45.9009C96.3286 45.9009 97.3125 46.1279 98.1377 46.582C98.9629 47.0361 99.627 47.6343 100.13 48.3765C100.638 49.1187 101.006 49.9292 101.236 50.8081C101.465 51.6821 101.58 52.5464 101.58 53.4009C101.58 54.2017 101.443 55.0146 101.17 55.8398C100.901 56.665 100.496 57.4268 99.9541 58.125C99.417 58.8232 98.7456 59.3799 97.9399 59.7949C97.1343 60.21 96.2163 60.4175 95.186 60.4175C93.4722 60.4175 92.1929 59.6875 91.3481 58.2275H91.1064L91.3188 59.4873V63.1201C91.3188 63.5303 91.3921 63.7866 91.5386 63.8892C91.6899 63.9966 91.9658 64.0503 92.3662 64.0503H94.0508V65.3687H86.3677V64.0503H87.686C88.0815 64.0503 88.355 63.999 88.5063 63.8965C88.6626 63.7939 88.7407 63.5352 88.7407 63.1201V48.5669C88.7407 48.1519 88.665 47.8931 88.5137 47.7905C88.3623 47.688 88.0864 47.6367 87.686 47.6367H86.397V46.3184ZM91.3188 53.2471C91.3188 54.5459 91.4873 55.6348 91.8242 56.5137C92.1611 57.3877 92.6006 58.0322 93.1426 58.4473C93.6846 58.8623 94.2656 59.0698 94.8857 59.0698C95.7598 59.0698 96.5728 58.6694 97.3247 57.8687C98.0815 57.063 98.46 55.5127 98.46 53.2178C98.46 50.8447 98.0962 49.2578 97.3687 48.457C96.6411 47.6514 95.8135 47.2485 94.8857 47.2485C93.9873 47.2485 93.167 47.6782 92.4248 48.5376C91.6875 49.397 91.3188 50.9668 91.3188 53.2471ZM103.624 53.1592C103.624 52.3291 103.772 51.4868 104.07 50.6323C104.368 49.7729 104.808 48.9844 105.389 48.2666C105.975 47.5488 106.697 46.9751 107.557 46.5454C108.416 46.1157 109.395 45.9009 110.494 45.9009C111.939 45.9009 113.182 46.2671 114.222 46.9995C115.267 47.7319 116.05 48.6597 116.573 49.7827C117.1 50.9058 117.364 52.0312 117.364 53.1592C117.364 54.2871 117.1 55.4126 116.573 56.5356C116.05 57.6587 115.267 58.5864 114.222 59.3188C113.182 60.0513 111.939 60.4175 110.494 60.4175C109.068 60.4175 107.833 60.0537 106.788 59.3262C105.743 58.5938 104.954 57.6636 104.422 56.5356C103.89 55.4077 103.624 54.2822 103.624 53.1592ZM106.744 53.1592C106.744 57.0996 107.994 59.0698 110.494 59.0698C111.153 59.0698 111.761 58.9038 112.317 58.5718C112.874 58.2397 113.333 57.6318 113.694 56.748C114.061 55.8643 114.244 54.668 114.244 53.1592C114.244 51.0449 113.895 49.5312 113.196 48.6182C112.498 47.7051 111.597 47.2485 110.494 47.2485C109.39 47.2485 108.489 47.7051 107.791 48.6182C107.093 49.5312 106.744 51.0449 106.744 53.1592ZM129.764 59.9707H123.619C121.377 59.9707 120.257 61.4404 120.257 64.3799H119.056V58.6523H120.44C121.236 58.6523 121.985 57.5122 122.688 55.2319C123.528 52.5806 123.948 50.5493 123.948 49.1382C123.948 48.4839 123.772 48.0713 123.421 47.9004C123.069 47.7246 122.635 47.6367 122.117 47.6367H121.7V46.3184H133.843V47.6367H132.496C132.076 47.6367 131.8 47.71 131.668 47.8564C131.541 47.998 131.478 48.2959 131.478 48.75V57.4805C131.478 58.2617 131.658 58.6523 132.02 58.6523H133.843V64.3799H132.649C132.571 62.749 132.256 61.6064 131.705 60.9521C131.158 60.2979 130.511 59.9707 129.764 59.9707ZM128.899 57.9565V48.3911C128.899 47.8882 128.58 47.6367 127.94 47.6367H126.409C126.062 47.6367 125.835 47.7515 125.728 47.981C125.621 48.2056 125.538 48.5718 125.479 49.0796C125.215 51.3159 124.917 53.0469 124.585 54.2725C124.253 55.4932 123.899 56.5332 123.523 57.3926C123.367 57.7734 123.289 58.042 123.289 58.1982C123.289 58.501 123.499 58.6523 123.919 58.6523H127.728C128.099 58.6523 128.387 58.6108 128.592 58.5278C128.797 58.4448 128.899 58.2544 128.899 57.9565ZM135.667 47.6367V46.3184H142.479V47.6367H141.607C140.948 47.6367 140.618 47.8687 140.618 48.3325C140.618 48.5278 140.708 48.8159 140.889 49.1968L144.368 57.2095H144.551L147.488 49.9219C147.688 49.4238 147.789 49.0039 147.789 48.6621C147.789 47.9785 147.269 47.6367 146.229 47.6367H145.511V46.3184H151.385V47.6367H151.121C150.682 47.6367 150.337 47.7466 150.088 47.9663C149.844 48.186 149.617 48.5474 149.407 49.0503L143.738 62.1899C143.191 63.4595 142.588 64.3066 141.929 64.7314C141.27 65.1562 140.523 65.3687 139.688 65.3687C138.863 65.3687 138.221 65.1343 137.762 64.6655C137.308 64.1968 137.081 63.6719 137.081 63.0908C137.081 62.6318 137.237 62.2314 137.549 61.8896C137.867 61.5479 138.26 61.377 138.729 61.377C139.114 61.377 139.461 61.5112 139.769 61.7798C140.076 62.0483 140.23 62.395 140.23 62.8198C140.23 63.0396 140.188 63.23 140.105 63.3911C140.027 63.5474 139.988 63.667 139.988 63.75C139.988 63.9893 140.159 64.1089 140.501 64.1089C141.209 64.1089 141.858 63.4204 142.449 62.0435L143.167 60.4175L137.945 48.8672C137.73 48.3984 137.508 48.0762 137.278 47.9004C137.054 47.7246 136.688 47.6367 136.18 47.6367H135.667ZM152.996 60V58.6816H154.314C154.71 58.6816 154.983 58.6304 155.135 58.5278C155.286 58.4253 155.362 58.1665 155.362 57.7515V48.5669C155.362 48.1519 155.286 47.8931 155.135 47.7905C154.988 47.688 154.715 47.6367 154.314 47.6367H152.996V46.3184H160.284V47.6367H158.995C158.594 47.6367 158.318 47.688 158.167 47.7905C158.021 47.8931 157.947 48.1519 157.947 48.5669V52.229H158.965C160.04 52.229 160.809 52.1558 161.272 52.0093C161.736 51.8579 162.073 51.582 162.283 51.1816C162.493 50.7812 162.737 50.0415 163.016 48.9624C163.235 48.064 163.548 47.3291 163.953 46.7578C164.363 46.1865 165.02 45.9009 165.923 45.9009C166.651 45.9009 167.217 46.1133 167.623 46.5381C168.033 46.958 168.238 47.4365 168.238 47.9736C168.238 48.3789 168.118 48.7842 167.879 49.1895C167.64 49.5947 167.208 49.7974 166.583 49.7974C166.124 49.7974 165.77 49.6362 165.521 49.314C165.271 48.9917 165.147 48.6426 165.147 48.2666C165.147 48.2178 165.157 48.1567 165.176 48.0835C165.196 48.0103 165.206 47.9517 165.206 47.9077C165.206 47.7905 165.145 47.7319 165.022 47.7319C164.783 47.7319 164.563 48.1323 164.363 48.9331C164.148 49.8218 163.953 50.5127 163.777 51.0059C163.606 51.4941 163.389 51.8848 163.125 52.1777C162.867 52.4658 162.51 52.6636 162.056 52.771V52.8589C163.99 53.0542 165.289 54.3945 165.953 56.8799C166.197 58.0615 166.568 58.6523 167.066 58.6523C167.295 58.6523 167.508 58.4888 167.703 58.1616C167.898 57.8345 167.996 57.4463 167.996 56.9971V56.4331H169.102V57.0923C169.102 57.7319 168.919 58.4473 168.553 59.2383C168.191 60.0244 167.444 60.4175 166.312 60.4175C165.691 60.4175 165.206 60.2856 164.854 60.022C164.502 59.7583 164.239 59.4165 164.063 58.9966C163.892 58.5767 163.716 58.0029 163.536 57.2754C163.355 56.543 163.201 56.0107 163.074 55.6787C162.728 54.751 162.317 54.1699 161.844 53.9355C161.37 53.6963 160.64 53.5767 159.654 53.5767H157.947V57.7515C157.947 58.1616 158.021 58.4204 158.167 58.5278C158.318 58.6304 158.594 58.6816 158.995 58.6816H160.313V60H152.996ZM174.354 60L174.324 58.6816H175.65C176.045 58.6816 176.319 58.6304 176.47 58.5278C176.622 58.4253 176.697 58.1665 176.697 57.7515V48.3325C176.697 47.7515 176.348 47.4609 175.65 47.4609C174.976 47.4609 174.332 47.8442 173.716 48.6108C173.106 49.3774 172.779 50.5444 172.735 52.1118H171.534V46.3184H184.468V52.1118H183.267C183.238 51.0962 183.072 50.2368 182.769 49.5337C182.471 48.8257 182.103 48.3032 181.663 47.9663C181.224 47.6294 180.789 47.4609 180.359 47.4609C179.656 47.4609 179.305 47.7515 179.305 48.3325V57.7515C179.305 58.1616 179.38 58.4204 179.532 58.5278C179.688 58.6304 179.964 58.6816 180.359 58.6816H181.678V60H174.354ZM186.563 53.1592C186.563 52.3291 186.712 51.4868 187.01 50.6323C187.308 49.7729 187.747 48.9844 188.328 48.2666C188.914 47.5488 189.637 46.9751 190.496 46.5454C191.355 46.1157 192.334 45.9009 193.433 45.9009C194.878 45.9009 196.121 46.2671 197.161 46.9995C198.206 47.7319 198.99 48.6597 199.512 49.7827C200.04 50.9058 200.303 52.0312 200.303 53.1592C200.303 54.2871 200.04 55.4126 199.512 56.5356C198.99 57.6587 198.206 58.5864 197.161 59.3188C196.121 60.0513 194.878 60.4175 193.433 60.4175C192.007 60.4175 190.772 60.0537 189.727 59.3262C188.682 58.5938 187.894 57.6636 187.361 56.5356C186.829 55.4077 186.563 54.2822 186.563 53.1592ZM189.683 53.1592C189.683 57.0996 190.933 59.0698 193.433 59.0698C194.092 59.0698 194.7 58.9038 195.257 58.5718C195.813 58.2397 196.272 57.6318 196.634 56.748C197 55.8643 197.183 54.668 197.183 53.1592C197.183 51.0449 196.834 49.5312 196.136 48.6182C195.438 47.7051 194.537 47.2485 193.433 47.2485C192.33 47.2485 191.429 47.7051 190.73 48.6182C190.032 49.5312 189.683 51.0449 189.683 53.1592ZM205.298 47.6367V46.3184H217.925V47.6367H216.607C216.207 47.6367 215.931 47.688 215.779 47.7905C215.633 47.8931 215.56 48.1519 215.56 48.5669V57.7515C215.56 58.1616 215.633 58.4204 215.779 58.5278C215.931 58.6304 216.207 58.6816 216.607 58.6816H217.925V60H210.608V58.6816H211.927C212.322 58.6816 212.596 58.6304 212.747 58.5278C212.898 58.4253 212.974 58.1665 212.974 57.7515V48.208C212.974 47.8271 212.586 47.6367 211.81 47.6367H210.667C210.047 47.6367 209.661 47.7759 209.51 48.0542C209.363 48.3325 209.268 48.7549 209.224 49.3213C209.161 50.3027 209.051 51.5234 208.895 52.9834C208.743 54.3652 208.545 55.5615 208.301 56.5723C208.062 57.583 207.613 58.4766 206.954 59.2529C206.299 60.0293 205.386 60.4175 204.214 60.4175C203.692 60.4175 203.182 60.249 202.684 59.9121C202.186 59.5703 201.937 59.0186 201.937 58.2568C201.937 57.6953 202.093 57.2607 202.405 56.9531C202.723 56.6455 203.096 56.4917 203.526 56.4917C203.941 56.4917 204.273 56.6211 204.522 56.8799C204.776 57.1387 204.903 57.4487 204.903 57.8101C204.903 57.8735 204.883 57.9834 204.844 58.1396C204.825 58.1982 204.815 58.2886 204.815 58.4106C204.815 58.689 204.966 58.8281 205.269 58.8281C205.962 58.8281 206.521 58.0493 206.946 56.4917C207.391 54.8511 207.662 52.7197 207.759 50.0977V49.3799C207.73 48.667 207.579 48.1982 207.305 47.9736C207.032 47.749 206.551 47.6367 205.862 47.6367H205.298ZM220.108 53.1592C220.108 52.3291 220.257 51.4868 220.555 50.6323C220.853 49.7729 221.292 48.9844 221.873 48.2666C222.459 47.5488 223.182 46.9751 224.041 46.5454C224.9 46.1157 225.879 45.9009 226.978 45.9009C228.423 45.9009 229.666 46.2671 230.706 46.9995C231.751 47.7319 232.535 48.6597 233.057 49.7827C233.584 50.9058 233.848 52.0312 233.848 53.1592C233.848 54.2871 233.584 55.4126 233.057 56.5356C232.535 57.6587 231.751 58.5864 230.706 59.3188C229.666 60.0513 228.423 60.4175 226.978 60.4175C225.552 60.4175 224.317 60.0537 223.272 59.3262C222.227 58.5938 221.438 57.6636 220.906 56.5356C220.374 55.4077 220.108 54.2822 220.108 53.1592ZM223.228 53.1592C223.228 57.0996 224.478 59.0698 226.978 59.0698C227.637 59.0698 228.245 58.9038 228.802 58.5718C229.358 58.2397 229.817 57.6318 230.179 56.748C230.545 55.8643 230.728 54.668 230.728 53.1592C230.728 51.0449 230.379 49.5312 229.681 48.6182C228.982 47.7051 228.082 47.2485 226.978 47.2485C225.875 47.2485 224.974 47.7051 224.275 48.6182C223.577 49.5312 223.228 51.0449 223.228 53.1592ZM248.174 52.229H247.002C246.846 50.8569 246.626 49.8462 246.343 49.1968C246.07 48.5571 245.704 48.1372 245.245 47.937C244.791 47.7368 244.217 47.6367 243.523 47.6367H242.051C241.592 47.6367 241.302 47.749 241.18 47.9736C241.062 48.1982 241.004 48.5059 241.004 48.8965V57.7515C241.004 58.1616 241.077 58.4204 241.224 58.5278C241.375 58.6304 241.651 58.6816 242.051 58.6816H243.37V60H236.053V58.6816H237.371C237.767 58.6816 238.04 58.6304 238.191 58.5278C238.343 58.4253 238.418 58.1665 238.418 57.7515V48.5669C238.418 48.1519 238.343 47.8931 238.191 47.7905C238.045 47.688 237.771 47.6367 237.371 47.6367H236.053V46.3184H248.174V52.229ZM255.125 56.1914L261.241 48.7207C261.48 48.4424 261.6 48.1812 261.6 47.937C261.502 47.7368 261.253 47.6367 260.853 47.6367H259.263V46.3184H266.58V47.6367H265.262C264.861 47.6367 264.585 47.688 264.434 47.7905C264.288 47.8931 264.214 48.1519 264.214 48.5669V57.7515C264.214 58.1616 264.288 58.4204 264.434 58.5278C264.585 58.6304 264.861 58.6816 265.262 58.6816H266.58V60H259.263V58.6816H260.582C260.977 58.6816 261.25 58.6304 261.402 58.5278C261.553 58.4253 261.629 58.1665 261.629 57.7515V50.127L255.455 57.5977C255.235 57.8711 255.125 58.0908 255.125 58.2568C255.125 58.54 255.445 58.6816 256.084 58.6816H257.461V60H250.174V58.6816H251.492C251.888 58.6816 252.161 58.6304 252.312 58.5278C252.464 58.4253 252.54 58.1665 252.54 57.7515V48.5669C252.54 48.1519 252.464 47.8931 252.312 47.7905C252.166 47.688 251.893 47.6367 251.492 47.6367H250.174V46.3184H257.491V47.6367H256.172C255.772 47.6367 255.496 47.688 255.345 47.7905C255.198 47.8931 255.125 48.1519 255.125 48.5669V56.1914ZM268.77 56.1035H269.942C270.049 57.7197 270.369 58.5278 270.901 58.5278C271.204 58.5278 271.434 58.3472 271.59 57.9858C271.746 57.6196 271.878 57.1606 271.985 56.6089C272.161 55.7544 272.461 55.0171 272.886 54.397C273.316 53.7769 274.114 53.4155 275.281 53.313V53.1006C274.085 53.0664 273.011 52.7856 272.059 52.2583C271.106 51.731 270.63 50.9717 270.63 49.9805C270.63 49.0088 271.089 48.1567 272.007 47.4243C272.925 46.687 274.417 46.3184 276.482 46.3184H284.429V47.6367H283.111C282.71 47.6367 282.435 47.688 282.283 47.7905C282.137 47.8931 282.063 48.1519 282.063 48.5669V57.7515C282.063 58.1616 282.137 58.4204 282.283 58.5278C282.435 58.6304 282.71 58.6816 283.111 58.6816H284.429V60H277.112V58.6816H278.431C278.826 58.6816 279.1 58.6304 279.251 58.5278C279.407 58.4253 279.485 58.1665 279.485 57.7515V53.7305H277.383C276.524 53.7305 275.904 54.0332 275.523 54.6387C275.147 55.2441 274.837 56.1401 274.593 57.3267C274.422 58.2446 274.156 58.9893 273.794 59.5605C273.433 60.1318 272.779 60.4175 271.832 60.4175C269.859 60.4175 268.838 58.9795 268.77 56.1035ZM279.485 52.3828V48.6328C279.485 48.2178 279.371 47.9395 279.141 47.7979C278.912 47.6514 278.555 47.5781 278.072 47.5781C277.876 47.5781 277.496 47.5977 276.929 47.6367C274.81 47.7783 273.75 48.5693 273.75 50.0098C273.75 50.5762 273.985 51.1133 274.454 51.6211C274.927 52.1289 275.743 52.3828 276.9 52.3828H279.485Z" fill="#59443F"/>
<path d="M41.62 201V199.64H35.98L38.76 196.5C39.3 195.88 40.02 195.06 40.58 194.28C41.38 193.14 41.64 192.32 41.64 191.42C41.64 189.12 39.88 187.44 37.52 187.44C35.86 187.44 34.92 188.16 34.36 188.8C33.84 189.4 33.42 190.22 33.36 191.56H34.84C34.86 190.88 35.02 190.38 35.28 189.98C35.78 189.22 36.56 188.8 37.5 188.8C39.08 188.8 40.16 189.9 40.16 191.4C40.16 191.94 40.02 192.58 39.42 193.44C39.1 193.92 38.2 194.98 37.86 195.38L33 201H41.62ZM49.345 187.34L44.805 193.64C43.805 195.04 43.705 196.2 43.705 196.7C43.705 198.8 45.185 201.24 48.325 201.24C50.985 201.24 52.905 199.32 52.905 196.66C52.905 194.18 51.145 192.26 48.585 192.26C48.165 192.26 47.785 192.32 47.405 192.44L50.465 188.18L49.345 187.34ZM48.305 199.88C46.445 199.88 45.185 198.48 45.185 196.7C45.185 194.96 46.465 193.62 48.285 193.62C50.105 193.62 51.425 194.92 51.425 196.7C51.425 198.5 50.145 199.88 48.305 199.88ZM60.0002 205.6H61.6002L67.7002 192.7H66.1002L63.4002 198.64L60.4602 192.7H58.8202L62.6402 200.22L60.0002 205.6ZM75.7194 193.3C75.3194 193.02 74.4594 192.5 73.1394 192.5C70.5794 192.5 68.6994 194.36 68.6994 196.9C68.6994 199.4 70.5594 201.24 73.1394 201.24C73.9194 201.24 74.8794 201.04 75.7794 200.38V198.66C75.0194 199.58 73.9594 199.96 73.0994 199.96C71.6194 199.96 70.1794 198.9 70.1794 196.88C70.1794 194.86 71.5794 193.78 73.1194 193.78C73.8594 193.78 74.9594 194.06 75.7194 195.02V193.3ZM84.2689 192.7H78.4289V197.76C78.4289 198.26 78.4089 198.78 78.1489 199.18C77.9889 199.44 77.6489 199.72 77.1089 199.72C77.0089 199.72 76.8889 199.7 76.7889 199.68V201C76.9289 201.02 77.0889 201.04 77.2289 201.04C78.3489 201.04 78.9689 200.48 79.2289 200.16C79.8689 199.38 79.8689 198.46 79.8689 197.76V194.02H82.8289V201H84.2689V192.7ZM86.9728 205.6H88.5728L94.6728 192.7H93.0728L90.3728 198.64L87.4328 192.7H85.7928L89.6128 200.22L86.9728 205.6ZM96.192 201H97.632V194.02H101.112V192.7H96.192V201Z" fill="#59443F"/>
<defs>
<filter id="filter0_d_302_1554" x="0" y="0" width="340" height="240" filterUnits="userSpaceOnUse" color-interpolation-filters="sRGB">
<feFlood flood-opacity="0" result="BackgroundImageFix"/>
<feColorMatrix in="SourceAlpha" type="matrix" values="0 0 0 0 0 0 0 0 0 0 0 0 0 0 0 0 0 0 127 0" result="hardAlpha"/>
<feOffset dx="2" dy="2"/>
<feGaussianBlur stdDeviation="5"/>
<feColorMatrix type="matrix" values="0 0 0 0 0 0 0 0 0 0 0 0 0 0 0 0 0 0 0.1 0"/>
<feBlend mode="normal" in2="BackgroundImageFix" result="effect1_dropShadow_302_1554"/>
<feBlend mode="normal" in="SourceGraphic" in2="effect1_dropShadow_302_1554" result="shape"/>
</filter>
</defs>
</svg>
