<svg width="340" height="240" viewBox="0 0 340 240" fill="none" xmlns="http://www.w3.org/2000/svg">
<g filter="url(#filter0_d_302_1543)">
<rect x="8" y="8" width="320" height="220" rx="20" fill="white"/>
</g>
<path d="M35.5083 39.6021H53.4526V41.0083H51.7095C51.0454 41.0083 50.6328 41.1206 50.4717 41.3452C50.3154 41.5649 50.2373 41.9238 50.2373 42.4219V57.1509C50.2373 57.644 50.3179 58.0029 50.479 58.2275C50.6401 58.4473 51.0503 58.5571 51.7095 58.5571H53.4526V65.8521H52.3394C52.3101 64.2944 52.0146 63.0762 51.4531 62.1973C50.8916 61.3232 50.2202 60.7324 49.439 60.4248C48.6577 60.1221 47.8447 59.9707 47 59.9707H39.1118C38.2622 59.9707 37.4468 60.1221 36.6655 60.4248C35.8892 60.7324 35.2202 61.3232 34.6587 62.1973C34.1021 63.0762 33.8066 64.2944 33.7725 65.8521H32.6592V58.5571H33.7065C34.4927 58.5571 35.0835 58.4717 35.479 58.3008C35.8745 58.125 36.2456 57.6758 36.5923 56.9531C36.939 56.2256 37.2979 55.0317 37.6689 53.3716C38.0107 51.853 38.3159 50.0366 38.5845 47.9224C38.853 45.8081 38.9873 44.165 38.9873 42.9932C38.9873 42.251 38.7822 41.7358 38.3721 41.4478C37.9668 41.1548 37.1831 41.0083 36.021 41.0083H35.5083V39.6021ZM43.3965 41.0083C42.8252 41.0083 42.4028 41.04 42.1294 41.1035C41.8608 41.167 41.6143 41.3452 41.3896 41.6382C41.1797 41.9067 41.0063 42.3975 40.8696 43.1104C40.7329 43.8184 40.5962 45.0488 40.4595 46.8018C40.3765 47.8271 40.2178 49.0845 39.9834 50.5737C39.749 52.0581 39.5269 53.2397 39.3169 54.1187C39.1802 54.7339 39.041 55.3198 38.8994 55.8765C38.7627 56.4331 38.6772 56.7871 38.6431 56.9385C38.6138 57.0898 38.5991 57.2314 38.5991 57.3633C38.5991 57.8271 38.7065 58.1421 38.9214 58.3081C39.1362 58.4741 39.6099 58.5571 40.3423 58.5571H45.4106C46.0698 58.5571 46.48 58.4473 46.6411 58.2275C46.8022 58.0029 46.8828 57.644 46.8828 57.1509V42.4219C46.8828 41.9238 46.8022 41.5649 46.6411 41.3452C46.4849 41.1206 46.0747 41.0083 45.4106 41.0083H43.3965ZM66.585 56.0083L67.7861 56.6382C66.707 59.1577 64.7563 60.4175 61.9341 60.4175C60.6694 60.4175 59.5586 60.1123 58.6016 59.502C57.6494 58.8867 56.917 58.0273 56.4043 56.9238C55.8916 55.8154 55.6353 54.5605 55.6353 53.1592C55.6353 51.8652 55.894 50.6641 56.4116 49.5557C56.9292 48.4424 57.6763 47.5562 58.6528 46.897C59.6294 46.2329 60.7744 45.9009 62.0879 45.9009C63.416 45.9009 64.5317 46.2305 65.4351 46.8896C66.3433 47.5488 67.0122 48.4009 67.4419 49.4458C67.8716 50.4858 68.0864 51.5747 68.0864 52.7124V53.4009H58.7554C58.7554 55.2173 59.0825 56.6162 59.7368 57.5977C60.396 58.5791 61.2505 59.0698 62.3003 59.0698C63.4038 59.0698 64.3145 58.7402 65.0322 58.0811C65.75 57.417 66.2676 56.7261 66.585 56.0083ZM58.7554 52.0532H64.5195C64.8516 52.0532 65.0298 51.8628 65.0542 51.4819V50.9106C64.9712 49.7241 64.6416 48.8184 64.0654 48.1934C63.4893 47.5635 62.8105 47.2485 62.0293 47.2485C61.1553 47.2485 60.4058 47.6782 59.7808 48.5376C59.1606 49.397 58.8188 50.5688 58.7554 52.0532ZM70.0786 46.3184L75.0005 45.9009V47.9736C76.0601 46.5918 77.3491 45.9009 78.8677 45.9009C80.0103 45.9009 80.9941 46.1279 81.8193 46.582C82.6445 47.0361 83.3086 47.6343 83.8115 48.3765C84.3193 49.1187 84.688 49.9292 84.9175 50.8081C85.147 51.6821 85.2617 52.5464 85.2617 53.4009C85.2617 54.2017 85.125 55.0146 84.8516 55.8398C84.583 56.665 84.1777 57.4268 83.6357 58.125C83.0986 58.8232 82.4272 59.3799 81.6216 59.7949C80.8159 60.21 79.8979 60.4175 78.8677 60.4175C77.1538 60.4175 75.8745 59.6875 75.0298 58.2275H74.7881L75.0005 59.4873V63.1201C75.0005 63.5303 75.0737 63.7866 75.2202 63.8892C75.3716 63.9966 75.6475 64.0503 76.0479 64.0503H77.7324V65.3687H70.0493V64.0503H71.3677C71.7632 64.0503 72.0366 63.999 72.188 63.8965C72.3442 63.7939 72.4224 63.5352 72.4224 63.1201V48.5669C72.4224 48.1519 72.3467 47.8931 72.1953 47.7905C72.0439 47.688 71.7681 47.6367 71.3677 47.6367H70.0786V46.3184ZM75.0005 53.2471C75.0005 54.5459 75.1689 55.6348 75.5059 56.5137C75.8428 57.3877 76.2822 58.0322 76.8242 58.4473C77.3662 58.8623 77.9473 59.0698 78.5674 59.0698C79.4414 59.0698 80.2544 58.6694 81.0063 57.8687C81.7632 57.063 82.1416 55.5127 82.1416 53.2178C82.1416 50.8447 81.7778 49.2578 81.0503 48.457C80.3228 47.6514 79.4951 47.2485 78.5674 47.2485C77.6689 47.2485 76.8486 47.6782 76.1064 48.5376C75.3691 49.397 75.0005 50.9668 75.0005 53.2471ZM93.5161 46.3184L97.1489 55.3491H97.2368L100.21 46.3184H106.597V47.6367H105.279C104.878 47.6367 104.603 47.6904 104.451 47.7979C104.3 47.9004 104.224 48.1567 104.224 48.5669V57.7515C104.224 58.1616 104.3 58.4204 104.451 58.5278C104.603 58.6304 104.878 58.6816 105.279 58.6816H106.597V60H99.2803V58.6816H100.599C100.994 58.6816 101.268 58.6304 101.419 58.5278C101.57 58.4253 101.646 58.1665 101.646 57.7515V47.6367H101.404L97.2954 60H96.4238L91.3848 47.6367H91.1504V57.3633C91.1504 57.8857 91.292 58.2373 91.5752 58.418C91.8584 58.5938 92.3467 58.6816 93.04 58.6816H93.5161V60H87.459V58.6816H87.8472C89.1655 58.6816 89.8247 58.23 89.8247 57.3267V48.5669C89.8247 48.1519 89.749 47.8931 89.5977 47.7905C89.4512 47.688 89.1777 47.6367 88.7773 47.6367H87.459V46.3184H93.5161ZM122.85 58.3228L123.421 58.9526C122.767 59.5386 122.247 59.9292 121.861 60.1245C121.475 60.3198 120.997 60.4175 120.425 60.4175C119.61 60.4175 119.026 60.1758 118.675 59.6924C118.323 59.2041 118.116 58.667 118.052 58.0811H117.869C116.805 59.6387 115.196 60.4175 113.042 60.4175C111.485 60.4175 110.411 60.0562 109.82 59.3335C109.229 58.6108 108.934 57.8027 108.934 56.9092C108.934 56.167 109.161 55.4932 109.615 54.8877C110.074 54.2773 110.704 53.7451 111.504 53.291C112.305 52.8369 113.243 52.4463 114.317 52.1191C115.396 51.7871 116.57 51.5137 117.84 51.2988V50.127C117.84 49.1113 117.535 48.374 116.924 47.915C116.314 47.4512 115.55 47.2192 114.632 47.2192C114.212 47.2192 113.799 47.2754 113.394 47.3877C112.994 47.5 112.669 47.6538 112.42 47.8491C112.176 48.0396 112.054 48.2397 112.054 48.4497C112.054 48.6157 112.154 48.7549 112.354 48.8672C112.623 49.043 112.833 49.2188 112.984 49.3945C113.14 49.5703 113.218 49.8047 113.218 50.0977C113.218 50.5273 113.074 50.8911 112.786 51.189C112.503 51.4819 112.149 51.6284 111.724 51.6284C111.285 51.6284 110.875 51.4819 110.494 51.189C110.113 50.896 109.922 50.4932 109.922 49.9805C109.922 49.3164 110.123 48.667 110.523 48.0322C110.928 47.3975 111.519 46.8848 112.295 46.4941C113.072 46.0986 113.99 45.9009 115.049 45.9009C118.633 45.9009 120.425 47.5513 120.425 50.8521V57.5098C120.425 58.5498 120.765 59.0698 121.443 59.0698C121.922 59.0698 122.391 58.8208 122.85 58.3228ZM117.84 54.8071V52.5586C116.697 52.7686 115.706 53.0298 114.866 53.3423C114.026 53.6499 113.348 54.0625 112.83 54.5801C112.312 55.0928 112.054 55.7104 112.054 56.4331C112.054 57.1655 112.247 57.7881 112.632 58.3008C113.018 58.8135 113.555 59.0698 114.244 59.0698C114.82 59.0698 115.386 58.8989 115.943 58.5571C116.5 58.2104 116.954 57.7124 117.305 57.063C117.662 56.4136 117.84 55.6616 117.84 54.8071ZM127.332 60L127.303 58.6816H128.628C129.024 58.6816 129.297 58.6304 129.449 58.5278C129.6 58.4253 129.676 58.1665 129.676 57.7515V48.3325C129.676 47.7515 129.327 47.4609 128.628 47.4609C127.955 47.4609 127.31 47.8442 126.695 48.6108C126.084 49.3774 125.757 50.5444 125.713 52.1118H124.512V46.3184H137.447V52.1118H136.246C136.216 51.0962 136.05 50.2368 135.748 49.5337C135.45 48.8257 135.081 48.3032 134.642 47.9663C134.202 47.6294 133.768 47.4609 133.338 47.4609C132.635 47.4609 132.283 47.7515 132.283 48.3325V57.7515C132.283 58.1616 132.359 58.4204 132.51 58.5278C132.667 58.6304 132.942 58.6816 133.338 58.6816H134.656V60H127.332ZM139.542 53.1592C139.542 52.3291 139.69 51.4868 139.988 50.6323C140.286 49.7729 140.726 48.9844 141.307 48.2666C141.893 47.5488 142.615 46.9751 143.475 46.5454C144.334 46.1157 145.313 45.9009 146.412 45.9009C147.857 45.9009 149.1 46.2671 150.14 46.9995C151.185 47.7319 151.968 48.6597 152.491 49.7827C153.018 50.9058 153.282 52.0312 153.282 53.1592C153.282 54.2871 153.018 55.4126 152.491 56.5356C151.968 57.6587 151.185 58.5864 150.14 59.3188C149.1 60.0513 147.857 60.4175 146.412 60.4175C144.986 60.4175 143.75 60.0537 142.706 59.3262C141.661 58.5938 140.872 57.6636 140.34 56.5356C139.808 55.4077 139.542 54.2822 139.542 53.1592ZM142.662 53.1592C142.662 57.0996 143.912 59.0698 146.412 59.0698C147.071 59.0698 147.679 58.9038 148.235 58.5718C148.792 58.2397 149.251 57.6318 149.612 56.748C149.979 55.8643 150.162 54.668 150.162 53.1592C150.162 51.0449 149.812 49.5312 149.114 48.6182C148.416 47.7051 147.515 47.2485 146.412 47.2485C145.308 47.2485 144.407 47.7051 143.709 48.6182C143.011 49.5312 142.662 51.0449 142.662 53.1592ZM158.277 47.6367V46.3184H170.904V47.6367H169.585C169.185 47.6367 168.909 47.688 168.758 47.7905C168.611 47.8931 168.538 48.1519 168.538 48.5669V57.7515C168.538 58.1616 168.611 58.4204 168.758 58.5278C168.909 58.6304 169.185 58.6816 169.585 58.6816H170.904V60H163.587V58.6816H164.905C165.301 58.6816 165.574 58.6304 165.726 58.5278C165.877 58.4253 165.953 58.1665 165.953 57.7515V48.208C165.953 47.8271 165.564 47.6367 164.788 47.6367H163.646C163.025 47.6367 162.64 47.7759 162.488 48.0542C162.342 48.3325 162.247 48.7549 162.203 49.3213C162.139 50.3027 162.029 51.5234 161.873 52.9834C161.722 54.3652 161.524 55.5615 161.28 56.5723C161.041 57.583 160.591 58.4766 159.932 59.2529C159.278 60.0293 158.365 60.4175 157.193 60.4175C156.67 60.4175 156.16 60.249 155.662 59.9121C155.164 59.5703 154.915 59.0186 154.915 58.2568C154.915 57.6953 155.071 57.2607 155.384 56.9531C155.701 56.6455 156.075 56.4917 156.504 56.4917C156.919 56.4917 157.251 56.6211 157.5 56.8799C157.754 57.1387 157.881 57.4487 157.881 57.8101C157.881 57.8735 157.862 57.9834 157.823 58.1396C157.803 58.1982 157.793 58.2886 157.793 58.4106C157.793 58.689 157.945 58.8281 158.248 58.8281C158.941 58.8281 159.5 58.0493 159.925 56.4917C160.369 54.8511 160.64 52.7197 160.738 50.0977V49.3799C160.708 48.667 160.557 48.1982 160.284 47.9736C160.01 47.749 159.529 47.6367 158.841 47.6367H158.277ZM173.086 53.1592C173.086 52.3291 173.235 51.4868 173.533 50.6323C173.831 49.7729 174.271 48.9844 174.852 48.2666C175.438 47.5488 176.16 46.9751 177.02 46.5454C177.879 46.1157 178.858 45.9009 179.957 45.9009C181.402 45.9009 182.645 46.2671 183.685 46.9995C184.729 47.7319 185.513 48.6597 186.036 49.7827C186.563 50.9058 186.827 52.0312 186.827 53.1592C186.827 54.2871 186.563 55.4126 186.036 56.5356C185.513 57.6587 184.729 58.5864 183.685 59.3188C182.645 60.0513 181.402 60.4175 179.957 60.4175C178.531 60.4175 177.295 60.0537 176.25 59.3262C175.206 58.5938 174.417 57.6636 173.885 56.5356C173.353 55.4077 173.086 54.2822 173.086 53.1592ZM176.207 53.1592C176.207 57.0996 177.457 59.0698 179.957 59.0698C180.616 59.0698 181.224 58.9038 181.78 58.5718C182.337 58.2397 182.796 57.6318 183.157 56.748C183.523 55.8643 183.707 54.668 183.707 53.1592C183.707 51.0449 183.357 49.5312 182.659 48.6182C181.961 47.7051 181.06 47.2485 179.957 47.2485C178.853 47.2485 177.952 47.7051 177.254 48.6182C176.556 49.5312 176.207 51.0449 176.207 53.1592ZM201.153 52.229H199.981C199.825 50.8569 199.605 49.8462 199.322 49.1968C199.048 48.5571 198.682 48.1372 198.223 47.937C197.769 47.7368 197.195 47.6367 196.502 47.6367H195.03C194.571 47.6367 194.28 47.749 194.158 47.9736C194.041 48.1982 193.982 48.5059 193.982 48.8965V57.7515C193.982 58.1616 194.056 58.4204 194.202 58.5278C194.354 58.6304 194.629 58.6816 195.03 58.6816H196.348V60H189.031V58.6816H190.35C190.745 58.6816 191.019 58.6304 191.17 58.5278C191.321 58.4253 191.397 58.1665 191.397 57.7515V48.5669C191.397 48.1519 191.321 47.8931 191.17 47.7905C191.023 47.688 190.75 47.6367 190.35 47.6367H189.031V46.3184H201.153V52.229ZM208.104 56.1914L214.219 48.7207C214.458 48.4424 214.578 48.1812 214.578 47.937C214.48 47.7368 214.231 47.6367 213.831 47.6367H212.242V46.3184H219.559V47.6367H218.24C217.84 47.6367 217.564 47.688 217.413 47.7905C217.266 47.8931 217.193 48.1519 217.193 48.5669V57.7515C217.193 58.1616 217.266 58.4204 217.413 58.5278C217.564 58.6304 217.84 58.6816 218.24 58.6816H219.559V60H212.242V58.6816H213.56C213.956 58.6816 214.229 58.6304 214.38 58.5278C214.532 58.4253 214.607 58.1665 214.607 57.7515V50.127L208.433 57.5977C208.213 57.8711 208.104 58.0908 208.104 58.2568C208.104 58.54 208.423 58.6816 209.063 58.6816H210.44V60H203.152V58.6816H204.471C204.866 58.6816 205.14 58.6304 205.291 58.5278C205.442 58.4253 205.518 58.1665 205.518 57.7515V48.5669C205.518 48.1519 205.442 47.8931 205.291 47.7905C205.145 47.688 204.871 47.6367 204.471 47.6367H203.152V46.3184H210.469V47.6367H209.151C208.75 47.6367 208.475 47.688 208.323 47.7905C208.177 47.8931 208.104 48.1519 208.104 48.5669V56.1914ZM221.749 56.1035H222.92C223.028 57.7197 223.348 58.5278 223.88 58.5278C224.183 58.5278 224.412 58.3472 224.568 57.9858C224.725 57.6196 224.856 57.1606 224.964 56.6089C225.14 55.7544 225.44 55.0171 225.865 54.397C226.294 53.7769 227.093 53.4155 228.26 53.313V53.1006C227.063 53.0664 225.989 52.7856 225.037 52.2583C224.085 51.731 223.609 50.9717 223.609 49.9805C223.609 49.0088 224.068 48.1567 224.986 47.4243C225.904 46.687 227.396 46.3184 229.461 46.3184H237.408V47.6367H236.089C235.689 47.6367 235.413 47.688 235.262 47.7905C235.115 47.8931 235.042 48.1519 235.042 48.5669V57.7515C235.042 58.1616 235.115 58.4204 235.262 58.5278C235.413 58.6304 235.689 58.6816 236.089 58.6816H237.408V60H230.091V58.6816H231.409C231.805 58.6816 232.078 58.6304 232.229 58.5278C232.386 58.4253 232.464 58.1665 232.464 57.7515V53.7305H230.362C229.502 53.7305 228.882 54.0332 228.501 54.6387C228.125 55.2441 227.815 56.1401 227.571 57.3267C227.4 58.2446 227.134 58.9893 226.773 59.5605C226.412 60.1318 225.757 60.4175 224.81 60.4175C222.837 60.4175 221.817 58.9795 221.749 56.1035ZM232.464 52.3828V48.6328C232.464 48.2178 232.349 47.9395 232.12 47.7979C231.89 47.6514 231.534 47.5781 231.05 47.5781C230.855 47.5781 230.474 47.5977 229.908 47.6367C227.789 47.7783 226.729 48.5693 226.729 50.0098C226.729 50.5762 226.963 51.1133 227.432 51.6211C227.906 52.1289 228.721 52.3828 229.878 52.3828H232.464Z" fill="#59443F"/>
<path d="M41.62 201V199.64H35.98L38.76 196.5C39.3 195.88 40.02 195.06 40.58 194.28C41.38 193.14 41.64 192.32 41.64 191.42C41.64 189.12 39.88 187.44 37.52 187.44C35.86 187.44 34.92 188.16 34.36 188.8C33.84 189.4 33.42 190.22 33.36 191.56H34.84C34.86 190.88 35.02 190.38 35.28 189.98C35.78 189.22 36.56 188.8 37.5 188.8C39.08 188.8 40.16 189.9 40.16 191.4C40.16 191.94 40.02 192.58 39.42 193.44C39.1 193.92 38.2 194.98 37.86 195.38L33 201H41.62ZM49.345 187.34L44.805 193.64C43.805 195.04 43.705 196.2 43.705 196.7C43.705 198.8 45.185 201.24 48.325 201.24C50.985 201.24 52.905 199.32 52.905 196.66C52.905 194.18 51.145 192.26 48.585 192.26C48.165 192.26 47.785 192.32 47.405 192.44L50.465 188.18L49.345 187.34ZM48.305 199.88C46.445 199.88 45.185 198.48 45.185 196.7C45.185 194.96 46.465 193.62 48.285 193.62C50.105 193.62 51.425 194.92 51.425 196.7C51.425 198.5 50.145 199.88 48.305 199.88ZM60.0002 205.6H61.6002L67.7002 192.7H66.1002L63.4002 198.64L60.4602 192.7H58.8202L62.6402 200.22L60.0002 205.6ZM75.7194 193.3C75.3194 193.02 74.4594 192.5 73.1394 192.5C70.5794 192.5 68.6994 194.36 68.6994 196.9C68.6994 199.4 70.5594 201.24 73.1394 201.24C73.9194 201.24 74.8794 201.04 75.7794 200.38V198.66C75.0194 199.58 73.9594 199.96 73.0994 199.96C71.6194 199.96 70.1794 198.9 70.1794 196.88C70.1794 194.86 71.5794 193.78 73.1194 193.78C73.8594 193.78 74.9594 194.06 75.7194 195.02V193.3ZM84.2689 192.7H78.4289V197.76C78.4289 198.26 78.4089 198.78 78.1489 199.18C77.9889 199.44 77.6489 199.72 77.1089 199.72C77.0089 199.72 76.8889 199.7 76.7889 199.68V201C76.9289 201.02 77.0889 201.04 77.2289 201.04C78.3489 201.04 78.9689 200.48 79.2289 200.16C79.8689 199.38 79.8689 198.46 79.8689 197.76V194.02H82.8289V201H84.2689V192.7ZM86.9728 205.6H88.5728L94.6728 192.7H93.0728L90.3728 198.64L87.4328 192.7H85.7928L89.6128 200.22L86.9728 205.6ZM96.192 201H97.632V194.02H101.112V192.7H96.192V201Z" fill="#59443F"/>
<path d="M259.449 143.7C261.992 143.7 264.178 142.838 266.014 141.527C264.502 144.813 263.649 148.468 263.649 151.75C263.649 152.4 263.681 153.063 263.748 153.729C262.387 152.57 260.975 151.523 259.536 150.622C256.281 148.586 252.642 147.15 248.999 147.15C245.357 147.15 241.718 148.586 238.463 150.622C237.232 151.392 236.021 152.27 234.844 153.234C234.882 152.735 234.899 152.239 234.899 151.75C234.899 148.637 234.065 145.233 232.669 142.137C234.372 143.106 236.332 143.7 238.549 143.7C242.939 143.7 245.983 140.998 247.754 137.987C248.242 137.157 248.656 136.273 248.999 135.359C249.343 136.273 249.757 137.157 250.245 137.987C252.016 140.998 255.06 143.7 259.449 143.7ZM272.078 133.678C273.644 130.223 274.499 126.377 274.499 123.15C274.499 119.896 273.701 116.233 271.954 113.263C270.183 110.252 267.139 107.55 262.749 107.55C257.309 107.55 253.497 111.497 251.266 115.344C250.369 116.891 249.627 118.578 249.057 120.295C248.477 118.412 247.703 116.567 246.748 114.889C244.514 110.96 240.701 107 235.249 107C230.86 107 227.816 109.702 226.045 112.713C224.322 115.642 223.521 119.246 223.5 122.466C223.268 125.799 223.909 129.597 225.296 133.028C223.537 131.913 221.527 131.2 219.299 131.2C215.436 131.2 212.61 133.223 210.906 135.929C209.287 138.501 208.649 141.68 208.649 144.6C208.649 148.951 210.279 153.868 212.794 157.72C215.226 161.444 219.17 165.15 224.249 165.15C224.368 165.15 224.486 165.148 224.602 165.144C221.644 170.036 219.649 175.417 219.649 180.35C219.649 184.017 220.995 186.948 223.566 188.818C225.935 190.541 228.861 191 231.399 191C235.427 191 238.88 189.653 241.64 188.576L241.678 188.561C244.631 187.408 246.751 186.6 248.999 186.6C250.927 186.6 252.866 187.37 255.715 188.538L255.777 188.564C258.374 189.629 261.715 191 265.499 191C267.863 191 270.966 190.729 273.573 189.225C276.511 187.531 278.349 184.547 278.349 180.35C278.349 175.405 276.345 170.011 273.376 165.11C273.677 165.137 273.985 165.15 274.299 165.15C279.611 165.15 283.568 161.503 285.988 157.677C288.454 153.78 289.899 148.873 289.899 144.6C289.899 141.533 289.059 138.36 287.387 135.852C285.692 133.311 282.928 131.2 279.249 131.2C276.483 131.2 274.084 132.189 272.078 133.678Z" stroke="#FFC59E" stroke-width="7" stroke-linecap="round" stroke-linejoin="round"/>
<defs>
<filter id="filter0_d_302_1543" x="0" y="0" width="340" height="240" filterUnits="userSpaceOnUse" color-interpolation-filters="sRGB">
<feFlood flood-opacity="0" result="BackgroundImageFix"/>
<feColorMatrix in="SourceAlpha" type="matrix" values="0 0 0 0 0 0 0 0 0 0 0 0 0 0 0 0 0 0 127 0" result="hardAlpha"/>
<feOffset dx="2" dy="2"/>
<feGaussianBlur stdDeviation="5"/>
<feColorMatrix type="matrix" values="0 0 0 0 0 0 0 0 0 0 0 0 0 0 0 0 0 0 0.1 0"/>
<feBlend mode="normal" in2="BackgroundImageFix" result="effect1_dropShadow_302_1543"/>
<feBlend mode="normal" in="SourceGraphic" in2="effect1_dropShadow_302_1543" result="shape"/>
</filter>
</defs>
</svg>
