<svg width="340" height="240" viewBox="0 0 340 240" fill="none" xmlns="http://www.w3.org/2000/svg">
<g filter="url(#filter0_d_302_1696)">
<rect x="8" y="8" width="320" height="220" rx="20" fill="white"/>
</g>
<mask id="mask0_302_1696" style="mask-type:alpha" maskUnits="userSpaceOnUse" x="8" y="8" width="320" height="220">
<rect x="8" y="8" width="320" height="220" rx="20" fill="white"/>
</mask>
<g mask="url(#mask0_302_1696)">
<path d="M277.992 128.951C277.966 127.455 277.827 125.986 277.582 124.552C285.243 129.818 293.793 127.045 296.739 119.448C300.34 110.162 291.896 100.263 281.653 96.0589C272.617 92.3502 262.646 93.3226 257.375 101.689C254.721 100.886 251.908 100.453 248.996 100.453C246.084 100.453 243.271 100.886 240.617 101.689C235.347 93.3228 225.376 92.35 216.34 96.0589C206.096 100.263 197.653 110.162 201.254 119.449C204.193 127.028 212.731 129.83 220.411 124.552C220.166 125.986 220.026 127.455 220.001 128.951C210.363 130.936 194 135.737 194 145.567C194 147.686 194.795 149.615 196.089 151.304C196.09 151.305 196.094 151.31 196.094 151.31C196.094 151.31 196.095 151.311 196.095 151.311L219.994 182.535V194.333C219.994 195.501 220.626 196.577 221.646 197.146C222.147 197.426 234.091 204 248.996 204C263.901 204 275.846 197.426 276.347 197.146C277.366 196.577 277.998 195.5 277.998 194.333V182.535C278.031 182.492 301.898 151.31 301.898 151.31C303.187 149.653 303.992 147.676 303.992 145.566C303.992 135.74 287.641 130.938 277.992 128.951ZM279.205 102.021C286.435 104.989 292.785 111.817 290.73 117.119C288.952 121.704 283.73 122.327 279.001 117.309L278.954 117.259C276.002 114.127 272.364 110.268 269.066 108.539C267.365 106.905 265.465 105.476 263.407 104.293C268.106 98.1557 276.506 100.913 279.205 102.021ZM248.996 106.898C261.434 106.898 271.553 117.017 271.553 129.455V142.344C271.553 148.05 269.452 153.425 265.615 157.596C261.461 158.044 256.979 158.334 252.218 158.425V150.124L257.719 144.623C258.641 143.702 258.916 142.316 258.418 141.111C257.919 139.907 256.744 139.122 255.441 139.122H242.551C241.247 139.122 240.072 139.907 239.574 141.111C239.075 142.316 239.351 143.702 240.272 144.623L245.774 150.124V158.425C240.979 158.333 236.456 158.036 232.377 157.596C228.54 153.425 226.439 148.05 226.439 142.344V129.454C226.439 117.017 236.558 106.898 248.996 106.898ZM219.037 117.261L218.992 117.309C214.263 122.327 209.041 121.705 207.262 117.119C205.18 111.749 211.689 104.934 218.787 102.021C221.486 100.913 229.886 98.1555 234.585 104.293C232.527 105.476 230.627 106.905 228.926 108.539C225.627 110.269 221.988 114.128 219.037 117.261ZM200.695 146.572C200.527 146.217 200.445 145.889 200.445 145.567C200.445 143.227 205.83 138.648 219.994 135.538V142.344C219.994 147.321 221.239 152.101 223.578 156.336C217.712 155.27 203.217 151.872 200.695 146.572ZM210.713 159.806C217.218 161.922 225.303 163.463 234.338 164.267L237.45 183.25C231.389 181.809 226.861 179.684 225.342 178.918L210.713 159.806ZM271.553 192.343C268.022 193.994 259.222 197.555 248.996 197.555C238.819 197.555 229.982 193.988 226.439 192.338V186.487C231.354 188.49 239.585 191.11 248.996 191.11C258.407 191.11 266.638 188.49 271.553 186.487V192.343ZM272.648 178.921C270.27 180.126 260.542 184.666 248.996 184.666C247.347 184.666 245.733 184.572 244.171 184.408L240.942 164.714C243.57 164.838 246.259 164.902 248.996 164.902C263.921 164.902 277.418 163.014 287.279 159.807L272.648 178.921ZM296.789 147.381C294.222 150.72 286.228 154.19 274.414 156.336C276.753 152.101 277.998 147.321 277.998 142.344V135.539C292.162 138.648 297.547 143.227 297.547 145.567C297.547 146.002 297.394 146.595 296.789 147.381Z" fill="#FFC59E"/>
</g>
<path d="M49.1313 48.5376V42.4219C49.1313 41.9238 49.0508 41.5649 48.8896 41.3452C48.7334 41.1206 48.3232 41.0083 47.6592 41.0083H45.9233V39.6021H55.7012V41.0083H53.958C53.2988 41.0083 52.8887 41.1206 52.7275 41.3452C52.5713 41.5649 52.4932 41.9238 52.4932 42.4219V57.1802C52.4932 57.6733 52.5737 58.0322 52.7349 58.2568C52.896 58.4766 53.3037 58.5864 53.958 58.5864H55.7012V60H45.9233V58.5864H47.6592C48.3184 58.5864 48.7285 58.4766 48.8896 58.2568C49.0508 58.0322 49.1313 57.6733 49.1313 57.1802V49.9512H39.6465V57.1802C39.6465 57.6733 39.7271 58.0322 39.8882 58.2568C40.0493 58.4766 40.4595 58.5864 41.1187 58.5864H42.8618V60H33.0767V58.5864H34.8198C35.479 58.5864 35.8892 58.4766 36.0503 58.2568C36.2114 58.0322 36.292 57.6733 36.292 57.1802V42.4219C36.292 41.9238 36.2114 41.5649 36.0503 41.3452C35.894 41.1206 35.4839 41.0083 34.8198 41.0083H33.0767V39.6021H42.8618V41.0083H41.1187C40.4546 41.0083 40.042 41.1206 39.8809 41.3452C39.7246 41.5649 39.6465 41.9238 39.6465 42.4219V48.5376H49.1313ZM68.7529 56.0083L69.9541 56.6382C68.875 59.1577 66.9243 60.4175 64.1021 60.4175C62.8374 60.4175 61.7266 60.1123 60.7695 59.502C59.8174 58.8867 59.085 58.0273 58.5723 56.9238C58.0596 55.8154 57.8032 54.5605 57.8032 53.1592C57.8032 51.8652 58.062 50.6641 58.5796 49.5557C59.0972 48.4424 59.8442 47.5562 60.8208 46.897C61.7974 46.2329 62.9424 45.9009 64.2559 45.9009C65.584 45.9009 66.6997 46.2305 67.603 46.8896C68.5112 47.5488 69.1802 48.4009 69.6099 49.4458C70.0396 50.4858 70.2544 51.5747 70.2544 52.7124V53.4009H60.9233C60.9233 55.2173 61.2505 56.6162 61.9048 57.5977C62.564 58.5791 63.4185 59.0698 64.4683 59.0698C65.5718 59.0698 66.4824 58.7402 67.2002 58.0811C67.918 57.417 68.4355 56.7261 68.7529 56.0083ZM60.9233 52.0532H66.6875C67.0195 52.0532 67.1978 51.8628 67.2222 51.4819V50.9106C67.1392 49.7241 66.8096 48.8184 66.2334 48.1934C65.6572 47.5635 64.9785 47.2485 64.1973 47.2485C63.3232 47.2485 62.5737 47.6782 61.9487 48.5376C61.3286 49.397 60.9868 50.5688 60.9233 52.0532ZM72.459 46.3184H80.7061C82.3174 46.3184 83.5259 46.6357 84.3315 47.2705C85.1372 47.9053 85.54 48.7183 85.54 49.7095C85.54 50.5542 85.1885 51.25 84.4854 51.7969C83.7871 52.3389 82.957 52.6538 81.9951 52.7417V52.9175C83.5674 53.02 84.6343 53.4229 85.1958 54.126C85.7622 54.8242 86.0454 55.5933 86.0454 56.4331C86.0454 57.4878 85.5596 58.3472 84.5879 59.0112C83.6211 59.6704 82.0879 60 79.9883 60H72.459V58.6816H73.7773C74.1729 58.6816 74.4463 58.6304 74.5977 58.5278C74.749 58.4253 74.8247 58.1665 74.8247 57.7515V48.5669C74.8247 48.1519 74.749 47.8931 74.5977 47.7905C74.4512 47.688 74.1777 47.6367 73.7773 47.6367H72.459V46.3184ZM77.4102 52.1997H79.5635C81.4287 52.1997 82.4395 51.5698 82.5957 50.3101V49.6216C82.4297 48.2983 81.4897 47.6367 79.7759 47.6367H78.0986C77.6592 47.6367 77.4395 47.7686 77.4395 48.0322C77.4395 48.1104 77.4346 48.1738 77.4248 48.2227C77.415 48.2715 77.4102 48.3081 77.4102 48.3325V52.1997ZM77.4102 53.5474V57.8687C77.4102 57.8784 77.415 57.9126 77.4248 57.9712C77.4346 58.0298 77.4395 58.0859 77.4395 58.1396C77.4883 58.4375 77.708 58.5986 78.0986 58.623C78.2012 58.623 78.2915 58.6279 78.3696 58.6377C78.4478 58.6475 78.5063 58.6523 78.5454 58.6523H79.9297C80.6426 58.6523 81.3188 58.4644 81.9585 58.0884C82.603 57.7124 82.9253 57.0508 82.9253 56.1035C82.9253 54.3994 81.7949 53.5474 79.5342 53.5474H77.4102ZM88.1841 46.3184L93.106 45.9009V47.9736C94.1655 46.5918 95.4546 45.9009 96.9731 45.9009C98.1157 45.9009 99.0996 46.1279 99.9248 46.582C100.75 47.0361 101.414 47.6343 101.917 48.3765C102.425 49.1187 102.793 49.9292 103.023 50.8081C103.252 51.6821 103.367 52.5464 103.367 53.4009C103.367 54.2017 103.23 55.0146 102.957 55.8398C102.688 56.665 102.283 57.4268 101.741 58.125C101.204 58.8232 100.533 59.3799 99.7271 59.7949C98.9214 60.21 98.0034 60.4175 96.9731 60.4175C95.2593 60.4175 93.98 59.6875 93.1353 58.2275H92.8936L93.106 59.4873V63.1201C93.106 63.5303 93.1792 63.7866 93.3257 63.8892C93.4771 63.9966 93.7529 64.0503 94.1533 64.0503H95.8379V65.3687H88.1548V64.0503H89.4731C89.8687 64.0503 90.1421 63.999 90.2935 63.8965C90.4497 63.7939 90.5278 63.5352 90.5278 63.1201V48.5669C90.5278 48.1519 90.4521 47.8931 90.3008 47.7905C90.1494 47.688 89.8735 47.6367 89.4731 47.6367H88.1841V46.3184ZM93.106 53.2471C93.106 54.5459 93.2744 55.6348 93.6113 56.5137C93.9482 57.3877 94.3877 58.0322 94.9297 58.4473C95.4717 58.8623 96.0527 59.0698 96.6729 59.0698C97.5469 59.0698 98.3599 58.6694 99.1118 57.8687C99.8687 57.063 100.247 55.5127 100.247 53.2178C100.247 50.8447 99.8833 49.2578 99.1558 48.457C98.4282 47.6514 97.6006 47.2485 96.6729 47.2485C95.7744 47.2485 94.9541 47.6782 94.2119 48.5376C93.4746 49.397 93.106 50.9668 93.106 53.2471ZM105.411 53.1592C105.411 52.3291 105.56 51.4868 105.857 50.6323C106.155 49.7729 106.595 48.9844 107.176 48.2666C107.762 47.5488 108.484 46.9751 109.344 46.5454C110.203 46.1157 111.182 45.9009 112.281 45.9009C113.726 45.9009 114.969 46.2671 116.009 46.9995C117.054 47.7319 117.837 48.6597 118.36 49.7827C118.887 50.9058 119.151 52.0312 119.151 53.1592C119.151 54.2871 118.887 55.4126 118.36 56.5356C117.837 57.6587 117.054 58.5864 116.009 59.3188C114.969 60.0513 113.726 60.4175 112.281 60.4175C110.855 60.4175 109.62 60.0537 108.575 59.3262C107.53 58.5938 106.741 57.6636 106.209 56.5356C105.677 55.4077 105.411 54.2822 105.411 53.1592ZM108.531 53.1592C108.531 57.0996 109.781 59.0698 112.281 59.0698C112.94 59.0698 113.548 58.9038 114.104 58.5718C114.661 58.2397 115.12 57.6318 115.481 56.748C115.848 55.8643 116.031 54.668 116.031 53.1592C116.031 51.0449 115.682 49.5312 114.983 48.6182C114.285 47.7051 113.384 47.2485 112.281 47.2485C111.177 47.2485 110.276 47.7051 109.578 48.6182C108.88 49.5312 108.531 51.0449 108.531 53.1592ZM124.146 47.6367V46.3184H136.773V47.6367H135.455C135.054 47.6367 134.778 47.688 134.627 47.7905C134.48 47.8931 134.407 48.1519 134.407 48.5669V57.7515C134.407 58.1616 134.48 58.4204 134.627 58.5278C134.778 58.6304 135.054 58.6816 135.455 58.6816H136.773V60H129.456V58.6816H130.774C131.17 58.6816 131.443 58.6304 131.595 58.5278C131.746 58.4253 131.822 58.1665 131.822 57.7515V48.208C131.822 47.8271 131.434 47.6367 130.657 47.6367H129.515C128.895 47.6367 128.509 47.7759 128.357 48.0542C128.211 48.3325 128.116 48.7549 128.072 49.3213C128.008 50.3027 127.898 51.5234 127.742 52.9834C127.591 54.3652 127.393 55.5615 127.149 56.5723C126.91 57.583 126.46 58.4766 125.801 59.2529C125.147 60.0293 124.234 60.4175 123.062 60.4175C122.54 60.4175 122.029 60.249 121.531 59.9121C121.033 59.5703 120.784 59.0186 120.784 58.2568C120.784 57.6953 120.94 57.2607 121.253 56.9531C121.57 56.6455 121.944 56.4917 122.374 56.4917C122.789 56.4917 123.121 56.6211 123.37 56.8799C123.624 57.1387 123.75 57.4487 123.75 57.8101C123.75 57.8735 123.731 57.9834 123.692 58.1396C123.672 58.1982 123.663 58.2886 123.663 58.4106C123.663 58.689 123.814 58.8281 124.117 58.8281C124.81 58.8281 125.369 58.0493 125.794 56.4917C126.238 54.8511 126.509 52.7197 126.607 50.0977V49.3799C126.578 48.667 126.426 48.1982 126.153 47.9736C125.879 47.749 125.398 47.6367 124.71 47.6367H124.146ZM138.956 53.1592C138.956 52.3291 139.104 51.4868 139.402 50.6323C139.7 49.7729 140.14 48.9844 140.721 48.2666C141.307 47.5488 142.029 46.9751 142.889 46.5454C143.748 46.1157 144.727 45.9009 145.826 45.9009C147.271 45.9009 148.514 46.2671 149.554 46.9995C150.599 47.7319 151.382 48.6597 151.905 49.7827C152.432 50.9058 152.696 52.0312 152.696 53.1592C152.696 54.2871 152.432 55.4126 151.905 56.5356C151.382 57.6587 150.599 58.5864 149.554 59.3188C148.514 60.0513 147.271 60.4175 145.826 60.4175C144.4 60.4175 143.165 60.0537 142.12 59.3262C141.075 58.5938 140.286 57.6636 139.754 56.5356C139.222 55.4077 138.956 54.2822 138.956 53.1592ZM142.076 53.1592C142.076 57.0996 143.326 59.0698 145.826 59.0698C146.485 59.0698 147.093 58.9038 147.649 58.5718C148.206 58.2397 148.665 57.6318 149.026 56.748C149.393 55.8643 149.576 54.668 149.576 53.1592C149.576 51.0449 149.227 49.5312 148.528 48.6182C147.83 47.7051 146.929 47.2485 145.826 47.2485C144.722 47.2485 143.821 47.7051 143.123 48.6182C142.425 49.5312 142.076 51.0449 142.076 53.1592ZM167.022 52.229H165.85C165.694 50.8569 165.474 49.8462 165.191 49.1968C164.917 48.5571 164.551 48.1372 164.092 47.937C163.638 47.7368 163.064 47.6367 162.371 47.6367H160.899C160.44 47.6367 160.149 47.749 160.027 47.9736C159.91 48.1982 159.852 48.5059 159.852 48.8965V57.7515C159.852 58.1616 159.925 58.4204 160.071 58.5278C160.223 58.6304 160.499 58.6816 160.899 58.6816H162.217V60H154.9V58.6816H156.219C156.614 58.6816 156.888 58.6304 157.039 58.5278C157.19 58.4253 157.266 58.1665 157.266 57.7515V48.5669C157.266 48.1519 157.19 47.8931 157.039 47.7905C156.893 47.688 156.619 47.6367 156.219 47.6367H154.9V46.3184H167.022V52.229ZM173.973 56.1914L180.088 48.7207C180.328 48.4424 180.447 48.1812 180.447 47.937C180.35 47.7368 180.101 47.6367 179.7 47.6367H178.111V46.3184H185.428V47.6367H184.109C183.709 47.6367 183.433 47.688 183.282 47.7905C183.135 47.8931 183.062 48.1519 183.062 48.5669V57.7515C183.062 58.1616 183.135 58.4204 183.282 58.5278C183.433 58.6304 183.709 58.6816 184.109 58.6816H185.428V60H178.111V58.6816H179.429C179.825 58.6816 180.098 58.6304 180.25 58.5278C180.401 58.4253 180.477 58.1665 180.477 57.7515V50.127L174.302 57.5977C174.083 57.8711 173.973 58.0908 173.973 58.2568C173.973 58.54 174.292 58.6816 174.932 58.6816H176.309V60H169.021V58.6816H170.34C170.735 58.6816 171.009 58.6304 171.16 58.5278C171.312 58.4253 171.387 58.1665 171.387 57.7515V48.5669C171.387 48.1519 171.312 47.8931 171.16 47.7905C171.014 47.688 170.74 47.6367 170.34 47.6367H169.021V46.3184H176.338V47.6367H175.02C174.62 47.6367 174.344 47.688 174.192 47.7905C174.046 47.8931 173.973 48.1519 173.973 48.5669V56.1914ZM187.618 56.1035H188.79C188.897 57.7197 189.217 58.5278 189.749 58.5278C190.052 58.5278 190.281 58.3472 190.438 57.9858C190.594 57.6196 190.726 57.1606 190.833 56.6089C191.009 55.7544 191.309 55.0171 191.734 54.397C192.164 53.7769 192.962 53.4155 194.129 53.313V53.1006C192.933 53.0664 191.858 52.7856 190.906 52.2583C189.954 51.731 189.478 50.9717 189.478 49.9805C189.478 49.0088 189.937 48.1567 190.855 47.4243C191.773 46.687 193.265 46.3184 195.33 46.3184H203.277V47.6367H201.958C201.558 47.6367 201.282 47.688 201.131 47.7905C200.984 47.8931 200.911 48.1519 200.911 48.5669V57.7515C200.911 58.1616 200.984 58.4204 201.131 58.5278C201.282 58.6304 201.558 58.6816 201.958 58.6816H203.277V60H195.96V58.6816H197.278C197.674 58.6816 197.947 58.6304 198.099 58.5278C198.255 58.4253 198.333 58.1665 198.333 57.7515V53.7305H196.231C195.372 53.7305 194.751 54.0332 194.371 54.6387C193.995 55.2441 193.685 56.1401 193.44 57.3267C193.27 58.2446 193.003 58.9893 192.642 59.5605C192.281 60.1318 191.626 60.4175 190.679 60.4175C188.707 60.4175 187.686 58.9795 187.618 56.1035ZM198.333 52.3828V48.6328C198.333 48.2178 198.218 47.9395 197.989 47.7979C197.759 47.6514 197.403 47.5781 196.919 47.5781C196.724 47.5781 196.343 47.5977 195.777 47.6367C193.658 47.7783 192.598 48.5693 192.598 50.0098C192.598 50.5762 192.833 51.1133 193.301 51.6211C193.775 52.1289 194.59 52.3828 195.748 52.3828H198.333Z" fill="#59443F"/>
<path d="M41.62 201V199.64H35.98L38.76 196.5C39.3 195.88 40.02 195.06 40.58 194.28C41.38 193.14 41.64 192.32 41.64 191.42C41.64 189.12 39.88 187.44 37.52 187.44C35.86 187.44 34.92 188.16 34.36 188.8C33.84 189.4 33.42 190.22 33.36 191.56H34.84C34.86 190.88 35.02 190.38 35.28 189.98C35.78 189.22 36.56 188.8 37.5 188.8C39.08 188.8 40.16 189.9 40.16 191.4C40.16 191.94 40.02 192.58 39.42 193.44C39.1 193.92 38.2 194.98 37.86 195.38L33 201H41.62ZM49.345 187.34L44.805 193.64C43.805 195.04 43.705 196.2 43.705 196.7C43.705 198.8 45.185 201.24 48.325 201.24C50.985 201.24 52.905 199.32 52.905 196.66C52.905 194.18 51.145 192.26 48.585 192.26C48.165 192.26 47.785 192.32 47.405 192.44L50.465 188.18L49.345 187.34ZM48.305 199.88C46.445 199.88 45.185 198.48 45.185 196.7C45.185 194.96 46.465 193.62 48.285 193.62C50.105 193.62 51.425 194.92 51.425 196.7C51.425 198.5 50.145 199.88 48.305 199.88ZM60.0002 205.6H61.6002L67.7002 192.7H66.1002L63.4002 198.64L60.4602 192.7H58.8202L62.6402 200.22L60.0002 205.6ZM75.7194 193.3C75.3194 193.02 74.4594 192.5 73.1394 192.5C70.5794 192.5 68.6994 194.36 68.6994 196.9C68.6994 199.4 70.5594 201.24 73.1394 201.24C73.9194 201.24 74.8794 201.04 75.7794 200.38V198.66C75.0194 199.58 73.9594 199.96 73.0994 199.96C71.6194 199.96 70.1794 198.9 70.1794 196.88C70.1794 194.86 71.5794 193.78 73.1194 193.78C73.8594 193.78 74.9594 194.06 75.7194 195.02V193.3ZM84.2689 192.7H78.4289V197.76C78.4289 198.26 78.4089 198.78 78.1489 199.18C77.9889 199.44 77.6489 199.72 77.1089 199.72C77.0089 199.72 76.8889 199.7 76.7889 199.68V201C76.9289 201.02 77.0889 201.04 77.2289 201.04C78.3489 201.04 78.9689 200.48 79.2289 200.16C79.8689 199.38 79.8689 198.46 79.8689 197.76V194.02H82.8289V201H84.2689V192.7ZM86.9728 205.6H88.5728L94.6728 192.7H93.0728L90.3728 198.64L87.4328 192.7H85.7928L89.6128 200.22L86.9728 205.6ZM96.192 201H97.632V194.02H101.112V192.7H96.192V201Z" fill="#59443F"/>
<defs>
<filter id="filter0_d_302_1696" x="0" y="0" width="340" height="240" filterUnits="userSpaceOnUse" color-interpolation-filters="sRGB">
<feFlood flood-opacity="0" result="BackgroundImageFix"/>
<feColorMatrix in="SourceAlpha" type="matrix" values="0 0 0 0 0 0 0 0 0 0 0 0 0 0 0 0 0 0 127 0" result="hardAlpha"/>
<feOffset dx="2" dy="2"/>
<feGaussianBlur stdDeviation="5"/>
<feColorMatrix type="matrix" values="0 0 0 0 0 0 0 0 0 0 0 0 0 0 0 0 0 0 0.1 0"/>
<feBlend mode="normal" in2="BackgroundImageFix" result="effect1_dropShadow_302_1696"/>
<feBlend mode="normal" in="SourceGraphic" in2="effect1_dropShadow_302_1696" result="shape"/>
</filter>
</defs>
</svg>
