<svg width="340" height="240" viewBox="0 0 340 240" fill="none" xmlns="http://www.w3.org/2000/svg">
<g filter="url(#filter0_d_302_1743)">
<rect x="8" y="8" width="320" height="220" rx="20" fill="white"/>
</g>
<mask id="mask0_302_1743" style="mask-type:alpha" maskUnits="userSpaceOnUse" x="8" y="8" width="320" height="220">
<rect x="8" y="8" width="320" height="220" rx="20" fill="white"/>
</mask>
<g mask="url(#mask0_302_1743)">
<path d="M294.332 139.117H291.109V112.784C294.861 111.454 297.555 107.869 297.555 103.668C297.555 98.3371 293.218 94 287.887 94H262.105C256.775 94 252.438 98.3371 252.438 103.668C252.438 107.869 255.131 111.454 258.883 112.784V139.117H239.117V112.784C242.869 111.454 245.562 107.869 245.562 103.668C245.562 98.3371 241.225 94 235.895 94H210.113C204.782 94 200.445 98.3371 200.445 103.668C200.445 107.869 203.139 111.454 206.891 112.784V139.117H203.668C198.337 139.117 194 143.454 194 148.785V194.332C194 199.663 198.337 204 203.668 204H294.332C299.663 204 304 199.663 304 194.332V148.785C304 143.454 299.663 139.117 294.332 139.117ZM262.105 100.445H287.887C289.664 100.445 291.109 101.891 291.109 103.668C291.109 105.445 289.664 106.891 287.887 106.891C286.107 106.891 284.664 108.334 284.664 110.113V126.227H274.996C273.216 126.227 271.773 127.669 271.773 129.449C271.773 131.229 273.216 132.672 274.996 132.672H284.664V139.117H265.328V110.113C265.328 108.334 263.885 106.891 262.105 106.891C260.328 106.891 258.883 105.445 258.883 103.668C258.883 101.891 260.328 100.445 262.105 100.445ZM274.996 158.453H284.664V174.996C284.664 180.327 280.327 184.664 274.996 184.664C269.665 184.664 265.328 180.327 265.328 174.996V145.562H284.664V152.008H274.996C273.216 152.008 271.773 153.451 271.773 155.23C271.773 157.01 273.216 158.453 274.996 158.453ZM210.113 100.445H235.895C237.672 100.445 239.117 101.891 239.117 103.668C239.117 105.445 237.672 106.891 235.895 106.891C234.115 106.891 232.672 108.334 232.672 110.113V126.227H223.004C221.224 126.227 219.781 127.669 219.781 129.449C219.781 131.229 221.224 132.672 223.004 132.672H232.672V139.117H213.336V110.113C213.336 108.334 211.893 106.891 210.113 106.891C208.336 106.891 206.891 105.445 206.891 103.668C206.891 101.891 208.336 100.445 210.113 100.445ZM223.004 158.453H232.672V174.996C232.672 180.327 228.335 184.664 223.004 184.664C217.673 184.664 213.336 180.327 213.336 174.996V145.562H232.672V152.008H223.004C221.224 152.008 219.781 153.451 219.781 155.23C219.781 157.01 221.224 158.453 223.004 158.453ZM297.555 194.332C297.555 196.109 296.109 197.555 294.332 197.555H203.668C201.891 197.555 200.445 196.109 200.445 194.332V148.785C200.445 147.008 201.891 145.562 203.668 145.562H206.891V174.996C206.891 183.881 214.119 191.109 223.004 191.109C231.889 191.109 239.117 183.881 239.117 174.996V145.562H258.883V174.996C258.883 183.881 266.111 191.109 274.996 191.109C283.881 191.109 291.109 183.881 291.109 174.996V145.562H294.332C296.109 145.562 297.555 147.008 297.555 148.785V194.332Z" fill="#FFC59E"/>
</g>
<path d="M36.5923 41.0083V39.6021H54.6831V41.0083H52.9399C52.2759 41.0083 51.8633 41.1206 51.7021 41.3452C51.5459 41.5649 51.4678 41.9238 51.4678 42.4219V57.1802C51.4678 57.6733 51.5483 58.0322 51.7095 58.2568C51.8706 58.4766 52.2808 58.5864 52.9399 58.5864H54.6831V60H44.8979V58.5864H46.6411C47.3003 58.5864 47.7104 58.4766 47.8716 58.2568C48.0327 58.0322 48.1133 57.6733 48.1133 57.1802V42.4219C48.1133 41.9238 48.0327 41.5649 47.8716 41.3452C47.7153 41.1206 47.3052 41.0083 46.6411 41.0083H44.7515C44.0581 41.0083 43.5259 41.1523 43.1548 41.4404C42.7837 41.7236 42.5249 42.1191 42.3784 42.627C42.2368 43.1299 42.1489 43.7305 42.1147 44.4287C42.0854 45.1221 42.0537 45.9424 42.0195 46.8896C41.9023 49.6826 41.79 51.7358 41.6826 53.0493C41.5801 54.3628 41.3628 55.5981 41.0308 56.7554C40.6987 57.9077 40.1665 58.811 39.4341 59.4653C38.7065 60.1196 37.7178 60.4468 36.4678 60.4468C35.0908 60.4468 34.1118 60.0146 33.5308 59.1504C32.9497 58.2861 32.6592 57.3389 32.6592 56.3086C32.6592 55.6055 32.8936 55.0806 33.3623 54.7339C33.8311 54.3823 34.3364 54.2065 34.8784 54.2065C35.4937 54.2065 35.9966 54.3921 36.3872 54.7632C36.7827 55.1294 36.9805 55.5762 36.9805 56.1035C36.9805 56.5088 36.8413 56.9287 36.563 57.3633C36.4946 57.4561 36.3213 57.6147 36.043 57.8394C35.7695 58.064 35.6328 58.2251 35.6328 58.3228C35.6328 58.4888 35.7329 58.6499 35.9331 58.8062C36.1333 58.9624 36.3726 59.0405 36.6509 59.0405C37.2515 59.0405 37.8716 58.7573 38.5112 58.1909C39.1509 57.6196 39.6001 56.4233 39.8589 54.6021C40.1616 52.4243 40.313 49.6436 40.313 46.2598C40.313 44.7363 40.2422 43.6206 40.1006 42.9126C39.959 42.2046 39.6611 41.7114 39.207 41.4331C38.7578 41.1499 38.0352 41.0083 37.0391 41.0083H36.5923ZM70.8477 58.3228L71.4189 58.9526C70.7646 59.5386 70.2446 59.9292 69.8589 60.1245C69.4731 60.3198 68.9946 60.4175 68.4233 60.4175C67.6079 60.4175 67.0244 60.1758 66.6729 59.6924C66.3213 59.2041 66.1138 58.667 66.0503 58.0811H65.8672C64.8027 59.6387 63.1938 60.4175 61.0405 60.4175C59.4829 60.4175 58.4087 60.0562 57.8179 59.3335C57.2271 58.6108 56.9316 57.8027 56.9316 56.9092C56.9316 56.167 57.1587 55.4932 57.6128 54.8877C58.0718 54.2773 58.7017 53.7451 59.5024 53.291C60.3032 52.8369 61.2407 52.4463 62.3149 52.1191C63.394 51.7871 64.5684 51.5137 65.8379 51.2988V50.127C65.8379 49.1113 65.5327 48.374 64.9224 47.915C64.312 47.4512 63.5479 47.2192 62.6299 47.2192C62.21 47.2192 61.7974 47.2754 61.3921 47.3877C60.9917 47.5 60.667 47.6538 60.418 47.8491C60.1738 48.0396 60.0518 48.2397 60.0518 48.4497C60.0518 48.6157 60.1519 48.7549 60.3521 48.8672C60.6206 49.043 60.8306 49.2188 60.9819 49.3945C61.1382 49.5703 61.2163 49.8047 61.2163 50.0977C61.2163 50.5273 61.0723 50.8911 60.7842 51.189C60.501 51.4819 60.147 51.6284 59.7222 51.6284C59.2827 51.6284 58.8726 51.4819 58.4917 51.189C58.1108 50.896 57.9204 50.4932 57.9204 49.9805C57.9204 49.3164 58.1206 48.667 58.521 48.0322C58.9263 47.3975 59.5171 46.8848 60.2935 46.4941C61.0698 46.0986 61.9878 45.9009 63.0474 45.9009C66.6313 45.9009 68.4233 47.5513 68.4233 50.8521V57.5098C68.4233 58.5498 68.7627 59.0698 69.4414 59.0698C69.9199 59.0698 70.3887 58.8208 70.8477 58.3228ZM65.8379 54.8071V52.5586C64.6953 52.7686 63.7041 53.0298 62.8643 53.3423C62.0244 53.6499 61.3457 54.0625 60.8281 54.5801C60.3105 55.0928 60.0518 55.7104 60.0518 56.4331C60.0518 57.1655 60.2446 57.7881 60.6304 58.3008C61.0161 58.8135 61.5532 59.0698 62.2417 59.0698C62.8179 59.0698 63.3843 58.8989 63.9409 58.5571C64.4976 58.2104 64.9517 57.7124 65.3032 57.063C65.6597 56.4136 65.8379 55.6616 65.8379 54.8071ZM84.4268 39.0894H85.291C85.0908 40.3101 84.7148 41.2256 84.1631 41.8359C83.6113 42.4414 83.0303 42.8198 82.4199 42.9712C81.8145 43.1226 81.1431 43.1982 80.4058 43.1982H79.5049C78.7383 43.1982 78.062 43.2544 77.4761 43.3667C76.895 43.479 76.3457 43.7305 75.8281 44.1211C75.3154 44.5117 74.8906 45.0952 74.5537 45.8716C74.1387 46.8091 73.8896 47.9077 73.8066 49.1675L74.1362 49.2334C75.3472 47.0117 77.0073 45.9009 79.1167 45.9009C80.2788 45.9009 81.2847 46.0596 82.1343 46.377C82.9839 46.6943 83.7261 47.2656 84.3608 48.0908C85.3423 49.3408 85.833 51.0596 85.833 53.2471C85.833 54.5752 85.5425 55.7861 84.9614 56.8799C84.3853 57.9736 83.5845 58.8379 82.5591 59.4727C81.5386 60.1025 80.3911 60.4175 79.1167 60.4175C77.8862 60.4175 76.7705 60.1343 75.7695 59.5679C74.7734 59.0015 73.9702 58.0444 73.3599 56.6968C72.7544 55.3491 72.4517 53.5791 72.4517 51.3867C72.4517 48.2227 73.0132 45.603 74.1362 43.5278C74.5415 42.7905 74.9907 42.2046 75.4839 41.77C75.9771 41.3306 76.4922 41.0181 77.0293 40.8325C77.5664 40.6421 78.0889 40.5249 78.5967 40.481C79.1094 40.4321 79.7515 40.4077 80.5229 40.4077C81.4556 40.3979 82.1099 40.3784 82.4858 40.3491C82.8667 40.3198 83.2378 40.2124 83.5991 40.0269C83.9653 39.8413 84.2412 39.5288 84.4268 39.0894ZM79.1167 59.0698C79.688 59.0405 80.2373 58.8721 80.7646 58.5645C81.2969 58.252 81.7534 57.6685 82.1343 56.814C82.52 55.9546 82.7129 54.7656 82.7129 53.2471C82.7129 51.9873 82.4932 50.6738 82.0537 49.3066C81.6143 47.9346 80.6353 47.2485 79.1167 47.2485C78.4331 47.2485 77.8228 47.4658 77.2856 47.9004C76.7485 48.335 76.3286 49.0015 76.0259 49.8999C75.7231 50.7983 75.5718 51.9141 75.5718 53.2471C75.5718 55.2393 75.9111 56.6992 76.5898 57.627C77.2734 58.5547 78.1157 59.0356 79.1167 59.0698ZM87.8618 53.1592C87.8618 52.3291 88.0107 51.4868 88.3086 50.6323C88.6064 49.7729 89.0459 48.9844 89.627 48.2666C90.2129 47.5488 90.9355 46.9751 91.7949 46.5454C92.6543 46.1157 93.6333 45.9009 94.7319 45.9009C96.1772 45.9009 97.4199 46.2671 98.46 46.9995C99.5049 47.7319 100.289 48.6597 100.811 49.7827C101.338 50.9058 101.602 52.0312 101.602 53.1592C101.602 54.2871 101.338 55.4126 100.811 56.5356C100.289 57.6587 99.5049 58.5864 98.46 59.3188C97.4199 60.0513 96.1772 60.4175 94.7319 60.4175C93.3062 60.4175 92.0708 60.0537 91.0259 59.3262C89.981 58.5938 89.1924 57.6636 88.6602 56.5356C88.1279 55.4077 87.8618 54.2822 87.8618 53.1592ZM90.9819 53.1592C90.9819 57.0996 92.2319 59.0698 94.7319 59.0698C95.3911 59.0698 95.999 58.9038 96.5557 58.5718C97.1123 58.2397 97.5713 57.6318 97.9326 56.748C98.2988 55.8643 98.4819 54.668 98.4819 53.1592C98.4819 51.0449 98.1328 49.5312 97.4346 48.6182C96.7363 47.7051 95.8354 47.2485 94.7319 47.2485C93.6284 47.2485 92.7275 47.7051 92.0293 48.6182C91.3311 49.5312 90.9819 51.0449 90.9819 53.1592ZM103.594 46.3184L108.516 45.9009V47.9736C109.576 46.5918 110.865 45.9009 112.383 45.9009C113.526 45.9009 114.51 46.1279 115.335 46.582C116.16 47.0361 116.824 47.6343 117.327 48.3765C117.835 49.1187 118.204 49.9292 118.433 50.8081C118.663 51.6821 118.777 52.5464 118.777 53.4009C118.777 54.2017 118.641 55.0146 118.367 55.8398C118.099 56.665 117.693 57.4268 117.151 58.125C116.614 58.8232 115.943 59.3799 115.137 59.7949C114.332 60.21 113.414 60.4175 112.383 60.4175C110.669 60.4175 109.39 59.6875 108.545 58.2275H108.304L108.516 59.4873V63.1201C108.516 63.5303 108.589 63.7866 108.736 63.8892C108.887 63.9966 109.163 64.0503 109.563 64.0503H111.248V65.3687H103.565V64.0503H104.883C105.279 64.0503 105.552 63.999 105.704 63.8965C105.86 63.7939 105.938 63.5352 105.938 63.1201V48.5669C105.938 48.1519 105.862 47.8931 105.711 47.7905C105.56 47.688 105.284 47.6367 104.883 47.6367H103.594V46.3184ZM108.516 53.2471C108.516 54.5459 108.685 55.6348 109.021 56.5137C109.358 57.3877 109.798 58.0322 110.34 58.4473C110.882 58.8623 111.463 59.0698 112.083 59.0698C112.957 59.0698 113.77 58.6694 114.522 57.8687C115.279 57.063 115.657 55.5127 115.657 53.2178C115.657 50.8447 115.293 49.2578 114.566 48.457C113.838 47.6514 113.011 47.2485 112.083 47.2485C111.185 47.2485 110.364 47.6782 109.622 48.5376C108.885 49.397 108.516 50.9668 108.516 53.2471ZM134.891 58.3228L135.462 58.9526C134.808 59.5386 134.288 59.9292 133.902 60.1245C133.516 60.3198 133.038 60.4175 132.466 60.4175C131.651 60.4175 131.067 60.1758 130.716 59.6924C130.364 59.2041 130.157 58.667 130.093 58.0811H129.91C128.846 59.6387 127.237 60.4175 125.083 60.4175C123.526 60.4175 122.452 60.0562 121.861 59.3335C121.27 58.6108 120.975 57.8027 120.975 56.9092C120.975 56.167 121.202 55.4932 121.656 54.8877C122.115 54.2773 122.745 53.7451 123.545 53.291C124.346 52.8369 125.284 52.4463 126.358 52.1191C127.437 51.7871 128.611 51.5137 129.881 51.2988V50.127C129.881 49.1113 129.576 48.374 128.965 47.915C128.355 47.4512 127.591 47.2192 126.673 47.2192C126.253 47.2192 125.84 47.2754 125.435 47.3877C125.035 47.5 124.71 47.6538 124.461 47.8491C124.217 48.0396 124.095 48.2397 124.095 48.4497C124.095 48.6157 124.195 48.7549 124.395 48.8672C124.664 49.043 124.874 49.2188 125.025 49.3945C125.181 49.5703 125.259 49.8047 125.259 50.0977C125.259 50.5273 125.115 50.8911 124.827 51.189C124.544 51.4819 124.19 51.6284 123.765 51.6284C123.326 51.6284 122.916 51.4819 122.535 51.189C122.154 50.896 121.963 50.4932 121.963 49.9805C121.963 49.3164 122.164 48.667 122.564 48.0322C122.969 47.3975 123.56 46.8848 124.336 46.4941C125.113 46.0986 126.031 45.9009 127.09 45.9009C130.674 45.9009 132.466 47.5513 132.466 50.8521V57.5098C132.466 58.5498 132.806 59.0698 133.484 59.0698C133.963 59.0698 134.432 58.8208 134.891 58.3228ZM129.881 54.8071V52.5586C128.738 52.7686 127.747 53.0298 126.907 53.3423C126.067 53.6499 125.389 54.0625 124.871 54.5801C124.354 55.0928 124.095 55.7104 124.095 56.4331C124.095 57.1655 124.288 57.7881 124.673 58.3008C125.059 58.8135 125.596 59.0698 126.285 59.0698C126.861 59.0698 127.427 58.8989 127.984 58.5571C128.541 58.2104 128.995 57.7124 129.346 57.063C129.703 56.4136 129.881 55.6616 129.881 54.8071ZM139.373 60L139.344 58.6816H140.669C141.065 58.6816 141.338 58.6304 141.49 58.5278C141.641 58.4253 141.717 58.1665 141.717 57.7515V48.3325C141.717 47.7515 141.368 47.4609 140.669 47.4609C139.996 47.4609 139.351 47.8442 138.736 48.6108C138.125 49.3774 137.798 50.5444 137.754 52.1118H136.553V46.3184H149.488V52.1118H148.287C148.257 51.0962 148.091 50.2368 147.789 49.5337C147.491 48.8257 147.122 48.3032 146.683 47.9663C146.243 47.6294 145.809 47.4609 145.379 47.4609C144.676 47.4609 144.324 47.7515 144.324 48.3325V57.7515C144.324 58.1616 144.4 58.4204 144.551 58.5278C144.708 58.6304 144.983 58.6816 145.379 58.6816H146.697V60H139.373ZM151.583 53.1592C151.583 52.3291 151.731 51.4868 152.029 50.6323C152.327 49.7729 152.767 48.9844 153.348 48.2666C153.934 47.5488 154.656 46.9751 155.516 46.5454C156.375 46.1157 157.354 45.9009 158.453 45.9009C159.898 45.9009 161.141 46.2671 162.181 46.9995C163.226 47.7319 164.009 48.6597 164.532 49.7827C165.059 50.9058 165.323 52.0312 165.323 53.1592C165.323 54.2871 165.059 55.4126 164.532 56.5356C164.009 57.6587 163.226 58.5864 162.181 59.3188C161.141 60.0513 159.898 60.4175 158.453 60.4175C157.027 60.4175 155.792 60.0537 154.747 59.3262C153.702 58.5938 152.913 57.6636 152.381 56.5356C151.849 55.4077 151.583 54.2822 151.583 53.1592ZM154.703 53.1592C154.703 57.0996 155.953 59.0698 158.453 59.0698C159.112 59.0698 159.72 58.9038 160.276 58.5718C160.833 58.2397 161.292 57.6318 161.653 56.748C162.02 55.8643 162.203 54.668 162.203 53.1592C162.203 51.0449 161.854 49.5312 161.155 48.6182C160.457 47.7051 159.556 47.2485 158.453 47.2485C157.349 47.2485 156.448 47.7051 155.75 48.6182C155.052 49.5312 154.703 51.0449 154.703 53.1592ZM167.315 46.3184L172.237 45.9009V47.9736C173.296 46.5918 174.585 45.9009 176.104 45.9009C177.247 45.9009 178.23 46.1279 179.056 46.582C179.881 47.0361 180.545 47.6343 181.048 48.3765C181.556 49.1187 181.924 49.9292 182.154 50.8081C182.383 51.6821 182.498 52.5464 182.498 53.4009C182.498 54.2017 182.361 55.0146 182.088 55.8398C181.819 56.665 181.414 57.4268 180.872 58.125C180.335 58.8232 179.664 59.3799 178.858 59.7949C178.052 60.21 177.134 60.4175 176.104 60.4175C174.39 60.4175 173.111 59.6875 172.266 58.2275H172.024L172.237 59.4873V63.1201C172.237 63.5303 172.31 63.7866 172.457 63.8892C172.608 63.9966 172.884 64.0503 173.284 64.0503H174.969V65.3687H167.286V64.0503H168.604C169 64.0503 169.273 63.999 169.424 63.8965C169.581 63.7939 169.659 63.5352 169.659 63.1201V48.5669C169.659 48.1519 169.583 47.8931 169.432 47.7905C169.28 47.688 169.004 47.6367 168.604 47.6367H167.315V46.3184ZM172.237 53.2471C172.237 54.5459 172.405 55.6348 172.742 56.5137C173.079 57.3877 173.519 58.0322 174.061 58.4473C174.603 58.8623 175.184 59.0698 175.804 59.0698C176.678 59.0698 177.491 58.6694 178.243 57.8687C179 57.063 179.378 55.5127 179.378 53.2178C179.378 50.8447 179.014 49.2578 178.287 48.457C177.559 47.6514 176.731 47.2485 175.804 47.2485C174.905 47.2485 174.085 47.6782 173.343 48.5376C172.605 49.397 172.237 50.9668 172.237 53.2471ZM189.646 56.1914L195.762 48.7207C196.001 48.4424 196.121 48.1812 196.121 47.937C196.023 47.7368 195.774 47.6367 195.374 47.6367H193.785V46.3184H201.102V47.6367H199.783C199.383 47.6367 199.107 47.688 198.956 47.7905C198.809 47.8931 198.736 48.1519 198.736 48.5669V57.7515C198.736 58.1616 198.809 58.4204 198.956 58.5278C199.107 58.6304 199.383 58.6816 199.783 58.6816H201.102V60H193.785V58.6816H195.103C195.499 58.6816 195.772 58.6304 195.923 58.5278C196.075 58.4253 196.15 58.1665 196.15 57.7515V50.127L189.976 57.5977C189.756 57.8711 189.646 58.0908 189.646 58.2568C189.646 58.54 189.966 58.6816 190.606 58.6816H191.983V60H184.695V58.6816H186.014C186.409 58.6816 186.683 58.6304 186.834 58.5278C186.985 58.4253 187.061 58.1665 187.061 57.7515V48.5669C187.061 48.1519 186.985 47.8931 186.834 47.7905C186.688 47.688 186.414 47.6367 186.014 47.6367H184.695V46.3184H192.012V47.6367H190.694C190.293 47.6367 190.018 47.688 189.866 47.7905C189.72 47.8931 189.646 48.1519 189.646 48.5669V56.1914ZM203.292 56.1035H204.463C204.571 57.7197 204.891 58.5278 205.423 58.5278C205.726 58.5278 205.955 58.3472 206.111 57.9858C206.268 57.6196 206.399 57.1606 206.507 56.6089C206.683 55.7544 206.983 55.0171 207.408 54.397C207.837 53.7769 208.636 53.4155 209.803 53.313V53.1006C208.606 53.0664 207.532 52.7856 206.58 52.2583C205.628 51.731 205.152 50.9717 205.152 49.9805C205.152 49.0088 205.611 48.1567 206.529 47.4243C207.447 46.687 208.938 46.3184 211.004 46.3184H218.951V47.6367H217.632C217.232 47.6367 216.956 47.688 216.805 47.7905C216.658 47.8931 216.585 48.1519 216.585 48.5669V57.7515C216.585 58.1616 216.658 58.4204 216.805 58.5278C216.956 58.6304 217.232 58.6816 217.632 58.6816H218.951V60H211.634V58.6816H212.952C213.348 58.6816 213.621 58.6304 213.772 58.5278C213.929 58.4253 214.007 58.1665 214.007 57.7515V53.7305H211.905C211.045 53.7305 210.425 54.0332 210.044 54.6387C209.668 55.2441 209.358 56.1401 209.114 57.3267C208.943 58.2446 208.677 58.9893 208.316 59.5605C207.955 60.1318 207.3 60.4175 206.353 60.4175C204.38 60.4175 203.36 58.9795 203.292 56.1035ZM214.007 52.3828V48.6328C214.007 48.2178 213.892 47.9395 213.663 47.7979C213.433 47.6514 213.077 47.5781 212.593 47.5781C212.398 47.5781 212.017 47.5977 211.451 47.6367C209.332 47.7783 208.272 48.5693 208.272 50.0098C208.272 50.5762 208.506 51.1133 208.975 51.6211C209.449 52.1289 210.264 52.3828 211.421 52.3828H214.007Z" fill="#59443F"/>
<path d="M41.62 201V199.64H35.98L38.76 196.5C39.3 195.88 40.02 195.06 40.58 194.28C41.38 193.14 41.64 192.32 41.64 191.42C41.64 189.12 39.88 187.44 37.52 187.44C35.86 187.44 34.92 188.16 34.36 188.8C33.84 189.4 33.42 190.22 33.36 191.56H34.84C34.86 190.88 35.02 190.38 35.28 189.98C35.78 189.22 36.56 188.8 37.5 188.8C39.08 188.8 40.16 189.9 40.16 191.4C40.16 191.94 40.02 192.58 39.42 193.44C39.1 193.92 38.2 194.98 37.86 195.38L33 201H41.62ZM49.345 187.34L44.805 193.64C43.805 195.04 43.705 196.2 43.705 196.7C43.705 198.8 45.185 201.24 48.325 201.24C50.985 201.24 52.905 199.32 52.905 196.66C52.905 194.18 51.145 192.26 48.585 192.26C48.165 192.26 47.785 192.32 47.405 192.44L50.465 188.18L49.345 187.34ZM48.305 199.88C46.445 199.88 45.185 198.48 45.185 196.7C45.185 194.96 46.465 193.62 48.285 193.62C50.105 193.62 51.425 194.92 51.425 196.7C51.425 198.5 50.145 199.88 48.305 199.88ZM60.0002 205.6H61.6002L67.7002 192.7H66.1002L63.4002 198.64L60.4602 192.7H58.8202L62.6402 200.22L60.0002 205.6ZM75.7194 193.3C75.3194 193.02 74.4594 192.5 73.1394 192.5C70.5794 192.5 68.6994 194.36 68.6994 196.9C68.6994 199.4 70.5594 201.24 73.1394 201.24C73.9194 201.24 74.8794 201.04 75.7794 200.38V198.66C75.0194 199.58 73.9594 199.96 73.0994 199.96C71.6194 199.96 70.1794 198.9 70.1794 196.88C70.1794 194.86 71.5794 193.78 73.1194 193.78C73.8594 193.78 74.9594 194.06 75.7194 195.02V193.3ZM84.2689 192.7H78.4289V197.76C78.4289 198.26 78.4089 198.78 78.1489 199.18C77.9889 199.44 77.6489 199.72 77.1089 199.72C77.0089 199.72 76.8889 199.7 76.7889 199.68V201C76.9289 201.02 77.0889 201.04 77.2289 201.04C78.3489 201.04 78.9689 200.48 79.2289 200.16C79.8689 199.38 79.8689 198.46 79.8689 197.76V194.02H82.8289V201H84.2689V192.7ZM86.9728 205.6H88.5728L94.6728 192.7H93.0728L90.3728 198.64L87.4328 192.7H85.7928L89.6128 200.22L86.9728 205.6ZM96.192 201H97.632V194.02H101.112V192.7H96.192V201Z" fill="#59443F"/>
<defs>
<filter id="filter0_d_302_1743" x="0" y="0" width="340" height="240" filterUnits="userSpaceOnUse" color-interpolation-filters="sRGB">
<feFlood flood-opacity="0" result="BackgroundImageFix"/>
<feColorMatrix in="SourceAlpha" type="matrix" values="0 0 0 0 0 0 0 0 0 0 0 0 0 0 0 0 0 0 127 0" result="hardAlpha"/>
<feOffset dx="2" dy="2"/>
<feGaussianBlur stdDeviation="5"/>
<feColorMatrix type="matrix" values="0 0 0 0 0 0 0 0 0 0 0 0 0 0 0 0 0 0 0.1 0"/>
<feBlend mode="normal" in2="BackgroundImageFix" result="effect1_dropShadow_302_1743"/>
<feBlend mode="normal" in="SourceGraphic" in2="effect1_dropShadow_302_1743" result="shape"/>
</filter>
</defs>
</svg>
