<svg width="340" height="240" viewBox="0 0 340 240" fill="none" xmlns="http://www.w3.org/2000/svg">
<g filter="url(#filter0_d_302_1604)">
<rect x="8" y="8" width="320" height="220" rx="20" fill="white"/>
</g>
<mask id="mask0_302_1604" style="mask-type:alpha" maskUnits="userSpaceOnUse" x="8" y="8" width="320" height="220">
<rect x="8" y="8" width="320" height="220" rx="20" fill="#FFFEFE"/>
</mask>
<g mask="url(#mask0_302_1604)">
<path d="M304 116.773V97.2227C304 95.4429 302.557 94 300.777 94C288.815 94 276.578 97.456 266.056 103.77C265.977 103.733 265.899 103.697 265.817 103.667C260.441 101.672 254.783 100.66 249 100.66C243.069 100.66 237.303 101.724 231.915 103.756C221.403 97.4562 209.151 94 197.223 94C195.443 94 194 95.4429 194 97.2227V116.773C194 123.565 197.305 130.174 202.857 134.526C201.412 139.15 200.66 144.017 200.66 149C200.66 161.52 205.548 173.725 214.106 182.666C216.277 191.72 224.155 197.555 232.887 197.555C233.916 197.555 234.932 197.471 235.929 197.315C238.929 201.49 243.739 204 249 204C254.261 204 259.071 201.49 262.071 197.315C263.068 197.471 264.084 197.555 265.113 197.555C273.916 197.555 281.708 191.673 283.888 182.672C292.449 173.73 297.34 161.523 297.34 149C297.34 145.461 296.959 141.97 296.208 138.561C302.365 133.724 304 122.221 304 116.773ZM200.445 116.773V100.538C208.76 101.012 217.147 103.303 224.757 107.159C216.587 111.911 209.652 119.186 205.359 128.157C202.251 125.09 200.445 120.97 200.445 116.773ZM249 197.555C246.525 197.555 244.217 196.626 242.467 195.018C245.054 193.537 247.302 191.471 249 188.894C250.697 191.468 252.944 193.536 255.533 195.018C253.783 196.626 251.475 197.555 249 197.555ZM245.982 167.206C246.441 165.984 247.62 165.113 249 165.113C250.38 165.113 251.559 165.984 252.018 167.206L249 170.224L245.982 167.206ZM277.625 181.166C276.139 187.323 270.859 191.109 265.113 191.109C257.213 191.109 251.142 184.113 252.38 175.958L257.724 170.615C258.329 170.01 258.668 169.191 258.668 168.336C258.668 163.005 254.331 158.668 249 158.668C243.669 158.668 239.332 163.005 239.332 168.336C239.332 169.191 239.671 170.01 240.276 170.615L245.62 175.959C246.862 184.137 240.763 191.109 232.887 191.109C225.67 191.109 219.996 185.28 219.996 178.004C219.996 174.561 221.337 171.324 223.772 168.889C225.03 167.63 225.03 165.59 223.772 164.331C222.513 163.073 220.473 163.073 219.214 164.331C216.861 166.685 215.193 169.539 214.302 172.653C209.671 165.741 207.105 157.456 207.105 149C207.105 135.563 213.465 123.585 223.332 115.913L277.854 179.979C277.703 180.359 277.626 180.762 277.625 181.166ZM290.235 156.415L276.746 140.473C275.597 139.115 273.563 138.945 272.204 140.095C270.846 141.244 270.676 143.278 271.826 144.636L288.166 163.948C286.682 167.9 284.62 171.621 282.041 174.955L228.75 112.335C232.449 110.285 236.488 108.777 240.76 107.921L271.826 144.636C272.976 145.996 275.01 146.164 276.368 145.015C277.726 143.865 277.896 141.832 276.746 140.473L248.518 107.112C253.519 107.055 258.344 107.86 262.924 109.474C263.963 110.513 287.487 134.037 288.526 135.076C290.098 139.537 290.895 144.218 290.895 149C290.895 151.497 290.67 153.979 290.235 156.415ZM293.963 131.478C293.852 131.317 293.73 131.164 293.591 131.026L270.948 108.382C279.149 103.783 288.381 101.058 297.555 100.537V116.773C297.555 121.68 296.219 127.913 293.963 131.478Z" fill="#FFC59E"/>
<path d="M229.664 139.332C224.333 139.332 219.996 143.669 219.996 149C219.996 154.331 224.333 158.668 229.664 158.668C234.995 158.668 239.332 154.331 239.332 149C239.332 143.669 234.995 139.332 229.664 139.332ZM229.664 152.223C227.887 152.223 226.441 150.777 226.441 149C226.441 147.223 227.887 145.777 229.664 145.777C231.441 145.777 232.887 147.223 232.887 149C232.887 150.777 231.441 152.223 229.664 152.223Z" fill="#FFC59E"/>
</g>
<path d="M32.9302 49.7974C32.9302 48.4497 33.1621 47.1387 33.626 45.8643C34.0947 44.585 34.7563 43.4448 35.6108 42.4438C36.4653 41.438 37.4883 40.6421 38.6797 40.0562C39.876 39.4702 41.1699 39.1772 42.5615 39.1772C44.1875 39.1772 45.6157 39.5215 46.8462 40.21C48.0767 40.8984 49.0801 41.7896 49.8564 42.8833C50.6377 43.9771 51.2163 45.1343 51.5923 46.355C51.9731 47.5708 52.1636 48.7183 52.1636 49.7974C52.1636 50.8618 51.9731 52.0044 51.5923 53.2251C51.2163 54.4458 50.6353 55.6055 49.8491 56.7041C49.0679 57.7979 48.0596 58.6914 46.8242 59.3848C45.5938 60.0732 44.1729 60.4175 42.5615 60.4175C41.165 60.4175 39.8735 60.1245 38.687 59.5386C37.5005 58.9526 36.4751 58.1543 35.6108 57.1436C34.7515 56.1279 34.0898 54.9854 33.626 53.7158C33.1621 52.4414 32.9302 51.1353 32.9302 49.7974ZM36.7095 49.7974C36.7095 51.9604 36.9951 53.7329 37.5664 55.1147C38.1377 56.4917 38.8677 57.4854 39.7563 58.0957C40.645 58.7061 41.5801 59.0112 42.5615 59.0112C43.5576 59.0112 44.4951 58.7085 45.374 58.103C46.2578 57.4927 46.978 56.4966 47.5347 55.1147C48.0962 53.7329 48.377 51.9604 48.377 49.7974C48.377 47.6685 48.0938 45.9131 47.5273 44.5312C46.9658 43.1494 46.2407 42.1484 45.3521 41.5283C44.4683 40.9033 43.5381 40.5908 42.5615 40.5908C41.4385 40.5908 40.4326 40.957 39.5439 41.6895C38.6553 42.4219 37.9595 43.4839 37.4565 44.8755C36.9585 46.2622 36.7095 47.9028 36.7095 49.7974ZM60.2056 65.3687V64.0503H61.5239C61.9194 64.0503 62.1929 63.999 62.3442 63.8965C62.4956 63.7939 62.5713 63.5352 62.5713 63.1201V57.7222L62.4541 57.7515C62.2441 58.4351 61.8682 59.0503 61.3262 59.5972C60.7891 60.144 60.064 60.4175 59.1509 60.4175C58.5796 60.4175 57.9937 60.2686 57.3931 59.9707C56.7974 59.668 56.2432 59.2114 55.7305 58.6011C55.2227 57.9907 54.8101 57.2144 54.4927 56.272C54.1802 55.3247 54.0239 54.2383 54.0239 53.0127C54.0239 51.6113 54.251 50.3711 54.7051 49.292C55.1641 48.2129 55.7769 47.3779 56.5435 46.7871C57.3101 46.1963 58.1401 45.9009 59.0337 45.9009C60.0396 45.9009 60.8062 46.1694 61.3335 46.7065C61.8657 47.2388 62.2393 47.8101 62.4541 48.4204H62.5713V43.3228C62.5713 42.7026 62.332 42.3926 61.8535 42.3926H59.7222V41.0669L65.1567 40.6494V48.4204H65.2739C65.5132 47.6587 65.9282 47.0483 66.519 46.5894C67.1099 46.1304 67.835 45.9009 68.6943 45.9009C69.5684 45.9009 70.3887 46.1963 71.1553 46.7871C71.9268 47.3779 72.5444 48.2153 73.0083 49.2993C73.4722 50.3784 73.7041 51.6162 73.7041 53.0127C73.7041 54.2578 73.5479 55.3516 73.2354 56.2939C72.9229 57.2314 72.5078 58.0054 71.9902 58.6157C71.4727 59.2261 70.916 59.6802 70.3203 59.978C69.7246 60.271 69.1436 60.4175 68.5771 60.4175C67.6641 60.4175 66.9414 60.1465 66.4092 59.6045C65.877 59.0576 65.4985 58.4399 65.2739 57.7515L65.1567 57.7222V63.1201C65.1567 63.5303 65.23 63.7866 65.3765 63.8892C65.5278 63.9966 65.8037 64.0503 66.2041 64.0503H67.5225V65.3687H60.2056ZM57.144 52.9468C57.144 57.0288 58.084 59.0698 59.9639 59.0698C60.7256 59.0698 61.2944 58.7915 61.6704 58.2349C62.0513 57.6733 62.2954 56.958 62.4028 56.0889C62.5151 55.2197 62.5713 54.1626 62.5713 52.9175C62.5713 51.0767 62.3882 49.6826 62.022 48.7354C61.6558 47.7832 60.8989 47.3071 59.7515 47.3071C59.3706 47.3071 58.9824 47.4634 58.5869 47.7759C58.1963 48.0835 57.8569 48.6572 57.5688 49.4971C57.2856 50.3369 57.144 51.4868 57.144 52.9468ZM70.584 52.9468C70.584 51.4868 70.4399 50.3369 70.1519 49.4971C69.8687 48.6572 69.5244 48.0835 69.1191 47.7759C68.7188 47.4634 68.3159 47.3071 67.9106 47.3071C67.0317 47.3071 66.3945 47.5806 65.999 48.1274C65.6035 48.6743 65.3667 49.3018 65.2886 50.0098C65.2104 50.7178 65.1665 51.6968 65.1567 52.9468V53.9136C65.1567 55.3735 65.3203 56.5991 65.6475 57.5903C65.9746 58.5767 66.6606 59.0698 67.7056 59.0698C68.7993 59.0698 69.5513 58.5083 69.9614 57.3853C70.3765 56.2573 70.584 54.7778 70.584 52.9468ZM78.5234 60L78.4941 58.6816H79.8198C80.2153 58.6816 80.4888 58.6304 80.6401 58.5278C80.7915 58.4253 80.8672 58.1665 80.8672 57.7515V48.3325C80.8672 47.7515 80.5181 47.4609 79.8198 47.4609C79.146 47.4609 78.5015 47.8442 77.8862 48.6108C77.2759 49.3774 76.9487 50.5444 76.9048 52.1118H75.7036V46.3184H88.6382V52.1118H87.437C87.4077 51.0962 87.2417 50.2368 86.939 49.5337C86.6411 48.8257 86.2725 48.3032 85.833 47.9663C85.3936 47.6294 84.959 47.4609 84.5293 47.4609C83.8262 47.4609 83.4746 47.7515 83.4746 48.3325V57.7515C83.4746 58.1616 83.5503 58.4204 83.7017 58.5278C83.8579 58.6304 84.1338 58.6816 84.5293 58.6816H85.8477V60H78.5234ZM104.803 58.3228L105.374 58.9526C104.72 59.5386 104.2 59.9292 103.814 60.1245C103.428 60.3198 102.95 60.4175 102.378 60.4175C101.563 60.4175 100.979 60.1758 100.628 59.6924C100.276 59.2041 100.069 58.667 100.005 58.0811H99.8223C98.7578 59.6387 97.1489 60.4175 94.9956 60.4175C93.438 60.4175 92.3638 60.0562 91.7729 59.3335C91.1821 58.6108 90.8867 57.8027 90.8867 56.9092C90.8867 56.167 91.1138 55.4932 91.5679 54.8877C92.0269 54.2773 92.6567 53.7451 93.4575 53.291C94.2583 52.8369 95.1958 52.4463 96.27 52.1191C97.3491 51.7871 98.5234 51.5137 99.793 51.2988V50.127C99.793 49.1113 99.4878 48.374 98.8774 47.915C98.2671 47.4512 97.5029 47.2192 96.585 47.2192C96.165 47.2192 95.7524 47.2754 95.3472 47.3877C94.9468 47.5 94.6221 47.6538 94.373 47.8491C94.1289 48.0396 94.0068 48.2397 94.0068 48.4497C94.0068 48.6157 94.1069 48.7549 94.3071 48.8672C94.5757 49.043 94.7856 49.2188 94.937 49.3945C95.0933 49.5703 95.1714 49.8047 95.1714 50.0977C95.1714 50.5273 95.0273 50.8911 94.7393 51.189C94.4561 51.4819 94.1021 51.6284 93.6772 51.6284C93.2378 51.6284 92.8276 51.4819 92.4468 51.189C92.0659 50.896 91.8755 50.4932 91.8755 49.9805C91.8755 49.3164 92.0757 48.667 92.4761 48.0322C92.8813 47.3975 93.4722 46.8848 94.2485 46.4941C95.0249 46.0986 95.9429 45.9009 97.0024 45.9009C100.586 45.9009 102.378 47.5513 102.378 50.8521V57.5098C102.378 58.5498 102.718 59.0698 103.396 59.0698C103.875 59.0698 104.344 58.8208 104.803 58.3228ZM99.793 54.8071V52.5586C98.6504 52.7686 97.6592 53.0298 96.8193 53.3423C95.9795 53.6499 95.3008 54.0625 94.7832 54.5801C94.2656 55.0928 94.0068 55.7104 94.0068 56.4331C94.0068 57.1655 94.1997 57.7881 94.5854 58.3008C94.9712 58.8135 95.5083 59.0698 96.1968 59.0698C96.7729 59.0698 97.3394 58.8989 97.896 58.5571C98.4526 58.2104 98.9067 57.7124 99.2583 57.063C99.6147 56.4136 99.793 55.6616 99.793 54.8071ZM109.351 47.6367V46.3184H121.978V47.6367H120.66C120.259 47.6367 119.983 47.688 119.832 47.7905C119.686 47.8931 119.612 48.1519 119.612 48.5669V57.7515C119.612 58.1616 119.686 58.4204 119.832 58.5278C119.983 58.6304 120.259 58.6816 120.66 58.6816H121.978V60H114.661V58.6816H115.979C116.375 58.6816 116.648 58.6304 116.8 58.5278C116.951 58.4253 117.027 58.1665 117.027 57.7515V48.208C117.027 47.8271 116.639 47.6367 115.862 47.6367H114.72C114.1 47.6367 113.714 47.7759 113.562 48.0542C113.416 48.3325 113.321 48.7549 113.277 49.3213C113.213 50.3027 113.104 51.5234 112.947 52.9834C112.796 54.3652 112.598 55.5615 112.354 56.5723C112.115 57.583 111.666 58.4766 111.006 59.2529C110.352 60.0293 109.439 60.4175 108.267 60.4175C107.745 60.4175 107.234 60.249 106.736 59.9121C106.238 59.5703 105.989 59.0186 105.989 58.2568C105.989 57.6953 106.146 57.2607 106.458 56.9531C106.775 56.6455 107.149 56.4917 107.579 56.4917C107.994 56.4917 108.326 56.6211 108.575 56.8799C108.829 57.1387 108.956 57.4487 108.956 57.8101C108.956 57.8735 108.936 57.9834 108.897 58.1396C108.877 58.1982 108.868 58.2886 108.868 58.4106C108.868 58.689 109.019 58.8281 109.322 58.8281C110.015 58.8281 110.574 58.0493 110.999 56.4917C111.443 54.8511 111.714 52.7197 111.812 50.0977V49.3799C111.783 48.667 111.631 48.1982 111.358 47.9736C111.084 47.749 110.604 47.6367 109.915 47.6367H109.351ZM131.631 46.3184V47.6367H130.284C129.942 47.6367 129.686 47.688 129.515 47.7905C129.349 47.8931 129.266 48.1519 129.266 48.5669V52.1411H132.203C134.483 52.1411 136.019 52.5708 136.81 53.4302C137.601 54.2896 137.996 55.21 137.996 56.1914C137.996 56.6211 137.869 57.1191 137.615 57.6855C137.361 58.252 136.797 58.7793 135.923 59.2676C135.054 59.7559 133.794 60 132.144 60H124.314V58.6816H125.633C126.028 58.6816 126.302 58.6304 126.453 58.5278C126.604 58.4253 126.68 58.1665 126.68 57.7515V48.5669C126.68 48.1519 126.604 47.8931 126.453 47.7905C126.307 47.688 126.033 47.6367 125.633 47.6367H124.314V46.3184H131.631ZM129.266 53.4888V57.6929C129.266 58.3521 129.625 58.6816 130.342 58.6816H131.844C132.684 58.6816 133.399 58.4839 133.99 58.0884C134.581 57.6929 134.876 57.041 134.876 56.1328C134.876 55.3857 134.661 54.7583 134.231 54.2505C133.807 53.7427 132.911 53.4888 131.543 53.4888H129.266ZM146.075 46.3184L149.708 55.3491H149.795L152.769 46.3184H159.156V47.6367H157.837C157.437 47.6367 157.161 47.6904 157.01 47.7979C156.858 47.9004 156.783 48.1567 156.783 48.5669V57.7515C156.783 58.1616 156.858 58.4204 157.01 58.5278C157.161 58.6304 157.437 58.6816 157.837 58.6816H159.156V60H151.839V58.6816H153.157C153.553 58.6816 153.826 58.6304 153.978 58.5278C154.129 58.4253 154.205 58.1665 154.205 57.7515V47.6367H153.963L149.854 60H148.982L143.943 47.6367H143.709V57.3633C143.709 57.8857 143.851 58.2373 144.134 58.418C144.417 58.5938 144.905 58.6816 145.599 58.6816H146.075V60H140.018V58.6816H140.406C141.724 58.6816 142.383 58.23 142.383 57.3267V48.5669C142.383 48.1519 142.308 47.8931 142.156 47.7905C142.01 47.688 141.736 47.6367 141.336 47.6367H140.018V46.3184H146.075ZM161.338 53.1592C161.338 52.3291 161.487 51.4868 161.785 50.6323C162.083 49.7729 162.522 48.9844 163.104 48.2666C163.689 47.5488 164.412 46.9751 165.271 46.5454C166.131 46.1157 167.11 45.9009 168.208 45.9009C169.654 45.9009 170.896 46.2671 171.937 46.9995C172.981 47.7319 173.765 48.6597 174.288 49.7827C174.815 50.9058 175.079 52.0312 175.079 53.1592C175.079 54.2871 174.815 55.4126 174.288 56.5356C173.765 57.6587 172.981 58.5864 171.937 59.3188C170.896 60.0513 169.654 60.4175 168.208 60.4175C166.783 60.4175 165.547 60.0537 164.502 59.3262C163.458 58.5938 162.669 57.6636 162.137 56.5356C161.604 55.4077 161.338 54.2822 161.338 53.1592ZM164.458 53.1592C164.458 57.0996 165.708 59.0698 168.208 59.0698C168.868 59.0698 169.476 58.9038 170.032 58.5718C170.589 58.2397 171.048 57.6318 171.409 56.748C171.775 55.8643 171.958 54.668 171.958 53.1592C171.958 51.0449 171.609 49.5312 170.911 48.6182C170.213 47.7051 169.312 47.2485 168.208 47.2485C167.105 47.2485 166.204 47.7051 165.506 48.6182C164.808 49.5312 164.458 51.0449 164.458 53.1592ZM180.074 47.6367V46.3184H192.701V47.6367H191.382C190.982 47.6367 190.706 47.688 190.555 47.7905C190.408 47.8931 190.335 48.1519 190.335 48.5669V57.7515C190.335 58.1616 190.408 58.4204 190.555 58.5278C190.706 58.6304 190.982 58.6816 191.382 58.6816H192.701V60H185.384V58.6816H186.702C187.098 58.6816 187.371 58.6304 187.522 58.5278C187.674 58.4253 187.75 58.1665 187.75 57.7515V48.208C187.75 47.8271 187.361 47.6367 186.585 47.6367H185.442C184.822 47.6367 184.437 47.7759 184.285 48.0542C184.139 48.3325 184.043 48.7549 184 49.3213C183.936 50.3027 183.826 51.5234 183.67 52.9834C183.519 54.3652 183.321 55.5615 183.077 56.5723C182.837 57.583 182.388 58.4766 181.729 59.2529C181.075 60.0293 180.162 60.4175 178.99 60.4175C178.467 60.4175 177.957 60.249 177.459 59.9121C176.961 59.5703 176.712 59.0186 176.712 58.2568C176.712 57.6953 176.868 57.2607 177.181 56.9531C177.498 56.6455 177.872 56.4917 178.301 56.4917C178.716 56.4917 179.048 56.6211 179.297 56.8799C179.551 57.1387 179.678 57.4487 179.678 57.8101C179.678 57.8735 179.659 57.9834 179.62 58.1396C179.6 58.1982 179.59 58.2886 179.59 58.4106C179.59 58.689 179.742 58.8281 180.044 58.8281C180.738 58.8281 181.297 58.0493 181.722 56.4917C182.166 54.8511 182.437 52.7197 182.535 50.0977V49.3799C182.505 48.667 182.354 48.1982 182.081 47.9736C181.807 47.749 181.326 47.6367 180.638 47.6367H180.074ZM194.883 53.1592C194.883 52.3291 195.032 51.4868 195.33 50.6323C195.628 49.7729 196.067 48.9844 196.648 48.2666C197.234 47.5488 197.957 46.9751 198.816 46.5454C199.676 46.1157 200.655 45.9009 201.753 45.9009C203.199 45.9009 204.441 46.2671 205.481 46.9995C206.526 47.7319 207.31 48.6597 207.833 49.7827C208.36 50.9058 208.624 52.0312 208.624 53.1592C208.624 54.2871 208.36 55.4126 207.833 56.5356C207.31 57.6587 206.526 58.5864 205.481 59.3188C204.441 60.0513 203.199 60.4175 201.753 60.4175C200.328 60.4175 199.092 60.0537 198.047 59.3262C197.002 58.5938 196.214 57.6636 195.682 56.5356C195.149 55.4077 194.883 54.2822 194.883 53.1592ZM198.003 53.1592C198.003 57.0996 199.253 59.0698 201.753 59.0698C202.413 59.0698 203.021 58.9038 203.577 58.5718C204.134 58.2397 204.593 57.6318 204.954 56.748C205.32 55.8643 205.503 54.668 205.503 53.1592C205.503 51.0449 205.154 49.5312 204.456 48.6182C203.758 47.7051 202.857 47.2485 201.753 47.2485C200.65 47.2485 199.749 47.7051 199.051 48.6182C198.353 49.5312 198.003 51.0449 198.003 53.1592ZM222.95 52.229H221.778C221.622 50.8569 221.402 49.8462 221.119 49.1968C220.845 48.5571 220.479 48.1372 220.02 47.937C219.566 47.7368 218.992 47.6367 218.299 47.6367H216.827C216.368 47.6367 216.077 47.749 215.955 47.9736C215.838 48.1982 215.779 48.5059 215.779 48.8965V57.7515C215.779 58.1616 215.853 58.4204 215.999 58.5278C216.15 58.6304 216.426 58.6816 216.827 58.6816H218.145V60H210.828V58.6816H212.146C212.542 58.6816 212.815 58.6304 212.967 58.5278C213.118 58.4253 213.194 58.1665 213.194 57.7515V48.5669C213.194 48.1519 213.118 47.8931 212.967 47.7905C212.82 47.688 212.547 47.6367 212.146 47.6367H210.828V46.3184H222.95V52.229ZM229.9 56.1914L236.016 48.7207C236.255 48.4424 236.375 48.1812 236.375 47.937C236.277 47.7368 236.028 47.6367 235.628 47.6367H234.039V46.3184H241.355V47.6367H240.037C239.637 47.6367 239.361 47.688 239.209 47.7905C239.063 47.8931 238.99 48.1519 238.99 48.5669V57.7515C238.99 58.1616 239.063 58.4204 239.209 58.5278C239.361 58.6304 239.637 58.6816 240.037 58.6816H241.355V60H234.039V58.6816H235.357C235.752 58.6816 236.026 58.6304 236.177 58.5278C236.329 58.4253 236.404 58.1665 236.404 57.7515V50.127L230.23 57.5977C230.01 57.8711 229.9 58.0908 229.9 58.2568C229.9 58.54 230.22 58.6816 230.86 58.6816H232.237V60H224.949V58.6816H226.268C226.663 58.6816 226.937 58.6304 227.088 58.5278C227.239 58.4253 227.315 58.1665 227.315 57.7515V48.5669C227.315 48.1519 227.239 47.8931 227.088 47.7905C226.941 47.688 226.668 47.6367 226.268 47.6367H224.949V46.3184H232.266V47.6367H230.948C230.547 47.6367 230.271 47.688 230.12 47.7905C229.974 47.8931 229.9 48.1519 229.9 48.5669V56.1914ZM243.545 56.1035H244.717C244.825 57.7197 245.145 58.5278 245.677 58.5278C245.979 58.5278 246.209 58.3472 246.365 57.9858C246.521 57.6196 246.653 57.1606 246.761 56.6089C246.937 55.7544 247.237 55.0171 247.662 54.397C248.091 53.7769 248.89 53.4155 250.057 53.313V53.1006C248.86 53.0664 247.786 52.7856 246.834 52.2583C245.882 51.731 245.406 50.9717 245.406 49.9805C245.406 49.0088 245.865 48.1567 246.783 47.4243C247.701 46.687 249.192 46.3184 251.258 46.3184H259.205V47.6367H257.886C257.486 47.6367 257.21 47.688 257.059 47.7905C256.912 47.8931 256.839 48.1519 256.839 48.5669V57.7515C256.839 58.1616 256.912 58.4204 257.059 58.5278C257.21 58.6304 257.486 58.6816 257.886 58.6816H259.205V60H251.888V58.6816H253.206C253.602 58.6816 253.875 58.6304 254.026 58.5278C254.183 58.4253 254.261 58.1665 254.261 57.7515V53.7305H252.159C251.299 53.7305 250.679 54.0332 250.298 54.6387C249.922 55.2441 249.612 56.1401 249.368 57.3267C249.197 58.2446 248.931 58.9893 248.57 59.5605C248.208 60.1318 247.554 60.4175 246.607 60.4175C244.634 60.4175 243.614 58.9795 243.545 56.1035ZM254.261 52.3828V48.6328C254.261 48.2178 254.146 47.9395 253.917 47.7979C253.687 47.6514 253.331 47.5781 252.847 47.5781C252.652 47.5781 252.271 47.5977 251.705 47.6367C249.585 47.7783 248.526 48.5693 248.526 50.0098C248.526 50.5762 248.76 51.1133 249.229 51.6211C249.703 52.1289 250.518 52.3828 251.675 52.3828H254.261Z" fill="#59443F"/>
<path d="M41.62 201V199.64H35.98L38.76 196.5C39.3 195.88 40.02 195.06 40.58 194.28C41.38 193.14 41.64 192.32 41.64 191.42C41.64 189.12 39.88 187.44 37.52 187.44C35.86 187.44 34.92 188.16 34.36 188.8C33.84 189.4 33.42 190.22 33.36 191.56H34.84C34.86 190.88 35.02 190.38 35.28 189.98C35.78 189.22 36.56 188.8 37.5 188.8C39.08 188.8 40.16 189.9 40.16 191.4C40.16 191.94 40.02 192.58 39.42 193.44C39.1 193.92 38.2 194.98 37.86 195.38L33 201H41.62ZM49.345 187.34L44.805 193.64C43.805 195.04 43.705 196.2 43.705 196.7C43.705 198.8 45.185 201.24 48.325 201.24C50.985 201.24 52.905 199.32 52.905 196.66C52.905 194.18 51.145 192.26 48.585 192.26C48.165 192.26 47.785 192.32 47.405 192.44L50.465 188.18L49.345 187.34ZM48.305 199.88C46.445 199.88 45.185 198.48 45.185 196.7C45.185 194.96 46.465 193.62 48.285 193.62C50.105 193.62 51.425 194.92 51.425 196.7C51.425 198.5 50.145 199.88 48.305 199.88ZM60.0002 205.6H61.6002L67.7002 192.7H66.1002L63.4002 198.64L60.4602 192.7H58.8202L62.6402 200.22L60.0002 205.6ZM75.7194 193.3C75.3194 193.02 74.4594 192.5 73.1394 192.5C70.5794 192.5 68.6994 194.36 68.6994 196.9C68.6994 199.4 70.5594 201.24 73.1394 201.24C73.9194 201.24 74.8794 201.04 75.7794 200.38V198.66C75.0194 199.58 73.9594 199.96 73.0994 199.96C71.6194 199.96 70.1794 198.9 70.1794 196.88C70.1794 194.86 71.5794 193.78 73.1194 193.78C73.8594 193.78 74.9594 194.06 75.7194 195.02V193.3ZM84.2689 192.7H78.4289V197.76C78.4289 198.26 78.4089 198.78 78.1489 199.18C77.9889 199.44 77.6489 199.72 77.1089 199.72C77.0089 199.72 76.8889 199.7 76.7889 199.68V201C76.9289 201.02 77.0889 201.04 77.2289 201.04C78.3489 201.04 78.9689 200.48 79.2289 200.16C79.8689 199.38 79.8689 198.46 79.8689 197.76V194.02H82.8289V201H84.2689V192.7ZM86.9728 205.6H88.5728L94.6728 192.7H93.0728L90.3728 198.64L87.4328 192.7H85.7928L89.6128 200.22L86.9728 205.6ZM96.192 201H97.632V194.02H101.112V192.7H96.192V201Z" fill="#59443F"/>
<defs>
<filter id="filter0_d_302_1604" x="0" y="0" width="340" height="240" filterUnits="userSpaceOnUse" color-interpolation-filters="sRGB">
<feFlood flood-opacity="0" result="BackgroundImageFix"/>
<feColorMatrix in="SourceAlpha" type="matrix" values="0 0 0 0 0 0 0 0 0 0 0 0 0 0 0 0 0 0 127 0" result="hardAlpha"/>
<feOffset dx="2" dy="2"/>
<feGaussianBlur stdDeviation="5"/>
<feColorMatrix type="matrix" values="0 0 0 0 0 0 0 0 0 0 0 0 0 0 0 0 0 0 0.1 0"/>
<feBlend mode="normal" in2="BackgroundImageFix" result="effect1_dropShadow_302_1604"/>
<feBlend mode="normal" in="SourceGraphic" in2="effect1_dropShadow_302_1604" result="shape"/>
</filter>
</defs>
</svg>
