<svg width="340" height="240" viewBox="0 0 340 240" fill="none" xmlns="http://www.w3.org/2000/svg">
<g filter="url(#filter0_d_302_1704)">
<rect x="8" y="8" width="320" height="220" rx="20" fill="white"/>
</g>
<mask id="mask0_302_1704" style="mask-type:alpha" maskUnits="userSpaceOnUse" x="8" y="8" width="320" height="220">
<rect x="8" y="8" width="320" height="220" rx="20" fill="white"/>
</mask>
<g mask="url(#mask0_302_1704)">
<path d="M278.489 123.333C280.514 123.333 282.156 121.692 282.156 119.667C282.156 117.642 280.514 116 278.489 116C276.464 116 274.822 117.642 274.822 119.667C274.822 121.692 276.464 123.333 278.489 123.333Z" fill="#FFC59E"/>
<path d="M271.156 138C273.181 138 274.823 136.359 274.823 134.334C274.823 132.309 273.181 130.667 271.156 130.667C269.131 130.667 267.489 132.309 267.489 134.334C267.489 136.359 269.131 138 271.156 138Z" fill="#FFC59E"/>
<path d="M285.822 138C287.847 138 289.489 136.359 289.489 134.334C289.489 132.309 287.847 130.667 285.822 130.667C283.797 130.667 282.155 132.309 282.155 134.334C282.155 136.359 283.797 138 285.822 138Z" fill="#FFC59E"/>
<path d="M271.155 101.333H265.407C262.804 96.9478 258.023 94 252.564 94H230.591C225.132 94 220.351 96.9478 217.749 101.333H212C193.804 101.333 179 116.137 179 134.333V163.667C179 166.604 180.144 169.366 182.223 171.444C183.505 172.727 185.05 173.653 186.735 174.174C187.938 184.46 191.825 194.211 198.067 202.533C199.871 204.94 203.649 204.265 204.512 201.387L211.359 178.564C213.364 180.678 216.197 182 219.333 182C222.179 182 224.775 180.914 226.73 179.134C228.818 180.984 231.469 182 234.244 182C237.09 182 239.686 180.914 241.641 179.134C243.73 180.984 246.38 182 249.155 182C251.971 182 254.541 180.936 256.489 179.19C258.437 180.936 261.007 182 263.822 182C266.958 182 269.792 180.681 271.798 178.568L278.643 201.387C279.508 204.269 283.286 204.937 285.089 202.533C291.33 194.211 295.217 184.46 296.421 174.174C298.106 173.653 299.65 172.727 300.933 171.444C303.011 169.366 304.155 166.604 304.155 163.667V134.333C304.155 116.137 289.352 101.333 271.155 101.333ZM230.591 101.333H252.564C256.75 101.333 260.155 104.739 260.155 108.925C260.155 110.428 259.714 111.884 258.88 113.136L249.447 127.286C248.078 129.34 245.502 130.667 242.886 130.667H240.269C237.709 130.667 235.098 129.371 233.709 127.286L224.275 113.136C223.441 111.885 223 110.428 223 108.925C223 104.739 226.406 101.333 230.591 101.333ZM186.333 134.333C186.333 120.181 197.847 108.667 212 108.667H215.673C215.672 108.753 215.667 108.838 215.667 108.925C215.667 111.881 216.533 114.744 218.173 117.203L227.607 131.354C228.423 132.577 229.428 133.661 230.571 134.582C230.43 140.435 225.343 145.333 219.333 145.333H207.703C199.904 145.333 192.486 147.793 186.333 152.345V134.333ZM199.781 191.637C196.816 186.127 194.889 180.121 194.089 173.882C195.453 173.336 196.707 172.515 197.777 171.444C200.24 168.982 203.595 167.51 207.067 167.349L199.781 191.637ZM223 171C223 173.022 221.355 174.667 219.333 174.667C217.311 174.667 215.667 173.022 215.667 171V167.333H219.333C220.565 167.333 221.788 167.263 223 167.128V171ZM237.911 171C237.911 173.022 236.266 174.667 234.244 174.667C232.161 174.667 230.333 172.953 230.333 171V165.447C233.007 164.504 235.554 163.221 237.911 161.625C237.911 164.691 237.911 166.871 237.911 171ZM252.822 171C252.822 173.022 251.177 174.667 249.155 174.667C247.072 174.667 245.244 172.953 245.244 171C245.244 166.9 245.244 164.686 245.244 161.625C247.601 163.22 250.149 164.504 252.822 165.447V171ZM267.489 171C267.489 173.022 265.844 174.667 263.822 174.667C261.8 174.667 260.155 173.022 260.155 171V167.128C261.367 167.263 262.591 167.333 263.822 167.333H267.489V171ZM283.374 191.637L276.088 167.349C279.56 167.51 282.915 168.982 285.378 171.444C286.449 172.515 287.702 173.336 289.067 173.882C288.267 180.121 286.339 186.127 283.374 191.637ZM295.747 166.259C294.308 167.698 291.986 167.681 290.563 166.259C286.586 162.281 281.078 160 275.452 160H263.822C256.372 160 249.271 156.762 244.339 151.117C243.643 150.32 242.636 149.862 241.578 149.862C240.519 149.862 239.513 150.32 238.816 151.117C233.885 156.762 226.783 160 219.333 160H211.989C211.974 160 211.959 160 211.944 160H207.703C202.077 160 196.57 162.281 192.592 166.259C191.174 167.677 188.851 167.702 187.408 166.259C185.979 164.829 185.979 162.504 187.409 161.074C192.827 155.652 200.034 152.667 207.703 152.667H219.333C224.224 152.667 228.859 150.768 232.385 147.322C235.102 144.666 236.885 141.353 237.58 137.76C238.463 137.917 239.362 138 240.269 138H242.886C243.873 138 244.851 137.903 245.807 137.717C247.4 146.214 254.87 152.667 263.822 152.667H275.452C283.121 152.667 290.329 155.652 295.747 161.074C297.177 162.504 297.177 164.829 295.747 166.259ZM296.822 152.345C290.669 147.793 283.251 145.333 275.452 145.333H263.822C257.775 145.333 252.852 140.427 252.823 134.386C253.868 133.509 254.79 132.492 255.548 131.354L264.982 117.203C266.622 114.744 267.489 111.881 267.489 108.925C267.489 108.838 267.484 108.753 267.482 108.666H271.155C285.308 108.666 296.822 120.18 296.822 134.333V152.345Z" fill="#FFC59E"/>
<path d="M204.667 123.333C206.692 123.333 208.333 121.692 208.333 119.667C208.333 117.642 206.692 116 204.667 116C202.642 116 201 117.642 201 119.667C201 121.692 202.642 123.333 204.667 123.333Z" fill="#FFC59E"/>
<path d="M197.334 138C199.359 138 201 136.359 201 134.334C201 132.309 199.359 130.667 197.334 130.667C195.309 130.667 193.667 132.309 193.667 134.334C193.667 136.359 195.309 138 197.334 138Z" fill="#FFC59E"/>
<path d="M212.001 138C214.026 138 215.667 136.359 215.667 134.334C215.667 132.309 214.026 130.667 212.001 130.667C209.976 130.667 208.334 132.309 208.334 134.334C208.334 136.359 209.976 138 212.001 138Z" fill="#FFC59E"/>
</g>
<path d="M49.1606 52.9834L50.6621 53.0127C49.8369 57.9492 47.2051 60.4175 42.7666 60.4175C40.5254 60.4175 38.6772 59.8633 37.2222 58.7549C35.772 57.6416 34.7173 56.2427 34.0581 54.5581C33.4038 52.8687 33.0767 51.1426 33.0767 49.3799C33.0767 47.4561 33.4819 45.7129 34.2925 44.1504C35.103 42.5879 36.2261 41.3696 37.6616 40.4956C39.0972 39.6167 40.7109 39.1772 42.5029 39.1772C44.5488 39.1772 46.2676 39.7192 47.6592 40.8032L48.4136 39.6021H49.7905L50.2373 46.9189H48.8018C48.377 44.8877 47.6885 43.3252 46.7363 42.2314C45.7891 41.1377 44.4268 40.5908 42.6494 40.5908C41.7998 40.5908 40.9453 40.8057 40.0859 41.2354C39.2266 41.6602 38.4746 42.522 37.8301 43.8208C37.1855 45.1196 36.8633 46.9434 36.8633 49.292C36.8633 52.1387 37.3711 54.4702 38.3867 56.2866C39.4023 58.103 40.9526 59.0112 43.0376 59.0112C45.0054 59.0112 46.4629 58.3643 47.4102 57.0703C48.3574 55.7764 48.9409 54.4141 49.1606 52.9834ZM55.6426 60L55.6133 58.6816H56.939C57.3345 58.6816 57.6079 58.6304 57.7593 58.5278C57.9106 58.4253 57.9863 58.1665 57.9863 57.7515V48.3325C57.9863 47.7515 57.6372 47.4609 56.939 47.4609C56.2651 47.4609 55.6206 47.8442 55.0054 48.6108C54.395 49.3774 54.0679 50.5444 54.0239 52.1118H52.8228V46.3184H65.7573V52.1118H64.5562C64.5269 51.0962 64.3608 50.2368 64.0581 49.5337C63.7603 48.8257 63.3916 48.3032 62.9521 47.9663C62.5127 47.6294 62.0781 47.4609 61.6484 47.4609C60.9453 47.4609 60.5938 47.7515 60.5938 48.3325V57.7515C60.5938 58.1616 60.6694 58.4204 60.8208 58.5278C60.9771 58.6304 61.2529 58.6816 61.6484 58.6816H62.9668V60H55.6426ZM67.8521 53.1592C67.8521 52.3291 68.001 51.4868 68.2988 50.6323C68.5967 49.7729 69.0361 48.9844 69.6172 48.2666C70.2031 47.5488 70.9258 46.9751 71.7852 46.5454C72.6445 46.1157 73.6235 45.9009 74.7222 45.9009C76.1675 45.9009 77.4102 46.2671 78.4502 46.9995C79.4951 47.7319 80.2788 48.6597 80.8013 49.7827C81.3286 50.9058 81.5923 52.0312 81.5923 53.1592C81.5923 54.2871 81.3286 55.4126 80.8013 56.5356C80.2788 57.6587 79.4951 58.5864 78.4502 59.3188C77.4102 60.0513 76.1675 60.4175 74.7222 60.4175C73.2964 60.4175 72.061 60.0537 71.0161 59.3262C69.9712 58.5938 69.1826 57.6636 68.6504 56.5356C68.1182 55.4077 67.8521 54.2822 67.8521 53.1592ZM70.9722 53.1592C70.9722 57.0996 72.2222 59.0698 74.7222 59.0698C75.3813 59.0698 75.9893 58.9038 76.5459 58.5718C77.1025 58.2397 77.5615 57.6318 77.9229 56.748C78.2891 55.8643 78.4722 54.668 78.4722 53.1592C78.4722 51.0449 78.123 49.5312 77.4248 48.6182C76.7266 47.7051 75.8257 47.2485 74.7222 47.2485C73.6187 47.2485 72.7178 47.7051 72.0195 48.6182C71.3213 49.5312 70.9722 51.0449 70.9722 53.1592ZM89.854 46.3184L93.4868 55.3491H93.5747L96.5483 46.3184H102.935V47.6367H101.617C101.216 47.6367 100.94 47.6904 100.789 47.7979C100.638 47.9004 100.562 48.1567 100.562 48.5669V57.7515C100.562 58.1616 100.638 58.4204 100.789 58.5278C100.94 58.6304 101.216 58.6816 101.617 58.6816H102.935V60H95.6182V58.6816H96.9365C97.332 58.6816 97.6055 58.6304 97.7568 58.5278C97.9082 58.4253 97.9839 58.1665 97.9839 57.7515V47.6367H97.7422L93.6333 60H92.7617L87.7227 47.6367H87.4883V57.3633C87.4883 57.8857 87.6299 58.2373 87.9131 58.418C88.1963 58.5938 88.6846 58.6816 89.3779 58.6816H89.854V60H83.7969V58.6816H84.1851C85.5034 58.6816 86.1626 58.23 86.1626 57.3267V48.5669C86.1626 48.1519 86.0869 47.8931 85.9355 47.7905C85.7891 47.688 85.5156 47.6367 85.1152 47.6367H83.7969V46.3184H89.854ZM119.188 58.3228L119.759 58.9526C119.104 59.5386 118.584 59.9292 118.199 60.1245C117.813 60.3198 117.334 60.4175 116.763 60.4175C115.948 60.4175 115.364 60.1758 115.013 59.6924C114.661 59.2041 114.454 58.667 114.39 58.0811H114.207C113.143 59.6387 111.534 60.4175 109.38 60.4175C107.823 60.4175 106.749 60.0562 106.158 59.3335C105.567 58.6108 105.271 57.8027 105.271 56.9092C105.271 56.167 105.499 55.4932 105.953 54.8877C106.412 54.2773 107.042 53.7451 107.842 53.291C108.643 52.8369 109.581 52.4463 110.655 52.1191C111.734 51.7871 112.908 51.5137 114.178 51.2988V50.127C114.178 49.1113 113.873 48.374 113.262 47.915C112.652 47.4512 111.888 47.2192 110.97 47.2192C110.55 47.2192 110.137 47.2754 109.732 47.3877C109.332 47.5 109.007 47.6538 108.758 47.8491C108.514 48.0396 108.392 48.2397 108.392 48.4497C108.392 48.6157 108.492 48.7549 108.692 48.8672C108.96 49.043 109.17 49.2188 109.322 49.3945C109.478 49.5703 109.556 49.8047 109.556 50.0977C109.556 50.5273 109.412 50.8911 109.124 51.189C108.841 51.4819 108.487 51.6284 108.062 51.6284C107.623 51.6284 107.212 51.4819 106.832 51.189C106.451 50.896 106.26 50.4932 106.26 49.9805C106.26 49.3164 106.46 48.667 106.861 48.0322C107.266 47.3975 107.857 46.8848 108.633 46.4941C109.41 46.0986 110.328 45.9009 111.387 45.9009C114.971 45.9009 116.763 47.5513 116.763 50.8521V57.5098C116.763 58.5498 117.103 59.0698 117.781 59.0698C118.26 59.0698 118.729 58.8208 119.188 58.3228ZM114.178 54.8071V52.5586C113.035 52.7686 112.044 53.0298 111.204 53.3423C110.364 53.6499 109.686 54.0625 109.168 54.5801C108.65 55.0928 108.392 55.7104 108.392 56.4331C108.392 57.1655 108.584 57.7881 108.97 58.3008C109.356 58.8135 109.893 59.0698 110.582 59.0698C111.158 59.0698 111.724 58.8989 112.281 58.5571C112.837 58.2104 113.292 57.7124 113.643 57.063C114 56.4136 114.178 55.6616 114.178 54.8071ZM123.67 60L123.641 58.6816H124.966C125.362 58.6816 125.635 58.6304 125.787 58.5278C125.938 58.4253 126.014 58.1665 126.014 57.7515V48.3325C126.014 47.7515 125.665 47.4609 124.966 47.4609C124.292 47.4609 123.648 47.8442 123.033 48.6108C122.422 49.3774 122.095 50.5444 122.051 52.1118H120.85V46.3184H133.785V52.1118H132.583C132.554 51.0962 132.388 50.2368 132.085 49.5337C131.788 48.8257 131.419 48.3032 130.979 47.9663C130.54 47.6294 130.105 47.4609 129.676 47.4609C128.973 47.4609 128.621 47.7515 128.621 48.3325V57.7515C128.621 58.1616 128.697 58.4204 128.848 58.5278C129.004 58.6304 129.28 58.6816 129.676 58.6816H130.994V60H123.67ZM135.879 53.1592C135.879 52.3291 136.028 51.4868 136.326 50.6323C136.624 49.7729 137.063 48.9844 137.645 48.2666C138.23 47.5488 138.953 46.9751 139.812 46.5454C140.672 46.1157 141.651 45.9009 142.75 45.9009C144.195 45.9009 145.438 46.2671 146.478 46.9995C147.522 47.7319 148.306 48.6597 148.829 49.7827C149.356 50.9058 149.62 52.0312 149.62 53.1592C149.62 54.2871 149.356 55.4126 148.829 56.5356C148.306 57.6587 147.522 58.5864 146.478 59.3188C145.438 60.0513 144.195 60.4175 142.75 60.4175C141.324 60.4175 140.088 60.0537 139.043 59.3262C137.999 58.5938 137.21 57.6636 136.678 56.5356C136.146 55.4077 135.879 54.2822 135.879 53.1592ZM139 53.1592C139 57.0996 140.25 59.0698 142.75 59.0698C143.409 59.0698 144.017 58.9038 144.573 58.5718C145.13 58.2397 145.589 57.6318 145.95 56.748C146.316 55.8643 146.5 54.668 146.5 53.1592C146.5 51.0449 146.15 49.5312 145.452 48.6182C144.754 47.7051 143.853 47.2485 142.75 47.2485C141.646 47.2485 140.745 47.7051 140.047 48.6182C139.349 49.5312 139 51.0449 139 53.1592ZM154.615 47.6367V46.3184H167.242V47.6367H165.923C165.523 47.6367 165.247 47.688 165.096 47.7905C164.949 47.8931 164.876 48.1519 164.876 48.5669V57.7515C164.876 58.1616 164.949 58.4204 165.096 58.5278C165.247 58.6304 165.523 58.6816 165.923 58.6816H167.242V60H159.925V58.6816H161.243C161.639 58.6816 161.912 58.6304 162.063 58.5278C162.215 58.4253 162.291 58.1665 162.291 57.7515V48.208C162.291 47.8271 161.902 47.6367 161.126 47.6367H159.983C159.363 47.6367 158.978 47.7759 158.826 48.0542C158.68 48.3325 158.584 48.7549 158.541 49.3213C158.477 50.3027 158.367 51.5234 158.211 52.9834C158.06 54.3652 157.862 55.5615 157.618 56.5723C157.378 57.583 156.929 58.4766 156.27 59.2529C155.616 60.0293 154.703 60.4175 153.531 60.4175C153.008 60.4175 152.498 60.249 152 59.9121C151.502 59.5703 151.253 59.0186 151.253 58.2568C151.253 57.6953 151.409 57.2607 151.722 56.9531C152.039 56.6455 152.413 56.4917 152.842 56.4917C153.257 56.4917 153.589 56.6211 153.838 56.8799C154.092 57.1387 154.219 57.4487 154.219 57.8101C154.219 57.8735 154.2 57.9834 154.161 58.1396C154.141 58.1982 154.131 58.2886 154.131 58.4106C154.131 58.689 154.283 58.8281 154.585 58.8281C155.279 58.8281 155.838 58.0493 156.263 56.4917C156.707 54.8511 156.978 52.7197 157.076 50.0977V49.3799C157.046 48.667 156.895 48.1982 156.622 47.9736C156.348 47.749 155.867 47.6367 155.179 47.6367H154.615ZM169.424 53.1592C169.424 52.3291 169.573 51.4868 169.871 50.6323C170.169 49.7729 170.608 48.9844 171.189 48.2666C171.775 47.5488 172.498 46.9751 173.357 46.5454C174.217 46.1157 175.196 45.9009 176.294 45.9009C177.74 45.9009 178.982 46.2671 180.022 46.9995C181.067 47.7319 181.851 48.6597 182.374 49.7827C182.901 50.9058 183.165 52.0312 183.165 53.1592C183.165 54.2871 182.901 55.4126 182.374 56.5356C181.851 57.6587 181.067 58.5864 180.022 59.3188C178.982 60.0513 177.74 60.4175 176.294 60.4175C174.869 60.4175 173.633 60.0537 172.588 59.3262C171.543 58.5938 170.755 57.6636 170.223 56.5356C169.69 55.4077 169.424 54.2822 169.424 53.1592ZM172.544 53.1592C172.544 57.0996 173.794 59.0698 176.294 59.0698C176.954 59.0698 177.562 58.9038 178.118 58.5718C178.675 58.2397 179.134 57.6318 179.495 56.748C179.861 55.8643 180.044 54.668 180.044 53.1592C180.044 51.0449 179.695 49.5312 178.997 48.6182C178.299 47.7051 177.398 47.2485 176.294 47.2485C175.191 47.2485 174.29 47.7051 173.592 48.6182C172.894 49.5312 172.544 51.0449 172.544 53.1592ZM197.491 52.229H196.319C196.163 50.8569 195.943 49.8462 195.66 49.1968C195.386 48.5571 195.02 48.1372 194.561 47.937C194.107 47.7368 193.533 47.6367 192.84 47.6367H191.368C190.909 47.6367 190.618 47.749 190.496 47.9736C190.379 48.1982 190.32 48.5059 190.32 48.8965V57.7515C190.32 58.1616 190.394 58.4204 190.54 58.5278C190.691 58.6304 190.967 58.6816 191.368 58.6816H192.686V60H185.369V58.6816H186.688C187.083 58.6816 187.356 58.6304 187.508 58.5278C187.659 58.4253 187.735 58.1665 187.735 57.7515V48.5669C187.735 48.1519 187.659 47.8931 187.508 47.7905C187.361 47.688 187.088 47.6367 186.688 47.6367H185.369V46.3184H197.491V52.229ZM204.441 56.1914L210.557 48.7207C210.796 48.4424 210.916 48.1812 210.916 47.937C210.818 47.7368 210.569 47.6367 210.169 47.6367H208.58V46.3184H215.896V47.6367H214.578C214.178 47.6367 213.902 47.688 213.75 47.7905C213.604 47.8931 213.531 48.1519 213.531 48.5669V57.7515C213.531 58.1616 213.604 58.4204 213.75 58.5278C213.902 58.6304 214.178 58.6816 214.578 58.6816H215.896V60H208.58V58.6816H209.898C210.293 58.6816 210.567 58.6304 210.718 58.5278C210.87 58.4253 210.945 58.1665 210.945 57.7515V50.127L204.771 57.5977C204.551 57.8711 204.441 58.0908 204.441 58.2568C204.441 58.54 204.761 58.6816 205.401 58.6816H206.778V60H199.49V58.6816H200.809C201.204 58.6816 201.478 58.6304 201.629 58.5278C201.78 58.4253 201.856 58.1665 201.856 57.7515V48.5669C201.856 48.1519 201.78 47.8931 201.629 47.7905C201.482 47.688 201.209 47.6367 200.809 47.6367H199.49V46.3184H206.807V47.6367H205.489C205.088 47.6367 204.812 47.688 204.661 47.7905C204.515 47.8931 204.441 48.1519 204.441 48.5669V56.1914ZM218.086 56.1035H219.258C219.366 57.7197 219.686 58.5278 220.218 58.5278C220.521 58.5278 220.75 58.3472 220.906 57.9858C221.062 57.6196 221.194 57.1606 221.302 56.6089C221.478 55.7544 221.778 55.0171 222.203 54.397C222.632 53.7769 223.431 53.4155 224.598 53.313V53.1006C223.401 53.0664 222.327 52.7856 221.375 52.2583C220.423 51.731 219.947 50.9717 219.947 49.9805C219.947 49.0088 220.406 48.1567 221.324 47.4243C222.242 46.687 223.733 46.3184 225.799 46.3184H233.746V47.6367H232.427C232.027 47.6367 231.751 47.688 231.6 47.7905C231.453 47.8931 231.38 48.1519 231.38 48.5669V57.7515C231.38 58.1616 231.453 58.4204 231.6 58.5278C231.751 58.6304 232.027 58.6816 232.427 58.6816H233.746V60H226.429V58.6816H227.747C228.143 58.6816 228.416 58.6304 228.567 58.5278C228.724 58.4253 228.802 58.1665 228.802 57.7515V53.7305H226.7C225.84 53.7305 225.22 54.0332 224.839 54.6387C224.463 55.2441 224.153 56.1401 223.909 57.3267C223.738 58.2446 223.472 58.9893 223.111 59.5605C222.75 60.1318 222.095 60.4175 221.148 60.4175C219.175 60.4175 218.155 58.9795 218.086 56.1035ZM228.802 52.3828V48.6328C228.802 48.2178 228.687 47.9395 228.458 47.7979C228.228 47.6514 227.872 47.5781 227.388 47.5781C227.193 47.5781 226.812 47.5977 226.246 47.6367C224.126 47.7783 223.067 48.5693 223.067 50.0098C223.067 50.5762 223.301 51.1133 223.77 51.6211C224.244 52.1289 225.059 52.3828 226.216 52.3828H228.802Z" fill="#59443F"/>
<path d="M41.62 201V199.64H35.98L38.76 196.5C39.3 195.88 40.02 195.06 40.58 194.28C41.38 193.14 41.64 192.32 41.64 191.42C41.64 189.12 39.88 187.44 37.52 187.44C35.86 187.44 34.92 188.16 34.36 188.8C33.84 189.4 33.42 190.22 33.36 191.56H34.84C34.86 190.88 35.02 190.38 35.28 189.98C35.78 189.22 36.56 188.8 37.5 188.8C39.08 188.8 40.16 189.9 40.16 191.4C40.16 191.94 40.02 192.58 39.42 193.44C39.1 193.92 38.2 194.98 37.86 195.38L33 201H41.62ZM49.345 187.34L44.805 193.64C43.805 195.04 43.705 196.2 43.705 196.7C43.705 198.8 45.185 201.24 48.325 201.24C50.985 201.24 52.905 199.32 52.905 196.66C52.905 194.18 51.145 192.26 48.585 192.26C48.165 192.26 47.785 192.32 47.405 192.44L50.465 188.18L49.345 187.34ZM48.305 199.88C46.445 199.88 45.185 198.48 45.185 196.7C45.185 194.96 46.465 193.62 48.285 193.62C50.105 193.62 51.425 194.92 51.425 196.7C51.425 198.5 50.145 199.88 48.305 199.88ZM60.0002 205.6H61.6002L67.7002 192.7H66.1002L63.4002 198.64L60.4602 192.7H58.8202L62.6402 200.22L60.0002 205.6ZM75.7194 193.3C75.3194 193.02 74.4594 192.5 73.1394 192.5C70.5794 192.5 68.6994 194.36 68.6994 196.9C68.6994 199.4 70.5594 201.24 73.1394 201.24C73.9194 201.24 74.8794 201.04 75.7794 200.38V198.66C75.0194 199.58 73.9594 199.96 73.0994 199.96C71.6194 199.96 70.1794 198.9 70.1794 196.88C70.1794 194.86 71.5794 193.78 73.1194 193.78C73.8594 193.78 74.9594 194.06 75.7194 195.02V193.3ZM84.2689 192.7H78.4289V197.76C78.4289 198.26 78.4089 198.78 78.1489 199.18C77.9889 199.44 77.6489 199.72 77.1089 199.72C77.0089 199.72 76.8889 199.7 76.7889 199.68V201C76.9289 201.02 77.0889 201.04 77.2289 201.04C78.3489 201.04 78.9689 200.48 79.2289 200.16C79.8689 199.38 79.8689 198.46 79.8689 197.76V194.02H82.8289V201H84.2689V192.7ZM86.9728 205.6H88.5728L94.6728 192.7H93.0728L90.3728 198.64L87.4328 192.7H85.7928L89.6128 200.22L86.9728 205.6ZM96.192 201H97.632V194.02H101.112V192.7H96.192V201Z" fill="#59443F"/>
<defs>
<filter id="filter0_d_302_1704" x="0" y="0" width="340" height="240" filterUnits="userSpaceOnUse" color-interpolation-filters="sRGB">
<feFlood flood-opacity="0" result="BackgroundImageFix"/>
<feColorMatrix in="SourceAlpha" type="matrix" values="0 0 0 0 0 0 0 0 0 0 0 0 0 0 0 0 0 0 127 0" result="hardAlpha"/>
<feOffset dx="2" dy="2"/>
<feGaussianBlur stdDeviation="5"/>
<feColorMatrix type="matrix" values="0 0 0 0 0 0 0 0 0 0 0 0 0 0 0 0 0 0 0.1 0"/>
<feBlend mode="normal" in2="BackgroundImageFix" result="effect1_dropShadow_302_1704"/>
<feBlend mode="normal" in="SourceGraphic" in2="effect1_dropShadow_302_1704" result="shape"/>
</filter>
</defs>
</svg>
