<svg width="171" height="46" viewBox="0 0 171 46" fill="none" xmlns="http://www.w3.org/2000/svg">
<path d="M58.96 30H53.4V16.66H58.56C59.88 16.66 60.8533 17.0067 61.48 17.7C62.0267 18.3 62.3 19.1333 62.3 20.2C62.3 20.7867 62.1733 21.3333 61.92 21.84C61.6533 22.3333 61.2933 22.68 60.84 22.88C61.5867 22.96 62.1933 23.2267 62.66 23.68C63.26 24.2533 63.56 25.0667 63.56 26.12C63.56 27.2133 63.2333 28.0867 62.58 28.74C61.7667 29.58 60.56 30 58.96 30ZM56.86 19.32V21.92H57.5C58.1133 21.92 58.5533 21.78 58.82 21.5C59.0333 21.2867 59.14 20.9933 59.14 20.62C59.14 20.26 59.0333 19.96 58.82 19.72C58.5533 19.4533 58.1133 19.32 57.5 19.32H56.86ZM56.86 24.5V27.3H57.64C58.76 27.3 59.4733 27.12 59.78 26.76C59.9667 26.5467 60.06 26.26 60.06 25.9C60.06 25.4867 59.9467 25.1667 59.72 24.94C59.4267 24.6467 58.7133 24.5 57.58 24.5H56.86ZM79.8833 23.34C79.8833 25.3133 79.1833 26.9733 77.7833 28.32C76.3966 29.64 74.6433 30.3 72.5233 30.3C70.4033 30.3 68.6499 29.64 67.2633 28.32C65.8633 26.9733 65.1633 25.3133 65.1633 23.34C65.1633 22.42 65.3366 21.52 65.6833 20.64C66.0433 19.76 66.5699 18.9933 67.2633 18.34C68.6499 17.02 70.4033 16.36 72.5233 16.36C74.6433 16.36 76.3966 17.02 77.7833 18.34C78.4766 18.9933 78.9966 19.76 79.3433 20.64C79.7033 21.52 79.8833 22.42 79.8833 23.34ZM72.5233 19.72C71.4299 19.72 70.5299 20.0733 69.8233 20.78C69.1166 21.4733 68.7633 22.3467 68.7633 23.4C68.7633 24.3733 69.1166 25.2 69.8233 25.88C70.5566 26.5867 71.4566 26.94 72.5233 26.94C73.6166 26.94 74.5099 26.5933 75.2033 25.9C75.9233 25.18 76.2833 24.3267 76.2833 23.34C76.2833 22.3267 75.9233 21.4733 75.2033 20.78C74.4566 20.0733 73.5633 19.72 72.5233 19.72ZM83.3914 16.66H93.6714V30H90.1914V19.58H86.8314V24.44C86.8314 26.5733 86.3647 28.1067 85.4314 29.04C84.6447 29.8 83.6047 30.18 82.3114 30.18C81.7781 30.18 81.2514 30.12 80.7314 30V26.8C81.0114 26.8933 81.2781 26.94 81.5314 26.94C82.0114 26.94 82.3981 26.8067 82.6914 26.54C83.1581 26.1133 83.3914 25.2733 83.3914 24.02V16.66ZM104.266 16.66V19.6H99.9264V30H96.4664V16.66H104.266ZM119.649 23.34C119.649 25.3133 118.949 26.9733 117.549 28.32C116.162 29.64 114.409 30.3 112.289 30.3C110.169 30.3 108.416 29.64 107.029 28.32C105.629 26.9733 104.929 25.3133 104.929 23.34C104.929 22.42 105.102 21.52 105.449 20.64C105.809 19.76 106.336 18.9933 107.029 18.34C108.416 17.02 110.169 16.36 112.289 16.36C114.409 16.36 116.162 17.02 117.549 18.34C118.242 18.9933 118.762 19.76 119.109 20.64C119.469 21.52 119.649 22.42 119.649 23.34ZM112.289 19.72C111.196 19.72 110.296 20.0733 109.589 20.78C108.882 21.4733 108.529 22.3467 108.529 23.4C108.529 24.3733 108.882 25.2 109.589 25.88C110.322 26.5867 111.222 26.94 112.289 26.94C113.382 26.94 114.276 26.5933 114.969 25.9C115.689 25.18 116.049 24.3267 116.049 23.34C116.049 22.3267 115.689 21.4733 114.969 20.78C114.222 20.0733 113.329 19.72 112.289 19.72ZM129.657 16.66V19.6H125.317V30H121.857V16.66H129.657ZM137.36 25.58H135.18V30H131.72V16.66H137.24C138.667 16.66 139.794 17.06 140.62 17.86C141.447 18.66 141.86 19.74 141.86 21.1C141.86 22.54 141.467 23.6467 140.68 24.42C139.894 25.1933 138.787 25.58 137.36 25.58ZM135.18 19.46V22.78H136.34C137.007 22.78 137.494 22.64 137.8 22.36C138.094 22.1067 138.24 21.7 138.24 21.14C138.24 20.6067 138.107 20.2067 137.84 19.94C137.534 19.62 137.04 19.46 136.36 19.46H135.18ZM151.657 30L150.837 27.76H145.997L145.097 30H141.437L146.557 16.66H150.337L155.357 30H151.657ZM146.957 25.12H149.917L148.417 20.8L146.957 25.12ZM158.51 16.66H168.59V27.32H170.19V33H167.07V30H158.95V33H155.83V27.32C156.417 27.2267 156.924 26.96 157.35 26.52C157.817 26.04 158.124 25.46 158.27 24.78C158.43 24.0867 158.51 23.2067 158.51 22.14V16.66ZM161.87 19.34V22.48C161.87 23.5867 161.764 24.52 161.55 25.28C161.324 26.08 160.937 26.76 160.39 27.32H165.11V19.34H161.87Z" fill="#FFC59E"/>
<path d="M32.5275 15.2258C32.4242 14.8385 32.2143 14.4258 32.0591 14.0645C30.2014 9.59998 26.1424 8 22.8649 8C18.4774 8 13.6452 10.942 13 17.0061V18.2451C13 18.2968 13.0178 18.7612 13.0431 18.9935C13.4048 21.8836 15.6852 24.955 17.3883 27.845C19.2207 30.9414 21.122 33.9873 23.0056 37.032C24.1671 35.0451 25.3245 33.0321 26.4595 31.0966C26.7689 30.5286 27.128 29.961 27.4377 29.4188C27.6441 29.0578 28.0384 28.6969 28.2185 28.361C30.0508 25.0064 33 21.6258 33 18.2967V16.929C33.0001 16.5681 32.5527 15.3036 32.5275 15.2258ZM22.9452 21.4452C21.6555 21.4452 20.2439 20.8003 19.5471 19.0194C19.4433 18.7359 19.4516 18.1678 19.4516 18.1157V17.3157C19.4516 15.0454 21.3794 14.0129 23.0565 14.0129C25.1211 14.0129 26.7179 15.6647 26.7179 17.7294C26.7179 19.7939 25.0099 21.4452 22.9452 21.4452Z" fill="#FFC59E"/>
</svg>
