<svg width="320" height="220" viewBox="0 0 320 220" fill="none" xmlns="http://www.w3.org/2000/svg">
<mask id="mask0_302_1753" style="mask-type:alpha" maskUnits="userSpaceOnUse" x="0" y="0" width="320" height="220">
<rect width="320" height="220" rx="20" fill="white"/>
</mask>
<g mask="url(#mask0_302_1753)">
<path d="M289.88 105.333C289.878 105.331 289.876 105.329 289.874 105.327C289.872 105.325 289.87 105.324 289.869 105.322C289.866 105.319 289.863 105.316 289.859 105.313C289.858 105.311 289.856 105.31 289.855 105.308C289.853 105.307 289.852 105.305 289.85 105.303C289.848 105.302 289.845 105.299 289.844 105.297C289.843 105.296 289.843 105.296 289.842 105.296C287.347 102.809 284.335 101.147 281.151 100.309C280.286 97.0108 278.599 94.0522 276.2 91.653C268.663 84.1157 256.399 84.1157 248.861 91.653C241.971 98.5435 241.481 109.118 246.771 116.526L235.944 127.353C235.182 128.114 234.851 129.206 235.063 130.263L237.341 141.654C237.596 142.93 238.593 143.926 239.868 144.181L251.26 146.459C252.328 146.673 253.416 146.332 254.17 145.578L264.997 134.751C272.479 140.095 283.073 139.482 289.869 132.661C297.403 125.128 297.406 112.872 289.88 105.333ZM285.313 128.104C285.282 128.135 285.252 128.164 285.222 128.195C285.221 128.196 285.219 128.197 285.218 128.198C279.634 133.672 271.194 132.478 267.185 128.201C267.141 128.158 267.122 128.139 267.087 128.104C267.085 128.103 267.082 128.099 267.08 128.097C266.484 127.505 265.68 127.157 264.77 127.161C264.77 127.161 264.754 127.161 264.753 127.161C263.89 127.176 263.093 127.543 262.572 128.064C262.571 128.064 250.833 139.802 250.832 139.803L243.238 138.284L241.719 130.69L253.418 118.991C254.022 118.387 254.361 117.568 254.361 116.713C254.361 115.859 254.022 115.039 253.418 114.435C248.381 109.398 248.381 101.247 253.418 96.2094C258.442 91.1847 266.619 91.1849 271.643 96.2094C272.683 97.2491 273.521 98.4526 274.137 99.7788C269.896 100.23 265.775 102.078 262.531 105.322C261.272 106.581 261.272 108.621 262.531 109.879C263.789 111.137 265.829 111.137 267.087 109.879C272.368 104.599 280.615 105.194 285.301 109.867C285.301 109.867 285.302 109.868 285.303 109.869C285.304 109.87 285.305 109.871 285.307 109.872C285.309 109.875 285.311 109.877 285.313 109.879C290.337 114.903 290.337 123.079 285.313 128.104Z" fill="#FFC59E"/>
<path d="M225.03 120.518L220.474 115.961C219.216 114.703 217.176 114.703 215.917 115.961C214.659 117.22 214.659 119.259 215.917 120.518L220.474 125.074C221.732 126.332 223.772 126.332 225.03 125.074C226.288 123.816 226.288 121.776 225.03 120.518Z" fill="#FFC59E"/>
<path d="M222.752 128.564H213.639C211.86 128.564 210.417 130.007 210.417 131.786C210.417 133.566 211.859 135.008 213.639 135.008H222.752C224.531 135.008 225.974 133.566 225.974 131.786C225.974 130.007 224.531 128.564 222.752 128.564Z" fill="#FFC59E"/>
<path d="M231.741 110.462C229.962 110.462 228.52 111.904 228.52 113.684V122.797C228.52 124.576 229.962 126.018 231.741 126.018C233.521 126.018 234.963 124.576 234.963 122.797V113.684C234.963 111.904 233.521 110.462 231.741 110.462Z" fill="#FFC59E"/>
<path d="M266.038 161.526L261.482 156.969C260.223 155.711 258.183 155.711 256.925 156.969C255.667 158.227 255.667 160.267 256.925 161.526L261.482 166.082C262.74 167.34 264.78 167.34 266.038 166.082C267.296 164.824 267.296 162.784 266.038 161.526Z" fill="#FFC59E"/>
<path d="M249.999 156.026C248.22 156.026 246.777 157.469 246.777 159.248V168.361C246.777 170.14 248.22 171.583 249.999 171.583C251.778 171.583 253.221 170.14 253.221 168.361V159.248C253.221 157.469 251.778 156.026 249.999 156.026Z" fill="#FFC59E"/>
<path d="M268.316 146.821H259.203C257.424 146.821 255.981 148.264 255.981 150.043C255.981 151.822 257.424 153.265 259.203 153.265H268.316C270.096 153.265 271.538 151.822 271.538 150.043C271.538 148.264 270.096 146.821 268.316 146.821Z" fill="#FFC59E"/>
<path d="M246.341 151.484C245.998 150.344 245.055 149.487 243.888 149.254L234.603 147.396L232.746 138.111C232.513 136.948 231.66 136.007 230.525 135.661C229.39 135.316 228.157 135.622 227.315 136.458L216.531 147.178C208.986 141.803 198.417 142.498 191.653 149.261C184.116 156.799 184.116 169.063 191.653 176.6C194.053 179 197.014 180.687 200.315 181.551C204.111 195.973 222.165 200.766 232.661 190.269C239.438 183.492 240.142 172.956 234.757 165.404L245.527 154.698C246.372 153.859 246.685 152.623 246.341 151.484ZM228.111 162.924C228.11 162.925 228.109 162.927 228.107 162.928C228.106 162.929 228.105 162.93 228.105 162.931C226.852 164.18 226.845 166.227 228.105 167.487C233.149 172.532 233.13 180.687 228.105 185.713C220.617 193.2 207.76 188.977 206.287 178.383C205.671 173.96 207.214 170.152 209.879 167.487C211.137 166.229 211.137 164.189 209.879 162.931C208.621 161.672 206.581 161.672 205.322 162.931C202.078 166.175 200.234 170.295 199.783 174.536C198.455 173.92 197.25 173.084 196.209 172.044C191.185 167.019 191.185 158.843 196.209 153.818C201.234 148.793 209.41 148.793 214.435 153.818C215.691 155.074 217.725 155.076 218.985 153.825L227.604 145.257L228.706 150.766C228.961 152.042 229.958 153.039 231.233 153.294L236.7 154.387L228.111 162.924Z" fill="#FFC59E"/>
</g>
</svg>
