<svg width="384" height="61" viewBox="0 0 384 61" fill="none" xmlns="http://www.w3.org/2000/svg">
<path d="M77.92 10.76V12.6C77.3867 12.0667 76.8067 11.6533 76.18 11.36C75.42 11.0133 74.6533 10.84 73.88 10.84C72.3467 10.84 71.0667 11.38 70.04 12.46C69.0267 13.5267 68.52 14.84 68.52 16.4C68.52 18.08 69.0733 19.4067 70.18 20.38C71.3 21.3533 72.54 21.84 73.9 21.84C74.7533 21.84 75.58 21.6333 76.38 21.22C76.94 20.94 77.4533 20.5667 77.92 20.1V21.94C76.7067 22.8067 75.3667 23.24 73.9 23.24C71.9267 23.24 70.28 22.58 68.96 21.26C67.6533 19.94 67 18.3133 67 16.38C67 14.3933 67.66 12.74 68.98 11.42C70.3133 10.1 71.98 9.44 73.98 9.44C75.4467 9.44 76.76 9.88 77.92 10.76ZM87.3097 22C86.483 22.8267 85.4364 23.24 84.1697 23.24C82.903 23.24 81.8497 22.8267 81.0097 22C80.183 21.1733 79.7697 20.1333 79.7697 18.88C79.7697 17.6133 80.183 16.5667 81.0097 15.74C81.8497 14.9133 82.903 14.5 84.1697 14.5C85.4364 14.5 86.483 14.9133 87.3097 15.74C88.1497 16.5667 88.5697 17.6133 88.5697 18.88C88.5697 20.1333 88.1497 21.1733 87.3097 22ZM86.2297 16.6C85.6697 16.0533 84.983 15.78 84.1697 15.78C83.3564 15.78 82.663 16.06 82.0897 16.62C81.5297 17.1667 81.2497 17.92 81.2497 18.88C81.2497 19.84 81.5364 20.5933 82.1097 21.14C82.683 21.6867 83.3697 21.96 84.1697 21.96C84.9697 21.96 85.6564 21.6867 86.2297 21.14C86.803 20.5933 87.0897 19.84 87.0897 18.88C87.0897 17.9067 86.803 17.1467 86.2297 16.6ZM90.778 14.7H93.918C94.678 14.7 95.258 14.86 95.658 15.18C96.138 15.5667 96.378 16.0867 96.378 16.74C96.378 17.46 96.078 18.0133 95.478 18.4C95.8913 18.5067 96.238 18.6933 96.518 18.96C96.958 19.3867 97.178 19.92 97.178 20.56C97.178 21.36 96.8913 21.9867 96.318 22.44C95.8246 22.8133 95.1713 23 94.358 23H90.778V14.7ZM92.218 18.08H93.738C94.1246 18.08 94.4313 18 94.658 17.84C94.9246 17.64 95.058 17.3533 95.058 16.98C95.058 16.6467 94.9246 16.38 94.658 16.18C94.458 16.0467 94.0713 15.98 93.498 15.98H92.218V18.08ZM92.218 21.72H93.998C94.6113 21.72 95.0446 21.6267 95.298 21.44C95.618 21.2 95.778 20.8933 95.778 20.52C95.778 20.12 95.638 19.8067 95.358 19.58C95.1046 19.38 94.6713 19.28 94.058 19.28H92.218V21.72ZM105.532 20.22L106.732 20.88C106.452 21.4133 106.112 21.86 105.712 22.22C104.952 22.9 104.032 23.24 102.952 23.24C101.832 23.24 100.865 22.88 100.052 22.16C99.2517 21.4267 98.8517 20.34 98.8517 18.9C98.8517 17.6333 99.2117 16.5867 99.9317 15.76C100.665 14.92 101.645 14.5 102.872 14.5C104.258 14.5 105.305 15.0067 106.012 16.02C106.572 16.82 106.832 17.86 106.792 19.14H100.332C100.345 19.98 100.605 20.66 101.112 21.18C101.618 21.7 102.238 21.96 102.972 21.96C103.625 21.96 104.192 21.76 104.672 21.36C105.045 21.04 105.332 20.66 105.532 20.22ZM100.432 17.94H105.312C105.192 17.2867 104.905 16.7667 104.452 16.38C104.012 15.98 103.485 15.78 102.872 15.78C102.272 15.78 101.738 15.9867 101.272 16.4C100.818 16.8 100.538 17.3133 100.432 17.94ZM114.441 16.02H111.841V23H110.401V16.02H107.801V14.7H114.441V16.02ZM122.258 15.3V17.02C121.605 16.1933 120.738 15.78 119.658 15.78C118.845 15.78 118.152 16.06 117.578 16.62C117.005 17.1667 116.718 17.92 116.718 18.88C116.718 19.84 117.005 20.5933 117.578 21.14C118.152 21.6867 118.838 21.96 119.638 21.96C120.705 21.96 121.598 21.5267 122.318 20.66V22.38C121.532 22.9533 120.652 23.24 119.678 23.24C118.385 23.24 117.318 22.8333 116.478 22.02C115.652 21.1933 115.238 20.1533 115.238 18.9C115.238 17.6333 115.658 16.5867 116.498 15.76C117.338 14.92 118.398 14.5 119.678 14.5C120.638 14.5 121.498 14.7667 122.258 15.3ZM124.528 14.7H125.968V18.1L129.328 14.7H131.088L127.488 18.4L131.528 23H129.648L126.408 19.36L125.968 19.78V23H124.528V14.7ZM132.965 14.7H134.405V20.18L140.085 14.06V23H138.645V17.46L132.965 23.58V14.7ZM142.809 14.7H144.249V20.18L149.929 14.06V23H148.489V17.46L142.809 23.58V14.7ZM143.529 11.12L144.729 10.66C144.969 11.46 145.536 11.86 146.429 11.86C147.323 11.86 147.889 11.46 148.129 10.66L149.329 11.12C149.116 11.72 148.749 12.1933 148.229 12.54C147.723 12.8867 147.123 13.06 146.429 13.06C145.736 13.06 145.129 12.8867 144.609 12.54C144.103 12.1933 143.743 11.72 143.529 11.12ZM158.761 21.84V27.6H157.321V14.7H158.761V15.86C159.494 14.9533 160.441 14.5 161.601 14.5C162.841 14.5 163.821 14.94 164.541 15.82C165.274 16.6867 165.641 17.7133 165.641 18.9C165.641 20.1 165.281 21.1267 164.561 21.98C163.841 22.82 162.874 23.24 161.661 23.24C160.448 23.24 159.481 22.7733 158.761 21.84ZM161.461 21.96C162.274 21.96 162.928 21.6667 163.421 21.08C163.914 20.48 164.161 19.7533 164.161 18.9C164.161 17.94 163.888 17.18 163.341 16.62C162.794 16.06 162.161 15.78 161.441 15.78C160.721 15.78 160.081 16.06 159.521 16.62C158.961 17.18 158.681 17.9333 158.681 18.88C158.681 19.7467 158.934 20.48 159.441 21.08C159.961 21.6667 160.634 21.96 161.461 21.96ZM174.208 15.88V14.7H175.648V23H174.208V21.84C173.488 22.7733 172.542 23.24 171.368 23.24C170.248 23.24 169.295 22.8533 168.508 22.08C167.722 21.3067 167.328 20.2267 167.328 18.84C167.328 17.48 167.715 16.42 168.488 15.66C169.275 14.8867 170.235 14.5 171.368 14.5C172.568 14.5 173.515 14.96 174.208 15.88ZM171.528 15.78C170.768 15.78 170.122 16.0533 169.588 16.6C169.068 17.1333 168.808 17.88 168.808 18.84C168.808 19.76 169.048 20.5133 169.528 21.1C170.022 21.6733 170.688 21.96 171.528 21.96C172.368 21.96 173.035 21.66 173.528 21.06C174.035 20.46 174.288 19.7267 174.288 18.86C174.288 17.8733 174.008 17.1133 173.448 16.58C172.888 16.0467 172.248 15.78 171.528 15.78ZM178.376 14.7H179.816V20.18L185.496 14.06V23H184.056V17.46L178.376 23.58V14.7ZM179.096 11.12L180.296 10.66C180.536 11.46 181.102 11.86 181.996 11.86C182.889 11.86 183.456 11.46 183.696 10.66L184.896 11.12C184.682 11.72 184.316 12.1933 183.796 12.54C183.289 12.8867 182.689 13.06 181.996 13.06C181.302 13.06 180.696 12.8867 180.176 12.54C179.669 12.1933 179.309 11.72 179.096 11.12ZM195.239 22C194.413 22.8267 193.366 23.24 192.099 23.24C190.833 23.24 189.779 22.8267 188.939 22C188.113 21.1733 187.699 20.1333 187.699 18.88C187.699 17.6133 188.113 16.5667 188.939 15.74C189.779 14.9133 190.833 14.5 192.099 14.5C193.366 14.5 194.413 14.9133 195.239 15.74C196.079 16.5667 196.499 17.6133 196.499 18.88C196.499 20.1333 196.079 21.1733 195.239 22ZM194.159 16.6C193.599 16.0533 192.913 15.78 192.099 15.78C191.286 15.78 190.593 16.06 190.019 16.62C189.459 17.1667 189.179 17.92 189.179 18.88C189.179 19.84 189.466 20.5933 190.039 21.14C190.613 21.6867 191.299 21.96 192.099 21.96C192.899 21.96 193.586 21.6867 194.159 21.14C194.733 20.5933 195.019 19.84 195.019 18.88C195.019 17.9067 194.733 17.1467 194.159 16.6ZM198.708 23V14.7H200.148V18.1H204.068V14.7H205.508V23H204.068V19.42H200.148V23H198.708ZM207.339 25.66L208.979 21.04L210.299 21.52L208.279 26.04L207.339 25.66ZM67.34 57.6L69.98 52.22L66.16 44.7H67.8L70.74 50.64L73.44 44.7H75.04L68.94 57.6H67.34ZM82.6439 44.7V53H81.2039V46.02H78.2439V49.76C78.2439 50.84 78.0306 51.64 77.6039 52.16C77.1239 52.7467 76.4572 53.04 75.6039 53.04C75.4972 53.04 75.3506 53.0267 75.1639 53V51.68C75.2972 51.7067 75.4039 51.72 75.4839 51.72C75.9506 51.72 76.2972 51.54 76.5239 51.18C76.7106 50.8867 76.8039 50.4133 76.8039 49.76V44.7H82.6439ZM85.5878 52.9C85.3878 52.7 85.2878 52.4667 85.2878 52.2C85.2878 51.9333 85.3878 51.7 85.5878 51.5C85.7878 51.3 86.0211 51.2 86.2878 51.2C86.5545 51.2 86.7878 51.3 86.9878 51.5C87.1878 51.7 87.2878 51.9333 87.2878 52.2C87.2878 52.4667 87.1878 52.7 86.9878 52.9C86.7878 53.1 86.5545 53.2 86.2878 53.2C86.0211 53.2 85.7878 53.1 85.5878 52.9ZM96.4266 39.66V45.38L102.107 39.66H104.107L97.8666 45.88L104.307 53H102.267L96.8066 46.88L96.4266 47.26V53H94.9466V39.66H96.4266ZM111.474 45.88V44.7H112.914V53H111.474V51.84C110.754 52.7733 109.807 53.24 108.634 53.24C107.514 53.24 106.561 52.8533 105.774 52.08C104.987 51.3067 104.594 50.2267 104.594 48.84C104.594 47.48 104.981 46.42 105.754 45.66C106.541 44.8867 107.501 44.5 108.634 44.5C109.834 44.5 110.781 44.96 111.474 45.88ZM108.794 45.78C108.034 45.78 107.387 46.0533 106.854 46.6C106.334 47.1333 106.074 47.88 106.074 48.84C106.074 49.76 106.314 50.5133 106.794 51.1C107.287 51.6733 107.954 51.96 108.794 51.96C109.634 51.96 110.301 51.66 110.794 51.06C111.301 50.46 111.554 49.7267 111.554 48.86C111.554 47.8733 111.274 47.1133 110.714 46.58C110.154 46.0467 109.514 45.78 108.794 45.78ZM117.081 51.84V57.6H115.641V44.7H117.081V45.86C117.815 44.9533 118.761 44.5 119.921 44.5C121.161 44.5 122.141 44.94 122.861 45.82C123.595 46.6867 123.961 47.7133 123.961 48.9C123.961 50.1 123.601 51.1267 122.881 51.98C122.161 52.82 121.195 53.24 119.981 53.24C118.768 53.24 117.801 52.7733 117.081 51.84ZM119.781 51.96C120.595 51.96 121.248 51.6667 121.741 51.08C122.235 50.48 122.481 49.7533 122.481 48.9C122.481 47.94 122.208 47.18 121.661 46.62C121.115 46.06 120.481 45.78 119.761 45.78C119.041 45.78 118.401 46.06 117.841 46.62C117.281 47.18 117.001 47.9333 117.001 48.88C117.001 49.7467 117.255 50.48 117.761 51.08C118.281 51.6667 118.955 51.96 119.781 51.96ZM132.449 44.7V53H131.009V46.02H128.049V49.76C128.049 50.84 127.835 51.64 127.409 52.16C126.929 52.7467 126.262 53.04 125.409 53.04C125.302 53.04 125.155 53.0267 124.969 53V51.68C125.102 51.7067 125.209 51.72 125.289 51.72C125.755 51.72 126.102 51.54 126.329 51.18C126.515 50.8867 126.609 50.4133 126.609 49.76V44.7H132.449ZM141.533 45.88V44.7H142.973V53H141.533V51.84C140.813 52.7733 139.866 53.24 138.693 53.24C137.573 53.24 136.619 52.8533 135.833 52.08C135.046 51.3067 134.653 50.2267 134.653 48.84C134.653 47.48 135.039 46.42 135.813 45.66C136.599 44.8867 137.559 44.5 138.693 44.5C139.893 44.5 140.839 44.96 141.533 45.88ZM138.853 45.78C138.093 45.78 137.446 46.0533 136.913 46.6C136.393 47.1333 136.133 47.88 136.133 48.84C136.133 49.76 136.373 50.5133 136.853 51.1C137.346 51.6733 138.013 51.96 138.853 51.96C139.693 51.96 140.359 51.66 140.853 51.06C141.359 50.46 141.613 49.7267 141.613 48.86C141.613 47.8733 141.333 47.1133 140.773 46.58C140.213 46.0467 139.573 45.78 138.853 45.78ZM151.788 53H150.268L152.488 38.92L157.608 50.18L162.828 38.9L164.908 53H163.388L162.128 43.72L157.588 53.56L153.108 43.72L151.788 53ZM173.993 45.88V44.7H175.433V53H173.993V51.84C173.273 52.7733 172.327 53.24 171.153 53.24C170.033 53.24 169.08 52.8533 168.293 52.08C167.507 51.3067 167.113 50.2267 167.113 48.84C167.113 47.48 167.5 46.42 168.273 45.66C169.06 44.8867 170.02 44.5 171.153 44.5C172.353 44.5 173.3 44.96 173.993 45.88ZM171.313 45.78C170.553 45.78 169.907 46.0533 169.373 46.6C168.853 47.1333 168.593 47.88 168.593 48.84C168.593 49.76 168.833 50.5133 169.313 51.1C169.807 51.6733 170.473 51.96 171.313 51.96C172.153 51.96 172.82 51.66 173.313 51.06C173.82 50.46 174.073 49.7267 174.073 48.86C174.073 47.8733 173.793 47.1133 173.233 46.58C172.673 46.0467 172.033 45.78 171.313 45.78ZM179.601 51.84V57.6H178.161V44.7H179.601V45.86C180.334 44.9533 181.281 44.5 182.441 44.5C183.681 44.5 184.661 44.94 185.381 45.82C186.114 46.6867 186.481 47.7133 186.481 48.9C186.481 50.1 186.121 51.1267 185.401 51.98C184.681 52.82 183.714 53.24 182.501 53.24C181.287 53.24 180.321 52.7733 179.601 51.84ZM182.301 51.96C183.114 51.96 183.767 51.6667 184.261 51.08C184.754 50.48 185.001 49.7533 185.001 48.9C185.001 47.94 184.727 47.18 184.181 46.62C183.634 46.06 183.001 45.78 182.281 45.78C181.561 45.78 180.921 46.06 180.361 46.62C179.801 47.18 179.521 47.9333 179.521 48.88C179.521 49.7467 179.774 50.48 180.281 51.08C180.801 51.6667 181.474 51.96 182.301 51.96ZM188.688 44.7H190.128V48.1L193.488 44.7H195.248L191.648 48.4L195.688 53H193.808L190.568 49.36L190.128 49.78V53H188.688V44.7ZM203.196 45.3V47.02C202.543 46.1933 201.676 45.78 200.596 45.78C199.783 45.78 199.089 46.06 198.516 46.62C197.943 47.1667 197.656 47.92 197.656 48.88C197.656 49.84 197.943 50.5933 198.516 51.14C199.089 51.6867 199.776 51.96 200.576 51.96C201.643 51.96 202.536 51.5267 203.256 50.66V52.38C202.469 52.9533 201.589 53.24 200.616 53.24C199.323 53.24 198.256 52.8333 197.416 52.02C196.589 51.1933 196.176 50.1533 196.176 48.9C196.176 47.6333 196.596 46.5867 197.436 45.76C198.276 44.92 199.336 44.5 200.616 44.5C201.576 44.5 202.436 44.7667 203.196 45.3ZM211.825 45.88V44.7H213.265V53H211.825V51.84C211.105 52.7733 210.159 53.24 208.985 53.24C207.865 53.24 206.912 52.8533 206.125 52.08C205.339 51.3067 204.945 50.2267 204.945 48.84C204.945 47.48 205.332 46.42 206.105 45.66C206.892 44.8867 207.852 44.5 208.985 44.5C210.185 44.5 211.132 44.96 211.825 45.88ZM209.145 45.78C208.385 45.78 207.739 46.0533 207.205 46.6C206.685 47.1333 206.425 47.88 206.425 48.84C206.425 49.76 206.665 50.5133 207.145 51.1C207.639 51.6733 208.305 51.96 209.145 51.96C209.985 51.96 210.652 51.66 211.145 51.06C211.652 50.46 211.905 49.7267 211.905 48.86C211.905 47.8733 211.625 47.1133 211.065 46.58C210.505 46.0467 209.865 45.78 209.145 45.78ZM215.113 55.66L216.753 51.04L218.073 51.52L216.053 56.04L215.113 55.66ZM225.829 52.54L233.409 41.02H226.109V39.66H235.909L226.989 53.32L225.829 52.54Z" fill="#59443F"/>
<path d="M32.5275 15.2258C32.4242 14.8385 32.2143 14.4258 32.0591 14.0645C30.2014 9.59998 26.1424 8 22.8649 8C18.4774 8 13.6452 10.942 13 17.0061V18.2451C13 18.2968 13.0178 18.7612 13.0431 18.9935C13.4048 21.8836 15.6852 24.955 17.3883 27.845C19.2207 30.9414 21.122 33.9873 23.0056 37.032C24.1671 35.0451 25.3245 33.0321 26.4595 31.0966C26.7689 30.5286 27.128 29.961 27.4377 29.4188C27.6441 29.0578 28.0384 28.6969 28.2185 28.361C30.0508 25.0064 33 21.6258 33 18.2967V16.929C33.0001 16.5681 32.5527 15.3036 32.5275 15.2258ZM22.9452 21.4452C21.6555 21.4452 20.2439 20.8003 19.5471 19.0194C19.4433 18.7359 19.4516 18.1678 19.4516 18.1157V17.3157C19.4516 15.0454 21.3794 14.0129 23.0565 14.0129C25.1211 14.0129 26.7179 15.6647 26.7179 17.7294C26.7179 19.7939 25.0099 21.4452 22.9452 21.4452Z" fill="#FFC59E"/>
</svg>
