<svg width="384" height="46" viewBox="0 0 384 46" fill="none" xmlns="http://www.w3.org/2000/svg">
<path d="M69.2 16.66V22.38L74.88 16.66H76.88L70.64 22.88L77.08 30H75.04L69.58 23.88L69.2 24.26V30H67.72V16.66H69.2ZM79.7766 28.84V34.6H78.3366V21.7H79.7766V22.86C80.5099 21.9533 81.4566 21.5 82.6166 21.5C83.8566 21.5 84.8366 21.94 85.5566 22.82C86.2899 23.6867 86.6566 24.7133 86.6566 25.9C86.6566 27.1 86.2966 28.1267 85.5766 28.98C84.8566 29.82 83.8899 30.24 82.6766 30.24C81.4632 30.24 80.4966 29.7733 79.7766 28.84ZM82.4766 28.96C83.2899 28.96 83.9432 28.6667 84.4366 28.08C84.9299 27.48 85.1766 26.7533 85.1766 25.9C85.1766 24.94 84.9032 24.18 84.3566 23.62C83.8099 23.06 83.1766 22.78 82.4566 22.78C81.7366 22.78 81.0966 23.06 80.5366 23.62C79.9766 24.18 79.6966 24.9333 79.6966 25.88C79.6966 26.7467 79.9499 27.48 80.4566 28.08C80.9766 28.6667 81.6499 28.96 82.4766 28.96ZM88.8439 34.6L91.4839 29.22L87.6639 21.7H89.3039L92.2439 27.64L94.9439 21.7H96.5439L90.4439 34.6H88.8439ZM98.0631 30V21.7H102.983V23.02H99.5031V30H98.0631ZM110.515 21.7V30H109.075V23.02H106.115V26.76C106.115 27.84 105.902 28.64 105.475 29.16C104.995 29.7467 104.328 30.04 103.475 30.04C103.368 30.04 103.222 30.0267 103.035 30V28.68C103.168 28.7067 103.275 28.72 103.355 28.72C103.822 28.72 104.168 28.54 104.395 28.18C104.582 27.8867 104.675 27.4133 104.675 26.76V21.7H110.515ZM120.259 29C119.432 29.8267 118.386 30.24 117.119 30.24C115.852 30.24 114.799 29.8267 113.959 29C113.132 28.1733 112.719 27.1333 112.719 25.88C112.719 24.6133 113.132 23.5667 113.959 22.74C114.799 21.9133 115.852 21.5 117.119 21.5C118.386 21.5 119.432 21.9133 120.259 22.74C121.099 23.5667 121.519 24.6133 121.519 25.88C121.519 27.1333 121.099 28.1733 120.259 29ZM119.179 23.6C118.619 23.0533 117.932 22.78 117.119 22.78C116.306 22.78 115.612 23.06 115.039 23.62C114.479 24.1667 114.199 24.92 114.199 25.88C114.199 26.84 114.486 27.5933 115.059 28.14C115.632 28.6867 116.319 28.96 117.119 28.96C117.919 28.96 118.606 28.6867 119.179 28.14C119.752 27.5933 120.039 26.84 120.039 25.88C120.039 24.9067 119.752 24.1467 119.179 23.6ZM130.227 22.3V24.02C129.574 23.1933 128.707 22.78 127.627 22.78C126.814 22.78 126.121 23.06 125.547 23.62C124.974 24.1667 124.687 24.92 124.687 25.88C124.687 26.84 124.974 27.5933 125.547 28.14C126.121 28.6867 126.807 28.96 127.607 28.96C128.674 28.96 129.567 28.5267 130.287 27.66V29.38C129.501 29.9533 128.621 30.24 127.647 30.24C126.354 30.24 125.287 29.8333 124.447 29.02C123.621 28.1933 123.207 27.1533 123.207 25.9C123.207 24.6333 123.627 23.5867 124.467 22.76C125.307 21.92 126.367 21.5 127.647 21.5C128.607 21.5 129.467 21.7667 130.227 22.3ZM132.477 34.6L135.117 29.22L131.297 21.7H132.937L135.877 27.64L138.577 21.7H140.177L134.077 34.6H132.477ZM147.566 23.02H144.966V30H143.526V23.02H140.926V21.7H147.566V23.02ZM155.903 29C155.077 29.8267 154.03 30.24 152.763 30.24C151.497 30.24 150.443 29.8267 149.603 29C148.777 28.1733 148.363 27.1333 148.363 25.88C148.363 24.6133 148.777 23.5667 149.603 22.74C150.443 21.9133 151.497 21.5 152.763 21.5C154.03 21.5 155.077 21.9133 155.903 22.74C156.743 23.5667 157.163 24.6133 157.163 25.88C157.163 27.1333 156.743 28.1733 155.903 29ZM154.823 23.6C154.263 23.0533 153.577 22.78 152.763 22.78C151.95 22.78 151.257 23.06 150.683 23.62C150.123 24.1667 149.843 24.92 149.843 25.88C149.843 26.84 150.13 27.5933 150.703 28.14C151.277 28.6867 151.963 28.96 152.763 28.96C153.563 28.96 154.25 28.6867 154.823 28.14C155.397 27.5933 155.683 26.84 155.683 25.88C155.683 24.9067 155.397 24.1467 154.823 23.6ZM163.812 30V26.74C163.025 26.86 162.372 26.92 161.852 26.92C160.945 26.92 160.272 26.72 159.832 26.32C159.365 25.9067 159.132 25.2267 159.132 24.28V21.7H160.572V24.08C160.572 24.5333 160.632 24.86 160.752 25.06C160.938 25.42 161.358 25.6 162.012 25.6C162.598 25.6 163.198 25.54 163.812 25.42V21.7H165.252V30H163.812ZM167.965 30V21.7H169.405V25.1H173.325V21.7H174.765V30H173.325V26.42H169.405V30H167.965ZM184.497 29C183.671 29.8267 182.624 30.24 181.357 30.24C180.091 30.24 179.037 29.8267 178.197 29C177.371 28.1733 176.957 27.1333 176.957 25.88C176.957 24.6133 177.371 23.5667 178.197 22.74C179.037 21.9133 180.091 21.5 181.357 21.5C182.624 21.5 183.671 21.9133 184.497 22.74C185.337 23.5667 185.757 24.6133 185.757 25.88C185.757 27.1333 185.337 28.1733 184.497 29ZM183.417 23.6C182.857 23.0533 182.171 22.78 181.357 22.78C180.544 22.78 179.851 23.06 179.277 23.62C178.717 24.1667 178.437 24.92 178.437 25.88C178.437 26.84 178.724 27.5933 179.297 28.14C179.871 28.6867 180.557 28.96 181.357 28.96C182.157 28.96 182.844 28.6867 183.417 28.14C183.991 27.5933 184.277 26.84 184.277 25.88C184.277 24.9067 183.991 24.1467 183.417 23.6Z" fill="#59443F"/>
<path fill-rule="evenodd" clip-rule="evenodd" d="M11 22.5C11 15.6075 16.6075 10 23.5 10C30.3925 10 36 15.6075 36 22.5C36 29.3925 30.3925 35 23.5 35C16.6075 35 11 29.3925 11 22.5ZM13.6595 22.5004C13.6595 27.9265 18.0741 32.3406 23.4999 32.3406C28.9258 32.3406 33.3404 27.9265 33.3404 22.5004C33.3404 17.0743 28.9258 12.6602 23.4999 12.6602C18.0741 12.6602 13.6595 17.0743 13.6595 22.5004Z" fill="#FFC59E"/>
<path d="M30.0149 22.1141H24.3973V15.3598C24.3973 14.7914 23.9365 14.3306 23.3681 14.3306C22.7997 14.3306 22.3389 14.7914 22.3389 15.3598V23.1433C22.3389 23.7117 22.7997 24.1726 23.3681 24.1726H30.0149C30.5833 24.1726 31.0441 23.7117 31.0441 23.1433C31.0441 22.575 30.5833 22.1141 30.0149 22.1141Z" fill="#FFC59E"/>
</svg>
