<svg width="384" height="46" viewBox="0 0 384 46" fill="none" xmlns="http://www.w3.org/2000/svg">
<path d="M70.64 30.32L69.52 29.5L72.58 25.24C72.1933 25.36 71.8 25.42 71.4 25.42C70.1333 25.42 69.0933 25 68.28 24.16C67.48 23.32 67.08 22.2733 67.08 21.02C67.08 19.6867 67.5067 18.5933 68.36 17.74C69.2267 16.8733 70.3267 16.44 71.66 16.44C72.6467 16.44 73.5 16.68 74.22 17.16C74.9533 17.6267 75.48 18.2 75.8 18.88C76.12 19.5467 76.28 20.2467 76.28 20.98C76.28 22.0067 75.9133 23.0267 75.18 24.04L70.64 30.32ZM71.68 17.8C70.7733 17.8 70.0267 18.1067 69.44 18.72C68.8533 19.32 68.56 20.0733 68.56 20.98C68.56 21.8733 68.8533 22.6133 69.44 23.2C70.04 23.7733 70.7933 24.06 71.7 24.06C72.6067 24.06 73.3467 23.7667 73.92 23.18C74.5067 22.5933 74.8 21.86 74.8 20.98C74.8 20.0733 74.5067 19.32 73.92 18.72C73.3467 18.1067 72.6 17.8 71.68 17.8ZM83.5794 16.34L84.6994 17.18L81.6394 21.44C82.0127 21.32 82.406 21.26 82.8194 21.26C84.086 21.26 85.1194 21.68 85.9194 22.52C86.7327 23.36 87.1394 24.4067 87.1394 25.66C87.1394 26.9933 86.706 28.0933 85.8394 28.96C84.986 29.8133 83.8927 30.24 82.5594 30.24C81.5727 30.24 80.7127 30.0067 79.9794 29.54C79.2594 29.06 78.7394 28.4867 78.4194 27.82C78.0994 27.14 77.9394 26.4333 77.9394 25.7C77.9394 24.6867 78.306 23.6667 79.0394 22.64L83.5794 16.34ZM82.5394 28.88C83.446 28.88 84.1927 28.58 84.7794 27.98C85.366 27.3667 85.6594 26.6067 85.6594 25.7C85.6594 24.8067 85.3594 24.0733 84.7594 23.5C84.1727 22.9133 83.426 22.62 82.5194 22.62C81.6127 22.62 80.866 22.9133 80.2794 23.5C79.706 24.0867 79.4194 24.82 79.4194 25.7C79.4194 26.6067 79.706 27.3667 80.2794 27.98C80.866 28.58 81.6194 28.88 82.5394 28.88ZM102.515 30H93.8945L98.7545 24.38C99.5812 23.4067 100.101 22.76 100.315 22.44C100.808 21.7333 101.055 21.0533 101.055 20.4C101.055 19.64 100.808 19.02 100.315 18.54C99.8212 18.0467 99.1812 17.8 98.3945 17.8C97.4345 17.8 96.6945 18.1933 96.1745 18.98C95.8945 19.4067 95.7479 19.9333 95.7345 20.56H94.2545C94.3079 19.4267 94.6412 18.5067 95.2545 17.8C96.0545 16.8933 97.1079 16.44 98.4145 16.44C99.6012 16.44 100.581 16.82 101.355 17.58C102.141 18.3267 102.535 19.2733 102.535 20.42C102.535 21.3133 102.181 22.2667 101.475 23.28C101.115 23.7733 100.508 24.5133 99.6545 25.5L96.8745 28.64H102.515V30ZM113.12 30H104.5L109.36 24.38C110.187 23.4067 110.707 22.76 110.92 22.44C111.413 21.7333 111.66 21.0533 111.66 20.4C111.66 19.64 111.413 19.02 110.92 18.54C110.427 18.0467 109.787 17.8 109 17.8C108.04 17.8 107.3 18.1933 106.78 18.98C106.5 19.4067 106.353 19.9333 106.34 20.56H104.86C104.913 19.4267 105.247 18.5067 105.86 17.8C106.66 16.8933 107.713 16.44 109.02 16.44C110.207 16.44 111.187 16.82 111.96 17.58C112.747 18.3267 113.14 19.2733 113.14 20.42C113.14 21.3133 112.787 22.2667 112.08 23.28C111.72 23.7733 111.113 24.5133 110.26 25.5L107.48 28.64H113.12V30ZM124.175 30.32L123.055 29.5L126.115 25.24C125.728 25.36 125.335 25.42 124.935 25.42C123.668 25.42 122.628 25 121.815 24.16C121.015 23.32 120.615 22.2733 120.615 21.02C120.615 19.6867 121.042 18.5933 121.895 17.74C122.762 16.8733 123.862 16.44 125.195 16.44C126.182 16.44 127.035 16.68 127.755 17.16C128.488 17.6267 129.015 18.2 129.335 18.88C129.655 19.5467 129.815 20.2467 129.815 20.98C129.815 22.0067 129.448 23.0267 128.715 24.04L124.175 30.32ZM125.215 17.8C124.308 17.8 123.562 18.1067 122.975 18.72C122.388 19.32 122.095 20.0733 122.095 20.98C122.095 21.8733 122.388 22.6133 122.975 23.2C123.575 23.7733 124.328 24.06 125.235 24.06C126.142 24.06 126.882 23.7667 127.455 23.18C128.042 22.5933 128.335 21.86 128.335 20.98C128.335 20.0733 128.042 19.32 127.455 18.72C126.882 18.1067 126.135 17.8 125.215 17.8ZM139.78 30H131.16L136.02 24.38C136.847 23.4067 137.367 22.76 137.58 22.44C138.073 21.7333 138.32 21.0533 138.32 20.4C138.32 19.64 138.073 19.02 137.58 18.54C137.087 18.0467 136.447 17.8 135.66 17.8C134.7 17.8 133.96 18.1933 133.44 18.98C133.16 19.4067 133.013 19.9333 133 20.56H131.52C131.573 19.4267 131.907 18.5067 132.52 17.8C133.32 16.8933 134.373 16.44 135.68 16.44C136.867 16.44 137.847 16.82 138.62 17.58C139.407 18.3267 139.8 19.2733 139.8 20.42C139.8 21.3133 139.447 22.2667 138.74 23.28C138.38 23.7733 137.773 24.5133 136.92 25.5L134.14 28.64H139.78V30Z" fill="#59443F"/>
<path d="M35.4395 30.7291L31.5787 26.8678C30.8097 26.1019 29.5362 26.1251 28.7404 26.9212L26.7953 28.8659C26.6724 28.7982 26.5452 28.7275 26.4114 28.6524C25.1831 27.9718 23.5019 27.039 21.7329 25.2686C19.9585 23.4945 19.0248 21.8107 18.3422 20.5816C18.2701 20.4514 18.2011 20.3259 18.1329 20.2066L19.4384 18.9031L20.0802 18.2605C20.8772 17.4633 20.8992 16.1901 20.132 15.422L16.2711 11.5603C15.5039 10.7932 14.2298 10.8164 13.4328 11.6137L12.3447 12.7081L12.3744 12.7376C12.0096 13.2031 11.7047 13.7401 11.4778 14.3191C11.2686 14.8703 11.1384 15.3963 11.0789 15.9233C10.5691 20.1497 12.5004 24.0123 17.7418 29.2537C24.987 36.4984 30.8256 35.9511 31.0775 35.9244C31.6261 35.8588 32.1518 35.7277 32.6861 35.5202C33.2601 35.296 33.7967 34.9915 34.262 34.6274L34.2858 34.6486L35.3881 33.5691C36.1835 32.772 36.2064 31.4985 35.4395 30.7291Z" fill="#FFC59E"/>
</svg>
